<svg xmlns="http://www.w3.org/2000/svg" viewBox="0 0 1366.3 269.49"><defs><style>.cls-1{isolation:isolate;}.cls-2{fill:#16713b;}.cls-3{fill:#528b31;}.cls-3,.cls-5,.cls-7{mix-blend-mode:multiply;}.cls-4{fill:#eaeaea;}.cls-6,.cls-7{fill:#e2e2e2;}</style></defs><g class="cls-1"><g id="Layer_2" data-name="Layer 2"><g id="bg_trees" data-name="bg trees"><path class="cls-2" d="M173.7,223.23c.43-.22-10.81-10.12-15.8-16.3A36.56,36.56,0,0,0,171,205.37c1.06-.32-16.22-17.75-23.47-25.84,2.4,1.43,11.5,6.18,14.1,6.69,1.29.25-14.23-15.81-17.65-20.36a24.6,24.6,0,0,0,15.54,1.73c1.12-.23-16-21.46-23.31-30.86a24.37,24.37,0,0,0,13.24.46c1.2-.31-8.36-7.5-11.46-10.48a22.47,22.47,0,0,0,16.1.6c1-.36-11.79-12.84-20.5-22.92,3.15-.06,6.55-.66,9-2.72,0,0,.2-.21.11-.26-9.91-5.57-19.67-12.36-26.06-22.14,6.26,6.94,14.89,9,21.92,6.88.07,0,.09-.08.13-.12-.53-.38-1.06-.77-1.59-1.18-4.29-3.28-18.57-17.49-21.81-21.29a16.12,16.12,0,0,0,6.37,1.82,42.72,42.72,0,0,1-6.79-8.23A50.4,50.4,0,0,1,109,49.42c-2-3.33-5.39-9.89-6.66-11.46,4.27,5.29,9,10.41,14.49,10.38l.06,0C104.81,38,95.8,21,88.73,4.3,85.23,11.88,81,19,77,25.85c-4.93,8.44-10.35,16.71-17.08,22.42a.65.65,0,0,0,.29.07c5.49,0,10.22-5.09,14.5-10.38-1.28,1.57-4.62,8.13-6.67,11.46-3.55,5.75-13.65,16-13,16a16.08,16.08,0,0,0,6.68-1.85c-6.9,8.09-24.2,22.3-23.28,22.59,7.29,2.25,16.3-.09,22.62-7.65-.39.57-.8,1.1-1.13,1.61-1.1,1.68-2.17,3.38-3.31,5a82.7,82.7,0,0,1-7.11,9.29c-4.92,5.43-11,9.89-18,11.9,0,0-.26.24-.16.28A17.4,17.4,0,0,0,40.25,108C31.93,117.2,22,127,22.93,127.31a22.47,22.47,0,0,0,16.1-.6c-3.1,3-12.66,10.17-11.46,10.48a24.37,24.37,0,0,0,13.24-.46c-7.3,9.4-24.44,30.63-23.31,30.86A24.6,24.6,0,0,0,33,165.86c-3.41,4.55-18.26,18.58-17,18.33,2.61-.5,11-3.23,13.43-4.66C22.24,187.62,5,205.05,6,205.37a37.12,37.12,0,0,0,21.14.2l-1.09.89c-7.75,6.45-26.92,17.08-26,17.82,7.89,6.54,21.79,2.2,30.25-.12l.84-.24c-5.64,6.14-20.6,18.23-19.49,18.35,11.12,1.26,22.55-1.81,33.36-8.14l-.33.38c-.28.36-10.26,8.77-9.17,9,4.36.84,17.57-5.13,22.19-7.3-1.48,1.84-7,9.37-5.5,9.14a47.35,47.35,0,0,0,19-7.93c-1.12,1.86-3.16,7.11-2.6,7,6.16-.76,12.32-5.62,18-9.31-1,2.58-2.83,8.71-2.21,8.63,5.9-.76,12.21-5.67,17.33-12.09,3.47,6.18,7.77,11.58,13.12,14.67.74.42,1.31-8.78,1.12-12.05,5.57,8.86,13.47,14.53,22.15,11.88.68-.22-2.57-9.53-4.16-13.11,1.56,1.55,3.14,3.08,4.76,4.52,8.78,4,17.83,5.71,26.71,4.7,1.1-.12-14.28-12.36-20-18.88-1-1.16-2-2.33-3-3.5a35.22,35.22,0,0,0,7.47,3C157.77,225,166,227.25,173.7,223.23Z"/><path class="cls-3" d="M173.7,223.23c.43-.22-10.81-10.12-15.8-16.3A36.56,36.56,0,0,0,171,205.37c1.06-.32-16.22-17.75-23.47-25.84,2.4,1.43,11.5,6.18,14.1,6.69,1.29.25-14.23-15.81-17.65-20.36a24.6,24.6,0,0,0,15.54,1.73c1.12-.23-16-21.46-23.31-30.86a24.37,24.37,0,0,0,13.24.46c1.2-.31-8.36-7.5-11.46-10.48a22.47,22.47,0,0,0,16.1.6c1-.36-11.79-12.84-20.5-22.92,3.15-.06,6.55-.66,9-2.72,0,0,.2-.21.11-.26-9.91-5.57-19.67-12.36-26.06-22.14,6.26,6.94,14.89,9,21.92,6.88.07,0,.09-.08.13-.12-.53-.38-1.06-.77-1.59-1.18-4.29-3.28-18.57-17.49-21.81-21.29a16.12,16.12,0,0,0,6.37,1.82,42.72,42.72,0,0,1-6.79-8.23A50.4,50.4,0,0,1,109,49.42c-2-3.33-5.39-9.89-6.66-11.46,4.27,5.29,9,10.41,14.49,10.38l.06,0c-12-10.19-21-27-28-43.56a58,58,0,0,0,2.36,14.52A55.78,55.78,0,0,0,99,35c.15.21-.13.47-.33.34-3-1.91-6.67-4.18-8.3-7.59.16,2.11.24,4.24.42,6.35a.23.23,0,0,1-.4.18A16.44,16.44,0,0,1,87,29.34a9.66,9.66,0,0,1-1.88,4.71.24.24,0,0,1-.4-.11,15.81,15.81,0,0,1-.35-4.15c-.5.88-1.07,1.71-1.61,2.57-1.55,2.45-2.82,5.27-5.24,6.93a.24.24,0,0,1-.35-.28c.77-2.68,1.82-5.46,2-8.28a13.5,13.5,0,0,1-5,5.29c-.16.09-.43-.06-.35-.28.55-1.49,1.38-2.86,1.93-4.35-4.44,6.18-8.87,12.5-15,16.93C66.05,48,70.59,43.05,74.7,38c-1.28,1.57-4.62,8.13-6.67,11.46-3.55,5.75-13.65,16-13,16l.3,0a42.37,42.37,0,0,0,8.35-7,44.11,44.11,0,0,0,8-11.16c.14-.29.54,0,.41.25a44.28,44.28,0,0,1-4.77,8.37c4.15-2.06,7.35-5.92,10.6-9.22a.24.24,0,0,1,.37.31c-.65,1.27-1.25,2.58-1.93,3.83,2-1.48,3.43-3.61,5.18-5.35a.23.23,0,0,1,.39.24c-.38,1.75-1.15,3.43-1.36,5.22,2-2.27,3.35-5,5.06-7.46a.24.24,0,0,1,.43.2,31.69,31.69,0,0,0-1.28,6.9c-.13,2-.19,4.33.75,6.17,1.45-4.28,2.72-8.66,5.39-12.31a.24.24,0,0,1,.44.19,13.51,13.51,0,0,0-.6,4.5C92,47.42,92.42,45.26,94,43.82a.24.24,0,0,1,.4.18,27.29,27.29,0,0,0,3,11.88c.38.79.77,1.56,1.19,2.33a44.3,44.3,0,0,1-1.15-11.9.24.24,0,0,1,.47-.07C99.42,51,101,55.84,103.75,60c2.45,3.72,5.64,6.85,8,10.65a.25.25,0,0,1-.26.37c-3.46-1-6-3.8-8.38-6.51,1.42,2.65,3.32,5,4.77,7.63a.25.25,0,0,1-.27.37,26.67,26.67,0,0,1-7.6-3.23,16.71,16.71,0,0,1-2-1.51,42.25,42.25,0,0,0,1.84,5c.11.25-.19.54-.37.31-2.07-2.54-4.33-5.18-5.33-8.38a53.5,53.5,0,0,1-.86,7c0,.27-.38.21-.46,0A14,14,0,0,1,92,67.18C91,70,90,73,87.82,75a.24.24,0,0,1-.39-.24c.3-1.52.67-3,1-4.55-3.45,4.88-8.16,9-13.73,10.43-.19,0-.41-.18-.28-.37a84.38,84.38,0,0,0,5.1-7.94,39,39,0,0,1-3.78,2.73c-2.14,1.34-4.38,2.63-6.63,3.78-1.73.88-3.81,1.95-5.78,1.53a.26.26,0,0,1-.14-.37c1.11-1.88,2.78-3.24,4.06-5a21.3,21.3,0,0,0,1.84-3.35,7.83,7.83,0,0,1-4.66,2.72c-.22,0-.3-.27-.17-.42A20.37,20.37,0,0,0,67,69.38c-4.87,5.71-11.67,9.19-17.92,13a36.67,36.67,0,0,1-6.89,3.31,10.57,10.57,0,0,1-3,.69c7.17,1.93,15.85-.49,22-7.83-.39.57-.8,1.1-1.13,1.61-1.1,1.68-2.17,3.38-3.31,5a87.23,87.23,0,0,1-6,8L50.9,93c1.35-.79,2.7-1.62,4-2.51,3-2.07,5.74-4.58,9.08-6,.21-.09.35.2.26.37-1.6,3.27-4.53,5.37-6.75,8.12,6.31-.83,12.12-3.75,18-6.18.22-.09.41.26.23.42-1.1,1-2.3,1.93-3.4,3,2.16-.54,4-2,6-3.08.27-.15.49.26.24.43A31.06,31.06,0,0,0,75,90.84c-1,.91-7.54,4.92-9.18,6.91,1.77.1,8.94-2.92,10.81-3.78A92,92,0,0,0,90,86.6c.24-.16.46.18.29.39L87.44,90.3C89.72,89.24,91.53,87,93,85c.14-.18.39,0,.41.18a44.51,44.51,0,0,0,2,11.22c0-.3,0-.59,0-.89a71.92,71.92,0,0,1,1-9,.23.23,0,0,1,.43-.06c1.21,2.45,2.08,5.11,3.59,7.38a35.93,35.93,0,0,1-.15-10,.24.24,0,0,1,.46,0,19.25,19.25,0,0,0,2.47,5.91c-.11-2.21-.49-4.43.17-6.59a.24.24,0,0,1,.46,0,38.37,38.37,0,0,0,6.87,11.45c2.77,3.21,5.93,6,8.56,9.37.15.19,0,.48-.22.42a28.17,28.17,0,0,1-8.12-3.59c1.7,5,5.75,9.11,9.5,12.27a.25.25,0,0,1-.16.43,17.85,17.85,0,0,1-7.27-2.09,19.07,19.07,0,0,1-5.67-4.15c.3,1.86.79,3.67,1.16,5.52a.24.24,0,0,1-.4.24,13.15,13.15,0,0,1-2.8-4.36,56,56,0,0,0,1.13,9.83.24.24,0,0,1-.4.24,15.44,15.44,0,0,1-4.63-8.41,61.37,61.37,0,0,0-3,11,.23.23,0,0,1-.39.11c-2-2.41-2.67-5.57-3.06-8.75a36,36,0,0,1-3.37,3.28c-2.56,2.22-5.3,5.09-8.71,5.67a.25.25,0,0,1-.29-.31,17.42,17.42,0,0,1,2.18-3.73A17.94,17.94,0,0,0,86,115.1c-2,2.36-4.82,4.05-7.34,5.5-.2.12-.48-.13-.33-.34a35.82,35.82,0,0,0,2.83-5.34,49.43,49.43,0,0,1-6.82,4.26c-2.8,1.46-5.73,2.71-8.63,3.95-2.74,1.17-5.73,2.42-8.74,2.26a.25.25,0,0,1-.17-.42c2.39-2.6,5.32-4.56,7.83-7-3.75,2.21-7.56,4.46-11.86,5.13a.26.26,0,0,1-.18-.47c2.63-2,5.32-3.89,7.81-6-.47.25-1,.49-1.44.73-1.61.79-3.26,1.49-4.92,2.16a10.15,10.15,0,0,1-4.69,1,.26.26,0,0,1-.17-.43c3.35-3.4,6.74-6.77,9.77-10.5-2.75,1.88-5.18,4.25-7.93,6.14a74,74,0,0,1-10.19,5.82A96,96,0,0,1,30.19,126a24,24,0,0,1-7.14,1.37,22.52,22.52,0,0,0,16-.64c-3.1,3-12.66,10.17-11.46,10.48a24.37,24.37,0,0,0,13.24-.46c-2.33,3-5.67,7.22-9.1,11.57a27.18,27.18,0,0,0,8.43-3.52c3.61-2.11,7-4.64,10.58-6.74.2-.11.48.13.33.35a46.6,46.6,0,0,1-6.56,7c4.24-1.09,7.7-4.09,11.47-6.3a.25.25,0,0,1,.29.4c-3.6,3.41-7.1,7-11.28,9.56a37.61,37.61,0,0,0,12.81-2.87,64.27,64.27,0,0,0,12.71-6.68c.19-.13.46.14.32.34-1.25,1.85-2.73,3.5-4,5.31,2.75-1.05,4.76-3.46,7-5.41.16-.14.49,0,.4.25a35.55,35.55,0,0,1-8.22,12.72,28.13,28.13,0,0,0,7.57-3.93c3.33-2.27,6.46-4.9,10-6.84a.25.25,0,0,1,.32.35c-1.2,2-2.34,4-3.44,6.11,3.06-2.07,5.19-5.35,7.72-8.05a.24.24,0,0,1,.4.18c.19,3,.32,6.32,2,8.84.78-2.71.89-5.56,1.59-8.29a.24.24,0,0,1,.46,0c.91,2.61,2.25,5.23,4.62,6.61.3-2.27,0-4.58.54-6.82a.24.24,0,0,1,.44-.06,18.33,18.33,0,0,0,3.07,4.91c.07-1.59-.2-3.18-.22-4.78a.23.23,0,0,1,.46-.07c1.4,3.78,5.19,5.9,8.48,7.63.15-2.7-1.29-5.23-1-8,0-.19.25-.36.41-.18a37.07,37.07,0,0,0,7.44,7,27.3,27.3,0,0,0,6.8,3.27,33,33,0,0,1-1.2-3.13c-1.08-3.24-1.89-6.86-1.24-10.29a.24.24,0,0,1,.44,0c4.89,7.94,9,16.61,16.76,21.92.22.15.08.57-.18.46a40.18,40.18,0,0,1-8.37-4.89,77.5,77.5,0,0,0,14.56,14.83c.15.11.17.42-.06.46a24.7,24.7,0,0,1-13.84-1.84,32.85,32.85,0,0,1-5.35-2.8,40.88,40.88,0,0,0,5,6.69c3.05,3.27,7,5.51,9.87,9a.26.26,0,0,1,0,.39c-2.46,1.35-5.73.56-8.26-.14a67.23,67.23,0,0,1-8.09-2.9,45.28,45.28,0,0,1-6.9-3.52c1.36,2.29,2.75,4.56,4.15,6.83.13.21-.13.48-.33.34-2.64-1.85-5.71-3.74-7.9-6.33a31,31,0,0,0,3.84,6.61c1.89,2.35,4.69,4,5.94,6.92a.25.25,0,0,1-.2.38c-2.38,0-4.66-1.49-6.58-2.82-2.17-1.49-4.19-3.19-6.23-4.86a34.74,34.74,0,0,1-8.3-9.56,46.28,46.28,0,0,0,1.39,10.6.24.24,0,0,1-.4.25,16.67,16.67,0,0,1-5.4-8.61,83.25,83.25,0,0,0-.4,14.55.23.23,0,0,1-.4.17,35.55,35.55,0,0,1-4.84-8,23.59,23.59,0,0,1-1-2.63,39.94,39.94,0,0,1-4.19,4.7,21.46,21.46,0,0,1-7.21,5c-.18.07-.39-.2-.27-.37a32.42,32.42,0,0,0,2.85-4.95,28.45,28.45,0,0,1-2.51,2.84,16.12,16.12,0,0,1-5.49,3.91.25.25,0,0,1-.3-.31,36.21,36.21,0,0,1,1.67-4.12,60.83,60.83,0,0,1-8.31,5.86c-2.85,1.71-5.78,3.26-8.75,4.72-2.73,1.35-5.7,2.72-8.78,2.62a.25.25,0,0,1-.12-.46c6.48-3.38,11.91-8.55,16.74-14.24-1.89,1.2-3.86,2.27-5.83,3.3-5.06,2.63-10.31,5.6-16,6.5a.26.26,0,0,1-.19-.46A62.61,62.61,0,0,0,49,188c-2.85,2-5.63,4-8.62,5.72-3.27,1.89-6.88,3.62-10.69,3.55-.18,0-.34-.29-.17-.43,4.07-3.34,8.38-6.39,11.51-10.72A134.14,134.14,0,0,1,22.3,198.73c-4.76,2.51-9.69,5.68-15,7a37.23,37.23,0,0,0,19.82-.19l-1.09.89c-6.15,5.11-19.47,12.86-24.28,16.22a46.87,46.87,0,0,0,16.3-3.37,203,203,0,0,0,18.51-8.48.24.24,0,0,1,.28.39,47.23,47.23,0,0,1-9.24,7.67c10.32-.82,19.23-7.09,28.78-10.74.18-.07.37.19.26.37-2.15,3.41-5.2,5.72-8.32,8,3.77,0,7.56-1.49,10.92-3.1a94.08,94.08,0,0,0,11.6-6.84.24.24,0,0,1,.36.21,14.22,14.22,0,0,1-2.81,6.71c2.24-1.24,3.94-3.39,5.7-5.25a.24.24,0,0,1,.4.24c-1.14,3-3.47,5.22-5.51,7.6,5.26-1.79,9.77-5.67,14.26-8.9.19-.13.39.08.35.29a11.68,11.68,0,0,1-3.74,5.87c-1.65,1.6-3.6,3.14-4.6,5.3,6.28-1.77,11.7-5.76,17.1-9.42a.23.23,0,0,1,.35.15,18,18,0,0,0,2,5.69,53.37,53.37,0,0,1,1.64-6.71.23.23,0,0,1,.45,0c.84,4,3.63,7.22,6,10.42.36-4.14.66-8.35,2.49-12.11a.24.24,0,0,1,.44.06c1.33,4.85,4.18,8.62,7.42,12.1,0-3.38.54-6.81.44-10.2a.23.23,0,0,1,.46-.07,27.77,27.77,0,0,0,3.76,9.27c-.18-4.07-.34-8.15,1.23-12a.24.24,0,0,1,.44.06c1.44,10.7,6.05,20.69,11.21,29.91.12.21-.12.48-.32.35a29.16,29.16,0,0,1-7.26-7.27,87.31,87.31,0,0,0,3.71,10.19c.09.2-.12.5-.33.34-5.17-3.89-10.49-8.16-13.08-14.43a90.47,90.47,0,0,0-.12,15.44c0,.24-.26.29-.4.17-3.54-3.09-5.53-7.45-7.92-11.47-.65-1.09-1.21-2.24-1.76-3.38a39,39,0,0,1-2.5,3.6c-2.12,2.7-5,5.83-8.58,6-.2,0-.27-.21-.2-.37a59.86,59.86,0,0,0,2.28-6.73l-.16.18c-1.34,1.47-3,3.07-5,3.26-.23,0-.28-.28-.17-.43a31.76,31.76,0,0,0,4.39-9.32,51.51,51.51,0,0,1-6.88,8.31,31,31,0,0,1-10.06,6.93c-.21.08-.36-.19-.27-.37a69,69,0,0,0,3.84-9.57,69,69,0,0,1-7,6c-3.78,2.77-8.21,5.29-13,5a.26.26,0,0,1-.17-.43c3.13-2.84,4.92-7,6.14-11.19a59.42,59.42,0,0,1-7.06,6.13c-3.64,2.66-7.91,5.14-12.47,5.08a.24.24,0,0,1-.2-.37,116.88,116.88,0,0,0,5.56-12.54C40,232.61,27.16,240.81,13.12,242.41c10.66.83,21.54-2.23,31.87-8.28l-.33.38c-.28.36-10.26,8.77-9.17,9,4.36.84,17.57-5.13,22.19-7.3-1.48,1.84-7,9.37-5.5,9.14a47.35,47.35,0,0,0,19-7.93c-1.12,1.86-3.16,7.11-2.6,7,6.16-.76,12.32-5.62,18-9.31-1,2.58-2.83,8.71-2.21,8.63,5.9-.76,12.21-5.67,17.33-12.09,3.47,6.18,7.77,11.58,13.12,14.67.74.42,1.31-8.78,1.12-12.05,5.57,8.86,13.47,14.53,22.15,11.88.68-.22-2.57-9.53-4.16-13.11,1.56,1.55,3.14,3.08,4.76,4.52,8.78,4,17.83,5.71,26.71,4.7,1.1-.12-14.28-12.36-20-18.88-1-1.16-2-2.33-3-3.5a35.22,35.22,0,0,0,7.47,3C157.77,225,166,227.25,173.7,223.23Z"/><path class="cls-4" d="M97.83,17.21C96.39,13.36,94.64,9.66,93,5.92,92.61,5.13,91.27,0,90,0c-2.69,0-4.9,3.92-5.75,6.23C81.72,13,79.33,19.73,76,26a1.47,1.47,0,0,0-.71.69c-1.35,2.78-2.87,4.69-1.86,7.76.12.37.62,0,.77-.09a18.44,18.44,0,0,0,3.15-3.61c.77-1.08,6.7-9.58,7.14-6.1.29,2.25,2.56,5.85,4.8,2.92A9.21,9.21,0,0,0,90.92,24c1.06-4.29,2.8-1,3.81,1.23.75,1.67,3.25,5.35,5,2.48S98.78,19.75,97.83,17.21Z"/><g class="cls-5"><path class="cls-6" d="M95.31,19c-1-2.24-2.75-5.52-3.81-1.23a9.09,9.09,0,0,1-1.68,3.63c-2.23,2.93-4.5-.67-4.79-2.92-.45-3.47-6.37,5-7.14,6.1a18.78,18.78,0,0,1-3.15,3.61,1.82,1.82,0,0,1-.38.22c-1,1.94-1.76,3.63-1,6,.12.37.62,0,.77-.09a18.44,18.44,0,0,0,3.15-3.61c.77-1.08,6.7-9.58,7.14-6.1.29,2.25,2.56,5.85,4.8,2.92A9.21,9.21,0,0,0,90.92,24c1.06-4.29,2.8-1,3.81,1.23.75,1.67,3.25,5.35,5,2.48.88-1.43.59-3.47,0-5.46C98,23.62,96,20.53,95.31,19Z"/></g><path class="cls-4" d="M94.34,61.21c-2.15,2.55-4.25,4.81-7.57,2.66-1.19-.78-1.88-2.69-3.25-3.13-2.88-.92-5.85,3.63-7.82,5.27-1.75,1.47-7.71,4.9-7.23-.42.18-2,.66-3.88.74-5.88s-1.4-4.19-3.38-2.41a6.69,6.69,0,0,0-1.46,2.6c-.06.15-.14.27-.2.41a.54.54,0,0,0-.24.23,21.24,21.24,0,0,1-1.19,2c-1.6,1.89-3.75,3.21-5.57,4.91-.3.28-.71,1.59-.3,1.59-3,2.62-6.4,4.91-9.37,7.13s-8.46,5.5-9.57,9.34,4,3,5.85,2.53c6.06-1.61,11.12-5.89,16.32-9.29a42,42,0,0,1,5.56-2.06c-.37.8-.88,1.54-1.26,2.34a5.19,5.19,0,0,0-.81,2.55c.36,3.09,7.55-1.91,8.25-2.4S79,73.42,78.35,76.3c-.1.5-.56,2,.11,2.4,2.92,1.75,6.17-2.37,8.17-4.24,2.41-2.25,5-6.32,8.64-3.62,1.54,1.15,2.81,2.18,4.75,2,1.75-.12,2.47-2.37,2.59-3.86C103,64.69,98.68,56,94.34,61.21Z"/><g class="cls-5"><path class="cls-6" d="M97.83,66.07c-3.62-2.7-6.24,1.36-8.64,3.61-2,1.87-5.25,6-8.17,4.24-.67-.4-.21-1.9-.11-2.4.61-2.88-5.75,2.35-6.52,2.89s-7.88,5.5-8.24,2.41A5.16,5.16,0,0,1,67,74.26c.38-.8.89-1.53,1.26-2.34A42,42,0,0,0,62.66,74c-5.21,3.4-10.27,7.69-16.33,9.29-1.66.44-5.86,1.07-6-1.47a9.42,9.42,0,0,0-2.42,3.72c-1.09,3.76,4,3,5.85,2.53,6.06-1.61,11.12-5.89,16.32-9.29a42,42,0,0,1,5.56-2.06c-.37.8-.88,1.54-1.26,2.34a5.19,5.19,0,0,0-.81,2.55c.36,3.09,7.55-1.91,8.25-2.4S79,73.42,78.35,76.3c-.1.5-.56,2,.11,2.4,2.92,1.75,6.17-2.37,8.17-4.24,2.41-2.25,5-6.32,8.64-3.62,1.54,1.15,2.81,2.18,4.75,2,1.75-.12,2.47-2.37,2.59-3.86a5.72,5.72,0,0,0,0-.93h0C100.63,68.24,99.36,67.22,97.83,66.07Z"/></g><path class="cls-4" d="M135.88,95.17c-4.9-1.6-9.95-2.45-14.76-4.38-1.65-.66-4.26-2-6-1.06-2.92,1.59-1.91,5.13-1.28,7.82a23.2,23.2,0,0,1,.51,3c.36,3.41-3.46,1.9-4.88.84-2.62-2-4-4.22-7.36-4.77a3.17,3.17,0,0,0-3.22,1.81,7.92,7.92,0,0,0-.59,1.92c0,.36-.06.72-.07,1.08,0,.56,0,8.11-3.8,3.36-1.75-2.2-5.35-9.52-8.26-4.6-2.1,3.53-5.32,11.45-10.47,9.12-2.59-1.18-.08-8.54-.74-11-.11-.41-.7-.08-.85.07-3.06,2.93-4.83,6.64-6.71,10.36-3.67,4.05-7.67,7.85-10.17,12.87s2.86,5.34,6.12,3.87,6.16-4,8.9-6.3c1.24-1,2.47-2.11,3.71-3.16,2-1.73,1.88-1.64,2.29,1.1.33,2.23,1.51,6.43,4.56,5.52,2.75-.81,4.14-3.34,5.59-5.75,2.81-4.7,5.22-3,7.41-.09a11.91,11.91,0,0,0,5,3.59,7.15,7.15,0,0,0,8-1.74c2.19-2.15,2-5.26,2.19-8.14.23-3.19,5.55.83,6.3,1.19a21.28,21.28,0,0,0,8.13,1.8c3.72.23,13.34,2.49,15.53-2,1.37-2.82-1.95-5.19-5.44-7.15,3.83,1.4,7.82,2.69,10-.61C148.57,99,138.41,96,135.88,95.17Z"/><path class="cls-7" d="M124.38,109a21.47,21.47,0,0,1-8.12-1.81c-.76-.35-6.08-4.37-6.31-1.18-.2,2.88,0,6-2.18,8.14a7.15,7.15,0,0,1-8,1.73,12,12,0,0,1-5-3.58c-2.19-2.91-4.59-4.61-7.41.08-1.45,2.42-2.84,4.94-5.59,5.76-1.89.57-3.06-.84-3.75-2.53.06.36.13.84.22,1.46.33,2.23,1.51,6.43,4.56,5.52,2.75-.81,4.14-3.34,5.59-5.75,2.81-4.7,5.22-3,7.41-.09a11.91,11.91,0,0,0,5,3.59,7.15,7.15,0,0,0,8-1.74c2.19-2.15,2-5.26,2.19-8.14.23-3.19,5.55.83,6.3,1.19a21.28,21.28,0,0,0,8.13,1.8c3.72.23,13.34,2.49,15.53-2,.74-1.52.09-2.91-1.2-4.18C137.28,111.39,128,109.24,124.38,109Z"/><path class="cls-7" d="M74.93,111.53c-1.25,1-2.47,2.13-3.72,3.17-2.74,2.28-5.65,4.84-8.89,6.3a7.92,7.92,0,0,1-5.1.57h0c-2.56,5.12,2.86,5.34,6.12,3.87s6.16-4,8.9-6.3c1.24-1,2.47-2.11,3.71-3.16s1.57-1.33,1.82-1a14.74,14.74,0,0,1-.56-2.31C76.81,109.9,77,109.81,74.93,111.53Z"/><path class="cls-7" d="M144.49,99.18s0,0,0,0c-2.18,3.3-6.17,2-10,.61,2.92,1.63,5.68,3.56,5.72,5.8,2.13.31,4,0,5.31-2C146.64,101.94,145.94,100.43,144.49,99.18Z"/><path class="cls-4" d="M78,115.63a1.5,1.5,0,0,0-.25-.68C77.85,115.18,77.92,115.41,78,115.63Z"/><path class="cls-4" d="M139.74,107.25a2.53,2.53,0,0,0,.18-.27,2.89,2.89,0,0,0,.27-1.35,25.53,25.53,0,0,1-4.69-1.35A20.34,20.34,0,0,1,139.74,107.25Z"/><path class="cls-4" d="M101.32,167.64c-.32-2.83-2.06-4.76-4.78-3.14a21.69,21.69,0,0,0-4.86,4.07,29.43,29.43,0,0,1-4.82,4.52c-1.34.94-.79-3.79-.75-4.38.63-12.18-10.21-4.13-15.06-.71a91.41,91.41,0,0,1-9.83,5.67c-.7.37-5.91,3.73-2.6-.43.73-.91,1.52-1.78,2.25-2.7,1.3-1.65,3.12-5.15,1.28-7.13-3.25-3.48-10,4.21-12.22,6.19-1.69,1.5-6,6.91-8.69,4.24-2.28-2.28,1.42-6.56,2-8.79.54-2,2.81-8.4.39-9.68-3.47-1.84-6.72,7.61-8.31,9.31-3.66,3.91-7.55,7.58-11.41,11.29-2.46,2.36-7.68,6.06-8.12,9.84-.25,2.1,4.68-.84,5-1a84.09,84.09,0,0,0,7.17-5,46.69,46.69,0,0,1,4-2.49c6.45-3.7-1.27,4.59-2.81,5.68-9.07,6.47-18.89,11.09-25.35,20.93-1.14,1.74-1.44,4,.83,4.64,2.92.79,7.17-3.6,9.2-5.29,4.87-4.08,10.48-7.08,15.34-11.19l1.09-.93a7.66,7.66,0,0,1,5.22-2.38,18.49,18.49,0,0,1-1.23,2.33c-.85,1.5-1.73,3-2.5,4.55-3.71,7.55,7.44-.45,9.09-1.91,2.25-2,4.29-4.23,6.46-6.31a35.52,35.52,0,0,1,4.33-3.51c1.23-.84,3.25-.9,4.06-2.22-2,3.32-4.93,5.91-6.73,9.42-.58,1.14-1.06,3.5.8,3.67,3.82.35,7.22-3.18,9.9-5.59,1.92-1.73,3.75-3.54,5.71-5.21-1.2,1-2,3.12-3.33,4.29-.9.76-1.85,1.46-2.77,2.18-3.08,2.4-5.73,5-7,8.85-.07.22-.14.83.24.81,4-.17,7.34-2.91,10.41-5.44,5.34-4.41,10.72-8.87,15.89-13.52A55,55,0,0,0,75.71,186c-.68,1.22-2,3.91-.1,4.63,2.63,1,6.33-2,8.11-3.63a28.87,28.87,0,0,0,3.44-4.32c.73-1,1.43-2.1,2.15-3.14s4.39-4.18,4.5-5.12c-.41,3.69-1,7.42-.13,11.09.52,2.06,3,4,4.85,2.2C103.12,183.15,102,173.58,101.32,167.64Z"/><path class="cls-7" d="M55.19,177.91a34.7,34.7,0,0,0-4.34,3.51c-2.16,2.08-4.2,4.33-6.45,6.31-1.65,1.45-12.81,9.46-9.09,1.91.77-1.56,1.65-3,2.5-4.56A19,19,0,0,0,39,182.76a7.62,7.62,0,0,0-5.22,2.38l-1.1.93c-4.86,4.11-10.47,7.11-15.34,11.18-2,1.7-6.27,6.09-9.2,5.3A2.06,2.06,0,0,1,6.5,200.3a37.31,37.31,0,0,0-2.72,3.63c-1.14,1.74-1.44,4,.83,4.64,2.92.79,7.17-3.6,9.2-5.29,4.87-4.08,10.48-7.08,15.34-11.19l1.09-.93a7.66,7.66,0,0,1,5.22-2.38,18.49,18.49,0,0,1-1.23,2.33c-.85,1.5-1.73,3-2.5,4.55-3.71,7.55,7.44-.45,9.09-1.91,2.25-2,4.29-4.23,6.46-6.31a35.52,35.52,0,0,1,4.33-3.51,10.81,10.81,0,0,1,2.21-.94c1.71-2.51,3.82-4.69,5.43-7.3C58.44,177,56.42,177.07,55.19,177.91Z"/><path class="cls-7" d="M62.82,184.45c.93-.72,1.88-1.42,2.78-2.19C67,181.1,67.72,179,68.92,178c-2,1.67-3.78,3.48-5.7,5.2-2.69,2.42-6.08,5.95-9.91,5.6-1.22-.11-1.42-1.18-1.26-2.22a27.86,27.86,0,0,0-3.11,4.57c-.58,1.14-1.06,3.5.8,3.67,2.37.22,4.58-1.06,6.55-2.64C57.65,188.9,60.06,186.6,62.82,184.45Z"/><path class="cls-4" d="M35.52,171.3a45.14,45.14,0,0,0-4,2.49c-2.36,1.68-4.66,3.55-7.17,5-.31.17-4.71,2.79-5,1.32-1.78,1.76-3.35,3.73-3.58,5.72s4.68-.84,5-1a84.09,84.09,0,0,0,7.17-5,46.69,46.69,0,0,1,4-2.49c.4-.23.74-.41,1-.55C34.94,175.13,41.67,167.76,35.52,171.3Z"/><path class="cls-4" d="M40,157a17.86,17.86,0,0,0-1.35,2l.26-.26A9.89,9.89,0,0,0,40,157Z"/><path class="cls-4" d="M61.75,169.21a9,9,0,0,0,1.07-2.74l-.62.75C60.68,169.12,61,169.44,61.75,169.21Z"/><path class="cls-7" d="M82.4,175.14c-5.16,4.66-10.54,9.11-15.89,13.53-3.07,2.53-6.36,5.27-10.4,5.44-.29,0-.32-.32-.29-.59a14.82,14.82,0,0,0-3.53,5.8c-.07.22-.14.83.24.81,4-.17,7.34-2.91,10.41-5.44,5.27-4.36,10.58-8.75,15.68-13.34a14.15,14.15,0,0,1,.67-1.39A55,55,0,0,1,82.4,175.14Z"/><path class="cls-7" d="M97.26,179.47c-.92-3.67-.28-7.4.12-11.09-.1.94-3.82,4.13-4.5,5.12s-1.41,2.11-2.14,3.14A28.93,28.93,0,0,1,87.29,181c-1.77,1.68-5.48,4.62-8.1,3.63-1.24-.47-1.11-1.77-.68-3a49.52,49.52,0,0,0-2.8,4.35c-.68,1.22-2,3.91-.1,4.63,2.63,1,6.33-2,8.11-3.63a28.87,28.87,0,0,0,3.44-4.32c.73-1,1.43-2.1,2.15-3.14s4.39-4.18,4.5-5.12c-.41,3.69-1,7.42-.13,11.09.52,2.06,3,4,4.85,2.2a11.14,11.14,0,0,0,2.82-5.5C99.65,183,97.71,181.26,97.26,179.47Z"/><path class="cls-4" d="M53.82,183a18.21,18.21,0,0,0-1.3,2.12,5.15,5.15,0,0,0-.47,1.45,48.12,48.12,0,0,0,3.62-4.85A3.39,3.39,0,0,1,53.82,183Z"/><path class="cls-4" d="M78.62,181.35c0,.09-.07.18-.11.28l.32-.46Z"/><path class="cls-4" d="M59.25,190.47c.92-.72,1.87-1.42,2.77-2.18,1.37-1.17,2.13-3.26,3.33-4.29-2,1.67-3.79,3.48-5.71,5.21-1,.91-2.14,2-3.35,2.95-.15.37-.3.75-.43,1.14a1.24,1.24,0,0,0,0,.22A30.67,30.67,0,0,1,59.25,190.47Z"/><path class="cls-2" d="M1366.3,219c.32-.18-8.38-7.84-12.25-12.64a28.45,28.45,0,0,0,10.19-1.2c.81-.25-12.57-13.76-18.19-20,1.86,1.11,8.91,4.79,10.93,5.18,1,.19-11-12.25-13.68-15.77a19.16,19.16,0,0,0,12,1.34c.87-.18-12.41-16.63-18.06-23.91a18.84,18.84,0,0,0,10.25.35c.93-.24-6.47-5.81-8.87-8.12a17.42,17.42,0,0,0,12.47.47c.79-.29-9.13-10-15.88-17.76,2.44,0,5.08-.52,7-2.11,0,0,.16-.16.09-.2-7.68-4.32-15.24-9.58-20.2-17.16,4.86,5.38,11.55,7,17,5.33.05,0,.07,0,.1-.09-.41-.29-.82-.6-1.23-.91-3.33-2.54-14.39-13.55-16.9-16.5a12.45,12.45,0,0,0,4.94,1.41,32.93,32.93,0,0,1-5.27-6.38,38.29,38.29,0,0,1-4.54-6c-1.59-2.58-4.18-7.66-5.16-8.88,3.3,4.09,7,8.06,11.22,8h0c-9.38-8-16.37-21.18-21.84-34.11-2.72,5.87-6,11.36-9.1,16.69-3.82,6.55-8,13-13.23,17.38a.52.52,0,0,0,.23,0c4.25,0,7.91-4,11.22-8-1,1.22-3.57,6.3-5.16,8.88-2.75,4.45-10.58,12.41-10.05,12.39a12.62,12.62,0,0,0,5.18-1.44c-5.35,6.27-18.76,17.28-18,17.5,5.65,1.75,12.63-.07,17.52-5.92-.29.44-.61.85-.87,1.24-.85,1.3-1.68,2.62-2.56,3.92a64.46,64.46,0,0,1-5.52,7.2,30.78,30.78,0,0,1-13.9,9.22s-.2.18-.12.21a13.61,13.61,0,0,0,6.84,1c-6.45,7.15-14.13,14.73-13.42,15a17.42,17.42,0,0,0,12.47-.47c-2.4,2.31-9.81,7.88-8.88,8.12a18.87,18.87,0,0,0,10.26-.35c-5.65,7.28-18.93,23.73-18.06,23.91a19.16,19.16,0,0,0,12-1.34c-2.65,3.52-14.15,14.39-13.15,14.2a55.27,55.27,0,0,0,10.4-3.61c-5.62,6.26-19,19.77-18.19,20a28.74,28.74,0,0,0,16.38.15l-.85.69c-6,5-20.85,13.24-20.17,13.81,6.11,5.07,16.88,1.7,23.44-.09l.65-.19c-4.37,4.76-16,14.12-15.1,14.22,8.62,1,17.47-1.4,25.85-6.31l-.25.3c-.23.28-8,6.79-7.11,6.95,3.37.64,13.61-4,17.19-5.66-1.15,1.43-5.41,7.26-4.26,7.08a36.73,36.73,0,0,0,14.73-6.14c-.87,1.44-2.45,5.51-2,5.45,4.78-.59,9.55-4.35,14-7.21-.75,2-2.18,6.75-1.71,6.69,4.57-.6,9.46-4.4,13.43-9.37,2.69,4.79,6,9,10.17,11.36.57.33,1-6.8.86-9.34,4.32,6.87,10.44,11.27,17.16,9.21.53-.17-2-7.38-3.22-10.15,1.21,1.2,2.43,2.38,3.69,3.5a39.47,39.47,0,0,0,20.69,3.64c.86-.1-11.06-9.58-15.5-14.63-.79-.9-1.56-1.8-2.33-2.71a28.13,28.13,0,0,0,5.79,2.32C1354,220.42,1360.31,222.14,1366.3,219Z"/><path class="cls-3" d="M1366.3,219c.32-.18-8.38-7.84-12.25-12.64a28.45,28.45,0,0,0,10.19-1.2c.81-.25-12.57-13.76-18.19-20,1.86,1.11,8.91,4.79,10.93,5.18,1,.19-11-12.25-13.68-15.77a19.16,19.16,0,0,0,12,1.34c.87-.18-12.41-16.63-18.06-23.91a18.84,18.84,0,0,0,10.25.35c.93-.24-6.47-5.81-8.87-8.12a17.42,17.42,0,0,0,12.47.47c.79-.29-9.13-10-15.88-17.76,2.44,0,5.08-.52,7-2.11,0,0,.16-.16.09-.2-7.68-4.32-15.24-9.58-20.2-17.16,4.86,5.38,11.55,7,17,5.33.05,0,.07,0,.1-.09-.41-.29-.82-.6-1.23-.91-3.33-2.54-14.39-13.55-16.9-16.5a12.45,12.45,0,0,0,4.94,1.41,32.93,32.93,0,0,1-5.27-6.38,38.29,38.29,0,0,1-4.54-6c-1.59-2.58-4.18-7.66-5.16-8.88,3.3,4.09,7,8.06,11.22,8h0c-9.29-7.9-16.24-20.94-21.69-33.76A45.52,45.52,0,0,0,1302.44,61a43,43,0,0,0,6,12.16c.11.16-.11.36-.26.27-2.3-1.49-5.17-3.25-6.43-5.89.13,1.64.18,3.29.33,4.93a.18.18,0,0,1-.31.14,12.66,12.66,0,0,1-2.64-3.81,7.39,7.39,0,0,1-1.46,3.65.18.18,0,0,1-.3-.09,12.19,12.19,0,0,1-.28-3.21c-.39.68-.82,1.32-1.24,2-1.21,1.9-2.19,4.08-4.07,5.37-.13.09-.31-.06-.26-.22a33.46,33.46,0,0,0,1.58-6.42,10.6,10.6,0,0,1-3.87,4.11.19.19,0,0,1-.27-.22c.43-1.16,1.06-2.22,1.49-3.37-3.44,4.78-6.87,9.68-11.58,13.11,4-.26,7.55-4.08,10.73-8-1,1.22-3.57,6.3-5.16,8.88-2.75,4.45-10.58,12.41-10.05,12.39l.24,0a32.93,32.93,0,0,0,6.46-5.39,34.39,34.39,0,0,0,6.19-8.65c.11-.23.41,0,.31.2a34.22,34.22,0,0,1-3.69,6.48c3.22-1.6,5.69-4.59,8.21-7.14.15-.15.39,0,.29.24-.51,1-1,2-1.5,3a42.65,42.65,0,0,0,4-4.16.19.19,0,0,1,.31.19,40.82,40.82,0,0,0-1,4,69.77,69.77,0,0,0,3.92-5.78.18.18,0,0,1,.33.15,24.27,24.27,0,0,0-1,5.35A9.36,9.36,0,0,0,1298,90c1.13-3.32,2.12-6.71,4.19-9.54a.19.19,0,0,1,.34.15,10.34,10.34,0,0,0-.47,3.48c.92-1.3,1.28-3,2.46-4.09a.18.18,0,0,1,.31.13,21,21,0,0,0,2.31,9.21c.29.61.59,1.21.92,1.8a34.15,34.15,0,0,1-.89-9.21.18.18,0,0,1,.36-.06c1.23,3.66,2.46,7.44,4.58,10.66,1.91,2.88,4.38,5.31,6.21,8.26a.19.19,0,0,1-.21.28c-2.67-.73-4.65-2.94-6.49-5,1.1,2,2.58,3.86,3.69,5.91a.19.19,0,0,1-.2.29,20.57,20.57,0,0,1-5.89-2.51,12.07,12.07,0,0,1-1.53-1.16,33.79,33.79,0,0,0,1.42,3.91c.09.19-.15.41-.29.24-1.6-2-3.35-4-4.13-6.5a41.53,41.53,0,0,1-.66,5.46c0,.21-.3.16-.36,0a10.73,10.73,0,0,1-.63-3.57c-.78,2.19-1.61,4.47-3.26,6.08a.19.19,0,0,1-.31-.19c.24-1.18.52-2.35.76-3.52-2.68,3.78-6.32,7-10.64,8.08-.14,0-.32-.14-.21-.29a67,67,0,0,0,4-6.15,30.18,30.18,0,0,1-2.93,2.11c-1.66,1-3.4,2-5.13,2.93-1.35.69-3,1.51-4.49,1.19a.2.2,0,0,1-.1-.29,48.5,48.5,0,0,1,3.14-3.86,15.47,15.47,0,0,0,1.42-2.59,6.1,6.1,0,0,1-3.6,2.11.2.2,0,0,1-.14-.33,15.5,15.5,0,0,0,2.1-3.58c-3.77,4.42-9,7.12-13.88,10a28.46,28.46,0,0,1-5.34,2.56,7.84,7.84,0,0,1-2.36.53c5.55,1.5,12.28-.37,17-6.06-.29.44-.61.85-.87,1.24-.85,1.3-1.68,2.62-2.56,3.92a70.44,70.44,0,0,1-4.64,6.2l.19-.11c1-.61,2.09-1.25,3.08-1.94,2.3-1.6,4.45-3.55,7-4.64.17-.07.28.15.21.29-1.24,2.53-3.51,4.15-5.23,6.29,4.88-.65,9.39-2.91,13.93-4.79.17-.07.31.2.18.33-.86.79-1.79,1.49-2.64,2.29a19.5,19.5,0,0,0,4.62-2.39c.21-.11.38.2.18.34a24.93,24.93,0,0,0-2.72,2.53c-.74.7-5.85,3.81-7.11,5.35,1.37.08,6.92-2.26,8.37-2.92a70.39,70.39,0,0,0,10.38-5.72c.19-.12.36.15.23.31-.74.85-1.47,1.71-2.2,2.56a13,13,0,0,0,4.34-4.1c.11-.15.3,0,.31.14a34.64,34.64,0,0,0,1.54,8.69c0-.23,0-.46,0-.69a56.58,56.58,0,0,1,.79-7,.18.18,0,0,1,.34,0,48.71,48.71,0,0,0,2.78,5.72,27.78,27.78,0,0,1-.12-7.78.19.19,0,0,1,.36,0,15,15,0,0,0,1.92,4.58,14.61,14.61,0,0,1,.13-5.11.18.18,0,0,1,.35,0,29.85,29.85,0,0,0,5.32,8.88c2.15,2.48,4.6,4.67,6.64,7.26.12.14,0,.37-.17.32a21.57,21.57,0,0,1-6.29-2.78c1.31,3.84,4.45,7.06,7.36,9.51a.19.19,0,0,1-.13.33,14,14,0,0,1-5.63-1.61,14.94,14.94,0,0,1-4.4-3.23c.24,1.44.62,2.85.9,4.28,0,.19-.16.33-.3.19a10,10,0,0,1-2.17-3.38,42.46,42.46,0,0,0,.87,7.62.18.18,0,0,1-.3.18,11.86,11.86,0,0,1-3.59-6.51A46,46,0,0,0,1308,140a.18.18,0,0,1-.31.08c-1.57-1.87-2.06-4.32-2.36-6.78a30,30,0,0,1-2.62,2.55c-2,1.72-4.11,3.94-6.75,4.39a.2.2,0,0,1-.23-.24,14.31,14.31,0,0,1,1.7-2.9,13.4,13.4,0,0,0,.87-1.88,21.25,21.25,0,0,1-5.69,4.26c-.15.09-.37-.1-.26-.27a27.69,27.69,0,0,0,2.2-4.13,38.87,38.87,0,0,1-5.29,3.3c-2.17,1.13-4.44,2.1-6.68,3.05s-4.44,1.88-6.78,1.76a.2.2,0,0,1-.13-.33c1.85-2,4.12-3.53,6.06-5.44-2.9,1.71-5.85,3.46-9.18,4a.19.19,0,0,1-.14-.35c2-1.54,4.12-3,6-4.68q-.56.3-1.11.57c-1.25.61-2.53,1.15-3.82,1.67a7.82,7.82,0,0,1-3.63.8.2.2,0,0,1-.13-.33c2.59-2.64,5.22-5.25,7.57-8.14-2.14,1.46-4,3.29-6.15,4.76a58.19,58.19,0,0,1-7.89,4.51,73.44,73.44,0,0,1-8.21,3.44,18.32,18.32,0,0,1-5.53,1.07,17.44,17.44,0,0,0,12.38-.5c-2.4,2.31-9.81,7.88-8.88,8.12a18.87,18.87,0,0,0,10.26-.35c-1.81,2.32-4.39,5.59-7,9a21,21,0,0,0,6.53-2.73c2.79-1.64,5.4-3.6,8.2-5.22.15-.08.37.1.25.27a35.62,35.62,0,0,1-5.08,5.4c3.29-.84,6-3.17,8.89-4.88a.19.19,0,0,1,.22.31c-2.78,2.64-5.5,5.4-8.74,7.41a29.19,29.19,0,0,0,9.93-2.23,49.42,49.42,0,0,0,9.84-5.17.19.19,0,0,1,.26.26c-1,1.44-2.12,2.72-3.13,4.12,2.13-.82,3.69-2.68,5.39-4.19.12-.11.38,0,.31.18a27.53,27.53,0,0,1-6.37,9.87,22.12,22.12,0,0,0,5.86-3.05c2.58-1.76,5-3.8,7.74-5.3a.2.2,0,0,1,.26.27c-.94,1.55-1.82,3.13-2.67,4.73,2.37-1.6,4-4.15,6-6.23a.18.18,0,0,1,.31.14c.14,2.31.24,4.89,1.55,6.85.61-2.1.69-4.32,1.24-6.43a.18.18,0,0,1,.35,0c.71,2,1.75,4.06,3.59,5.12.22-1.75,0-3.55.41-5.28a.18.18,0,0,1,.34,0,14.42,14.42,0,0,0,2.38,3.8c.06-1.24-.15-2.47-.17-3.7a.18.18,0,0,1,.36-.06c1.08,2.93,4,4.57,6.57,5.91.11-2.09-1-4-.78-6.17,0-.15.2-.28.32-.14a29,29,0,0,0,5.77,5.42,21.63,21.63,0,0,0,5.26,2.54c-.35-.8-.66-1.62-.93-2.43a16.31,16.31,0,0,1-1-8,.18.18,0,0,1,.34,0c3.79,6.16,7,12.87,13,17,.17.12.06.44-.14.36a31.29,31.29,0,0,1-6.49-3.79,60,60,0,0,0,11.29,11.49c.11.09.13.32,0,.35a19.08,19.08,0,0,1-10.73-1.42,26.37,26.37,0,0,1-4.14-2.17,31.65,31.65,0,0,0,3.85,5.18c2.37,2.54,5.41,4.28,7.65,6.94a.19.19,0,0,1,0,.3c-1.9,1-4.44.43-6.4-.1a52.09,52.09,0,0,1-6.27-2.26,35,35,0,0,1-5.35-2.72c1.06,1.78,2.14,3.53,3.22,5.29.1.16-.1.37-.25.27a31.1,31.1,0,0,1-6.13-4.91,24.13,24.13,0,0,0,3,5.12c1.47,1.82,3.64,3.13,4.6,5.36a.2.2,0,0,1-.16.3c-1.84,0-3.6-1.16-5.1-2.19-1.67-1.15-3.24-2.47-4.82-3.77a26.55,26.55,0,0,1-6.43-7.41,36.11,36.11,0,0,0,1.07,8.22.19.19,0,0,1-.31.19,12.9,12.9,0,0,1-4.18-6.66,64.2,64.2,0,0,0-.31,11.26.18.18,0,0,1-.31.14,27.47,27.47,0,0,1-3.75-6.2,19.82,19.82,0,0,1-.75-2,31.4,31.4,0,0,1-3.24,3.65,16.67,16.67,0,0,1-5.59,3.85c-.14.06-.31-.15-.21-.29a26.45,26.45,0,0,0,2.21-3.83,20.56,20.56,0,0,1-1.95,2.2,12.52,12.52,0,0,1-4.25,3c-.13.05-.27-.11-.23-.24a26.92,26.92,0,0,1,1.29-3.19,48.3,48.3,0,0,1-6.44,4.54c-2.21,1.32-4.48,2.53-6.78,3.66-2.12,1-4.42,2.11-6.8,2-.18,0-.27-.27-.1-.36,5-2.62,9.23-6.62,13-11-1.47.93-3,1.76-4.52,2.55-3.92,2-8,4.34-12.37,5a.19.19,0,0,1-.14-.35,48.65,48.65,0,0,0,4.39-4c-2.2,1.51-4.36,3.1-6.67,4.43-2.53,1.46-5.34,2.8-8.28,2.75-.15,0-.27-.22-.13-.33,3.15-2.59,6.48-5,8.91-8.31A102.38,102.38,0,0,1,1249,200c-3.68,2-7.5,4.4-11.59,5.45a28.9,28.9,0,0,0,15.36-.15l-.85.69c-4.76,4-15.09,10-18.81,12.57a36.26,36.26,0,0,0,12.63-2.61c4.92-1.83,9.61-4.25,14.34-6.57a.19.19,0,0,1,.22.3,36.84,36.84,0,0,1-7.16,5.94c8-.63,14.9-5.49,22.29-8.32a.2.2,0,0,1,.21.29,23.12,23.12,0,0,1-6.45,6.18,20.85,20.85,0,0,0,8.46-2.41,72.57,72.57,0,0,0,9-5.3.19.19,0,0,1,.28.17,11.08,11.08,0,0,1-2.17,5.2,20.24,20.24,0,0,0,4.41-4.07c.12-.13.38,0,.31.18-.89,2.37-2.69,4-4.27,5.89,4.07-1.38,7.57-4.39,11-6.9.14-.1.3.07.27.23a9,9,0,0,1-2.9,4.55c-1.28,1.23-2.79,2.43-3.56,4.11,4.87-1.38,9.06-4.47,13.25-7.31a.19.19,0,0,1,.27.12,14.07,14.07,0,0,0,1.52,4.41,42.38,42.38,0,0,1,1.27-5.2c.06-.17.32-.2.36,0,.64,3.14,2.81,5.59,4.63,8.07.28-3.2.52-6.46,1.94-9.38a.18.18,0,0,1,.33.05c1,3.75,3.25,6.67,5.76,9.38,0-2.63.41-5.29.33-7.91a.19.19,0,0,1,.37-.05,21.38,21.38,0,0,0,2.91,7.18c-.15-3.15-.27-6.31,1-9.28a.18.18,0,0,1,.34,0c1.11,8.3,4.68,16,8.68,23.18.1.16-.09.37-.25.26a22.44,22.44,0,0,1-5.62-5.63,66.54,66.54,0,0,0,2.88,7.9c.06.16-.09.39-.26.26-4-3-8.12-6.32-10.14-11.18a71.3,71.3,0,0,0-.09,12c0,.19-.2.23-.31.14-2.74-2.4-4.28-5.77-6.14-8.89-.5-.84-.93-1.73-1.36-2.62a27.68,27.68,0,0,1-1.94,2.79c-1.64,2.09-3.89,4.52-6.64,4.67-.16,0-.21-.17-.16-.29a46.46,46.46,0,0,0,1.77-5.22l-.12.14c-1,1.14-2.33,2.38-3.89,2.53-.18,0-.22-.22-.13-.34a24.27,24.27,0,0,0,3.39-7.22,38.91,38.91,0,0,1-5.33,6.44,23.7,23.7,0,0,1-7.79,5.37c-.17.07-.28-.14-.21-.28a54.21,54.21,0,0,0,3-7.42,52.38,52.38,0,0,1-5.39,4.62c-2.93,2.15-6.36,4.1-10,3.88a.2.2,0,0,1-.13-.33c2.42-2.2,3.81-5.44,4.75-8.67a46.34,46.34,0,0,1-5.46,4.75c-2.82,2.06-6.13,4-9.67,3.93a.18.18,0,0,1-.15-.28,90.6,90.6,0,0,0,4.31-9.72c-9.14,6-19,12.34-29.94,13.58,8.26.64,16.7-1.73,24.7-6.42l-.25.3c-.23.28-8,6.79-7.11,6.95,3.37.64,13.61-4,17.19-5.66-1.15,1.43-5.41,7.26-4.26,7.08a36.73,36.73,0,0,0,14.73-6.14c-.87,1.44-2.45,5.51-2,5.45,4.78-.59,9.55-4.35,14-7.21-.75,2-2.18,6.75-1.71,6.69,4.57-.6,9.46-4.4,13.43-9.37,2.69,4.79,6,9,10.17,11.36.57.33,1-6.8.86-9.34,4.32,6.87,10.44,11.27,17.16,9.21.53-.17-2-7.38-3.22-10.15,1.21,1.2,2.43,2.38,3.69,3.5a39.47,39.47,0,0,0,20.69,3.64c.86-.1-11.06-9.58-15.5-14.63-.79-.9-1.56-1.8-2.33-2.71a28.13,28.13,0,0,0,5.79,2.32C1354,220.42,1360.31,222.14,1366.3,219Z"/><path class="cls-4" d="M1307.51,59.4c-1.11-3-2.47-5.85-3.77-8.75-.28-.61-1.31-4.58-2.33-4.58-2.09,0-3.81,3-4.46,4.83a116.19,116.19,0,0,1-6.39,15.33,1.1,1.1,0,0,0-.54.53c-1,2.15-2.23,3.63-1.45,6,.09.29.48,0,.6-.07a13.64,13.64,0,0,0,2.44-2.8c.6-.83,5.19-7.41,5.54-4.72.22,1.74,2,4.53,3.71,2.26a7,7,0,0,0,1.3-2.81c.82-3.33,2.17-.78,2.95,1,.58,1.29,2.52,4.15,3.9,1.92S1308.24,61.37,1307.51,59.4Z"/><g class="cls-5"><path class="cls-6" d="M1305.55,60.82c-.78-1.74-2.13-4.28-3-1a7,7,0,0,1-1.3,2.82c-1.73,2.26-3.48-.52-3.71-2.27-.35-2.69-4.94,3.9-5.53,4.73a14.87,14.87,0,0,1-2.44,2.8,1.48,1.48,0,0,1-.29.17c-.79,1.5-1.37,2.81-.76,4.66.09.29.48,0,.6-.07a13.64,13.64,0,0,0,2.44-2.8c.6-.83,5.19-7.41,5.54-4.72.22,1.74,2,4.53,3.71,2.26a7,7,0,0,0,1.3-2.81c.82-3.33,2.17-.78,2.95,1,.58,1.29,2.52,4.15,3.9,1.92.68-1.1.46-2.68,0-4.23C1307.67,64.36,1306.07,62,1305.55,60.82Z"/></g><path class="cls-4" d="M1304.8,93.49c-1.66,2-3.29,3.73-5.86,2.06-.92-.6-1.46-2.08-2.52-2.42-2.23-.72-4.53,2.81-6.05,4.08-1.36,1.14-6,3.8-5.61-.33.14-1.53.52-3,.57-4.55s-1.08-3.25-2.61-1.86a5.21,5.21,0,0,0-1.14,2,3,3,0,0,1-.15.31.42.42,0,0,0-.19.18,16.35,16.35,0,0,1-.92,1.56,47.7,47.7,0,0,1-4.32,3.8c-.23.22-.55,1.24-.23,1.23-2.35,2-5,3.81-7.26,5.53s-6.55,4.26-7.41,7.24,3.08,2.34,4.53,2c4.69-1.25,8.61-4.57,12.65-7.2a32.73,32.73,0,0,1,4.3-1.6c-.29.63-.67,1.2-1,1.81a4,4,0,0,0-.63,2c.28,2.4,5.85-1.48,6.39-1.86s5.52-4.47,5.05-2.24c-.08.39-.44,1.55.08,1.86,2.26,1.36,4.78-1.83,6.33-3.28,1.87-1.75,3.89-4.9,6.69-2.8,1.2.89,2.18,1.68,3.69,1.58,1.35-.09,1.91-1.83,2-3C1311.5,96.19,1308.17,89.49,1304.8,93.49Z"/><g class="cls-5"><path class="cls-6" d="M1307.51,97.26c-2.8-2.1-4.83,1-6.69,2.79-1.55,1.45-4.07,4.65-6.34,3.29-.52-.31-.16-1.47-.08-1.86.47-2.23-4.45,1.82-5.05,2.24s-6.11,4.26-6.39,1.86a4.09,4.09,0,0,1,.63-2c.3-.62.69-1.18,1-1.81a32.26,32.26,0,0,0-4.31,1.6c-4,2.63-8,6-12.65,7.2-1.29.34-4.55.82-4.64-1.15a7.31,7.31,0,0,0-1.87,2.89c-.85,2.91,3.08,2.34,4.53,2,4.69-1.25,8.61-4.57,12.65-7.2a32.73,32.73,0,0,1,4.3-1.6c-.29.63-.67,1.2-1,1.81a4,4,0,0,0-.63,2c.28,2.4,5.85-1.48,6.39-1.86s5.52-4.47,5.05-2.24c-.08.39-.44,1.55.08,1.86,2.26,1.36,4.78-1.83,6.33-3.28,1.87-1.75,3.89-4.9,6.69-2.8,1.2.89,2.18,1.68,3.69,1.58,1.35-.09,1.91-1.83,2-3,0-.22,0-.47,0-.72h0C1309.68,98.94,1308.7,98.15,1307.51,97.26Z"/></g><path class="cls-4" d="M1337,119.8c-3.8-1.24-7.71-1.9-11.44-3.39-1.27-.51-3.29-1.56-4.65-.82-2.26,1.23-1.48,4-1,6.06a23,23,0,0,1,.4,2.32c.27,2.64-2.69,1.47-3.79.65-2-1.51-3.12-3.27-5.71-3.69a2.44,2.44,0,0,0-2.49,1.4,6.27,6.27,0,0,0-.45,1.49q0,.42-.06.84c0,.42,0,6.28-2.94,2.6-1.36-1.71-4.15-7.38-6.4-3.57-1.63,2.74-4.13,8.88-8.12,7.07-2-.91-.06-6.62-.57-8.55-.08-.31-.54-.06-.66.06-2.36,2.27-3.74,5.14-5.19,8-2.85,3.14-6,6.09-7.89,10s2.22,4.15,4.75,3a32,32,0,0,0,6.89-4.89c1-.8,1.92-1.63,2.88-2.45,1.58-1.33,1.45-1.27,1.77.86.26,1.72,1.17,5,3.53,4.28,2.13-.63,3.21-2.59,4.33-4.46,2.18-3.64,4-2.32,5.74-.07a9.29,9.29,0,0,0,3.85,2.78A5.53,5.53,0,0,0,1316,138c1.69-1.66,1.53-4.07,1.69-6.3.17-2.48,4.3.64,4.88.92a16.5,16.5,0,0,0,6.3,1.39c2.88.18,10.33,1.93,12-1.58,1.06-2.18-1.51-4-4.22-5.53,3,1.08,6.06,2.08,7.75-.48C1346.82,122.79,1339,120.44,1337,119.8Z"/><path class="cls-7" d="M1328.08,130.53a16.45,16.45,0,0,1-6.29-1.39c-.59-.28-4.71-3.4-4.89-.92-.15,2.23,0,4.64-1.69,6.3a5.52,5.52,0,0,1-6.22,1.35,9.23,9.23,0,0,1-3.85-2.78c-1.7-2.25-3.56-3.57-5.74.07-1.12,1.87-2.2,3.83-4.33,4.46-1.47.44-2.37-.66-2.91-2,0,.28.1.64.17,1.13.26,1.72,1.17,5,3.53,4.28,2.13-.63,3.21-2.59,4.33-4.46,2.18-3.64,4-2.32,5.74-.07a9.29,9.29,0,0,0,3.85,2.78A5.53,5.53,0,0,0,1316,138c1.69-1.66,1.53-4.07,1.69-6.3.17-2.48,4.3.64,4.88.92a16.5,16.5,0,0,0,6.3,1.39c2.88.18,10.33,1.93,12-1.58.58-1.18.07-2.25-.93-3.24C1338.08,132.37,1330.91,130.7,1328.08,130.53Z"/><path class="cls-7" d="M1289.76,132.48c-1,.82-1.91,1.65-2.88,2.45a31.72,31.72,0,0,1-6.89,4.89,6.12,6.12,0,0,1-4,.44h0c-2,4,2.22,4.15,4.75,3a32,32,0,0,0,6.89-4.89c1-.8,1.92-1.63,2.88-2.45s1.22-1,1.41-.8a10.66,10.66,0,0,1-.43-1.79C1291.22,131.22,1291.34,131.15,1289.76,132.48Z"/><path class="cls-7" d="M1343.66,122.91s0,0,0,0c-1.69,2.56-4.78,1.56-7.75.48,2.26,1.26,4.4,2.76,4.43,4.49,1.65.24,3.12,0,4.11-1.52C1345.33,125.05,1344.79,123.88,1343.66,122.91Z"/><path class="cls-4" d="M1292.16,135.66a1.15,1.15,0,0,0-.19-.53C1292,135.31,1292.09,135.49,1292.16,135.66Z"/><path class="cls-4" d="M1340,129.16a1.53,1.53,0,0,0,.14-.21,2.09,2.09,0,0,0,.21-1,20.13,20.13,0,0,1-3.64-1A15.37,15.37,0,0,1,1340,129.16Z"/><path class="cls-4" d="M1310.22,176c-.26-2.19-1.6-3.68-3.71-2.42a16.12,16.12,0,0,0-3.76,3.15,23.35,23.35,0,0,1-3.74,3.5c-1,.73-.61-2.94-.58-3.4.49-9.44-7.91-3.2-11.67-.54a71,71,0,0,1-7.61,4.38c-.55.3-4.59,2.89-2-.32.57-.71,1.17-1.39,1.74-2.1,1-1.28,2.42-4,1-5.52-2.51-2.7-7.73,3.25-9.46,4.79-1.31,1.17-4.66,5.36-6.74,3.28-1.76-1.76,1.1-5.07,1.58-6.8.42-1.55,2.17-6.51.3-7.5-2.69-1.43-5.21,5.9-6.44,7.21-2.84,3-5.85,5.87-8.84,8.75-1.91,1.83-6,4.69-6.3,7.63-.19,1.62,3.63-.65,3.89-.8,1.94-1.11,3.72-2.56,5.55-3.86,1-.7,2-1.33,3.06-1.93,5-2.87-1,3.56-2.18,4.41-7,5-14.64,8.59-19.64,16.21-.89,1.35-1.12,3.13.64,3.6,2.27.61,5.56-2.79,7.13-4.11,3.77-3.16,8.12-5.48,11.88-8.66l.85-.73a5.91,5.91,0,0,1,4-1.83,17.15,17.15,0,0,1-1,1.8c-.67,1.16-1.35,2.31-1.94,3.52-2.88,5.85,5.76-.35,7-1.47,1.74-1.54,3.32-3.28,5-4.89a26.47,26.47,0,0,1,3.36-2.72c1-.66,2.52-.7,3.14-1.72-1.58,2.57-3.82,4.57-5.21,7.3-.45.88-.82,2.71.62,2.84,3,.27,5.59-2.47,7.67-4.34,1.49-1.33,2.91-2.74,4.42-4-.93.79-1.51,2.42-2.57,3.32-.7.59-1.44,1.14-2.16,1.7-2.38,1.85-4.43,3.84-5.39,6.85,0,.17-.1.65.19.63,3.14-.13,5.69-2.25,8.06-4.22,4.15-3.42,8.32-6.87,12.32-10.47a39,39,0,0,0-2.42,3.73c-.52.94-1.55,3-.08,3.58,2,.77,4.91-1.51,6.28-2.81a22.18,22.18,0,0,0,2.67-3.35c.57-.8,1.11-1.62,1.67-2.43s3.4-3.24,3.48-4c-.31,2.86-.81,5.75-.09,8.59.4,1.6,2.33,3.11,3.75,1.71C1311.61,188,1310.75,180.56,1310.22,176Z"/><path class="cls-7" d="M1274.47,183.91a27.37,27.37,0,0,0-3.36,2.72c-1.68,1.61-3.26,3.36-5,4.89-1.28,1.13-9.92,7.33-7,1.48.59-1.21,1.27-2.36,1.94-3.53a15.46,15.46,0,0,0,1-1.8,5.93,5.93,0,0,0-4,1.84l-.84.72c-3.77,3.19-8.12,5.51-11.89,8.67-1.57,1.31-4.86,4.72-7.13,4.1a1.59,1.59,0,0,1-1.3-1.74,30.28,30.28,0,0,0-2.11,2.81c-.89,1.35-1.12,3.13.64,3.6,2.27.61,5.56-2.79,7.13-4.11,3.77-3.16,8.12-5.48,11.88-8.66l.85-.73a5.91,5.91,0,0,1,4-1.83,17.15,17.15,0,0,1-1,1.8c-.67,1.16-1.35,2.31-1.94,3.52-2.88,5.85,5.76-.35,7-1.47,1.74-1.54,3.32-3.28,5-4.89a26.47,26.47,0,0,1,3.36-2.72,8,8,0,0,1,1.71-.73c1.32-1.95,3-3.64,4.21-5.66C1277,183.21,1275.42,183.26,1274.47,183.91Z"/><path class="cls-7" d="M1280.38,189c.72-.56,1.46-1.1,2.16-1.69,1.06-.91,1.64-2.53,2.57-3.33-1.51,1.3-2.93,2.7-4.42,4-2.08,1.87-4.71,4.6-7.67,4.33-1-.08-1.11-.91-1-1.72a21.93,21.93,0,0,0-2.41,3.55c-.45.88-.82,2.71.62,2.84,1.84.17,3.55-.82,5.08-2.05A15.1,15.1,0,0,1,1280.38,189Z"/><path class="cls-4" d="M1259.23,178.79a34.91,34.91,0,0,0-3.06,1.93,67,67,0,0,1-5.55,3.85c-.24.14-3.66,2.17-3.88,1-1.38,1.37-2.59,2.89-2.78,4.44s3.63-.65,3.89-.8c1.94-1.11,3.72-2.56,5.55-3.86,1-.7,2-1.33,3.06-1.93.31-.17.57-.31.8-.42C1258.78,181.76,1264,176.05,1259.23,178.79Z"/><path class="cls-4" d="M1262.72,167.67a12.82,12.82,0,0,0-1,1.53l.2-.21A7,7,0,0,0,1262.72,167.67Z"/><path class="cls-4" d="M1279.56,177.17a6.92,6.92,0,0,0,.82-2.12l-.48.58C1278.73,177.1,1278.94,177.35,1279.56,177.17Z"/><path class="cls-7" d="M1295.56,181.77c-4,3.61-8.17,7.06-12.32,10.48-2.37,2-4.92,4.08-8.06,4.22-.22,0-.25-.26-.22-.46a11.53,11.53,0,0,0-2.74,4.49c0,.17-.1.65.19.63,3.14-.13,5.69-2.25,8.06-4.22,4.09-3.37,8.2-6.78,12.16-10.34a9.93,9.93,0,0,1,.51-1.07A44.06,44.06,0,0,1,1295.56,181.77Z"/><path class="cls-7" d="M1307.07,185.12c-.72-2.84-.22-5.73.09-8.6-.08.73-3,3.21-3.48,4s-1.1,1.64-1.67,2.44a21.61,21.61,0,0,1-2.67,3.34c-1.37,1.3-4.24,3.58-6.27,2.82-1-.37-.86-1.37-.53-2.3a39.63,39.63,0,0,0-2.17,3.38c-.52.94-1.55,3-.08,3.58,2,.77,4.91-1.51,6.28-2.81a22.18,22.18,0,0,0,2.67-3.35c.57-.8,1.11-1.62,1.67-2.43s3.4-3.24,3.48-4c-.31,2.86-.81,5.75-.09,8.59.4,1.6,2.33,3.11,3.75,1.71a8.66,8.66,0,0,0,2.19-4.26C1308.92,187.82,1307.42,186.51,1307.07,185.12Z"/><path class="cls-4" d="M1273.41,187.85a16,16,0,0,0-1,1.64,4.21,4.21,0,0,0-.36,1.12,38.06,38.06,0,0,0,2.8-3.75A2.7,2.7,0,0,1,1273.41,187.85Z"/><path class="cls-4" d="M1292.63,186.57l-.09.22c.08-.12.16-.24.25-.35Z"/><path class="cls-4" d="M1277.61,193.65c.72-.56,1.46-1.11,2.16-1.7,1.06-.9,1.64-2.53,2.57-3.32-1.51,1.29-2.93,2.7-4.42,4-.79.71-1.66,1.55-2.59,2.29-.12.29-.24.58-.34.89,0,0,0,.1,0,.17A23.11,23.11,0,0,1,1277.61,193.65Z"/><path class="cls-2" d="M993.08,250.09c.35-.18-8.89-8.32-13-13.41a30.08,30.08,0,0,0,10.81-1.28c.87-.27-13.34-14.61-19.3-21.26,2,1.17,9.45,5.08,11.6,5.5,1.06.2-11.72-13-14.53-16.75a20.21,20.21,0,0,0,12.78,1.42c.93-.18-13.17-17.65-19.17-25.38a20,20,0,0,0,10.89.37c1-.25-6.88-6.17-9.42-8.62a18.49,18.49,0,0,0,13.24.5c.84-.3-9.7-10.57-16.86-18.86,2.59,0,5.39-.55,7.39-2.24,0,0,.16-.17.09-.21-8.15-4.59-16.18-10.17-21.44-18.22,5.15,5.71,12.25,7.44,18,5.66,0,0,.07-.06.1-.1-.43-.31-.87-.63-1.31-1-3.53-2.69-15.28-14.39-17.94-17.51a13.28,13.28,0,0,0,5.24,1.49,35.31,35.31,0,0,1-5.59-6.77,40,40,0,0,1-4.82-6.36c-1.69-2.73-4.44-8.13-5.49-9.42,3.52,4.35,7.41,8.56,11.92,8.53h.05C936.4,97.73,929,83.7,923.18,70c-2.89,6.23-6.36,12.07-9.66,17.73-4.06,7-8.52,13.75-14.06,18.45a.62.62,0,0,0,.25,0c4.51,0,8.4-4.18,11.92-8.53-1,1.29-3.8,6.69-5.49,9.42-2.92,4.73-11.23,13.19-10.67,13.16a13.29,13.29,0,0,0,5.5-1.52c-5.68,6.65-19.92,18.34-19.15,18.58,6,1.85,13.4-.07,18.6-6.29-.31.46-.65.91-.92,1.32-.91,1.38-1.79,2.78-2.72,4.16a69.33,69.33,0,0,1-5.86,7.64,32.64,32.64,0,0,1-14.77,9.79s-.21.19-.13.23a14.44,14.44,0,0,0,7.27,1.11c-6.85,7.59-15,15.64-14.25,15.91a18.49,18.49,0,0,0,13.24-.5c-2.55,2.45-10.41,8.37-9.42,8.62a20,20,0,0,0,10.89-.37c-6,7.73-20.1,25.2-19.18,25.38a20.23,20.23,0,0,0,12.79-1.42c-2.81,3.74-15,15.28-14,15.08,2.14-.41,9.07-2.66,11-3.83-6,6.65-20.17,21-19.31,21.26a30.56,30.56,0,0,0,17.39.16l-.9.74c-6.37,5.3-22.14,14-21.41,14.66,6.49,5.38,17.92,1.8,24.88-.11l.7-.2c-4.64,5.06-16.95,15-16,15.11,9.15,1,18.55-1.49,27.45-6.71l-.27.32c-.24.3-8.44,7.21-7.55,7.38,3.59.69,14.46-4.22,18.26-6-1.22,1.51-5.75,7.71-4.53,7.52a39.13,39.13,0,0,0,15.65-6.53c-.93,1.53-2.61,5.85-2.15,5.79,5.07-.63,10.14-4.62,14.83-7.66-.79,2.12-2.32,7.17-1.81,7.1,4.85-.62,10-4.66,14.26-9.94,2.85,5.08,6.39,9.52,10.8,12.06.6.35,1.07-7.22.91-9.91,4.59,7.29,11.08,12,18.22,9.77.56-.17-2.11-7.84-3.42-10.78,1.29,1.28,2.58,2.53,3.92,3.72a42,42,0,0,0,22,3.87c.91-.11-11.75-10.18-16.46-15.54-.83-.95-1.65-1.91-2.48-2.88a29.37,29.37,0,0,0,6.15,2.46C980,251.57,986.72,253.4,993.08,250.09Z"/><path class="cls-3" d="M993.08,250.09c.35-.18-8.89-8.32-13-13.41a30.08,30.08,0,0,0,10.81-1.28c.87-.27-13.34-14.61-19.3-21.26,2,1.17,9.45,5.08,11.6,5.5,1.06.2-11.72-13-14.53-16.75a20.21,20.21,0,0,0,12.78,1.42c.93-.18-13.17-17.65-19.17-25.38a20,20,0,0,0,10.89.37c1-.25-6.88-6.17-9.42-8.62a18.49,18.49,0,0,0,13.24.5c.84-.3-9.7-10.57-16.86-18.86,2.59,0,5.39-.55,7.39-2.24,0,0,.16-.17.09-.21-8.15-4.59-16.18-10.17-21.44-18.22,5.15,5.71,12.25,7.44,18,5.66,0,0,.07-.06.1-.1-.43-.31-.87-.63-1.31-1-3.53-2.69-15.28-14.39-17.94-17.51a13.28,13.28,0,0,0,5.24,1.49,35.31,35.31,0,0,1-5.59-6.77,40,40,0,0,1-4.82-6.36c-1.69-2.73-4.44-8.13-5.49-9.42,3.52,4.35,7.41,8.56,11.92,8.53h.05c-9.86-8.39-17.23-22.23-23-35.84a47.82,47.82,0,0,0,1.94,12,45.85,45.85,0,0,0,6.34,12.9c.12.17-.11.39-.27.29-2.44-1.58-5.49-3.45-6.83-6.25.14,1.74.2,3.49.35,5.23a.19.19,0,0,1-.33.15,13.7,13.7,0,0,1-2.8-4,8,8,0,0,1-1.54,3.87.2.2,0,0,1-.33-.09,12.9,12.9,0,0,1-.29-3.42c-.42.73-.88,1.41-1.32,2.12-1.28,2-2.33,4.33-4.32,5.7a.2.2,0,0,1-.28-.24,35,35,0,0,0,1.67-6.8,11.19,11.19,0,0,1-4.1,4.35.2.2,0,0,1-.29-.23c.46-1.23,1.13-2.36,1.58-3.58-3.64,5.08-7.29,10.28-12.29,13.93,4.29-.29,8-4.34,11.4-8.52-1,1.29-3.8,6.69-5.49,9.42-2.92,4.73-11.23,13.19-10.67,13.16l.25,0a35.4,35.4,0,0,0,6.87-5.72,36.67,36.67,0,0,0,6.57-9.19c.11-.24.43,0,.33.21a36.27,36.27,0,0,1-3.92,6.89c3.41-1.7,6-4.87,8.72-7.59.16-.16.41,0,.31.26-.54,1-1,2.11-1.6,3.15,1.62-1.22,2.82-3,4.26-4.41a.2.2,0,0,1,.33.2,42.42,42.42,0,0,0-1.12,4.3,71.86,71.86,0,0,0,4.16-6.14.2.2,0,0,1,.36.16,26.72,26.72,0,0,0-1.06,5.68,10,10,0,0,0,.62,5.08c1.19-3.52,2.24-7.13,4.44-10.13a.2.2,0,0,1,.36.15,10.87,10.87,0,0,0-.49,3.7c1-1.38,1.35-3.16,2.6-4.34a.2.2,0,0,1,.34.14,22.31,22.31,0,0,0,2.44,9.78c.31.65.64,1.28,1,1.91a36.38,36.38,0,0,1-.94-9.79.19.19,0,0,1,.38,0c1.31,3.89,2.61,7.9,4.87,11.31,2,3.07,4.64,5.64,6.58,8.77a.2.2,0,0,1-.21.3c-2.85-.78-4.94-3.13-6.9-5.35,1.18,2.18,2.74,4.1,3.93,6.28a.21.21,0,0,1-.22.3,21.88,21.88,0,0,1-6.26-2.66,14.5,14.5,0,0,1-1.62-1.24,33.85,33.85,0,0,0,1.51,4.16c.09.2-.16.43-.31.25-1.7-2.09-3.56-4.26-4.38-6.9a43.34,43.34,0,0,1-.71,5.8c0,.22-.31.17-.38,0a11.53,11.53,0,0,1-.66-3.79c-.84,2.33-1.71,4.75-3.47,6.45a.2.2,0,0,1-.33-.2c.25-1.25.55-2.49.81-3.74-2.84,4-6.71,7.39-11.3,8.58-.15,0-.34-.15-.22-.3a71.72,71.72,0,0,0,4.19-6.53,34,34,0,0,1-3.11,2.24c-1.76,1.1-3.61,2.17-5.45,3.11-1.42.73-3.14,1.61-4.76,1.26a.21.21,0,0,1-.11-.31c.91-1.54,2.28-2.66,3.33-4.09a17.5,17.5,0,0,0,1.52-2.75,6.49,6.49,0,0,1-3.84,2.23c-.18,0-.24-.23-.14-.35a16.78,16.78,0,0,0,2.23-3.79c-4,4.69-9.6,7.55-14.74,10.65a29.54,29.54,0,0,1-5.67,2.72,8.62,8.62,0,0,1-2.5.57c5.89,1.58,13-.4,18.08-6.44-.31.46-.65.91-.92,1.32-.91,1.38-1.79,2.78-2.72,4.16a75.67,75.67,0,0,1-4.93,6.58l.2-.11c1.11-.65,2.22-1.33,3.28-2.07,2.44-1.7,4.72-3.77,7.46-4.92.17-.07.3.16.22.3-1.32,2.69-3.73,4.42-5.55,6.68,5.18-.68,10-3.09,14.79-5.08.18-.07.33.21.19.35-.91.84-1.9,1.58-2.8,2.43,1.78-.44,3.31-1.63,4.9-2.53.22-.13.41.21.2.35a25.3,25.3,0,0,0-2.89,2.69c-.79.75-6.21,4.05-7.56,5.68,1.46.09,7.36-2.4,8.9-3.1a76.31,76.31,0,0,0,11-6.07c.19-.13.38.15.24.32l-2.34,2.73c1.88-.88,3.37-2.73,4.61-4.36.12-.16.32,0,.33.15a37.59,37.59,0,0,0,1.63,9.23c0-.25,0-.49,0-.73a61.6,61.6,0,0,1,.85-7.44.19.19,0,0,1,.35-.05,54.21,54.21,0,0,0,3,6.08,29,29,0,0,1-.12-8.27.19.19,0,0,1,.37,0,16.24,16.24,0,0,0,2,4.87c-.09-1.82-.4-3.65.14-5.43a.19.19,0,0,1,.37,0,31.29,31.29,0,0,0,5.66,9.42c2.27,2.64,4.87,5,7,7.71.12.16,0,.4-.18.35a23.2,23.2,0,0,1-6.68-2.95c1.39,4.08,4.73,7.49,7.82,10.09a.22.22,0,0,1-.14.36,14.92,14.92,0,0,1-6-1.72,15.81,15.81,0,0,1-4.67-3.42c.25,1.53.66,3,1,4.54a.2.2,0,0,1-.33.2,10.72,10.72,0,0,1-2.3-3.59,45.9,45.9,0,0,0,.93,8.09.2.2,0,0,1-.33.2,12.71,12.71,0,0,1-3.81-6.92,49.75,49.75,0,0,0-2.45,9.07.19.19,0,0,1-.33.08c-1.66-2-2.19-4.58-2.51-7.19a30.68,30.68,0,0,1-2.77,2.7c-2.11,1.83-4.36,4.18-7.17,4.66a.2.2,0,0,1-.24-.25,14.82,14.82,0,0,1,1.79-3.08,13,13,0,0,0,.93-2,22.36,22.36,0,0,1-6,4.53c-.16.09-.4-.11-.27-.29a30.68,30.68,0,0,0,2.33-4.39,40.62,40.62,0,0,1-5.61,3.5c-2.31,1.21-4.72,2.24-7.1,3.25s-4.72,2-7.2,1.87a.21.21,0,0,1-.14-.35c2-2.14,4.38-3.75,6.44-5.78-3.08,1.82-6.22,3.68-9.75,4.22a.21.21,0,0,1-.15-.38c2.16-1.63,4.37-3.2,6.43-5l-1.19.61c-1.33.65-2.68,1.22-4,1.77a8.27,8.27,0,0,1-3.86.85.21.21,0,0,1-.14-.35c2.76-2.8,5.55-5.57,8-8.64-2.26,1.55-4.26,3.49-6.52,5a61.61,61.61,0,0,1-8.38,4.79,80,80,0,0,1-8.72,3.66,19.63,19.63,0,0,1-5.88,1.13,18.52,18.52,0,0,0,13.15-.53c-2.55,2.45-10.41,8.37-9.42,8.62a20,20,0,0,0,10.89-.37c-1.92,2.47-4.67,5.93-7.48,9.51a22.21,22.21,0,0,0,6.93-2.89c3-1.74,5.73-3.82,8.71-5.54a.2.2,0,0,1,.26.28,37.63,37.63,0,0,1-5.4,5.74c3.5-.9,6.34-3.37,9.44-5.18a.2.2,0,0,1,.24.32c-3,2.81-5.84,5.73-9.28,7.87a30.82,30.82,0,0,0,10.54-2.37,52.9,52.9,0,0,0,10.45-5.49.2.2,0,0,1,.27.28c-1,1.52-2.25,2.88-3.32,4.37,2.26-.87,3.92-2.85,5.73-4.45.13-.12.4,0,.32.2a29.26,29.26,0,0,1-6.76,10.47,23.53,23.53,0,0,0,6.23-3.23c2.74-1.87,5.31-4,8.21-5.63a.21.21,0,0,1,.27.29c-1,1.64-1.93,3.32-2.83,5,2.51-1.7,4.27-4.4,6.35-6.62a.2.2,0,0,1,.33.15c.16,2.45.26,5.2,1.65,7.27.65-2.23.73-4.58,1.31-6.82a.2.2,0,0,1,.38,0c.75,2.14,1.85,4.3,3.8,5.44.25-1.87,0-3.77.45-5.61a.19.19,0,0,1,.36-.05,15.14,15.14,0,0,0,2.53,4c0-1.31-.17-2.62-.19-3.93a.19.19,0,0,1,.38-.06c1.16,3.11,4.27,4.85,7,6.28.12-2.23-1.06-4.31-.83-6.56,0-.16.21-.3.34-.15a31,31,0,0,0,6.13,5.76,22.85,22.85,0,0,0,5.59,2.69,26.11,26.11,0,0,1-1-2.57,17.14,17.14,0,0,1-1-8.47.19.19,0,0,1,.36,0c4,6.54,7.4,13.67,13.79,18,.18.12.07.47-.15.38a32.8,32.8,0,0,1-6.88-4,63.83,63.83,0,0,0,12,12.21c.13.09.14.34,0,.37a20.3,20.3,0,0,1-11.39-1.51,26,26,0,0,1-4.4-2.31,33.07,33.07,0,0,0,4.09,5.51c2.51,2.69,5.74,4.54,8.12,7.36a.22.22,0,0,1,0,.33c-2,1.1-4.71.46-6.79-.12a55.07,55.07,0,0,1-6.66-2.39,37,37,0,0,1-5.68-2.89c1.12,1.89,2.27,3.75,3.42,5.62a.2.2,0,0,1-.27.28c-2.17-1.53-4.7-3.08-6.5-5.21a26,26,0,0,0,3.16,5.44c1.56,1.93,3.86,3.33,4.88,5.69a.21.21,0,0,1-.16.32c-2-.05-3.83-1.23-5.42-2.33-1.78-1.22-3.44-2.62-5.12-4a28.22,28.22,0,0,1-6.82-7.86,38.32,38.32,0,0,0,1.13,8.72.2.2,0,0,1-.33.2,13.69,13.69,0,0,1-4.43-7.07,67.31,67.31,0,0,0-.33,12,.2.2,0,0,1-.34.15,29.81,29.81,0,0,1-4-6.59,19.86,19.86,0,0,1-.79-2.16,33.45,33.45,0,0,1-3.45,3.87,17.67,17.67,0,0,1-5.93,4.09c-.15.06-.32-.16-.22-.3a28.36,28.36,0,0,0,2.34-4.08,22.17,22.17,0,0,1-2.07,2.34,13.21,13.21,0,0,1-4.51,3.22.21.21,0,0,1-.24-.26,27,27,0,0,1,1.37-3.39,51,51,0,0,1-6.84,4.83c-2.34,1.4-4.76,2.68-7.2,3.88-2.25,1.11-4.69,2.24-7.23,2.15a.21.21,0,0,1-.1-.38c5.34-2.78,9.8-7,13.78-11.71-1.56,1-3.17,1.87-4.79,2.71-4.17,2.17-8.49,4.61-13.14,5.35a.2.2,0,0,1-.15-.37,54.88,54.88,0,0,0,4.67-4.22c-2.34,1.6-4.64,3.29-7.09,4.7-2.69,1.55-5.67,3-8.8,2.92-.15,0-.28-.24-.13-.35,3.34-2.75,6.88-5.26,9.46-8.83a109.61,109.61,0,0,1-15.44,10.41c-3.91,2.07-8,4.67-12.31,5.78a30.46,30.46,0,0,0,16.3-.15l-.9.74c-5.05,4.2-16,10.58-20,13.34a38.81,38.81,0,0,0,13.42-2.77c5.23-2,10.21-4.52,15.23-7a.2.2,0,0,1,.23.32,39.11,39.11,0,0,1-7.61,6.31c8.49-.67,15.83-5.83,23.68-8.83.16-.06.31.15.22.3a24.56,24.56,0,0,1-6.85,6.56,22.13,22.13,0,0,0,9-2.56,77.68,77.68,0,0,0,9.54-5.62.2.2,0,0,1,.3.17,11.85,11.85,0,0,1-2.31,5.52c1.83-1,3.24-2.79,4.68-4.32.13-.14.41,0,.33.2-.94,2.51-2.85,4.29-4.53,6.25,4.32-1.47,8-4.66,11.73-7.32.16-.11.32.07.29.23a9.55,9.55,0,0,1-3.08,4.84c-1.35,1.31-3,2.58-3.78,4.36,5.17-1.46,9.62-4.74,14.06-7.75a.19.19,0,0,1,.29.12,15.1,15.1,0,0,0,1.62,4.69,45,45,0,0,1,1.35-5.53c.06-.18.34-.21.38,0,.68,3.33,3,5.94,4.92,8.57.3-3.4.55-6.86,2-10a.2.2,0,0,1,.36.05c1.1,4,3.45,7.09,6.11,10,0-2.79.44-5.61.36-8.4A.19.19,0,0,1,944,238a22.94,22.94,0,0,0,3.1,7.63c-.16-3.35-.29-6.71,1-9.86a.19.19,0,0,1,.35,0c1.19,8.8,5,17,9.23,24.61.1.17-.1.39-.27.28a24.06,24.06,0,0,1-6-6,72.23,72.23,0,0,0,3,8.38c.08.17-.09.41-.27.28-4.25-3.2-8.62-6.71-10.76-11.87a74.81,74.81,0,0,0-.1,12.7.19.19,0,0,1-.33.15c-2.91-2.55-4.55-6.13-6.51-9.44-.54-.9-1-1.84-1.45-2.79a30.09,30.09,0,0,1-2.06,3c-1.74,2.22-4.13,4.8-7.06,4.95-.16,0-.22-.17-.16-.3a50.17,50.17,0,0,0,1.88-5.54l-.13.15c-1.11,1.2-2.47,2.52-4.14,2.68-.18,0-.23-.23-.13-.36a25.81,25.81,0,0,0,3.6-7.67,42.38,42.38,0,0,1-5.65,6.84,25.55,25.55,0,0,1-8.28,5.71c-.18.06-.29-.16-.22-.3a58.36,58.36,0,0,0,3.16-7.88,58,58,0,0,1-5.73,4.91c-3.1,2.27-6.75,4.34-10.65,4.11a.21.21,0,0,1-.14-.35c2.57-2.34,4-5.77,5-9.21a48.69,48.69,0,0,1-5.8,5c-3,2.18-6.51,4.23-10.26,4.18a.21.21,0,0,1-.17-.31,94.83,94.83,0,0,0,4.58-10.31c-9.7,6.35-20.23,13.09-31.78,14.41,8.76.69,17.72-1.84,26.22-6.82l-.27.32c-.24.3-8.44,7.21-7.55,7.38,3.59.69,14.46-4.22,18.26-6-1.22,1.51-5.75,7.71-4.53,7.52a39.13,39.13,0,0,0,15.65-6.53c-.93,1.53-2.61,5.85-2.15,5.79,5.07-.63,10.14-4.62,14.83-7.66-.79,2.12-2.32,7.17-1.81,7.1,4.85-.62,10-4.66,14.26-9.94,2.85,5.08,6.39,9.52,10.8,12.06.6.35,1.07-7.22.91-9.91,4.59,7.29,11.08,12,18.22,9.77.56-.17-2.11-7.84-3.42-10.78,1.29,1.28,2.58,2.53,3.92,3.72a42,42,0,0,0,22,3.87c.91-.11-11.75-10.18-16.46-15.54-.83-.95-1.65-1.91-2.48-2.88a29.37,29.37,0,0,0,6.15,2.46C980,251.57,986.72,253.4,993.08,250.09Z"/><path class="cls-4" d="M930.66,80.59c-1.18-3.16-2.62-6.21-4-9.28-.3-.66-1.4-4.87-2.48-4.88-2.22,0-4,3.23-4.73,5.13a122.39,122.39,0,0,1-6.79,16.28,1.16,1.16,0,0,0-.57.57c-1.12,2.28-2.37,3.86-1.54,6.38.1.31.51,0,.64-.07a15.35,15.35,0,0,0,2.59-3c.63-.89,5.51-7.88,5.88-5,.23,1.85,2.1,4.81,3.94,2.4a7.61,7.61,0,0,0,1.38-3c.87-3.53,2.3-.84,3.13,1,.62,1.37,2.67,4.4,4.14,2S931.44,82.69,930.66,80.59Z"/><g class="cls-5"><path class="cls-6" d="M928.58,82.1c-.82-1.85-2.26-4.54-3.13-1a7.48,7.48,0,0,1-1.38,3c-1.84,2.41-3.7-.55-3.94-2.4-.37-2.86-5.24,4.13-5.88,5a15.31,15.31,0,0,1-2.59,3,1.21,1.21,0,0,1-.31.18c-.83,1.59-1.44,3-.8,5,.1.31.51,0,.64-.07a15.35,15.35,0,0,0,2.59-3c.63-.89,5.51-7.88,5.88-5,.23,1.85,2.1,4.81,3.94,2.4a7.61,7.61,0,0,0,1.38-3c.87-3.53,2.3-.84,3.13,1,.62,1.37,2.67,4.4,4.14,2,.73-1.18.5-2.85,0-4.5C930.84,85.86,929.13,83.33,928.58,82.1Z"/></g><path class="cls-4" d="M927.79,116.79c-1.77,2.1-3.5,4-6.23,2.19-1-.64-1.54-2.21-2.67-2.57-2.37-.76-4.82,3-6.43,4.33-1.45,1.21-6.35,4-6-.35.14-1.62.54-3.19.6-4.83s-1.15-3.45-2.77-2a5.47,5.47,0,0,0-1.21,2.14,3.41,3.41,0,0,1-.17.33.57.57,0,0,0-.19.19,18.52,18.52,0,0,1-1,1.66c-1.32,1.55-3.08,2.64-4.58,4-.25.22-.59,1.3-.25,1.3-2.49,2.16-5.26,4-7.71,5.86s-7,4.53-7.87,7.69,3.27,2.49,4.81,2.08c5-1.32,9.15-4.84,13.43-7.64a34.35,34.35,0,0,1,4.57-1.69c-.3.66-.72,1.26-1,1.92a4.4,4.4,0,0,0-.66,2.1c.3,2.54,6.21-1.57,6.79-2s5.86-4.75,5.36-2.38c-.09.42-.47,1.65.08,2,2.41,1.44,5.08-2,6.73-3.49,2-1.85,4.13-5.19,7.1-3,1.27.94,2.31,1.79,3.91,1.68,1.44-.1,2-2,2.14-3.17C934.9,119.66,931.36,112.54,927.79,116.79Z"/><g class="cls-5"><path class="cls-6" d="M930.66,120.79c-3-2.22-5.13,1.12-7.11,3-1.64,1.54-4.32,4.93-6.72,3.49-.55-.33-.17-1.56-.09-2,.5-2.37-4.73,1.94-5.36,2.38s-6.49,4.52-6.79,2a4.31,4.31,0,0,1,.67-2.1c.32-.66.73-1.26,1-1.92a33.9,33.9,0,0,0-4.58,1.69c-4.28,2.8-8.44,6.32-13.43,7.64-1.37.37-4.82.88-4.92-1.21a7.75,7.75,0,0,0-2,3.06c-.9,3.1,3.27,2.49,4.81,2.08,5-1.32,9.15-4.84,13.43-7.64a34.35,34.35,0,0,1,4.57-1.69c-.3.66-.72,1.26-1,1.92a4.4,4.4,0,0,0-.66,2.1c.3,2.54,6.21-1.57,6.79-2s5.86-4.75,5.36-2.38c-.09.42-.47,1.65.08,2,2.41,1.44,5.08-2,6.73-3.49,2-1.85,4.13-5.19,7.1-3,1.27.94,2.31,1.79,3.91,1.68,1.44-.1,2-2,2.14-3.17a4.94,4.94,0,0,0,0-.77h0C933,122.58,931.92,121.73,930.66,120.79Z"/></g><path class="cls-4" d="M962,144.73c-4-1.32-8.18-2-12.14-3.6-1.35-.55-3.5-1.66-4.94-.87-2.4,1.3-1.57,4.22-1.06,6.43a20.57,20.57,0,0,1,.43,2.47c.29,2.8-2.85,1.56-4,.69-2.16-1.6-3.32-3.47-6.06-3.92a2.61,2.61,0,0,0-2.65,1.48A6.71,6.71,0,0,0,931,149q0,.45-.06.9c0,.45,0,6.66-3.13,2.76-1.44-1.81-4.4-7.84-6.79-3.79-1.73,2.91-4.38,9.43-8.62,7.5-2.13-1-.06-7-.61-9.07-.08-.33-.57-.07-.69.06-2.52,2.41-4,5.46-5.52,8.52-3,3.33-6.32,6.46-8.37,10.59s2.36,4.4,5,3.19,5.06-3.31,7.31-5.19c1-.85,2-1.74,3.06-2.6,1.68-1.42,1.55-1.35,1.88.91.28,1.83,1.25,5.29,3.75,4.54,2.27-.67,3.41-2.75,4.6-4.73,2.32-3.87,4.3-2.47,6.1-.07a9.82,9.82,0,0,0,4.08,2.94,5.88,5.88,0,0,0,6.61-1.42c1.8-1.77,1.63-4.33,1.8-6.7.19-2.63,4.56.68,5.19,1a17.65,17.65,0,0,0,6.68,1.48c3.06.18,11,2.05,12.78-1.68,1.13-2.32-1.6-4.27-4.48-5.88,3.15,1.15,6.43,2.21,8.23-.5C972.4,147.91,964.05,145.41,962,144.73Z"/><path class="cls-7" d="M952.51,156.12a17.55,17.55,0,0,1-6.69-1.48c-.62-.29-5-3.6-5.18-1-.17,2.37,0,4.92-1.8,6.69a5.87,5.87,0,0,1-6.61,1.43,9.79,9.79,0,0,1-4.09-2.95c-1.8-2.39-3.78-3.79-6.09.07-1.19,2-2.34,4.07-4.6,4.74-1.56.46-2.52-.7-3.09-2.08,0,.29.11.68.18,1.2.28,1.83,1.25,5.29,3.75,4.54,2.27-.67,3.41-2.75,4.6-4.73,2.32-3.87,4.3-2.47,6.1-.07a9.82,9.82,0,0,0,4.08,2.94,5.88,5.88,0,0,0,6.61-1.42c1.8-1.77,1.63-4.33,1.8-6.7.19-2.63,4.56.68,5.19,1a17.65,17.65,0,0,0,6.68,1.48c3.06.18,11,2.05,12.78-1.68.61-1.25.07-2.4-1-3.44C963.12,158.08,955.5,156.31,952.51,156.12Z"/><path class="cls-7" d="M911.82,158.2c-1,.86-2,1.74-3.06,2.6a33.75,33.75,0,0,1-7.32,5.18,6.47,6.47,0,0,1-4.19.47h0c-2.11,4.21,2.36,4.4,5,3.19s5.06-3.31,7.31-5.19c1-.85,2-1.74,3.06-2.6s1.29-1.09,1.5-.85a11.13,11.13,0,0,1-.46-1.91C913.36,156.85,913.49,156.78,911.82,158.2Z"/><path class="cls-7" d="M969.05,148l0,0c-1.79,2.72-5.07,1.66-8.22.51,2.4,1.34,4.67,2.93,4.7,4.76,1.75.26,3.32,0,4.37-1.6C970.82,150.3,970.24,149.06,969.05,148Z"/><path class="cls-4" d="M914.36,161.57a1.19,1.19,0,0,0-.2-.56C914.22,161.2,914.28,161.38,914.36,161.57Z"/><path class="cls-4" d="M965.14,154.67a1.7,1.7,0,0,0,.15-.22,2.39,2.39,0,0,0,.22-1.12,20.18,20.18,0,0,1-3.86-1.1A17,17,0,0,1,965.14,154.67Z"/><path class="cls-4" d="M933.53,204.36c-.26-2.33-1.69-3.92-3.93-2.58a17.68,17.68,0,0,0-4,3.34,24.43,24.43,0,0,1-4,3.72c-1.1.77-.65-3.12-.63-3.61.53-10-8.39-3.39-12.38-.58a75.64,75.64,0,0,1-8.09,4.66c-.58.31-4.87,3.07-2.14-.34.61-.76,1.25-1.47,1.85-2.23,1.07-1.36,2.57-4.23,1-5.86-2.67-2.87-8.21,3.45-10,5.09-1.39,1.23-4.94,5.68-7.15,3.48-1.87-1.87,1.17-5.39,1.67-7.23.45-1.64,2.31-6.91.32-8-2.85-1.51-5.53,6.26-6.83,7.66-3,3.22-6.21,6.24-9.39,9.29-2,1.94-6.32,5-6.68,8.1-.21,1.72,3.85-.69,4.12-.85a69.11,69.11,0,0,0,5.9-4.1c1-.74,2.13-1.4,3.24-2,5.31-3-1,3.77-2.31,4.67-7.46,5.33-15.54,9.13-20.86,17.22-.94,1.43-1.18,3.32.68,3.82,2.41.65,5.9-3,7.57-4.36,4-3.35,8.62-5.82,12.62-9.2l.9-.77a6.31,6.31,0,0,1,4.3-1.95,16.55,16.55,0,0,1-1,1.91c-.7,1.24-1.43,2.46-2.06,3.75-3.06,6.21,6.12-.38,7.48-1.57,1.85-1.63,3.53-3.48,5.31-5.19a27.35,27.35,0,0,1,3.57-2.89c1-.7,2.67-.75,3.34-1.83-1.68,2.73-4.06,4.86-5.54,7.75-.48.94-.88,2.88.65,3,3.15.29,5.94-2.62,8.15-4.6,1.58-1.42,3.09-2.91,4.7-4.29-1,.85-1.61,2.57-2.74,3.53-.74.63-1.52,1.21-2.28,1.8-2.53,2-4.71,4.08-5.73,7.28-.06.18-.11.68.2.67,3.33-.14,6-2.4,8.56-4.48,4.4-3.63,8.83-7.3,13.08-11.13a43.41,43.41,0,0,0-2.57,4c-.55,1-1.65,3.21-.08,3.8,2.16.82,5.21-1.6,6.67-3a23.71,23.71,0,0,0,2.83-3.55c.6-.85,1.18-1.73,1.77-2.59s3.61-3.44,3.7-4.22c-.34,3-.86,6.11-.1,9.13.43,1.7,2.48,3.3,4,1.81C935,217.11,934.1,209.24,933.53,204.36Z"/><path class="cls-7" d="M895.58,212.8a29.1,29.1,0,0,0-3.57,2.89c-1.78,1.71-3.46,3.57-5.31,5.19-1.35,1.2-10.53,7.78-7.47,1.57.63-1.28,1.35-2.5,2-3.74a17.42,17.42,0,0,0,1-1.91,6.2,6.2,0,0,0-4.29,1.95l-.9.77c-4,3.38-8.62,5.84-12.63,9.2-1.66,1.4-5.16,5-7.56,4.36a1.71,1.71,0,0,1-1.39-1.85,31.31,31.31,0,0,0-2.24,3c-.94,1.43-1.18,3.32.68,3.82,2.41.65,5.9-3,7.57-4.36,4-3.35,8.62-5.82,12.62-9.2l.9-.77a6.31,6.31,0,0,1,4.3-1.95,16.55,16.55,0,0,1-1,1.91c-.7,1.24-1.43,2.46-2.06,3.75-3.06,6.21,6.12-.38,7.48-1.57,1.85-1.63,3.53-3.48,5.31-5.19a27.35,27.35,0,0,1,3.57-2.89,8.74,8.74,0,0,1,1.81-.78c1.41-2.07,3.15-3.85,4.47-6C898.25,212.06,896.59,212.11,895.58,212.8Z"/><path class="cls-7" d="M901.86,218.19c.76-.6,1.54-1.17,2.28-1.8,1.13-1,1.75-2.69,2.74-3.53-1.61,1.37-3.12,2.87-4.69,4.28-2.21,2-5,4.89-8.15,4.6-1-.09-1.18-1-1-1.82a22.84,22.84,0,0,0-2.56,3.76c-.48.94-.88,2.88.65,3,2,.18,3.77-.87,5.4-2.17A15.89,15.89,0,0,1,901.86,218.19Z"/><path class="cls-4" d="M879.39,207.36c-1.11.64-2.19,1.3-3.24,2-1.94,1.38-3.84,2.92-5.9,4.1-.26.14-3.88,2.3-4.11,1.09-1.47,1.45-2.76,3.07-2.95,4.71s3.85-.69,4.12-.85a69.11,69.11,0,0,0,5.9-4.1c1-.74,2.13-1.4,3.24-2,.33-.19.61-.34.85-.45C878.92,210.52,884.46,204.46,879.39,207.36Z"/><path class="cls-4" d="M883.1,195.56a13.52,13.52,0,0,0-1.11,1.62l.21-.22A7.77,7.77,0,0,0,883.1,195.56Z"/><path class="cls-4" d="M901,205.64a7.33,7.33,0,0,0,.88-2.25l-.52.62C900.1,205.57,900.32,205.84,901,205.64Z"/><path class="cls-7" d="M918,210.53c-4.25,3.83-8.67,7.49-13.08,11.13-2.52,2.08-5.23,4.33-8.56,4.48-.23,0-.26-.28-.23-.49a12.25,12.25,0,0,0-2.91,4.77c-.06.18-.11.68.2.67,3.33-.14,6-2.4,8.56-4.48,4.34-3.59,8.71-7.2,12.91-11a9.42,9.42,0,0,1,.55-1.14A45.37,45.37,0,0,1,918,210.53Z"/><path class="cls-7" d="M930.19,214.08c-.76-3-.23-6.08.1-9.12-.08.78-3.14,3.4-3.7,4.21s-1.16,1.74-1.77,2.59a23.21,23.21,0,0,1-2.83,3.55c-1.46,1.38-4.51,3.8-6.67,3-1-.39-.91-1.46-.55-2.43a40.47,40.47,0,0,0-2.31,3.58c-.55,1-1.65,3.21-.08,3.8,2.16.82,5.21-1.6,6.67-3a23.71,23.71,0,0,0,2.83-3.55c.6-.85,1.18-1.73,1.77-2.59s3.61-3.44,3.7-4.22c-.34,3-.86,6.11-.1,9.13.43,1.7,2.48,3.3,4,1.81a9.19,9.19,0,0,0,2.33-4.53C932.16,217,930.56,215.56,930.19,214.08Z"/><path class="cls-4" d="M894.45,217a18.16,18.16,0,0,0-1.07,1.75,4.27,4.27,0,0,0-.38,1.19,40.57,40.57,0,0,0,3-4A2.81,2.81,0,0,1,894.45,217Z"/><path class="cls-4" d="M914.86,215.63a1.17,1.17,0,0,0-.09.24l.26-.39Z"/><path class="cls-4" d="M898.92,223.14c.76-.59,1.54-1.17,2.28-1.8,1.13-1,1.75-2.68,2.74-3.53-1.61,1.38-3.12,2.87-4.7,4.29-.83.75-1.76,1.64-2.75,2.43-.13.3-.25.61-.36.94a.74.74,0,0,0,0,.18A24.37,24.37,0,0,1,898.92,223.14Z"/><path class="cls-2" d="M871.21,235.26c.35-.19-8.89-8.32-13-13.41A30.11,30.11,0,0,0,869,220.57c.87-.27-13.35-14.61-19.31-21.26,2,1.17,9.46,5.08,11.6,5.5,1.06.2-11.71-13-14.52-16.75a20.21,20.21,0,0,0,12.78,1.42c.93-.18-13.17-17.65-19.17-25.39a20,20,0,0,0,10.89.38c1-.25-6.88-6.17-9.43-8.62a18.44,18.44,0,0,0,13.24.49c.85-.3-9.69-10.56-16.86-18.86,2.6,0,5.39-.54,7.39-2.23,0,0,.17-.17.1-.21-8.16-4.59-16.18-10.17-21.45-18.22,5.16,5.71,12.26,7.44,18.05,5.66,0,0,.07-.06.1-.1l-1.31-1c-3.53-2.69-15.28-14.39-17.94-17.52a13.13,13.13,0,0,0,5.24,1.5,35.25,35.25,0,0,1-5.59-6.77A40.94,40.94,0,0,1,818,92.26c-1.69-2.74-4.44-8.13-5.49-9.43,3.51,4.35,7.41,8.57,11.92,8.54h0c-10-8.46-17.37-22.49-23.18-36.22-2.89,6.23-6.36,12.07-9.67,17.73-4,6.95-8.51,13.75-14,18.45a.6.6,0,0,0,.24.05c4.51,0,8.41-4.19,11.92-8.54-1,1.3-3.79,6.69-5.48,9.43C781.35,97,773,105.45,773.6,105.42a13.16,13.16,0,0,0,5.5-1.53c-5.68,6.66-19.92,18.35-19.15,18.59,6,1.85,13.4-.08,18.6-6.3-.32.47-.65.91-.92,1.33-.91,1.38-1.8,2.78-2.73,4.15a67.25,67.25,0,0,1-5.85,7.65,32.75,32.75,0,0,1-14.77,9.79s-.21.19-.13.23a14.51,14.51,0,0,0,7.27,1.11c-6.85,7.59-15,15.64-14.25,15.9a18.44,18.44,0,0,0,13.24-.49c-2.55,2.45-10.41,8.37-9.43,8.62a20,20,0,0,0,10.9-.38c-6,7.74-20.11,25.21-19.18,25.39a20.24,20.24,0,0,0,12.79-1.42c-2.81,3.74-15,15.28-14,15.08,2.14-.41,9.07-2.66,11-3.83-6,6.65-20.17,21-19.31,21.26a30.56,30.56,0,0,0,17.39.16l-.9.73c-6.37,5.31-22.14,14.06-21.41,14.66,6.49,5.38,17.92,1.81,24.88-.1l.7-.2c-4.65,5.06-17,15-16,15.1,9.15,1,18.55-1.48,27.44-6.7-.08.11-.17.21-.26.32-.24.3-8.44,7.21-7.55,7.38,3.58.69,14.45-4.23,18.26-6-1.22,1.51-5.75,7.7-4.53,7.51a38.86,38.86,0,0,0,15.64-6.52c-.92,1.53-2.6,5.85-2.14,5.79,5.07-.63,10.14-4.63,14.83-7.66-.8,2.12-2.32,7.17-1.81,7.1,4.85-.63,10-4.66,14.26-9.94,2.85,5.08,6.39,9.52,10.79,12.06.61.35,1.08-7.22.92-9.91,4.58,7.29,11.08,12,18.22,9.77.56-.18-2.11-7.84-3.42-10.78,1.29,1.27,2.58,2.53,3.92,3.71a41.78,41.78,0,0,0,22,3.87c.91-.1-11.75-10.17-16.46-15.53-.84-.95-1.65-1.92-2.48-2.88a29.92,29.92,0,0,0,6.15,2.46C858.1,236.73,864.85,238.57,871.21,235.26Z"/><path class="cls-3" d="M871.21,235.26c.35-.19-8.89-8.32-13-13.41A30.11,30.11,0,0,0,869,220.57c.87-.27-13.35-14.61-19.31-21.26,2,1.17,9.46,5.08,11.6,5.5,1.06.2-11.71-13-14.52-16.75a20.21,20.21,0,0,0,12.78,1.42c.93-.18-13.17-17.65-19.17-25.39a20,20,0,0,0,10.89.38c1-.25-6.88-6.17-9.43-8.62a18.44,18.44,0,0,0,13.24.49c.85-.3-9.69-10.56-16.86-18.86,2.6,0,5.39-.54,7.39-2.23,0,0,.17-.17.1-.21-8.16-4.59-16.18-10.17-21.45-18.22,5.16,5.71,12.26,7.44,18.05,5.66,0,0,.07-.06.1-.1l-1.31-1c-3.53-2.69-15.28-14.39-17.94-17.52a13.13,13.13,0,0,0,5.24,1.5,35.25,35.25,0,0,1-5.59-6.77A40.94,40.94,0,0,1,818,92.26c-1.69-2.74-4.44-8.13-5.49-9.43,3.51,4.35,7.41,8.57,11.92,8.54h0c-9.87-8.39-17.24-22.24-23-35.84a48.29,48.29,0,0,0,1.95,11.94,45.64,45.64,0,0,0,6.34,12.91.2.2,0,0,1-.27.28c-2.44-1.57-5.49-3.44-6.83-6.25.14,1.75.19,3.5.35,5.24a.19.19,0,0,1-.33.14,13.44,13.44,0,0,1-2.8-4,7.87,7.87,0,0,1-1.55,3.87.19.19,0,0,1-.32-.08,13.37,13.37,0,0,1-.3-3.42c-.41.73-.87,1.41-1.32,2.11-1.28,2-2.32,4.34-4.31,5.7a.19.19,0,0,1-.28-.23,35.1,35.1,0,0,0,1.67-6.81,11.22,11.22,0,0,1-4.1,4.36c-.14.07-.36,0-.29-.23.45-1.23,1.13-2.36,1.58-3.58-3.65,5.08-7.29,10.28-12.3,13.93,4.29-.29,8-4.34,11.4-8.53-1,1.3-3.79,6.69-5.48,9.43C781.35,97,773,105.45,773.6,105.42l.25,0a35.4,35.4,0,0,0,6.87-5.72,36.63,36.63,0,0,0,6.56-9.19c.12-.24.44,0,.34.21a36.27,36.27,0,0,1-3.92,6.89c3.41-1.7,6-4.87,8.72-7.59.16-.16.41,0,.3.26-.53,1-1,2.11-1.59,3.15,1.62-1.23,2.82-3,4.26-4.41a.2.2,0,0,1,.33.2,42.94,42.94,0,0,0-1.12,4.29,70.15,70.15,0,0,0,4.16-6.13.2.2,0,0,1,.36.16,26,26,0,0,0-1.06,5.68,10.08,10.08,0,0,0,.61,5.08c1.2-3.53,2.25-7.13,4.45-10.14a.19.19,0,0,1,.35.16A11.36,11.36,0,0,0,803,92c1-1.38,1.36-3.16,2.61-4.34a.19.19,0,0,1,.33.14,22.42,22.42,0,0,0,2.45,9.77c.31.65.63,1.29,1,1.92a36.83,36.83,0,0,1-1-9.79.2.2,0,0,1,.39,0c1.31,3.88,2.61,7.9,4.87,11.31,2,3.06,4.64,5.64,6.58,8.77a.2.2,0,0,1-.22.3c-2.84-.78-4.93-3.13-6.89-5.35,1.17,2.18,2.74,4.1,3.92,6.28a.2.2,0,0,1-.21.3,21.88,21.88,0,0,1-6.26-2.66,13.64,13.64,0,0,1-1.62-1.24,33.12,33.12,0,0,0,1.51,4.15c.09.21-.16.44-.31.26-1.7-2.09-3.56-4.26-4.38-6.9a43.34,43.34,0,0,1-.71,5.8c0,.22-.32.17-.38,0a11.8,11.8,0,0,1-.67-3.79c-.83,2.32-1.7,4.74-3.46,6.45a.2.2,0,0,1-.33-.2c.25-1.25.55-2.49.81-3.74-2.84,4-6.72,7.39-11.3,8.58-.15,0-.34-.15-.23-.31a68.29,68.29,0,0,0,4.2-6.52,36,36,0,0,1-3.11,2.24c-1.76,1.1-3.61,2.16-5.45,3.11-1.43.73-3.14,1.6-4.76,1.25a.21.21,0,0,1-.12-.3,52.67,52.67,0,0,1,3.34-4.09,16.38,16.38,0,0,0,1.51-2.76,6.41,6.41,0,0,1-3.83,2.24c-.18,0-.24-.23-.14-.35a16.84,16.84,0,0,0,2.23-3.8c-4,4.7-9.6,7.56-14.74,10.66a30.14,30.14,0,0,1-5.67,2.72,8.39,8.39,0,0,1-2.51.56c5.9,1.59,13-.4,18.09-6.44-.32.47-.65.91-.92,1.33-.91,1.38-1.8,2.78-2.73,4.15a74.23,74.23,0,0,1-4.92,6.59l.2-.11c1.11-.65,2.22-1.33,3.28-2.07,2.43-1.7,4.71-3.77,7.46-4.92.17-.07.29.16.22.3-1.32,2.69-3.73,4.42-5.56,6.68,5.19-.69,10-3.09,14.8-5.08.18-.08.33.21.19.34-.91.85-1.9,1.59-2.81,2.44,1.78-.44,3.31-1.63,4.91-2.54.22-.12.41.22.2.36a23,23,0,0,0-2.89,2.69c-.79.75-6.21,4-7.56,5.68,1.46.09,7.35-2.4,8.89-3.1a76.41,76.41,0,0,0,11-6.07c.19-.13.37.15.23.32l-2.33,2.73c1.88-.88,3.36-2.74,4.61-4.36.12-.16.32,0,.33.14a37.59,37.59,0,0,0,1.63,9.24c0-.25,0-.49,0-.74a59.71,59.71,0,0,1,.85-7.43.19.19,0,0,1,.35,0,53.34,53.34,0,0,0,3,6.08,29.38,29.38,0,0,1-.13-8.27.2.2,0,0,1,.38,0,15.58,15.58,0,0,0,2,4.86c-.09-1.81-.41-3.64.13-5.42a.2.2,0,0,1,.38,0,31.72,31.72,0,0,0,5.65,9.42c2.28,2.64,4.88,5,7.05,7.71.12.16,0,.4-.19.34a23,23,0,0,1-6.67-2.94c1.39,4.07,4.72,7.49,7.81,10.09a.2.2,0,0,1-.13.35,14.7,14.7,0,0,1-6-1.71,15.81,15.81,0,0,1-4.67-3.42c.25,1.53.66,3,1,4.54a.19.19,0,0,1-.32.2,10.75,10.75,0,0,1-2.31-3.59,46.86,46.86,0,0,0,.93,8.09.2.2,0,0,1-.32.2,12.74,12.74,0,0,1-3.81-6.92,49.06,49.06,0,0,0-2.45,9.06.2.2,0,0,1-.33.09c-1.66-2-2.19-4.58-2.51-7.19a32.09,32.09,0,0,1-2.77,2.7c-2.11,1.82-4.37,4.18-7.17,4.66a.21.21,0,0,1-.24-.26,15,15,0,0,1,1.79-3.07,13,13,0,0,0,.92-2,21.82,21.82,0,0,1-6,4.52.2.2,0,0,1-.27-.28,29.76,29.76,0,0,0,2.34-4.39,41.6,41.6,0,0,1-5.61,3.5c-2.31,1.21-4.72,2.23-7.1,3.25s-4.72,2-7.2,1.87a.22.22,0,0,1-.14-.36c2-2.13,4.38-3.75,6.44-5.77-3.09,1.82-6.22,3.68-9.76,4.22a.21.21,0,0,1-.14-.38c2.16-1.63,4.37-3.2,6.43-5l-1.19.61c-1.33.65-2.68,1.22-4,1.77a8.27,8.27,0,0,1-3.86.85.21.21,0,0,1-.14-.35c2.76-2.8,5.55-5.58,8-8.64-2.27,1.54-4.26,3.49-6.53,5.05a59.37,59.37,0,0,1-8.38,4.78,79.9,79.9,0,0,1-8.71,3.67,19.62,19.62,0,0,1-5.88,1.12,18.52,18.52,0,0,0,13.15-.52c-2.55,2.45-10.41,8.37-9.43,8.62a20,20,0,0,0,10.9-.38c-1.92,2.47-4.67,5.94-7.49,9.52a22.37,22.37,0,0,0,6.93-2.9c3-1.73,5.74-3.82,8.71-5.54.16-.09.4.11.27.29a38.13,38.13,0,0,1-5.4,5.74c3.5-.9,6.34-3.37,9.44-5.19a.21.21,0,0,1,.24.33c-3,2.8-5.84,5.73-9.28,7.86a30.8,30.8,0,0,0,10.54-2.36,52.9,52.9,0,0,0,10.45-5.49c.16-.11.38.11.27.28-1,1.52-2.25,2.88-3.32,4.37,2.26-.87,3.92-2.85,5.72-4.45.13-.12.41,0,.33.2a29.26,29.26,0,0,1-6.76,10.47,23.35,23.35,0,0,0,6.22-3.24c2.74-1.86,5.32-4,8.22-5.62a.2.2,0,0,1,.27.28q-1.49,2.48-2.83,5c2.51-1.7,4.27-4.41,6.35-6.62a.19.19,0,0,1,.33.15c.15,2.45.26,5.2,1.65,7.27.65-2.23.73-4.58,1.31-6.82a.2.2,0,0,1,.38,0c.75,2.14,1.85,4.3,3.8,5.43.24-1.86,0-3.76.44-5.6a.2.2,0,0,1,.36,0,15.17,15.17,0,0,0,2.54,4c0-1.32-.17-2.63-.19-3.94,0-.24.3-.26.38-.05,1.15,3.11,4.27,4.85,7,6.28.12-2.23-1.07-4.31-.83-6.56,0-.17.21-.3.34-.15a30.63,30.63,0,0,0,6.12,5.76A23.2,23.2,0,0,0,830,175.5c-.37-.85-.7-1.71-1-2.58a17.09,17.09,0,0,1-1-8.46.19.19,0,0,1,.36-.05c4,6.53,7.4,13.67,13.79,18,.18.12.07.47-.15.38a33.12,33.12,0,0,1-6.89-4,64.47,64.47,0,0,0,12,12.21c.12.09.14.34,0,.37a20.35,20.35,0,0,1-11.4-1.51,27.07,27.07,0,0,1-4.39-2.31,33.07,33.07,0,0,0,4.09,5.51c2.51,2.69,5.74,4.54,8.12,7.36a.21.21,0,0,1,0,.32c-2,1.11-4.71.46-6.79-.11a55.07,55.07,0,0,1-6.66-2.39,37.92,37.92,0,0,1-5.68-2.89c1.12,1.88,2.27,3.75,3.42,5.62.1.17-.11.39-.27.28-2.18-1.53-4.7-3.08-6.5-5.21a26,26,0,0,0,3.15,5.44c1.56,1.93,3.87,3.32,4.89,5.69a.2.2,0,0,1-.17.31c-1.95,0-3.82-1.22-5.41-2.32-1.78-1.23-3.44-2.63-5.12-4a28.31,28.31,0,0,1-6.83-7.87,38.35,38.35,0,0,0,1.14,8.73.2.2,0,0,1-.33.2,13.79,13.79,0,0,1-4.44-7.08,67.45,67.45,0,0,0-.32,12,.2.2,0,0,1-.34.14,29.52,29.52,0,0,1-4-6.58,22.25,22.25,0,0,1-.8-2.16,31.61,31.61,0,0,1-3.44,3.86,17.7,17.7,0,0,1-5.93,4.1.21.21,0,0,1-.22-.31,28.25,28.25,0,0,0,2.34-4.07,22.17,22.17,0,0,1-2.07,2.34,13.18,13.18,0,0,1-4.51,3.21.21.21,0,0,1-.25-.25,27,27,0,0,1,1.38-3.39,50.88,50.88,0,0,1-6.84,4.82c-2.35,1.41-4.76,2.69-7.2,3.89-2.25,1.1-4.69,2.24-7.23,2.15-.18,0-.28-.29-.1-.38,5.34-2.78,9.8-7,13.78-11.71-1.56,1-3.17,1.87-4.8,2.71-4.16,2.16-8.48,4.61-13.13,5.35a.2.2,0,0,1-.15-.37,54.84,54.84,0,0,0,4.67-4.23c-2.34,1.61-4.64,3.29-7.09,4.71-2.69,1.55-5.67,3-8.8,2.92-.15,0-.28-.24-.14-.36,3.35-2.74,6.89-5.25,9.47-8.82a109.13,109.13,0,0,1-15.45,10.41c-3.91,2.06-8,4.67-12.3,5.78a30.66,30.66,0,0,0,16.3-.15l-.9.73c-5.06,4.21-16,10.59-20,13.34A38.4,38.4,0,0,0,743.18,232a166.84,166.84,0,0,0,15.22-7,.2.2,0,0,1,.24.32,39.06,39.06,0,0,1-7.61,6.3c8.49-.67,15.82-5.83,23.68-8.83a.21.21,0,0,1,.21.31c-1.77,2.8-4.28,4.71-6.84,6.56a22.13,22.13,0,0,0,9-2.56,76.5,76.5,0,0,0,9.54-5.63.2.2,0,0,1,.3.18,11.85,11.85,0,0,1-2.31,5.52c1.83-1,3.23-2.79,4.68-4.32a.2.2,0,0,1,.33.2c-.94,2.51-2.85,4.29-4.53,6.25,4.32-1.47,8-4.66,11.73-7.32.15-.11.32.07.29.23A9.55,9.55,0,0,1,794,227.1c-1.36,1.32-3,2.59-3.78,4.37,5.16-1.46,9.62-4.74,14.06-7.76a.2.2,0,0,1,.29.13,15,15,0,0,0,1.62,4.68,45.34,45.34,0,0,1,1.35-5.52.19.19,0,0,1,.37,0c.69,3.33,3,5.94,4.93,8.57.3-3.41.55-6.87,2-10a.19.19,0,0,1,.36,0c1.09,4,3.44,7.09,6.11,10,0-2.79.44-5.61.36-8.4a.19.19,0,0,1,.38-.06,22.75,22.75,0,0,0,3.09,7.63c-.15-3.35-.28-6.7,1-9.85a.19.19,0,0,1,.35.05c1.19,8.8,5,17,9.23,24.6.1.18-.1.4-.27.29a24.06,24.06,0,0,1-6-6,72.9,72.9,0,0,0,3,8.38c.07.17-.09.41-.27.28-4.25-3.2-8.63-6.71-10.76-11.87a73.79,73.79,0,0,0-.1,12.7c0,.2-.22.24-.33.14-2.91-2.54-4.55-6.13-6.52-9.43-.53-.9-1-1.84-1.44-2.79a31.73,31.73,0,0,1-2.06,3c-1.75,2.23-4.14,4.8-7.06,5-.16,0-.22-.18-.17-.3a46.32,46.32,0,0,0,1.88-5.54l-.13.14c-1.1,1.21-2.46,2.53-4.13,2.68-.19,0-.23-.22-.14-.35a26,26,0,0,0,3.61-7.67,41.92,41.92,0,0,1-5.66,6.84,25.4,25.4,0,0,1-8.27,5.71c-.18.06-.3-.16-.22-.31a59,59,0,0,0,3.16-7.87,57.9,57.9,0,0,1-5.73,4.9c-3.1,2.28-6.75,4.35-10.65,4.12-.16,0-.28-.23-.14-.35,2.57-2.34,4-5.78,5-9.21a48.69,48.69,0,0,1-5.8,5c-3,2.18-6.51,4.23-10.26,4.18a.21.21,0,0,1-.17-.31,94.13,94.13,0,0,0,4.58-10.32c-9.7,6.36-20.23,13.1-31.79,14.42,8.77.68,17.73-1.84,26.22-6.82-.08.11-.17.21-.26.32-.24.3-8.44,7.21-7.55,7.38,3.58.69,14.45-4.23,18.26-6-1.22,1.51-5.75,7.7-4.53,7.51a38.86,38.86,0,0,0,15.64-6.52c-.92,1.53-2.6,5.85-2.14,5.79,5.07-.63,10.14-4.63,14.83-7.66-.8,2.12-2.32,7.17-1.81,7.1,4.85-.63,10-4.66,14.26-9.94,2.85,5.08,6.39,9.52,10.79,12.06.61.35,1.08-7.22.92-9.91,4.58,7.29,11.08,12,18.22,9.77.56-.18-2.11-7.84-3.42-10.78,1.29,1.27,2.58,2.53,3.92,3.71a41.78,41.78,0,0,0,22,3.87c.91-.1-11.75-10.17-16.46-15.53-.84-.95-1.65-1.92-2.48-2.88a29.92,29.92,0,0,0,6.15,2.46C858.1,236.73,864.85,238.57,871.21,235.26Z"/><path class="cls-4" d="M808.79,65.76c-1.18-3.16-2.63-6.21-4-9.29-.3-.65-1.4-4.86-2.48-4.87-2.22,0-4,3.22-4.74,5.13A121,121,0,0,1,790.79,73a1.22,1.22,0,0,0-.58.57c-1.11,2.28-2.36,3.86-1.53,6.38.1.31.51,0,.63-.07a15.13,15.13,0,0,0,2.6-3c.63-.88,5.5-7.87,5.87-5,.24,1.85,2.11,4.81,4,2.4a7.44,7.44,0,0,0,1.37-3c.88-3.53,2.31-.83,3.14,1,.61,1.38,2.67,4.41,4.14,2S809.57,67.85,808.79,65.76Z"/><g class="cls-5"><path class="cls-6" d="M806.71,67.27c-.83-1.85-2.26-4.55-3.13-1a7.59,7.59,0,0,1-1.38,3c-1.84,2.41-3.71-.55-3.94-2.4-.37-2.86-5.25,4.13-5.88,5a15.65,15.65,0,0,1-2.59,3,1.41,1.41,0,0,1-.31.18c-.83,1.59-1.45,3-.8,4.95.1.31.51,0,.63-.07a15.13,15.13,0,0,0,2.6-3c.63-.88,5.5-7.87,5.87-5,.24,1.85,2.11,4.81,4,2.4a7.44,7.44,0,0,0,1.37-3c.88-3.53,2.31-.83,3.14,1,.61,1.38,2.67,4.41,4.14,2,.73-1.17.49-2.85,0-4.49C809,71,807.26,68.49,806.71,67.27Z"/></g><path class="cls-4" d="M805.92,102c-1.77,2.1-3.5,4-6.23,2.19-1-.64-1.55-2.21-2.67-2.58-2.37-.76-4.82,3-6.44,4.34-1.44,1.21-6.34,4-5.94-.35.14-1.62.54-3.19.6-4.83s-1.15-3.45-2.78-2a5.45,5.45,0,0,0-1.2,2.14,3.41,3.41,0,0,1-.17.33.44.44,0,0,0-.19.19,17.06,17.06,0,0,1-1,1.65,52.05,52.05,0,0,1-4.58,4c-.25.23-.59,1.31-.25,1.31-2.5,2.16-5.26,4-7.71,5.86s-7,4.53-7.88,7.69,3.28,2.49,4.82,2.08c5-1.32,9.15-4.85,13.43-7.64a35.58,35.58,0,0,1,4.57-1.7c-.31.67-.72,1.27-1,1.93a4.19,4.19,0,0,0-.66,2.1c.3,2.54,6.21-1.57,6.78-2s5.87-4.75,5.37-2.38c-.09.41-.47,1.64.08,2,2.4,1.44,5.08-1.95,6.73-3.49,2-1.85,4.13-5.19,7.1-3,1.27.94,2.31,1.78,3.91,1.68,1.44-.1,2-1.95,2.13-3.18C813,104.83,809.49,97.71,805.92,102Z"/><g class="cls-5"><path class="cls-6" d="M808.79,106c-3-2.22-5.13,1.12-7.11,3-1.64,1.54-4.32,4.93-6.72,3.49-.56-.33-.17-1.57-.09-2,.5-2.37-4.73,1.94-5.36,2.38s-6.49,4.52-6.79,2a4.31,4.31,0,0,1,.67-2.1c.32-.66.73-1.26,1-1.92a33.9,33.9,0,0,0-4.58,1.69c-4.28,2.8-8.44,6.32-13.43,7.64-1.37.37-4.83.88-4.92-1.21a7.82,7.82,0,0,0-2,3.06c-.89,3.1,3.28,2.49,4.82,2.08,5-1.32,9.15-4.85,13.43-7.64a35.58,35.58,0,0,1,4.57-1.7c-.31.67-.72,1.27-1,1.93a4.19,4.19,0,0,0-.66,2.1c.3,2.54,6.21-1.57,6.78-2s5.87-4.75,5.37-2.38c-.09.41-.47,1.64.08,2,2.4,1.44,5.08-1.95,6.73-3.49,2-1.85,4.13-5.19,7.1-3,1.27.94,2.31,1.78,3.91,1.68,1.44-.1,2-1.95,2.13-3.18a6.3,6.3,0,0,0,0-.76h0C811.09,107.75,810.05,106.9,808.79,106Z"/></g><path class="cls-4" d="M840.09,129.9c-4-1.32-8.18-2-12.14-3.6-1.35-.55-3.5-1.66-5-.87-2.4,1.3-1.56,4.22-1,6.43a20.57,20.57,0,0,1,.43,2.47c.29,2.8-2.85,1.56-4,.69-2.16-1.61-3.32-3.47-6.06-3.93a2.63,2.63,0,0,0-2.65,1.49,6.27,6.27,0,0,0-.48,1.58c0,.3,0,.6-.06.89,0,.46,0,6.67-3.13,2.77-1.44-1.81-4.4-7.84-6.8-3.79-1.72,2.91-4.37,9.42-8.61,7.5-2.13-1-.07-7-.61-9.08-.09-.33-.57-.06-.7.06-2.51,2.42-4,5.47-5.51,8.53-3,3.33-6.32,6.46-8.38,10.59s2.36,4.39,5,3.19,5.07-3.31,7.32-5.19c1-.86,2-1.74,3.06-2.6,1.67-1.42,1.55-1.35,1.88.91.28,1.83,1.25,5.29,3.75,4.54,2.26-.67,3.41-2.75,4.6-4.74,2.32-3.86,4.29-2.46,6.09-.07a9.79,9.79,0,0,0,4.09,3,5.87,5.87,0,0,0,6.61-1.43c1.8-1.76,1.63-4.32,1.8-6.69.18-2.63,4.56.68,5.18,1a17.55,17.55,0,0,0,6.69,1.48c3.06.19,11,2.06,12.78-1.67,1.12-2.32-1.61-4.27-4.48-5.88,3.15,1.15,6.43,2.21,8.22-.5C850.53,133.08,842.18,130.58,840.09,129.9Z"/><path class="cls-7" d="M830.63,141.29a17.54,17.54,0,0,1-6.68-1.48c-.62-.29-5-3.6-5.19-1-.17,2.37,0,4.93-1.79,6.7a5.87,5.87,0,0,1-6.61,1.43,9.72,9.72,0,0,1-4.09-3c-1.8-2.39-3.78-3.8-6.1.07-1.19,2-2.33,4.06-4.59,4.74-1.56.46-2.52-.7-3.09-2.08,0,.29.1.68.18,1.2.28,1.83,1.25,5.29,3.75,4.54,2.26-.67,3.41-2.75,4.6-4.74,2.32-3.86,4.29-2.46,6.09-.07a9.79,9.79,0,0,0,4.09,3,5.87,5.87,0,0,0,6.61-1.43c1.8-1.76,1.63-4.32,1.8-6.69.18-2.63,4.56.68,5.18,1a17.55,17.55,0,0,0,6.69,1.48c3.06.19,11,2.06,12.78-1.67.61-1.25.07-2.4-1-3.44C841.25,143.25,833.63,141.47,830.63,141.29Z"/><path class="cls-7" d="M789.94,143.36c-1,.87-2,1.75-3.05,2.61a33.75,33.75,0,0,1-7.32,5.18,6.47,6.47,0,0,1-4.19.47h0c-2.1,4.21,2.36,4.39,5,3.19s5.07-3.31,7.32-5.19c1-.86,2-1.74,3.06-2.6s1.29-1.09,1.5-.85a11.35,11.35,0,0,1-.46-1.91C791.49,142,791.62,142,789.94,143.36Z"/><path class="cls-7" d="M847.18,133.2l0,0c-1.79,2.72-5.08,1.65-8.23.51,2.41,1.34,4.67,2.93,4.71,4.76,1.75.26,3.31,0,4.36-1.6S848.37,134.23,847.18,133.2Z"/><path class="cls-4" d="M792.49,146.74a1.31,1.31,0,0,0-.2-.56C792.35,146.36,792.41,146.55,792.49,146.74Z"/><path class="cls-4" d="M843.27,139.84l.15-.22a2.41,2.41,0,0,0,.22-1.12,20,20,0,0,1-3.86-1.1A16.66,16.66,0,0,1,843.27,139.84Z"/><path class="cls-4" d="M811.66,189.52c-.27-2.32-1.7-3.91-3.94-2.58a17.9,17.9,0,0,0-4,3.35,25,25,0,0,1-4,3.72c-1.1.77-.64-3.12-.62-3.61.53-10-8.39-3.39-12.38-.58a75.64,75.64,0,0,1-8.09,4.66c-.58.31-4.87,3.07-2.14-.35.6-.75,1.25-1.46,1.85-2.22,1.07-1.36,2.57-4.23,1-5.86-2.67-2.87-8.21,3.45-10,5.09-1.39,1.23-4.94,5.68-7.15,3.48-1.87-1.87,1.17-5.39,1.67-7.23.45-1.64,2.31-6.91.32-8-2.85-1.51-5.53,6.26-6.83,7.66-3,3.22-6.21,6.23-9.39,9.29-2,1.94-6.32,5-6.69,8.1-.2,1.72,3.85-.7,4.12-.85a67.57,67.57,0,0,0,5.9-4.1c1-.74,2.14-1.41,3.25-2,5.31-3.05-1,3.77-2.31,4.67-7.46,5.32-15.54,9.12-20.86,17.22-.94,1.43-1.18,3.32.68,3.82,2.41.65,5.9-3,7.57-4.36,4-3.35,8.62-5.82,12.62-9.2l.9-.77a6.31,6.31,0,0,1,4.3-2,16.55,16.55,0,0,1-1,1.91c-.71,1.24-1.43,2.46-2.06,3.75-3.06,6.21,6.12-.38,7.48-1.57,1.85-1.63,3.53-3.48,5.31-5.19a27.26,27.26,0,0,1,3.56-2.89c1-.7,2.68-.75,3.34-1.83-1.68,2.73-4.05,4.86-5.53,7.75-.48.94-.88,2.88.65,3,3.15.29,5.94-2.62,8.15-4.6,1.58-1.42,3.08-2.91,4.7-4.29-1,.85-1.62,2.57-2.74,3.53-.74.63-1.52,1.21-2.29,1.8-2.52,2-4.71,4.08-5.72,7.28-.06.18-.11.68.2.67,3.33-.15,6-2.4,8.56-4.48,4.4-3.63,8.83-7.3,13.08-11.13a44.67,44.67,0,0,0-2.57,4c-.56,1-1.65,3.22-.08,3.81,2.16.82,5.21-1.6,6.67-3a23.21,23.21,0,0,0,2.83-3.55c.6-.85,1.17-1.72,1.77-2.58s3.61-3.44,3.7-4.22c-.34,3-.86,6.11-.1,9.13.43,1.7,2.47,3.3,4,1.81C813.14,202.28,812.22,194.41,811.66,189.52Z"/><path class="cls-7" d="M773.71,198a29.1,29.1,0,0,0-3.57,2.89c-1.78,1.71-3.46,3.56-5.31,5.19-1.36,1.2-10.54,7.78-7.48,1.57.63-1.28,1.36-2.51,2.06-3.75a16.55,16.55,0,0,0,1-1.91,6.28,6.28,0,0,0-4.3,2l-.9.76c-4,3.39-8.61,5.85-12.62,9.21-1.66,1.39-5.16,5-7.57,4.36a1.71,1.71,0,0,1-1.38-1.85,29.71,29.71,0,0,0-2.24,3c-.94,1.43-1.18,3.32.68,3.82,2.41.65,5.9-3,7.57-4.36,4-3.35,8.62-5.82,12.62-9.2l.9-.77a6.31,6.31,0,0,1,4.3-2,16.55,16.55,0,0,1-1,1.91c-.71,1.24-1.43,2.46-2.06,3.75-3.06,6.21,6.12-.38,7.48-1.57,1.85-1.63,3.53-3.48,5.31-5.19a27.26,27.26,0,0,1,3.56-2.89,8.83,8.83,0,0,1,1.82-.78c1.41-2.07,3.15-3.86,4.47-6C776.38,197.23,774.72,197.28,773.71,198Z"/><path class="cls-7" d="M780,203.35c.76-.59,1.54-1.17,2.28-1.79,1.13-1,1.75-2.69,2.74-3.53-1.61,1.37-3.12,2.86-4.7,4.28-2.21,2-5,4.89-8.15,4.6-1-.09-1.17-1-1-1.82a22.24,22.24,0,0,0-2.56,3.76c-.48.94-.88,2.88.65,3,2,.18,3.77-.87,5.39-2.17A16.1,16.1,0,0,1,780,203.35Z"/><path class="cls-4" d="M757.52,192.53a37.61,37.61,0,0,0-3.24,2.05c-1.94,1.38-3.84,2.92-5.9,4.1-.26.14-3.88,2.3-4.12,1.09-1.46,1.45-2.75,3.06-3,4.71s3.85-.7,4.12-.85a67.57,67.57,0,0,0,5.9-4.1c1-.74,2.14-1.41,3.25-2,.33-.19.61-.34.85-.46C757.05,195.68,762.59,189.63,757.52,192.53Z"/><path class="cls-4" d="M761.23,180.73a14.83,14.83,0,0,0-1.12,1.62l.22-.22A8.16,8.16,0,0,0,761.23,180.73Z"/><path class="cls-4" d="M779.11,190.81a7.16,7.16,0,0,0,.87-2.25l-.51.62C778.23,190.74,778.45,191,779.11,190.81Z"/><path class="cls-7" d="M796.1,195.7c-4.25,3.83-8.68,7.49-13.08,11.12-2.52,2.09-5.23,4.34-8.56,4.48-.23,0-.26-.27-.24-.48a12.35,12.35,0,0,0-2.9,4.77c-.06.18-.11.68.2.67,3.33-.15,6-2.4,8.56-4.48,4.34-3.59,8.71-7.2,12.9-11a12.4,12.4,0,0,1,.55-1.14A41.93,41.93,0,0,1,796.1,195.7Z"/><path class="cls-7" d="M808.32,199.25c-.76-3-.24-6.08.1-9.12-.08.77-3.14,3.4-3.7,4.21s-1.17,1.74-1.77,2.59a23.71,23.71,0,0,1-2.83,3.55c-1.46,1.38-4.51,3.8-6.67,3-1-.39-.91-1.46-.56-2.44a41.88,41.88,0,0,0-2.3,3.58c-.56,1-1.65,3.22-.08,3.81,2.16.82,5.21-1.6,6.67-3a23.21,23.21,0,0,0,2.83-3.55c.6-.85,1.17-1.72,1.77-2.58s3.61-3.44,3.7-4.22c-.34,3-.86,6.11-.1,9.13.43,1.7,2.47,3.3,4,1.81a9.19,9.19,0,0,0,2.33-4.53C810.29,202.13,808.69,200.73,808.32,199.25Z"/><path class="cls-4" d="M772.58,202.15a15.42,15.42,0,0,0-1.07,1.75,4.16,4.16,0,0,0-.38,1.19,40.08,40.08,0,0,0,3-4A2.79,2.79,0,0,1,772.58,202.15Z"/><path class="cls-4" d="M793,200.8l-.09.23.27-.38Z"/><path class="cls-4" d="M777,208.31c.77-.59,1.55-1.17,2.29-1.8,1.12-1,1.75-2.68,2.74-3.53-1.62,1.38-3.12,2.87-4.7,4.29-.84.75-1.76,1.63-2.76,2.43-.12.3-.25.61-.35.94a1.72,1.72,0,0,0,0,.18A26.15,26.15,0,0,1,777,208.31Z"/><path class="cls-2" d="M1108.32,230c.41-.22-10.36-9.7-15.14-15.63a35,35,0,0,0,12.59-1.48c1-.31-15.54-17-22.49-24.77,2.3,1.37,11,5.93,13.52,6.41,1.23.24-13.65-15.15-16.92-19.51a23.55,23.55,0,0,0,14.89,1.66c1.07-.22-15.34-20.56-22.34-29.57a23.34,23.34,0,0,0,12.69.44c1.15-.3-8-7.19-11-10.05a21.48,21.48,0,0,0,15.42.58c1-.35-11.29-12.31-19.63-22,3,0,6.27-.63,8.6-2.6,0,0,.2-.2.11-.25-9.5-5.34-18.84-11.84-25-21.22,6,6.65,14.27,8.67,21,6.59a.26.26,0,0,0,.12-.11c-.5-.36-1-.74-1.52-1.13-4.12-3.14-17.8-16.76-20.9-20.4a15.3,15.3,0,0,0,6.1,1.74,41.28,41.28,0,0,1-6.51-7.89,47.73,47.73,0,0,1-5.62-7.4c-2-3.19-5.17-9.47-6.39-11,4.1,5.07,8.63,10,13.89,10l.06,0c-11.6-9.86-20.24-26.2-27-42.19-3.36,7.26-7.4,14.06-11.25,20.65-4.73,8.1-9.92,16-16.37,21.49a.61.61,0,0,0,.28.07c5.25,0,9.79-4.88,13.89-10-1.22,1.51-4.43,7.79-6.39,11-3.41,5.51-13.08,15.36-12.43,15.32a15.39,15.39,0,0,0,6.4-1.77c-6.61,7.75-23.19,21.37-22.3,21.64,7,2.16,15.61-.08,21.66-7.32-.36.54-.76,1-1.07,1.53-1.06,1.62-2.09,3.25-3.17,4.85a80,80,0,0,1-6.82,8.9c-4.71,5.21-10.57,9.48-17.2,11.41,0,0-.25.22-.15.26a16.74,16.74,0,0,0,8.46,1.29c-8,8.84-17.47,18.22-16.6,18.53a21.5,21.5,0,0,0,15.43-.58c-3,2.86-12.13,9.75-11,10.05a23.35,23.35,0,0,0,12.69-.44c-7,9-23.42,29.35-22.34,29.57A23.56,23.56,0,0,0,973.53,175c-3.27,4.36-17.5,17.8-16.27,17.57,2.5-.48,10.57-3.1,12.86-4.47-6.94,7.75-23.5,24.46-22.49,24.77a35.75,35.75,0,0,0,20.26.19c-.36.28-.71.57-1,.85-7.43,6.18-25.79,16.37-24.94,17.08,7.56,6.26,20.87,2.1,29-.12l.81-.24c-5.41,5.89-19.74,17.47-18.68,17.59,10.66,1.21,21.61-1.73,32-7.8-.1.12-.21.24-.31.37-.28.34-9.83,8.4-8.79,8.59,4.17.8,16.83-4.92,21.26-7-1.42,1.76-6.69,9-5.27,8.76a45.47,45.47,0,0,0,18.22-7.6c-1.07,1.78-3,6.81-2.5,6.74,5.91-.73,11.82-5.39,17.28-8.92-.93,2.47-2.7,8.35-2.11,8.27,5.65-.73,11.7-5.43,16.6-11.58,3.33,5.92,7.45,11.09,12.58,14.05.71.41,1.25-8.41,1.07-11.55,5.34,8.5,12.9,13.93,21.22,11.39.65-.21-2.46-9.13-4-12.56,1.5,1.48,3,2.95,4.56,4.33,8.41,3.79,17.09,5.47,25.59,4.5,1.06-.12-13.68-11.84-19.17-18.09q-1.45-1.66-2.89-3.35a34.53,34.53,0,0,0,7.16,2.86C1093.06,231.67,1100.91,233.8,1108.32,230Z"/><path class="cls-3" d="M1108.32,230c.41-.22-10.36-9.7-15.14-15.63a35,35,0,0,0,12.59-1.48c1-.31-15.54-17-22.49-24.77,2.3,1.37,11,5.93,13.52,6.41,1.23.24-13.65-15.15-16.92-19.51a23.55,23.55,0,0,0,14.89,1.66c1.07-.22-15.34-20.56-22.34-29.57a23.34,23.34,0,0,0,12.69.44c1.15-.3-8-7.19-11-10.05a21.48,21.48,0,0,0,15.42.58c1-.35-11.29-12.31-19.63-22,3,0,6.27-.63,8.6-2.6,0,0,.2-.2.11-.25-9.5-5.34-18.84-11.84-25-21.22,6,6.65,14.27,8.67,21,6.59a.26.26,0,0,0,.12-.11c-.5-.36-1-.74-1.52-1.13-4.12-3.14-17.8-16.76-20.9-20.4a15.3,15.3,0,0,0,6.1,1.74,41.28,41.28,0,0,1-6.51-7.89,47.73,47.73,0,0,1-5.62-7.4c-2-3.19-5.17-9.47-6.39-11,4.1,5.07,8.63,10,13.89,10l.06,0c-11.5-9.77-20.08-25.9-26.83-41.75a56,56,0,0,0,2.27,13.92,53.54,53.54,0,0,0,7.39,15c.14.2-.13.45-.32.33-2.84-1.83-6.39-4-8-7.28.17,2,.23,4.07.41,6.09a.22.22,0,0,1-.38.18,15.87,15.87,0,0,1-3.27-4.71,9.12,9.12,0,0,1-1.79,4.51.22.22,0,0,1-.38-.1,14.58,14.58,0,0,1-.34-4c-.48.84-1,1.64-1.54,2.46-1.49,2.35-2.71,5.05-5,6.64a.23.23,0,0,1-.33-.27,40.66,40.66,0,0,0,2-7.93,13,13,0,0,1-4.78,5.07c-.15.09-.41-.06-.33-.27.53-1.43,1.32-2.74,1.84-4.17-4.25,5.92-8.5,12-14.32,16.23,5-.34,9.34-5.06,13.28-9.93-1.22,1.51-4.43,7.79-6.39,11-3.41,5.51-13.08,15.36-12.43,15.32l.29,0a40.7,40.7,0,0,0,8-6.66,42.44,42.44,0,0,0,7.65-10.7c.14-.28.51,0,.39.24a42,42,0,0,1-4.57,8c4-2,7-5.67,10.16-8.83a.23.23,0,0,1,.35.29c-.62,1.22-1.2,2.47-1.85,3.68,1.88-1.43,3.28-3.47,5-5.14a.23.23,0,0,1,.38.23,51.18,51.18,0,0,0-1.3,5c1.86-2.18,3.21-4.79,4.85-7.15a.23.23,0,0,1,.41.19,30.83,30.83,0,0,0-1.23,6.61,11.63,11.63,0,0,0,.71,5.91c1.39-4.1,2.62-8.3,5.18-11.79a.23.23,0,0,1,.42.18,12.64,12.64,0,0,0-.57,4.31c1.13-1.61,1.57-3.68,3-5.06a.23.23,0,0,1,.39.16,26,26,0,0,0,2.85,11.39c.36.75.74,1.49,1.14,2.23a42.21,42.21,0,0,1-1.1-11.4.22.22,0,0,1,.44-.07c1.53,4.53,3,9.2,5.68,13.18,2.35,3.57,5.4,6.57,7.67,10.21a.24.24,0,0,1-.26.36c-3.31-.91-5.75-3.65-8-6.24,1.37,2.54,3.19,4.78,4.57,7.32a.24.24,0,0,1-.25.35,25.48,25.48,0,0,1-7.29-3.1,18.15,18.15,0,0,1-1.89-1.44,41.1,41.1,0,0,0,1.76,4.84c.11.23-.18.51-.36.29-2-2.44-4.14-5-5.1-8a51,51,0,0,1-.83,6.75c0,.26-.36.2-.44,0a13.38,13.38,0,0,1-.77-4.42c-1,2.71-2,5.53-4,7.52a.23.23,0,0,1-.38-.23c.29-1.46.64-2.91.94-4.36-3.31,4.68-7.82,8.61-13.16,10-.18,0-.39-.17-.26-.35a80.45,80.45,0,0,0,4.88-7.6,38.52,38.52,0,0,1-3.62,2.6c-2,1.29-4.2,2.53-6.35,3.63-1.66.85-3.65,1.87-5.54,1.46a.25.25,0,0,1-.14-.35c1.07-1.8,2.66-3.11,3.89-4.77a20,20,0,0,0,1.76-3.21,7.54,7.54,0,0,1-4.46,2.61c-.21,0-.29-.27-.16-.41a19.19,19.19,0,0,0,2.59-4.42c-4.66,5.46-11.18,8.8-17.17,12.41a35.12,35.12,0,0,1-6.6,3.17,10.16,10.16,0,0,1-2.92.66c6.87,1.85,15.19-.47,21.06-7.5-.36.54-.76,1-1.07,1.53-1.06,1.62-2.09,3.25-3.17,4.85a84.58,84.58,0,0,1-5.74,7.67l.24-.13c1.29-.76,2.58-1.55,3.81-2.41,2.84-2,5.5-4.39,8.7-5.73.2-.09.34.18.25.35-1.54,3.13-4.34,5.14-6.47,7.78,6-.8,11.62-3.6,17.23-5.92.21-.09.39.25.22.4-1.06,1-2.21,1.85-3.26,2.84,2.07-.52,3.85-1.9,5.71-3,.26-.14.48.25.23.42a30.18,30.18,0,0,0-3.37,3.13c-.92.87-7.23,4.72-8.8,6.62,1.7.1,8.57-2.79,10.36-3.61A89.62,89.62,0,0,0,1028.1,99c.23-.16.44.17.28.37l-2.72,3.18c2.18-1,3.92-3.19,5.37-5.08.13-.18.37,0,.38.17a43.57,43.57,0,0,0,1.9,10.75c0-.29,0-.57,0-.85a70,70,0,0,1,1-8.66.22.22,0,0,1,.41-.06c1.16,2.35,2,4.9,3.44,7.08a34.53,34.53,0,0,1-.14-9.63.23.23,0,0,1,.44,0,18.54,18.54,0,0,0,2.37,5.67c-.1-2.12-.47-4.25.16-6.32a.23.23,0,0,1,.44,0,36.49,36.49,0,0,0,6.59,11c2.65,3.08,5.68,5.78,8.2,9,.14.19,0,.47-.22.4a26.79,26.79,0,0,1-7.77-3.43c1.62,4.75,5.5,8.73,9.1,11.76a.24.24,0,0,1-.15.41,17.21,17.21,0,0,1-7-2,18.29,18.29,0,0,1-5.44-4c.3,1.79.77,3.53,1.11,5.3a.22.22,0,0,1-.37.23,12.51,12.51,0,0,1-2.69-4.18,54.27,54.27,0,0,0,1.08,9.42.22.22,0,0,1-.37.23,14.72,14.72,0,0,1-4.44-8.06,57.57,57.57,0,0,0-2.86,10.56.23.23,0,0,1-.38.11c-1.94-2.31-2.55-5.34-2.92-8.39a35.53,35.53,0,0,1-3.23,3.15c-2.46,2.13-5.08,4.87-8.35,5.43a.24.24,0,0,1-.28-.3,16.92,16.92,0,0,1,2.09-3.58,16.37,16.37,0,0,0,1.07-2.33,25.71,25.71,0,0,1-7,5.27c-.19.11-.46-.12-.32-.33a35.16,35.16,0,0,0,2.72-5.11,48.48,48.48,0,0,1-6.54,4.08c-2.68,1.4-5.49,2.6-8.27,3.78-2.63,1.12-5.49,2.32-8.38,2.17a.24.24,0,0,1-.16-.41c2.29-2.49,5.1-4.36,7.5-6.72-3.59,2.11-7.24,4.28-11.36,4.91a.24.24,0,0,1-.18-.44c2.52-1.9,5.1-3.73,7.49-5.79-.45.25-.91.48-1.38.71-1.54.76-3.12,1.42-4.72,2.06a9.65,9.65,0,0,1-4.49,1,.24.24,0,0,1-.16-.41c3.21-3.26,6.46-6.49,9.36-10.06-2.64,1.8-5,4.07-7.6,5.88a70.44,70.44,0,0,1-9.76,5.58,90.78,90.78,0,0,1-10.15,4.26,22.91,22.91,0,0,1-6.85,1.32,21.58,21.58,0,0,0,15.32-.62c-3,2.86-12.13,9.75-11,10.05a23.35,23.35,0,0,0,12.69-.44c-2.24,2.88-5.44,6.91-8.72,11.08a26,26,0,0,0,8.07-3.37c3.46-2,6.69-4.45,10.15-6.45a.24.24,0,0,1,.31.33,44.23,44.23,0,0,1-6.29,6.68c4.07-1.05,7.38-3.92,11-6a.24.24,0,0,1,.28.38c-3.45,3.27-6.8,6.68-10.81,9.16a36,36,0,0,0,12.28-2.75,61.23,61.23,0,0,0,12.17-6.4.24.24,0,0,1,.32.33c-1.2,1.77-2.63,3.35-3.87,5.09,2.63-1,4.56-3.32,6.66-5.19.16-.13.48,0,.38.24a34,34,0,0,1-7.87,12.2,27.36,27.36,0,0,0,7.25-3.77c3.19-2.18,6.2-4.7,9.57-6.56a.25.25,0,0,1,.32.34c-1.16,1.91-2.25,3.87-3.3,5.85,2.93-2,5-5.13,7.39-7.71a.23.23,0,0,1,.39.17c.18,2.86.3,6.06,1.92,8.47.75-2.59.85-5.33,1.53-7.95a.23.23,0,0,1,.44,0c.87,2.5,2.15,5,4.43,6.34.28-2.17,0-4.39.51-6.53a.23.23,0,0,1,.42-.06,17.46,17.46,0,0,0,2.95,4.7c.06-1.52-.2-3-.22-4.58a.23.23,0,0,1,.45-.06c1.34,3.62,5,5.65,8.12,7.31.15-2.59-1.24-5-1-7.64,0-.19.25-.34.39-.17a35.94,35.94,0,0,0,7.14,6.7,26.23,26.23,0,0,0,6.51,3.14,30.35,30.35,0,0,1-1.15-3c-1-3.1-1.81-6.57-1.18-9.86a.22.22,0,0,1,.41,0c4.69,7.61,8.63,15.91,16.07,21,.21.14.07.54-.17.44a38.5,38.5,0,0,1-8-4.69,74,74,0,0,0,14,14.21c.14.11.16.4-.06.44a23.69,23.69,0,0,1-13.27-1.76,32.5,32.5,0,0,1-5.12-2.69,39.54,39.54,0,0,0,4.76,6.42c2.93,3.13,6.69,5.28,9.46,8.57a.25.25,0,0,1,0,.38c-2.35,1.29-5.49.53-7.91-.13a64.47,64.47,0,0,1-7.75-2.79,42.5,42.5,0,0,1-6.62-3.37c1.3,2.2,2.64,4.37,4,6.55.12.19-.12.46-.31.32-2.54-1.77-5.48-3.58-7.58-6.06a29.92,29.92,0,0,0,3.68,6.33c1.82,2.25,4.5,3.88,5.69,6.63a.25.25,0,0,1-.19.37c-2.28-.05-4.46-1.43-6.31-2.71-2.07-1.43-4-3.06-6-4.66a33,33,0,0,1-8-9.16,44.09,44.09,0,0,0,1.32,10.16.23.23,0,0,1-.38.24,15.94,15.94,0,0,1-5.17-8.25,79.21,79.21,0,0,0-.38,13.94.23.23,0,0,1-.39.17,34.17,34.17,0,0,1-4.64-7.67,23.66,23.66,0,0,1-.93-2.52,39.14,39.14,0,0,1-4,4.51,20.62,20.62,0,0,1-6.91,4.76.24.24,0,0,1-.26-.35,32.35,32.35,0,0,0,2.73-4.74,26.15,26.15,0,0,1-2.41,2.72,15.36,15.36,0,0,1-5.26,3.74c-.16.06-.33-.13-.28-.29a32.31,32.31,0,0,1,1.6-3.95,59.74,59.74,0,0,1-8,5.62c-2.73,1.63-5.53,3.12-8.38,4.52-2.62,1.29-5.47,2.61-8.42,2.51a.24.24,0,0,1-.11-.44c6.21-3.24,11.41-8.19,16-13.64-1.81,1.14-3.69,2.17-5.58,3.15-4.86,2.53-9.89,5.37-15.3,6.24a.24.24,0,0,1-.18-.44,60.37,60.37,0,0,0,5.44-4.92c-2.73,1.87-5.4,3.83-8.26,5.48-3.13,1.81-6.59,3.46-10.24,3.4-.18,0-.33-.27-.16-.41,3.9-3.2,8-6.12,11-10.27a127.66,127.66,0,0,1-18,12.11c-4.55,2.41-9.28,5.45-14.33,6.74a35.67,35.67,0,0,0,19-.17c-.36.28-.71.57-1,.85-5.89,4.9-18.66,12.32-23.27,15.54a44.76,44.76,0,0,0,15.62-3.23c6.1-2.27,11.89-5.25,17.74-8.12a.23.23,0,0,1,.27.37,45.28,45.28,0,0,1-8.86,7.34c9.89-.78,18.43-6.79,27.58-10.28.18-.07.36.18.25.35-2.06,3.27-5,5.49-8,7.64,3.61,0,7.25-1.43,10.47-3a90.72,90.72,0,0,0,11.11-6.56.23.23,0,0,1,.35.21,13.78,13.78,0,0,1-2.69,6.43c2.14-1.19,3.77-3.25,5.46-5a.23.23,0,0,1,.38.24c-1.1,2.92-3.32,5-5.28,7.27,5-1.71,9.36-5.43,13.67-8.52.17-.13.37.08.33.27a11.2,11.2,0,0,1-3.58,5.63c-1.59,1.53-3.46,3-4.41,5.08,6-1.69,11.21-5.52,16.38-9a.23.23,0,0,1,.34.14,17.36,17.36,0,0,0,1.89,5.46,51.22,51.22,0,0,1,1.57-6.44c.06-.21.39-.24.43,0,.8,3.89,3.48,6.93,5.74,10,.34-4,.64-8,2.39-11.6a.22.22,0,0,1,.41.06c1.28,4.64,4,8.25,7.12,11.6,0-3.25.51-6.54.42-9.79a.22.22,0,0,1,.44-.06,26.61,26.61,0,0,0,3.61,8.89c-.18-3.91-.34-7.81,1.18-11.49a.22.22,0,0,1,.41.06c1.38,10.26,5.8,19.83,10.74,28.67a.23.23,0,0,1-.31.32,28,28,0,0,1-7-7,83.63,83.63,0,0,0,3.56,9.76c.08.2-.11.48-.32.33-5-3.73-10-7.82-12.53-13.83a86.07,86.07,0,0,0-.12,14.8c0,.23-.25.28-.38.17-3.4-3-5.3-7.15-7.59-11-.62-1.05-1.16-2.15-1.69-3.25a35.81,35.81,0,0,1-2.4,3.45c-2,2.59-4.81,5.59-8.22,5.77-.19,0-.25-.2-.19-.35a55.8,55.8,0,0,0,2.19-6.46c-.05.06-.11.12-.15.18-1.29,1.4-2.88,2.94-4.82,3.12-.22,0-.26-.27-.16-.41a30.49,30.49,0,0,0,4.21-8.93,50.06,50.06,0,0,1-6.59,8,29.75,29.75,0,0,1-9.64,6.65c-.21.07-.35-.19-.26-.36a67.49,67.49,0,0,0,3.68-9.17,68.25,68.25,0,0,1-6.67,5.72c-3.62,2.65-7.86,5.06-12.41,4.79a.24.24,0,0,1-.16-.41c3-2.72,4.71-6.73,5.87-10.72a55.34,55.34,0,0,1-6.76,5.87c-3.48,2.55-7.58,4.93-11.95,4.87a.24.24,0,0,1-.19-.36,111,111,0,0,0,5.33-12c-11.3,7.4-23.56,15.25-37,16.79,10.21.8,20.64-2.14,30.54-7.94-.1.12-.21.24-.31.37-.28.34-9.83,8.4-8.79,8.59,4.17.8,16.83-4.92,21.26-7-1.42,1.76-6.69,9-5.27,8.76a45.47,45.47,0,0,0,18.22-7.6c-1.07,1.78-3,6.81-2.5,6.74,5.91-.73,11.82-5.39,17.28-8.92-.93,2.47-2.7,8.35-2.11,8.27,5.65-.73,11.7-5.43,16.6-11.58,3.33,5.92,7.45,11.09,12.58,14.05.71.41,1.25-8.41,1.07-11.55,5.34,8.5,12.9,13.93,21.22,11.39.65-.21-2.46-9.13-4-12.56,1.5,1.48,3,2.95,4.56,4.33,8.41,3.79,17.09,5.47,25.59,4.5,1.06-.12-13.68-11.84-19.17-18.09q-1.45-1.66-2.89-3.35a34.53,34.53,0,0,0,7.16,2.86C1093.06,231.67,1100.91,233.8,1108.32,230Z"/><path class="cls-4" d="M1035.61,32.52c-1.37-3.68-3-7.24-4.66-10.81-.34-.76-1.62-5.67-2.88-5.68-2.58,0-4.71,3.75-5.52,6-2.37,6.51-4.66,12.93-7.89,19a1.35,1.35,0,0,0-.68.66c-1.3,2.66-2.75,4.49-1.79,7.43.12.36.6,0,.74-.08a18,18,0,0,0,3-3.47c.73-1,6.41-9.17,6.84-5.84.27,2.16,2.45,5.6,4.59,2.8A8.67,8.67,0,0,0,1029,39c1-4.11,2.69-1,3.66,1.18.71,1.6,3.11,5.13,4.82,2.37S1036.52,35,1035.61,32.52Z"/><g class="cls-5"><path class="cls-6" d="M1033.2,34.28c-1-2.15-2.64-5.29-3.65-1.18a8.89,8.89,0,0,1-1.61,3.48c-2.14,2.8-4.31-.64-4.59-2.8-.43-3.33-6.11,4.81-6.84,5.84a17.58,17.58,0,0,1-3,3.46,1.31,1.31,0,0,1-.36.21c-1,1.86-1.69,3.48-.94,5.77.12.36.6,0,.74-.08a18,18,0,0,0,3-3.47c.73-1,6.41-9.17,6.84-5.84.27,2.16,2.45,5.6,4.59,2.8A8.67,8.67,0,0,0,1029,39c1-4.11,2.69-1,3.66,1.18.71,1.6,3.11,5.13,4.82,2.37.85-1.36.58-3.32,0-5.23C1035.82,38.66,1033.84,35.71,1033.2,34.28Z"/></g><path class="cls-4" d="M1032.27,74.69c-2.06,2.44-4.08,4.61-7.25,2.54-1.14-.74-1.8-2.57-3.12-3-2.75-.89-5.61,3.47-7.49,5.05-1.68,1.41-7.39,4.69-6.93-.41.17-1.89.64-3.72.71-5.63.07-2.06-1.34-4-3.24-2.31a6.63,6.63,0,0,0-1.4,2.5c-.06.13-.13.25-.19.39a.59.59,0,0,0-.23.21A19.56,19.56,0,0,1,1002,76c-1.53,1.81-3.59,3.08-5.34,4.71-.28.26-.68,1.52-.29,1.52-2.9,2.51-6.12,4.7-9,6.83s-8.1,5.27-9.17,9,3.82,2.9,5.61,2.43c5.81-1.54,10.65-5.65,15.64-8.9a39.94,39.94,0,0,1,5.33-2c-.36.77-.84,1.48-1.21,2.24a5.06,5.06,0,0,0-.78,2.45c.35,3,7.24-1.83,7.91-2.31s6.83-5.53,6.24-2.77c-.1.48-.54,1.92.1,2.3,2.8,1.68,5.92-2.27,7.84-4.06,2.3-2.16,4.81-6,8.27-3.46,1.48,1.1,2.69,2.08,4.56,2,1.67-.12,2.36-2.27,2.48-3.7C1040.55,78,1036.44,69.73,1032.27,74.69Z"/><g class="cls-5"><path class="cls-6" d="M1035.61,79.34c-3.46-2.59-6,1.31-8.27,3.46-1.92,1.8-5,5.75-7.84,4.07-.64-.39-.19-1.82-.09-2.3.58-2.76-5.52,2.25-6.25,2.77s-7.56,5.26-7.9,2.3a5,5,0,0,1,.77-2.45c.37-.76.85-1.47,1.21-2.24a41.4,41.4,0,0,0-5.33,2c-5,3.25-9.83,7.36-15.64,8.9-1.6.42-5.62,1-5.74-1.41A9.07,9.07,0,0,0,978.21,98c-1,3.61,3.82,2.9,5.61,2.43,5.81-1.54,10.65-5.65,15.64-8.9a39.94,39.94,0,0,1,5.33-2c-.36.77-.84,1.48-1.21,2.24a5.06,5.06,0,0,0-.78,2.45c.35,3,7.24-1.83,7.91-2.31s6.83-5.53,6.24-2.77c-.1.48-.54,1.92.1,2.3,2.8,1.68,5.92-2.27,7.84-4.06,2.3-2.16,4.81-6,8.27-3.46,1.48,1.1,2.69,2.08,4.56,2,1.67-.12,2.36-2.27,2.48-3.7a8.71,8.71,0,0,0,0-.89h0C1038.3,81.43,1037.09,80.44,1035.61,79.34Z"/></g><path class="cls-4" d="M1072.08,107.23c-4.7-1.54-9.54-2.35-14.15-4.2-1.57-.63-4.08-1.93-5.76-1-2.79,1.52-1.82,4.91-1.22,7.49a23.09,23.09,0,0,1,.49,2.88c.34,3.26-3.32,1.81-4.68.8-2.51-1.87-3.86-4-7.06-4.57a3,3,0,0,0-3.08,1.73,7.34,7.34,0,0,0-.56,1.85c0,.34-.06.69-.07,1,0,.53,0,7.77-3.64,3.22-1.68-2.11-5.13-9.12-7.92-4.41-2,3.39-5.1,11-10,8.74-2.48-1.13-.08-8.18-.71-10.57-.1-.39-.67-.08-.81.07-2.93,2.81-4.63,6.36-6.43,9.92-3.52,3.89-7.36,7.53-9.75,12.34s2.74,5.12,5.87,3.71,5.9-3.85,8.52-6c1.2-1,2.37-2,3.56-3,2-1.65,1.8-1.57,2.19,1.06.32,2.13,1.45,6.16,4.37,5.29,2.64-.78,4-3.2,5.36-5.52,2.7-4.5,5-2.86,7.1-.08a11.38,11.38,0,0,0,4.75,3.44,6.85,6.85,0,0,0,7.7-1.67c2.1-2.06,1.9-5,2.1-7.8.21-3.06,5.31.8,6,1.14a20.49,20.49,0,0,0,7.78,1.73c3.57.21,12.79,2.39,14.89-2,1.31-2.7-1.87-5-5.22-6.85,3.67,1.34,7.49,2.58,9.58-.58C1084.23,110.93,1074.51,108,1072.08,107.23Z"/><path class="cls-7" d="M1061.06,120.5a20.49,20.49,0,0,1-7.78-1.73c-.73-.34-5.83-4.19-6-1.13-.19,2.76,0,5.73-2.09,7.8a6.85,6.85,0,0,1-7.7,1.66,11.47,11.47,0,0,1-4.76-3.43c-2.09-2.79-4.4-4.43-7.1.07-1.38,2.32-2.72,4.74-5.35,5.52-1.81.54-2.93-.81-3.6-2.42.06.35.12.8.21,1.4.32,2.13,1.45,6.16,4.37,5.29,2.64-.78,4-3.2,5.36-5.52,2.7-4.5,5-2.86,7.1-.08a11.38,11.38,0,0,0,4.75,3.44,6.85,6.85,0,0,0,7.7-1.67c2.1-2.06,1.9-5,2.1-7.8.21-3.06,5.31.8,6,1.14a20.49,20.49,0,0,0,7.78,1.73c3.57.21,12.79,2.39,14.89-2,.71-1.46.08-2.79-1.15-4C1073.42,122.78,1064.55,120.71,1061.06,120.5Z"/><path class="cls-7" d="M1013.67,122.91c-1.19,1-2.37,2-3.56,3-2.63,2.19-5.42,4.65-8.53,6a7.58,7.58,0,0,1-4.88.55h0c-2.45,4.91,2.74,5.13,5.87,3.72s5.9-3.85,8.52-6c1.2-1,2.37-2,3.56-3s1.51-1.27,1.75-1a13.63,13.63,0,0,1-.54-2.22C1015.47,121.34,1015.62,121.26,1013.67,122.91Z"/><path class="cls-7" d="M1080.33,111.07l0,0c-2.09,3.16-5.91,1.93-9.58.59,2.8,1.56,5.44,3.41,5.48,5.55,2,.3,3.86,0,5.08-1.87C1082.39,113.72,1081.72,112.27,1080.33,111.07Z"/><path class="cls-4" d="M1016.63,126.84a1.51,1.51,0,0,0-.23-.65C1016.47,126.41,1016.54,126.63,1016.63,126.84Z"/><path class="cls-4" d="M1075.78,118.81c0-.09.12-.17.17-.26a2.83,2.83,0,0,0,.26-1.3,23.27,23.27,0,0,1-4.5-1.29A20,20,0,0,1,1075.78,118.81Z"/><path class="cls-4" d="M1039,176.68c-.31-2.71-2-4.57-4.58-3a20.35,20.35,0,0,0-4.65,3.9,29.08,29.08,0,0,1-4.62,4.33c-1.29.9-.76-3.63-.73-4.2.61-11.67-9.78-3.95-14.43-.68a86.29,86.29,0,0,1-9.41,5.43c-.68.36-5.67,3.58-2.5-.4.71-.88,1.45-1.71,2.15-2.59,1.25-1.59,3-4.94,1.23-6.83-3.11-3.34-9.56,4-11.71,5.93-1.61,1.43-5.75,6.62-8.32,4.05-2.19-2.18,1.36-6.27,1.94-8.42.52-1.91,2.69-8.05.38-9.27-3.33-1.76-6.45,7.29-8,8.92-3.52,3.75-7.24,7.26-10.94,10.82-2.36,2.26-7.36,5.81-7.79,9.43-.23,2,4.49-.8,4.8-1a82.53,82.53,0,0,0,6.87-4.77c1.23-.87,2.49-1.65,3.79-2.39,6.18-3.55-1.22,4.4-2.69,5.45-8.7,6.2-18.11,10.62-24.3,20-1.1,1.66-1.38,3.87.79,4.45,2.81.76,6.88-3.45,8.82-5.08,4.66-3.9,10-6.77,14.7-10.71l1.05-.9a7.3,7.3,0,0,1,5-2.27,18.11,18.11,0,0,1-1.18,2.22c-.81,1.45-1.66,2.87-2.39,4.37-3.56,7.23,7.13-.44,8.71-1.83,2.15-1.9,4.11-4,6.18-6a32.69,32.69,0,0,1,4.16-3.36c1.17-.81,3.11-.87,3.89-2.13-2,3.18-4.73,5.66-6.45,9-.56,1.09-1,3.35.76,3.51,3.67.34,6.92-3,9.49-5.36,1.84-1.65,3.59-3.39,5.47-5-1.15,1-1.88,3-3.19,4.11-.86.73-1.77,1.41-2.66,2.1-2.94,2.29-5.49,4.75-6.67,8.48-.06.21-.13.79.24.78,3.87-.17,7-2.79,10-5.22,5.12-4.23,10.28-8.5,15.23-13a50.47,50.47,0,0,0-3,4.61c-.65,1.17-1.92,3.75-.09,4.44,2.51.95,6.06-1.87,7.76-3.48a27.64,27.64,0,0,0,3.3-4.14c.7-1,1.37-2,2.06-3s4.21-4,4.31-4.91c-.39,3.54-1,7.11-.12,10.63.5,2,2.89,3.84,4.64,2.11C1040.68,191.54,1039.62,182.37,1039,176.68Z"/><path class="cls-7" d="M994.76,186.52a32.69,32.69,0,0,0-4.16,3.36c-2.08,2-4,4.15-6.19,6.05-1.58,1.39-12.27,9.06-8.7,1.83.73-1.5,1.57-2.92,2.39-4.37a18.11,18.11,0,0,0,1.18-2.22,7.3,7.3,0,0,0-5,2.27l-1,.9c-4.66,3.94-10,6.81-14.71,10.71-1.94,1.63-6,5.84-8.81,5.08A2,2,0,0,1,948.1,208a34.17,34.17,0,0,0-2.61,3.47c-1.1,1.66-1.38,3.87.79,4.45,2.81.76,6.88-3.45,8.82-5.08,4.66-3.9,10-6.77,14.7-10.71l1.05-.9a7.3,7.3,0,0,1,5-2.27,18.11,18.11,0,0,1-1.18,2.22c-.81,1.45-1.66,2.87-2.39,4.37-3.56,7.23,7.13-.44,8.71-1.83,2.15-1.9,4.11-4,6.18-6a32.69,32.69,0,0,1,4.16-3.36,9.58,9.58,0,0,1,2.11-.9c1.64-2.41,3.67-4.5,5.2-7C997.87,185.65,995.93,185.71,994.76,186.52Z"/><path class="cls-7" d="M1002.07,192.79c.89-.7,1.8-1.37,2.66-2.1,1.31-1.12,2-3.12,3.19-4.11-1.88,1.6-3.63,3.34-5.47,5-2.57,2.31-5.83,5.7-9.49,5.36-1.18-.1-1.37-1.13-1.21-2.12a26.18,26.18,0,0,0-3,4.38c-.56,1.09-1,3.35.76,3.51,2.28.21,4.39-1,6.28-2.52C997.11,197.05,999.42,194.85,1002.07,192.79Z"/><path class="cls-4" d="M975.9,180.18c-1.29.74-2.56,1.52-3.78,2.39a82.53,82.53,0,0,1-6.87,4.77c-.3.17-4.52,2.68-4.79,1.27-1.71,1.69-3.21,3.57-3.44,5.48s4.49-.8,4.8-1a82.53,82.53,0,0,0,6.87-4.77c1.23-.87,2.49-1.65,3.79-2.39.38-.22.7-.39,1-.53C975.35,183.85,981.8,176.8,975.9,180.18Z"/><path class="cls-4" d="M980.22,166.43a18.92,18.92,0,0,0-1.3,1.89l.25-.25A8.87,8.87,0,0,0,980.22,166.43Z"/><path class="cls-4" d="M1001.05,178.18a9,9,0,0,0,1-2.62c-.2.24-.4.47-.6.72C1000,178.09,1000.28,178.4,1001.05,178.18Z"/><path class="cls-7" d="M1020.83,183.87c-4.94,4.46-10.1,8.73-15.23,13-2.94,2.43-6.09,5-10,5.22-.27,0-.3-.32-.27-.57A14.23,14.23,0,0,0,992,207c-.06.21-.13.79.24.78,3.87-.17,7-2.79,10-5.22,5.06-4.18,10.14-8.39,15-12.79a12,12,0,0,1,.64-1.33A52.59,52.59,0,0,1,1020.83,183.87Z"/><path class="cls-7" d="M1035.07,188c-.88-3.51-.27-7.09.12-10.63-.1.9-3.66,4-4.31,4.91s-1.36,2-2.06,3a27.64,27.64,0,0,1-3.3,4.14c-1.7,1.61-5.25,4.43-7.77,3.48-1.19-.45-1.06-1.7-.65-2.84-.94,1.36-1.87,2.72-2.68,4.17-.65,1.17-1.92,3.75-.09,4.44,2.51.95,6.06-1.87,7.76-3.48a27.64,27.64,0,0,0,3.3-4.14c.7-1,1.37-2,2.06-3s4.21-4,4.31-4.91c-.39,3.54-1,7.11-.12,10.63.5,2,2.89,3.84,4.64,2.11a10.61,10.61,0,0,0,2.71-5.27C1037.36,191.36,1035.5,189.73,1035.07,188Z"/><path class="cls-4" d="M993.44,191.39a18,18,0,0,0-1.24,2,4.73,4.73,0,0,0-.45,1.39,49.7,49.7,0,0,0,3.47-4.65A3.37,3.37,0,0,1,993.44,191.39Z"/><path class="cls-4" d="M1017.21,189.81l-.11.27c.11-.14.2-.29.31-.44Z"/><path class="cls-4" d="M998.64,198.56c.89-.69,1.8-1.37,2.66-2.1,1.31-1.12,2-3.12,3.19-4.11-1.88,1.6-3.63,3.34-5.47,5-1,.88-2,1.91-3.21,2.84-.15.35-.29.71-.41,1.09a1,1,0,0,0,0,.21A28.81,28.81,0,0,1,998.64,198.56Z"/></g></g></g></svg>