<svg xmlns="http://www.w3.org/2000/svg" viewBox="0 0 168.03 245.68"><defs><style>.cls-1{isolation:isolate;}.cls-18,.cls-2,.cls-32{fill:#090;}.cls-3{fill:#ededed;}.cls-11,.cls-16,.cls-18,.cls-30,.cls-4{mix-blend-mode:multiply;}.cls-5{fill:#fe0000;}.cls-6{fill:#006d00;}.cls-7{fill:none;}.cls-8{fill:#fff;}.cls-9{fill:#a5a5a5;}.cls-10{fill:#562b01;}.cls-11,.cls-18{opacity:0.5;}.cls-12{fill:#9e0000;}.cls-13{fill:#f6f6f6;}.cls-14{fill:#d6d5d4;}.cls-15,.cls-16{fill:#fed1b4;}.cls-17{fill:#ffd21e;}.cls-19{fill:#be0000;}.cls-20{fill:#bc8468;}.cls-21{fill:#4b1e0a;}.cls-22,.cls-23,.cls-32{mix-blend-mode:screen;}.cls-23{fill:#e1b39b;}.cls-24{fill:#613021;}.cls-25{fill:#3c1504;}.cls-26{fill:#e0700a;}.cls-27{fill:#f9cf00;}.cls-28{fill:#fc9a01;}.cls-29,.cls-30{fill:#ffb01e;}.cls-31{fill:#ac0000;}.cls-33{fill:#b2b2b2;}</style></defs><g class="cls-1"><g id="Layer_2" data-name="Layer 2"><g id="elf"><path class="cls-2" d="M154.31,239.66c1.87-4.42,1.31-7.84-3.54-14-4.26-5.41-5-8.85-4.37-11.48a13.15,13.15,0,0,0-6.33-1.83c-.89-2.65-1.34-3.16-3.82.33a46.92,46.92,0,0,0-2.7,4.16s-1.14,3.36-.23,4.76c.49.76,2.33-.11,2.33-.11a39.32,39.32,0,0,0,3.93,2.74c-1.05.86-.42,1.47,1.32,2.17,1,.49,5.16,7.06,6.4,10s-.85,4.87-2.75,4.87-3.16-2.57-2.22-3.94c-2.84.92-1.71,5.56,1.7,7.65a5.2,5.2,0,0,0,3.57.61A11.85,11.85,0,0,0,154.31,239.66Z"/><path class="cls-3" d="M150.84,222.71c-2.46-3.68-3.18-5.78-3-6.64.07-.41-.34-1.17-1.42-1.9-.58,2.63.11,6.07,4.37,11.48,4.85,6.17,5.41,9.59,3.54,14a11.85,11.85,0,0,1-6.71,5.94c3.08-.46,6.58-3,8.6-6.89C159.09,233.18,153.3,226.39,150.84,222.71Z"/><g class="cls-4"><path class="cls-2" d="M146.4,214.17a13.15,13.15,0,0,0-6.33-1.83c-.89-2.65-1.34-3.16-3.82.33a46.92,46.92,0,0,0-2.7,4.16s-1.14,3.36-.23,4.76c.49.76,2.33-.11,2.33-.11a39.32,39.32,0,0,0,3.93,2.74c-1.05.86-.42,1.47,1.32,2.17a15,15,0,0,1,2.85,3.65,27.13,27.13,0,0,0-1.29-3.8c-.83-1.85-1.51-.55-1.44-1.37s1.6-1.17,1.6-1.17-4.38.32-3.57-2.85c.54-2.5.68-1.29-1.7-.69s-1.75-.3.15-1.12S138.87,217,139,215s1.34-.25,1.87,1.25.39-1.39,1.39-1.58,2.19.93,2.46,3.1,1.2,5.37,5.56,10.72,3.22,10.91-1.25,13.87c-3.84,2.55-8.42,0-8-3.76-.76,1.79.51,4.83,3.09,6.41a5.2,5.2,0,0,0,3.57.61,11.85,11.85,0,0,0,6.71-5.94c1.87-4.42,1.31-7.84-3.54-14C146.51,220.24,145.82,216.8,146.4,214.17Z"/></g><path class="cls-5" d="M98.48,155.9s2.38,17.65,7.36,29.91c3.52,8.68,8.43,12.94,16.8,21.28s12,12,14,11.25,1.15-4.4,1.15-4.4-4.42-5.45-9.44-12.75a35.86,35.86,0,0,0-12.77-11.86c.11-2.13-2.18-1.84-2.18-1.84s-5.29-22.23.85-36.58c4,3.08,7.74,10.89,12.93,19.25s8.15,11.68,10.13,10.54,3.68-16,5.51-22.89,2.52-9.3,2.52-9.3-.82-2.76-3.12-2.47a23.23,23.23,0,0,1-3.07,6.89c-2.32,3.56-5.65,7.64-5.75,9.82-1.94-8.55-6.3-28.3-6.3-28.3l-20.25,5Z"/><path class="cls-2" d="M141,143.28s-1.28.44-1.25,1.59.7,4.19,5.88,6.46c2.75,1.29,2.48-.48,1.72-4.86,1,2.39,1.78.44,1.81-1,.37,3.14.71,2.95,3.64,1.44,4,1.89,9.75,6.3,10.35,9.34S161.86,160,162,159c-2.1,1.89.35,4.65,3.28,2.33s6-9.44-5.4-19.41-14.29-10.08-14.93-8.16-1.8,6.38-3.34,7.23S140.67,142.74,141,143.28Z"/><path class="cls-6" d="M139.71,212a10.64,10.64,0,0,1,.86,2.53c0,.29.23.11.22-.1a6.3,6.3,0,0,0-.88-2.85C139.77,211.36,139.67,211.89,139.71,212Z"/><path class="cls-6" d="M137.56,220.63a3.6,3.6,0,0,0-1.85.63c-.06.07-.12.45,0,.44.51,0,1-.49,1.43-.74C137.26,220.92,137.66,220.62,137.56,220.63Z"/><path class="cls-6" d="M143.49,143.48a3.73,3.73,0,0,0-2.73-.31c-.13.06-.16.48,0,.49a17.69,17.69,0,0,1,3.09,0C144,143.73,143.57,143.51,143.49,143.48Z"/><path class="cls-6" d="M148.39,143c0-.06,0,.07,0,.09a16.29,16.29,0,0,1,.69,3.47c0,.32.26.2.28-.05A6.8,6.8,0,0,0,148.39,143Z"/><path class="cls-7" d="M133.28,162a0,0,0,0,0,0,0l.1-.39v-.29c-.07.25-.11.43-.14.51A.57.57,0,0,0,133.28,162Z"/><path class="cls-7" d="M133.41,162.15l0-.54-.1.39Z"/><path class="cls-7" d="M133.29,162c0,.2.09.4.13.6v-.48l-.12-.15Z"/><path class="cls-7" d="M133.38,161.32v-.49c-.05.32-.09.64-.13,1v0C133.27,161.75,133.31,161.57,133.38,161.32Z"/><path class="cls-7" d="M133.45,162.75h0Z"/><path class="cls-7" d="M133.45,162.72v0a3.38,3.38,0,0,1,.09-.41l-.13-.18v.48Z"/><path class="cls-7" d="M133.29,162a0,0,0,0,1,0,0,.13.13,0,0,0,0,.06Z"/><path class="cls-5" d="M133.28,162l-.06-.06c0,.1,0,.21,0,.32l0-.2A.13.13,0,0,1,133.28,162Z"/><path class="cls-8" d="M102.51,175.68c.36,1.3.73,2.6,1.14,3.88a27.45,27.45,0,0,0,8.09-3c-.1-1.05-.19-2.13-.26-3.26C108.37,175.43,104.09,175.67,102.51,175.68Z"/><path class="cls-8" d="M100.6,167.7a27.44,27.44,0,0,0,10.81-2.54c0-.64.07-1.28.12-1.91A22.6,22.6,0,0,1,100.25,166C100.36,166.58,100.48,167.14,100.6,167.7Z"/><path class="cls-8" d="M105.37,184.6a15.29,15.29,0,0,0,6.89-3.7c-.08-.59-.16-1.22-.25-1.88a55.08,55.08,0,0,1-7.68,2.65C104.66,182.67,105,183.64,105.37,184.6Z"/><path class="cls-5" d="M133.24,161.83l0,.08.06.06A.57.57,0,0,1,133.24,161.83Z"/><path class="cls-5" d="M134.55,164.76a11.71,11.71,0,0,0,.71,1.21Z"/><path class="cls-5" d="M133.18,162.44l.07.11c0-.11,0-.22,0-.32Z"/><path class="cls-8" d="M128.72,213.09a19,19,0,0,0,2.93-7.29c-.42-.58-.86-1.18-1.3-1.82a15.65,15.65,0,0,1-4.08,6.71C127.15,211.57,128,212.36,128.72,213.09Z"/><path class="cls-8" d="M122.64,207.09l2.2,2.18a13.82,13.82,0,0,0,3.72-7.84c-.05-.08-.11-.15-.16-.24-.27-.39-.53-.72-.8-1.08a18.42,18.42,0,0,1-5,6.95Z"/><path class="cls-8" d="M136.69,218.34c2-.78,1.15-4.4,1.15-4.4s-.32-.39-.87-1.09a36.73,36.73,0,0,1-3.08,4.7C135.09,218.34,136,218.61,136.69,218.34Z"/><path class="cls-8" d="M130.27,214.56c.67.61,1.27,1.16,1.83,1.62a15,15,0,0,0,3.26-5.4c-.64-.83-1.36-1.8-2.17-2.88A14.58,14.58,0,0,1,130.27,214.56Z"/><path class="cls-8" d="M120,204.43l1.25,1.23a14.39,14.39,0,0,0,4.83-7.59c-.34-.41-.67-.81-1-1.18A13.81,13.81,0,0,1,120,204.43Z"/><path class="cls-8" d="M106.2,186.65a39,39,0,0,0,2.17,4.29,11.84,11.84,0,0,0,5.78-3.43,3.48,3.48,0,0,0-.7,0s-.38-1.6-.82-4.21A12.5,12.5,0,0,1,106.2,186.65Z"/><path class="cls-8" d="M109.59,192.88a43.61,43.61,0,0,0,2.65,3.47,10.19,10.19,0,0,0,3.92-6.71l-.53-.31a2.65,2.65,0,0,0,0-.59C114.08,190.71,111.11,192.21,109.59,192.88Z"/><path class="cls-8" d="M118.43,202.92c1.24-.76,3.66-2.81,5.13-7.6-.42-.43-.85-.84-1.26-1.22a15.7,15.7,0,0,1-5.64,7Z"/><path class="cls-8" d="M113.69,198c.45.5.93,1,1.41,1.52a11.93,11.93,0,0,0,5.49-6.88,29.89,29.89,0,0,0-2.54-1.86A16.88,16.88,0,0,1,113.69,198Z"/><path class="cls-8" d="M101.92,173.39a16.29,16.29,0,0,0,9.46-2.41c0-1.21-.06-2.45,0-3.71A22.17,22.17,0,0,1,101.11,170C101.35,171.1,101.63,172.23,101.92,173.39Z"/><path class="cls-8" d="M135.26,166a18.89,18.89,0,0,1-5.36,8.32c1,1.5,1.91,2.72,2.73,3.71a14.16,14.16,0,0,0,3.75-4.68C137.75,170.13,135.36,166,135.26,166Z"/><path class="cls-8" d="M132.62,159.06c-.13-.58-.27-1.18-.4-1.79a25,25,0,0,0-8.59,6.86l1.28,2.18C127,165.23,130.84,162.81,132.62,159.06Z"/><path class="cls-8" d="M135.27,158.71a11.47,11.47,0,0,0-1.73,3.62,52.7,52.7,0,0,1,3.58,5.66c1.64,3,1.74,7.19-3.06,11.55,1.36,1.29,2.43,1.66,3.3,1.16,1.19-.68,2.28-6.32,3.35-12.2C138.61,162.53,136.34,159.76,135.27,158.71Z"/><path class="cls-8" d="M133.25,162.55l-.07-.11.06-.21c0-.11,0-.22,0-.32a.36.36,0,0,1,0-.1c-.05-.19-.09-.39-.14-.59-.71,3-4.9,5.69-7.11,6.89.41.69.81,1.36,1.24,2s1,1.53,1.43,2.24A11.47,11.47,0,0,0,133.25,162.55Z"/><path class="cls-8" d="M139.2,152.93l-.07.11a16.15,16.15,0,0,1,3.64,5.16c0-.12.07-.26.1-.39l1.07-4a11.32,11.32,0,0,0-3.59-2.87A20.88,20.88,0,0,1,139.2,152.93Z"/><path class="cls-8" d="M142.27,146a20.91,20.91,0,0,1-1.18,3.39,12,12,0,0,1,3.42,2.3c.61-2.29.88-3.22.88-3.22S144.57,145.75,142.27,146Z"/><path class="cls-8" d="M136.29,157.17a22.87,22.87,0,0,1,5,8c.33-1.77.66-3.48,1-5a29.33,29.33,0,0,0-4.19-5.64Z"/><path class="cls-8" d="M124.09,135.21,121,136c-6.3,7.17-13,10.49-18.42,12l-2.31,4.51C106.53,150.85,115.68,146.57,124.09,135.21Z"/><path class="cls-5" d="M133.45,162.72l0,0v-.06c0-.2-.09-.4-.13-.6l0,.2c0,.1,0,.21,0,.32l1.3,2.21c-.48-.86-1-1.87-1.1-2h0Z"/><path class="cls-8" d="M118.45,136.61l-11.55,2.87-3.15,6.14A34.64,34.64,0,0,0,118.45,136.61Z"/><path class="cls-8" d="M131.73,155.1c-.31-1.4-.64-2.85-.95-4.31a29.82,29.82,0,0,0-10.32,8c.66,1.08,1.34,2.23,2,3.42A29.28,29.28,0,0,1,131.73,155.1Z"/><path class="cls-5" d="M133.24,161.83v0a.36.36,0,0,0,0,.1Z"/><path class="cls-8" d="M99.39,161.51q.17,1,.39,2.13a18,18,0,0,0,12-3c.13-1,.29-2,.49-3C105.67,161.35,101.44,161.69,99.39,161.51Z"/><path class="cls-5" d="M133.45,162.72l0-.09v.06Z"/><path class="cls-8" d="M130.24,148.38c-.27-1.19-.53-2.36-.78-3.5-7.45,3.25-10.88,7.51-12.05,9.31.62.82,1.24,1.74,1.87,2.72A30.45,30.45,0,0,1,130.24,148.38Z"/><path class="cls-8" d="M129,142.67l-1.82-8.22-.3.08c-10.43,15.41-22,19.52-28,20.58l-.4.79s.18,1.33.54,3.48a25.39,25.39,0,0,0,14-4.61,28.3,28.3,0,0,1,1.33-3.86,13.34,13.34,0,0,1,1.71,1.61C117.05,150.76,120.4,146.29,129,142.67Z"/><g class="cls-4"><path class="cls-9" d="M143.29,146.14a26.22,26.22,0,0,1-1.57,7.66c-1.57,4-4.9,11.29-6.85,8.21a3.66,3.66,0,0,1-.47-2,14.09,14.09,0,0,0-.73,1.84,19,19,0,0,1,2.74,4c0,.72.08,1.43.13,2.14a15.86,15.86,0,0,0-1.31-2.84c-.27-.45-.57-.89-.86-1.33.13.59.26,1.18.4,1.77.1.4-.45.75-.57.27-1.41-5.69-2.69-11.28-3.78-17.07-.48-2.54-1.12-5-1.68-7.55-.44-1.9-.68-4.44-1.48-6.31-1.11-1.94-3.78-1.65-5.6-1.55a40.22,40.22,0,0,0-4.91.49,21.3,21.3,0,0,0-10.36,4.46c-4.67,4-9.78,11-7.74,17.68A29.38,29.38,0,0,0,99,159c.24,1.3.24,2.26.52,3.53.53,2.42,1.1,4.82,1.67,7.21-.74-4.67-.47-10.23,1-10.92,3.09-1.44,6.25,8,7.67,18.18s3,14.76,3.35,13.23,1.83,2.31,2.27,4.08,1.38-.12,1-1.75,4.58,1.65,9.67,8.76c4,5.61,8.87,11.79,11.49,15.07a4.62,4.62,0,0,0,.15-2.64c-4.22-4-7-9.29-10.49-13.94a31.08,31.08,0,0,0-6.57-6.73,54.16,54.16,0,0,1-4.43-3.48c0,.88-.16,1.72-.17,2.09-.38-1.09-.15-2.48-.92-3.36a3.53,3.53,0,0,0-1.82-.85,68.55,68.55,0,0,1-2.13-19.66,70.43,70.43,0,0,1,1.07-9.62,37,37,0,0,1,1.92-7.65l-.07,0a25.88,25.88,0,0,0-3.77,6.34,14.86,14.86,0,0,1,2.85-6.21c1.27-1.68,2.89-3.93,5-4.59-.38.44-.77.87-1.16,1.3-.83.82-1.62,1.66-2.35,2.52l-.46.44.45-.42c-.2.23-.62,1.19-.26,1.16h.14c2.91,2.85,5.22,6.72,6.92,9.48.09.14.18.28.26.42-2.63-5.06-4.67-11.91-2.7-13.42,3.4-2.59,7.23.09,11,11s4.93,11.13,4.7,8.83,2.38,1.06,2.34,6.85c0,5.12-1,6.59-4.43,3.83,1.92,2.41,4.55,4.73,5.83.85a88.34,88.34,0,0,0,1.93-9c1.08-5.32,1.91-10.76,3.21-16,0-.14,0-.29,0-.43.17-.48.33-.95.52-1.42a14.37,14.37,0,0,0,.75-1.66,2.78,2.78,0,0,0,.06-2.57A2.87,2.87,0,0,0,143.29,146.14Z"/></g><path class="cls-10" d="M99.11,145.83c1.5-.14,8.29-5.62,12.67-10.93a6.58,6.58,0,0,0,2-4.85l-1.64-3.42c-.53,1.94-2.21,4.49-7.44,9.84-7.5,7.69-9.43,7.47-9.43,7.47S97.61,146,99.11,145.83Z"/><path class="cls-5" d="M104.68,136.47c5.23-5.35,6.91-7.9,7.44-9.84-4.29-8.95-8.06-17-10.57-20.34-2.82-3.79-12.44.58-18,7.37s-4.89,10.42-4.89,10.42a31.87,31.87,0,0,0,16.56,19.86S97.18,144.16,104.68,136.47Z"/><path class="cls-5" d="M113.77,130.07v0a6.58,6.58,0,0,1-2,4.85c-4.38,5.31-11.17,10.79-12.67,10.93s-3.86-1.89-3.86-1.89c-7,3.91-8.48,6.56-5.93,9.09s10.84,6.27,17.64,2.62c4.8-3,1.12-8,1.07-14.93,7.17,2.71,11.26,5.64,14.54,1.57s6.79-10.74,5.3-14.79C126.57,124.52,119.24,128.09,113.77,130.07Z"/><g class="cls-11"><path class="cls-10" d="M104.68,136.47c-7.5,7.69-9.43,7.47-9.43,7.47a9.15,9.15,0,0,0,3.43,1.86c-.6-.54-1.12-1.32-.24-2,1.53-1.28,2.64-1.83,3.41-1a12.4,12.4,0,0,0,1,.85,62.5,62.5,0,0,0,8.49-8.09,17.88,17.88,0,0,0-1.13-2.31c-.39-.49.92-1.44,1.25-1.7s.68,1.29,1.12,2.48a5.91,5.91,0,0,0,1.23-3.9l-1.64-3.42C111.59,128.57,109.91,131.12,104.68,136.47Z"/></g><g class="cls-4"><path class="cls-12" d="M101.55,106.29c-2.82-3.79-12.44.58-18,7.37s-4.89,10.42-4.89,10.42a29.38,29.38,0,0,0,5,10.12c-.55-3-1.13-8.19.54-10.73,2.46-3.74,8,4.46,9.25,3.19s-1.93-8.43,1.33-11.59,12.7,14.09,9.29,15.54-6.49,6.42-6.56,7.64c-.15,2.32-1.47,3.86-6.34,3.24a33.08,33.08,0,0,0,4.06,2.45s1.93.22,9.43-7.47c5.23-5.35,6.91-7.9,7.44-9.84C107.83,117.68,104.06,109.66,101.55,106.29Z"/></g><g class="cls-4"><path class="cls-12" d="M112.88,137.16c1.3-1.26,9.42,2.57,11.06-2.75,1.29-4.17,1.83-6.32,4-6.51,0-.13-.07-.27-.12-.4-1.3-3-8.63.59-14.1,2.57v0a6.58,6.58,0,0,1-2,4.85c-4.38,5.31-11.17,10.79-12.67,10.93s-3.86-1.89-3.86-1.89c-5.13,2.86-7.28,5-7.08,7,1.84-2.14,4.91-5.33,6.35-4.77,2.15.83,3.41,3.72,8.33,1.41,4.27-2,5.28,8.54-4.17,9.46a13.75,13.75,0,0,0,8.28-1.38c4.8-3,1.12-8,1.07-14.93,4.93,1.87,8.41,3.84,11.17,3.55C116.74,142.27,111.9,138.11,112.88,137.16Z"/></g><path class="cls-5" d="M121.44,100.85c-2.47.07-15.51-3.46-18.88-3.58s-5.49,5.35-5.49,5.35l8,4s9.88,1.75,11.49,1.26c-.71,3-2.93,11.3-2.93,11.3s4.36,0,7.12,2.31c1.23-5.42,5.8-17.84,5.61-19.28S123.92,100.78,121.44,100.85Z"/><g class="cls-4"><path class="cls-12" d="M116.63,117.47a22.37,22.37,0,0,1,4.14-10.89c-4.65,1.9-3.28-.18.29-2.74-8.94.24-17.11-2.28-16.78-4,.13-.73,2.39-1.14,5-1.38a51.28,51.28,0,0,0-6.69-1.18c-3.37-.13-5.49,5.35-5.49,5.35l8,4s9.88,1.75,11.49,1.26c-.71,3-2.93,11.3-2.93,11.3s4.36,0,7.12,2.31c.17-.76.41-1.66.69-2.63A10.14,10.14,0,0,0,116.63,117.47Z"/></g><path class="cls-13" d="M33.14,103.08c-.7-3.46-4.81-6.06-6.51-5.33s-2.94,2.59-4.47,5-4.6,6.25-.58,9.16c2.89,2,4.89,2.21,6.47,1.37C30.28,111.85,33.44,105.53,33.14,103.08Z"/><path class="cls-5" d="M67.55,112.05a39,39,0,0,1-34.41-9c.3,2.45-2.86,8.77-5.09,10.15a62,62,0,0,0,42.21,6.16c4.8-1.6,4.33-8.17,4.33-8.17Z"/><g class="cls-4"><path class="cls-12" d="M67.55,112.05a39,39,0,0,1-34.41-9c.3,2.45-2.86,8.77-5.09,10.15a58.94,58.94,0,0,0,10.2,4.39c-2.77-2.08-5.6-4.74-4.77-6.48,1.52-3.2,12,7,28.89,3.75,6.08-.57,7.33,2.75-4.59,5.76a64,64,0,0,0,12.48-1.26c4.8-1.6,4.33-8.17,4.33-8.17Z"/></g><g class="cls-4"><path class="cls-14" d="M26.63,97.75c-1.71.72-2.94,2.59-4.47,5-1.2,1.84-3.32,4.63-2.27,7.14.31-.94.87-1.72,1.85-1.49,2.23.52,3.71-1.36,5.23-4.55s6.52-.66,2.58,5c-1.94,2.76-3.11,4.27-4.2,4.86a4,4,0,0,0,2.7-.39c2.23-1.38,5.39-7.7,5.09-10.15C32.44,99.62,28.33,97,26.63,97.75Z"/></g><path class="cls-5" d="M127.73,41.35c-8-.3-10-9.34-12.46-19.52C111.29,9.43,101.54.33,91.57,0S66.05,9,55,20.67,36.17,46.17,36.49,49c0,0,13.14-11.84,34.77-12,10.82-.08,21.31,3,28.94,8.71,1.57-2.71,3.54-2.18,3,2.12,5.34,3.77,7.7,9.31,9.19,13.45-.11-.55,3.37-6.61.34-15.05,5.64,7.33,10.44,5.47,15.46.52,6.07-6,9.84-3.47,10.19.73C141.12,40.64,133.93,41.27,127.73,41.35Z"/><path class="cls-15" d="M44.05,84.66c-1.88-3.41-4-5-7.42-6.5-.19-.09-.35-.16-.54-.23l.26.2s-6.68-2-9.68-1.66-2.53,1.11.49,3A20.8,20.8,0,0,1,34.9,89c2.71,8,3.7,10.58,7.2,13.82,6.47,5.79,9.36.72,9.36.72C40.11,98.15,43.38,87.66,44.05,84.66Z"/><path class="cls-15" d="M100.2,45.71s-.43,1.53-4.49,7.4S91.3,65.23,93,69.17c-4.31,7.45-9.9,2.74-9.15-2.11C84,72.22,92,70,89,62.83s-12-8.78-15.79-6.71C75.83,57.34,78.07,58,74.45,59c-10.43,3-20.84.32-24.2-3.68-.17,6.28,6.31,7.45,5.75,8.36-1.75,2.42-11.7-.1-14.63-4.35-3.13,9.08-1.59,11.39.54,14.49a12.22,12.22,0,0,1,2.14,10.81c-.67,3-3.94,13.49,7.41,18.9,18.39,7.91,31.46-1.77,34.88-4.63A24.09,24.09,0,0,0,94.9,78.87c.85,1.49,2.72,2.48,5.49.57,3.8-2.83,6.39-8.43,3.92-21.75a33,33,0,0,1-1.09-9.86C103.74,43.53,101.77,43,100.2,45.71Z"/><path class="cls-16" d="M51.46,76.74c-1,1.16-.72,3.83.65,5.94s3.31,2.88,4.32,1.71.73-3.82-.65-5.93S52.47,75.58,51.46,76.74Z"/><path class="cls-16" d="M73.49,65.42c-1,1.16-.72,3.82.65,5.93s3.31,2.88,4.32,1.72.73-3.82-.65-5.93S74.51,64.25,73.49,65.42Z"/><path class="cls-13" d="M71.26,37c-21.63.15-34.77,12-34.77,12-10.43,8.07-6.64,16.46-6.64,16.46a5.68,5.68,0,0,1,3.8-3.93C35,58.84,40,54.25,41.47,53.06c1.32-3,3.34-4.4,6.14-4C52.46,46.25,77.46,38.16,96,52.49l.06,0c3.7-5.38,4.11-6.83,4.11-6.83C92.57,40,82.08,36.92,71.26,37Z"/><path class="cls-17" d="M47.61,49.07c-2.8-.41-4.82,1-6.14,4C40,54.25,35,58.84,33.65,61.52a5.68,5.68,0,0,0-3.8,3.93c-1,2-.84,4.69,2.72,7.28.38,2.45,2.76,4.57,3.52,5.2.19.07.35.14.54.23,3.39,1.52,5.54,3.09,7.42,6.5a12.22,12.22,0,0,0-2.14-10.81c-2.13-3.1-3.67-5.41-.54-14.49C44.3,63.61,54.25,66.13,56,63.71c.56-.91-5.92-2.08-5.75-8.36,3.36,4,13.77,6.71,24.2,3.68,3.62-1.05,1.38-1.69-1.21-2.91C77.07,54.05,86,55.65,89,62.83S84,72.22,83.85,67.06c-.75,4.85,4.84,9.56,9.15,2.11-1.7-3.94-1.36-10.2,2.71-16.06l.38-.57-.06,0C77.46,38.16,52.46,46.25,47.61,49.07Z"/><path class="cls-13" d="M109.81,71.06l.54-.55a1.74,1.74,0,0,0-.31.23,13.69,13.69,0,0,0,2.37-9.46c-1.49-4.14-3.85-9.68-9.19-13.45a33,33,0,0,0,1.09,9.86c.29,1.57.5,3,.66,4.36C106.16,63.12,108.49,65.78,109.81,71.06Z"/><path class="cls-17" d="M126.66,69.36c-2.4.22-3.36,3.8-3.36,3.8-2.74-2.93-4.46-3.88-6.48-1.17-3-3.16-5.6-2-6.47-1.48l-.54.55c-1.32-5.28-3.65-7.94-4.84-9,1.18,10.22-1.22,14.9-4.58,17.39-2.77,1.91-4.64.92-5.49-.57a24.09,24.09,0,0,1-8.56,20.06c10.78,1.66,18.91-11.59,21-15.52,4.48,4.64,10.28,1.89,11.59-1.25,4.87,4.42,10.28.32,11.57-3a11.76,11.76,0,0,1,2.24-3.92C129.92,74,129.05,69.14,126.66,69.36Z"/><path class="cls-2" d="M65.8,110.49a10.23,10.23,0,0,0,8.94-1.56c4.7-3.18,6.53-6.09,13.72-7.61s14.81-4.66,17.84-9c.07,4.17-7.74,9.55-7.74,9.55s7.11,2.73,11,1.23c0,0-7.86,8-17.44,8-.27,5.4-.59,12.74-.59,12.74s-4.62-4.09-5.82-8.43a13.94,13.94,0,0,1-5,8,24.6,24.6,0,0,0-3.79,4s-.24-7.52.79-10.58c-3.48,4.26-9.07,4.72-10.82,5.25,2.64-3,3.78-4.18,4.65-6a5.33,5.33,0,0,1,2.53-2.56S68.84,116.46,65.8,110.49Z"/><path class="cls-18" d="M106.3,92.3c-3,4.36-10.64,7.5-17.84,9s-9,4.43-13.72,7.61a10.23,10.23,0,0,1-8.94,1.56c.08.16.17.29.25.44,1.87,1.22,5.88,2.42,12.49-2.33,2.44-1.91,3.87,4.31,8.93,2.1s2.63-7.19,2.63-7.19,8.32,3.12,14.6,1.06c-5.2,3.5-13.74,5.31-13.74,5.31s-.78,8.88-.85,10.63c0,0-4.5-6.17-4.62-7.65,0,0-2.09,6.36-6.34,9.49a68.85,68.85,0,0,1,.53-8.73s-3.61,5-8.82,6.28c4.7-6.66,4.93-7.48,4.93-7.48a12,12,0,0,1-5.53,1.73,6.61,6.61,0,0,0,3.64-.56l.25-.12-.25.12A5.39,5.39,0,0,0,71.62,116c-.87,1.87-2,3.08-4.65,6,1.75-.53,7.34-1,10.82-5.25-1,3.06-.79,10.58-.79,10.58a24.6,24.6,0,0,1,3.79-4,13.94,13.94,0,0,0,5-8c1.2,4.34,5.82,8.43,5.82,8.43s.32-7.34.59-12.74c9.58-.07,17.44-8,17.44-8-3.94,1.5-11-1.23-11-1.23S106.37,96.47,106.3,92.3Z"/><path class="cls-19" d="M118,146.31c-3.4,1.79-6.38,6.24-7.6,9.95,0,.11-.33,1-.22.75a35.23,35.23,0,0,1,7.51-10.31C117.79,146.61,118.19,146.2,118,146.31Z"/><path class="cls-20" d="M66.27,87.37C65,90.61,63,92.45,59.47,91.89c-2.43-.4-.53-3,0-4.25a9.82,9.82,0,0,0-.71-7.81c-.11-.2-.32,0-.24.2,1.67,3.47,1,7-1,10.08-.63,1-.5,1.55.44,2.18,3.95,2.64,8.2-.45,9.06-4.62C67.16,87.11,66.48,86.83,66.27,87.37Z"/><path class="cls-21" d="M48,71.41a1.84,1.84,0,0,0-2.15.55,3.2,3.2,0,0,0,0,3.67c.13.18.36-.07.34-.23a4.56,4.56,0,0,1,.06-1.84c.32-1,1.14-.4,1.8-.31a.66.66,0,0,0,.65-.3C49.17,72.16,48.76,71.68,48,71.41Z"/><path class="cls-21" d="M72,61.09c-2.48-2.21-6.84.42-5.78,3.87.1.3.43.13.42-.14A3.11,3.11,0,0,1,69,61.91c1.07-.3,1.8.88,2.73.45A.85.85,0,0,0,72,61.09Z"/><path class="cls-20" d="M77.39,85.27c-.47.19-.94.42-1.42.6a2.17,2.17,0,0,0,.75-.17,4.75,4.75,0,0,1,.46-.14c-.34,4.52-1.59,8.33-4.9,11.42-3,2.79-9.33,5-12.43,1.2-.11-.15-.29.1-.21.22,2.59,4,8.4,2.87,11.64.47,4.07-3,7.2-8,6.47-13.41h0c.46,0,.78.23,1.18-.07a.35.35,0,0,0,.11-.13A2.27,2.27,0,0,0,77.39,85.27Z"/><path class="cls-16" d="M58,89.93s2.16,2.82,6.77-3.15c3.56-4.63,3,2.34-.93,5S56.76,91.58,58,89.93Z"/><g class="cls-22"><path class="cls-23" d="M79.68,73.64c-1.22-.15-2.27,1.21-3,2.1-1,1.29-1.06,2.53-1.39,4.09,0,.14.17.32.23.14A11.72,11.72,0,0,1,77,76.71a7.4,7.4,0,0,1,2.81-2.26C80.19,74.28,80,73.68,79.68,73.64Z"/><path class="cls-23" d="M80.87,73.29a.42.42,0,0,0,.59-.07.46.46,0,0,0-.07-.62.41.41,0,0,0-.59.07A.46.46,0,0,0,80.87,73.29Z"/></g><g class="cls-22"><path class="cls-23" d="M51.13,88.47c.47-1,1.93-1.18,2.88-1.29,1.37-.16,2.27.37,3.53.85.11,0,.13.28,0,.25a8.89,8.89,0,0,0-3-.4A6.26,6.26,0,0,0,51.61,89C51.34,89.17,51,88.74,51.13,88.47Z"/><path class="cls-23" d="M50.32,89.23a.39.39,0,0,1-.33.43.38.38,0,0,1-.4-.35.37.37,0,1,1,.73-.08Z"/></g><path class="cls-20" d="M80.08,72.14c-2.92.51-4.72,3.26-5.14,6.15a.09.09,0,0,0,.17,0,7.54,7.54,0,0,1,5-5.89C80.21,72.4,80.23,72.12,80.08,72.14Z"/><path class="cls-20" d="M49.9,88.32c2-2.31,5.15-2.41,7.69-1.21.1,0,0,.19-.07.15a7,7,0,0,0-7.39,1.24C50,88.58,49.8,88.44,49.9,88.32Z"/><path class="cls-23" d="M59.78,81a8.6,8.6,0,0,1-.28,7.7c-.81,1.51,2.51.44,2.25-3.71S59,79.12,59.78,81Z"/><path class="cls-24" d="M50.77,76.62c-1,1.16-.72,3.83.65,5.94s3.31,2.88,4.32,1.72.73-3.83-.65-5.94S51.79,75.46,50.77,76.62Z"/><path class="cls-25" d="M51.85,78.12c-.6.69-.42,2.26.39,3.5s1.95,1.7,2.54,1,.43-2.25-.38-3.5S52.45,77.44,51.85,78.12Z"/><path class="cls-8" d="M51.2,78c-.27.16-.35.7-.16,1.22s.57.81.85.65.36-.71.16-1.23S51.48,77.85,51.2,78Z"/><path class="cls-8" d="M51.85,80.92a.71.71,0,0,0,.12.75c.18.26.42.34.55.19a.72.72,0,0,0-.12-.76C52.22,80.84,52,80.76,51.85,80.92Z"/><path class="cls-24" d="M72.8,65.3c-1,1.17-.71,3.82.65,5.94s3.31,2.88,4.33,1.71.72-3.82-.66-5.93S73.81,64.13,72.8,65.3Z"/><path class="cls-25" d="M73.88,66.8c-.59.69-.42,2.25.39,3.5s2,1.69,2.55,1,.42-2.25-.39-3.5S74.48,66.11,73.88,66.8Z"/><path class="cls-8" d="M73.24,66.69c-.28.16-.36.7-.17,1.22s.57.8.85.64.36-.71.17-1.22S73.51,66.53,73.24,66.69Z"/><path class="cls-8" d="M73.88,69.6a.69.69,0,0,0,.12.74c.18.26.43.35.55.19a.71.71,0,0,0-.12-.75C74.25,69.52,74,69.44,73.88,69.6Z"/><path class="cls-17" d="M137.63,73.09s.39-.83,1.91-3.5,4.22-3.42,5.91-2.59,1.92,3.84,2.47,5,2.47,1.85,4.82-.54c-.72,2.61-1.89,3.11-1.89,3.11s3.41.19,4.76,4.78c.85,3.6-1.79,6.53-5,7.37,2.93-1.9,1.77-4.76-1.08-6.56,1.38,3.2-1.32,5.23-3.41,4.67,2.38-1.37,2.43-3.25.91-5.08s-2.75,0-5.23,0S136,75.59,136,75.59Z"/><path class="cls-16" d="M59.57,97.67s4.37,4.38,10.22.06A18.25,18.25,0,0,0,76.5,86.31s-2.6.25-.24-1,3.94.4,2.16.66c-.22,4-2.06,11.63-9.94,15.19C63,103.44,58.88,99.31,59.57,97.67Z"/><path class="cls-20" d="M98.26,53.68c-1.54,1.38-1.92,4.19-2,6.16a11,11,0,0,0,.75,3c.73,2.68,0,4.69-.77,7.23-.52,1.62-.73,3.65.64,4.85.25.22.46-.21.29-.43-1.19-1.55-.64-3.64,0-5.74h0c3-.78,3.64-4.43,3.94-7.22,0-.18-.2-.23-.23-.05a31.59,31.59,0,0,1-.85,3.35,8,8,0,0,1-.9,1.86c-.15.23-1.75,1.41-1.75,1.43a.09.09,0,0,0,0-.06,10.82,10.82,0,0,0,.65-3.83,14.18,14.18,0,0,0-.83-3.13,6.91,6.91,0,0,1,0-3.61c.14-.78,1.45-5.12,3.26-3.33.18.16.35-.13.26-.3C100,52.6,99.22,52.81,98.26,53.68Z"/><path class="cls-26" d="M42.51,75a26.12,26.12,0,0,1-5.06-.41,11.8,11.8,0,0,1-5.74-3.14c-.06-.06-.09.11-.05.16,2.57,3.27,6.94,4.45,10.83,3.89C42.66,75.49,42.7,75,42.51,75Z"/><path class="cls-26" d="M41.38,53.15a7.53,7.53,0,0,0,1.82,8.37c.3.28-.12-.29-.33-.53-2.06-2.28-2-5.5-.52-8.36,1.3-2.45,2.87-4.12,5.79-3.74.08,0,.1-.2,0-.22C45.2,47.53,42.43,50.38,41.38,53.15Z"/><path class="cls-26" d="M50,50.82a4,4,0,0,0-.65,2.69A4.72,4.72,0,0,0,51,56.24c.18.14.26-.42.15-.54a7.83,7.83,0,0,1-1.29-1.91,3.46,3.46,0,0,1,.21-2.8C50.07,50.92,50,50.7,50,50.82Z"/><path class="cls-26" d="M71.27,53.75a10.09,10.09,0,0,1-1.33-2.41c-.08-.17-.18.11-.15.2A8.58,8.58,0,0,0,73,56.31c.24.17.32-.52.19-.66C72.52,55,71.86,54.44,71.27,53.75Z"/><path class="cls-26" d="M110.44,70.55a6.05,6.05,0,0,0-1,.63v0a10.69,10.69,0,0,0-3,5.91s0,0,.06,0c.45-.82.65-1.76,1.11-2.59a10.63,10.63,0,0,1,3-3.18C110.74,71.18,110.74,70.42,110.44,70.55Z"/><path class="cls-26" d="M119.63,75.88a9,9,0,0,0-1.81,1.53c-1.82-.63-2.31-3-4.47-3s-3.76,1.6-4.85,3.39c0,0,0,.18,0,.12,1.3-1.5,3.52-3.25,5.47-2.62-1.27,0-2.43,1.29-3.28,2.15a10.49,10.49,0,0,0-2.91,5.5c0,.22.19.66.31.27,1-3.16,3.2-6.82,6.53-7.6a3.26,3.26,0,0,1,.47.32c.76.72,1.24,1.81,2.11,2.14a7.55,7.55,0,0,0-1.33,3.61c0,.11.1.25.15.09A14.89,14.89,0,0,1,117,79.4a6.18,6.18,0,0,1,.82-1.2,1.88,1.88,0,0,0,.33,0c.14,0,.17-.28.13-.46a11.61,11.61,0,0,1,1.42-1.14C119.89,76.44,119.86,75.73,119.63,75.88Z"/><path class="cls-26" d="M119,73.64a20.2,20.2,0,0,1-1.78-2.33c-.18-.24-.27.34-.22.47a7.42,7.42,0,0,0,1.35,2c.53.61,1.23,1,1.79,1.49.08.08.11-.13.08-.18A6.41,6.41,0,0,0,119,73.64Z"/><path class="cls-26" d="M120.24,79.49c-.31,1.16-1.38,2-1.68,3.19,0,.1,0,.55.21.36a5.71,5.71,0,0,0,1.67-3.54C120.42,79.31,120.28,79.32,120.24,79.49Z"/><path class="cls-26" d="M128.17,75.27a2.39,2.39,0,0,1-2.57,0A4.58,4.58,0,0,1,124.06,73c-.16-.36-.33.23-.3.39a3.63,3.63,0,0,0,2.56,2.91,8.92,8.92,0,0,0-3.88,4.8s0,.23.08.13c1.35-2.5,3.43-3.58,5.59-5.17a.5.5,0,0,0,.1-.36l0,0C128.3,75.57,128.31,75.2,128.17,75.27Z"/><path class="cls-26" d="M142.58,75.61a6.18,6.18,0,0,0-2.68-.75,16.66,16.66,0,0,0-1.71-.21,19.51,19.51,0,0,0,2.38-2.17c.07-.07.09-.48-.06-.39a8.35,8.35,0,0,0-2.62,2,.83.83,0,0,0,0,.57,2.17,2.17,0,0,0-.91.25c-.12.07-.18.53,0,.51a16,16,0,0,1,2.59.07c.57.05,1.13.12,1.69.19s.87.28,1.32.29C142.68,76,142.67,75.67,142.58,75.61Z"/><path class="cls-26" d="M151.79,73.34a3.75,3.75,0,0,1-3.95,1.21c-.1,0-.12.2-.05.25a2.35,2.35,0,0,0,2,.35,3.9,3.9,0,0,0,2.15-1.49C152,73.58,151.92,73.2,151.79,73.34Z"/><path class="cls-26" d="M147.51,77.83s0,0,0,.06c.82,1.73,2.49,2.53,3.76,3.85.11.11.14-.18.09-.25C150.37,79.93,148.52,79.38,147.51,77.83Z"/><path class="cls-15" d="M78.42,103.93A3.34,3.34,0,0,1,81,105.8c1.12,1.86,3.21,4.8,5.54,3a4.46,4.46,0,0,0,.23-6.73c-1.79-1.71-2.06-1.91-2.06-1.91A29.21,29.21,0,0,1,78.42,103.93Z"/><path class="cls-16" d="M78.42,103.93A3.34,3.34,0,0,1,81,105.8c1.12,1.86,3.21,4.8,5.54,3a4.46,4.46,0,0,0,.23-6.73c-1.79-1.71-2.06-1.91-2.06-1.91A29.21,29.21,0,0,1,78.42,103.93Z"/><path class="cls-27" d="M104.46,142.7a.78.78,0,0,1-.22,0,12.09,12.09,0,0,1-2.25-1c-2-1.3-2-3.41-.7-5.22a18.85,18.85,0,0,1,2.64-2.72c1.53-1.43,3.1-2.51,4.92-.68,1.26,1.26,2.39,3,1.28,4.76a20.42,20.42,0,0,1-2.24,2.58A7,7,0,0,1,104.46,142.7Z"/><path class="cls-28" d="M101.57,136.11l-.28.35a3.77,3.77,0,0,0-.56,3.87C101,138.93,101.31,137.52,101.57,136.11Z"/><path class="cls-28" d="M103.29,142.35c.38-3.26,1.25-6.38,1.92-9.65a9.27,9.27,0,0,0-1.28,1l-.77.71c-.44,2.36-.88,4.73-1.41,7.06l.24.17A8.42,8.42,0,0,0,103.29,142.35Z"/><path class="cls-28" d="M104.46,142.7a5.43,5.43,0,0,0,1.44-.61c.62-3.28,1.25-6.56,1.61-9.9a2.28,2.28,0,0,0-1.46.06c-.68,3.54-1.67,6.88-2,10.4l.23.08A.78.78,0,0,0,104.46,142.7Z"/><path class="cls-28" d="M109.53,138.62c0-1.57.07-3.14.07-4.71a8.76,8.76,0,0,0-.75-.85,4.84,4.84,0,0,0-.64-.53c-.34,3-.89,6-1.45,9a11.67,11.67,0,0,0,1.13-1.1C108.4,139.83,109,139.24,109.53,138.62Z"/><path class="cls-28" d="M110.29,137.52a2.78,2.78,0,0,0,0-2.37C110.33,135.94,110.32,136.73,110.29,137.52Z"/><path class="cls-21" d="M107.5,133.91c-1.83-1.94-4.64,1.56-5.63,3-1.33,1.91-.27,3.44,1.4,4.15a2.48,2.48,0,0,0,1.25.47c1.25.08,2.43-1.39,3.18-2.23a4.6,4.6,0,0,0,1.56-2.6C109.36,135.6,108.12,134.57,107.5,133.91Z"/><path class="cls-10" d="M108.36,137.82a14.6,14.6,0,0,1-1.51,1.74,4.75,4.75,0,0,1-2.3,1.55l-.16,0a9.06,9.06,0,0,1-1.51-.72c-1.35-.87-1.32-2.3-.48-3.52a12.33,12.33,0,0,1,1.78-1.83c1-1,2.09-1.7,3.32-.46C108.35,135.46,109.12,136.62,108.36,137.82Z"/><g class="cls-11"><path class="cls-10" d="M107.57,134.63c-1.23-1.24-2.29-.51-3.33.45a12.91,12.91,0,0,0-1.78,1.84,2.6,2.6,0,0,0-.47,2.37,2.34,2.34,0,0,1,.64-.6c1.85-1.29,3.32-4.21,4.41-3.55a4,4,0,0,1,1.69,1.79A3.22,3.22,0,0,0,107.57,134.63Z"/></g><path class="cls-20" d="M39.52,86.79a5,5,0,0,0-.66-2.72c-1.16-2.56-4.55-4.64-7.12-5,0,0,0,.13,0,.15,3.57,1.88,7.58,4.07,7.18,8.93-.2,2.41,2,3.49,3.79,4.43.35.18.41-.7.18-.88C41.18,90.36,39.21,89.32,39.52,86.79Z"/><path class="cls-20" d="M43.08,95.74a1.67,1.67,0,0,1-1.93-.28,8.15,8.15,0,0,1-1.76-1.62c-.09-.13-.16.19-.12.27.63,1.28,2.44,3.41,3.93,2.32C43.36,96.31,43.36,95.63,43.08,95.74Z"/><g class="cls-4"><path class="cls-15" d="M102.08,72.47c-2.69,2.84-5,.8-3.23-1.5s1.53-3.19,2.28-6.46.86-5.91-.2-3.07-1.37,1.92-2.63-1,.55-6.5,2.13-6.34,1.59-3-1-2.3c-5.11,2.42-4.53,13.43-5.33,10a15,15,0,0,1,.76-7.38C91.64,59.92,91.43,65.53,93,69.17c-4.31,7.45-9.9,2.74-9.15-2.11C84,72.22,92,70,89,62.83s-12-8.78-15.79-6.71C75.83,57.34,78.07,58,74.45,59c-10.43,3-20.84.32-24.2-3.68-.17,6.28,6.31,7.45,5.75,8.36-1.75,2.42-11.7-.1-14.63-4.35-2.27,6.58-2.08,9.6-1,11.94,0-2.14.36-4.49,1.41-6,1.84-2.69,6.34,3.94,15.27,0,2.14-.94.85-2-.75-3.66,0,0,5,2,8.24,1.71-.19,2.94,2.81,3.53,3.14,1.8S70.49,63.05,72,63.5s2.4-.09,1.37-2.08c4.55.74,9,4.11,8.35,7.58-.51,2.52.22,3.07,3.12,4.39C91.05,76.23,95.5,91,78.18,101.94c-8.48,4.88-15.52,4.54-22.11,3.17a1,1,0,0,0,0,.1,32.55,32.55,0,0,0,30.31-6.28A24.09,24.09,0,0,0,94.9,78.87c.85,1.49,2.72,2.48,5.49.57,3.62-2.69,6.13-7.93,4.23-19.92C104.6,64.64,104.76,69.65,102.08,72.47Z"/></g><path class="cls-16" d="M44.05,84.66c-1.88-3.41-4-5-7.42-6.5-.19-.09-.35-.16-.54-.23l.26.2s-.61-.19-1.53-.43c2.54,1,4.57,2.21,4.94,3.54,1.1,4-3.16-2.31-8.94-2.6,5.71,3.93,6.64,5.72,6.52,7.85s2.9,6.07,1.14,5-.07,3.65,3.16,5.14,4.91,8.53,2.14,6.51-5.51-6.38-7.36-12.79c-1.64-5.63-4.1-9.2-10.62-11.82.38.27.81.57,1.36.91A20.8,20.8,0,0,1,34.9,89c2.71,8,3.7,10.58,7.2,13.82,6.47,5.79,9.36.72,9.36.72C40.11,98.15,43.38,87.66,44.05,84.66Z"/><g class="cls-4"><path class="cls-29" d="M96,52.49a41,41,0,0,0-23.62-8.2A60.39,60.39,0,0,1,79,46c11.48,3.7,12.21,13.6,9.93,11.56s-4.76-4-9.18-4-7.45-1.13-10.39-5.37c-2.79,5.47,5.25,10.12-2.93,9.93-10.79-.5-15.73-4.36-17.13-8.46-4.26,7.36,5.21,12.37,2.4,13.58-1.8.78-11.45-2.7-10.13-9.13a10.26,10.26,0,0,1,1.24-3.3,8.74,8.74,0,0,0-1.38,2.23c-.72.58-2.24,1.93-3.77,3.48l.09,0c2.82-2.23,3.8,0,1.3,5.54s.16,10.21-1.17,10.47a22.24,22.24,0,0,1-7.17-1.44,10.34,10.34,0,0,0,1.82,1.67c.38,2.45,2.76,4.57,3.52,5.2.19.07.35.14.54.23,3.39,1.52,5.54,3.09,7.42,6.5a12.22,12.22,0,0,0-2.14-10.81c-2.13-3.1-3.67-5.41-.54-14.49C44.3,63.61,54.25,66.13,56,63.71c.56-.91-5.92-2.08-5.75-8.36,3.36,4,13.77,6.71,24.2,3.68,3.62-1.05,1.38-1.69-1.21-2.91C77.07,54.05,86,55.65,89,62.83S84,72.22,83.85,67.06c-.75,4.85,4.84,9.56,9.15,2.11-1.7-3.94-1.36-10.2,2.71-16.06l.38-.57Z"/></g><path class="cls-30" d="M128.64,70.49a5.48,5.48,0,0,1-.37,2.56c-.63,1.43-2.31,1-3.17,0a4.59,4.59,0,0,1-.9-1.87,7.62,7.62,0,0,0-.53,1,8.15,8.15,0,0,1,.38,1.25c.43,2-.15,5.75-2.88,5.62-.67,0-.86-1-.83-1.52,0-.72.47-2.21,0-2.76s-1-.94-1.47-1.42a8.25,8.25,0,0,1-1.52-1.9,4.28,4.28,0,0,0-.48.54,10.21,10.21,0,0,0-1.16-1c1.92,2.59,2,5.55-.55,3.67-3.55-2.6-6.07,0-8,4.29s-3.5,8.11-6,10.59c-4.1,4.07-9.22,5.82-7.11,2.8s5.26-3.54,3.45-5.6-2.79-3,2.8-5.47,6.49-9.67,6.53-14.33a3.65,3.65,0,0,1,.47-2,13.53,13.53,0,0,0-2.3-2.82c1.18,10.22-1.22,14.9-4.58,17.39-2.77,1.91-4.64.92-5.49-.57a24.09,24.09,0,0,1-8.56,20.06c10.78,1.66,18.91-11.59,21-15.52a8.73,8.73,0,0,0,1.34,1.14c.87-2.14,2.47-5.27,4.53-6.13,3.23-1.34,2.17,2,2.66,3.32s-.59-2.37,1.09-2.34c1.27,0,.54,3.41-1,5.67A6.05,6.05,0,0,0,119,82.16c4.87,4.42,10.28.32,11.57-3a11.76,11.76,0,0,1,2.24-3.92C130.86,74.39,129.83,71.94,128.64,70.49Z"/><path class="cls-30" d="M147.86,76.66c-1.48-1.9-1.92-1.82-5.33-2.09s1-2.47-.05-3.24-3.19.45-1.6-1.83a5.7,5.7,0,0,1,4.26-2.62c-1.71-.6-4.19.19-5.6,2.71s-1.91,3.5-1.91,3.5L136,75.59s3.35,4.09,5.81,4.13,3.71-1.82,5.23,0,1.47,3.71-.91,5.08c2.09.56,4.79-1.47,3.41-4.67,2.85,1.8,4,4.66,1.08,6.56,3.18-.82,5.76-3.67,5.06-7.17a7.39,7.39,0,0,1-2.13,3C153.81,78.05,149.34,78.56,147.86,76.66Z"/><path class="cls-8" d="M36.6,71.74c-2.59-1-7.23-1.9-6.38-6.17,0,0,0-.07,0,0-1.3,3.88,2.64,6,5.73,6.37C36.17,71.94,36.83,71.82,36.6,71.74Z"/><path class="cls-8" d="M50.15,62.7c-3.54-2.34-9.54-5.89-6.74-11.38,0-.06,0-.26-.06-.16-.91,1.43-1.83,3-1.16,4.83,1.2,3.16,4.12,5.17,7,6.39C49.57,62.53,50.41,62.86,50.15,62.7Z"/><path class="cls-8" d="M69.1,56.77c-3.38-.41-7.13-.71-10.41-2.07a23.29,23.29,0,0,1-8.11-5.76c-.16-.18-.25.29-.15.41,4.39,5.42,10.92,9.33,17.88,7.78C68.58,57.07,69.4,56.81,69.1,56.77Z"/><path class="cls-31" d="M105.75,18.3c-.06-.15-.14.09-.12.17.77,3.21-.25,6.3-1.73,9.07a12.92,12.92,0,0,1-.64-2.38c-.45-3-.1-6.13-.2-9.19,0-.16-.13-.08-.15,0-.51,4.63-.93,9.06.94,13.37,2.84,6.54,7,12.1,9.06,19,.19.61.52-.11.45-.46-1.15-5.76-4.29-10.35-7.07-15.37a37.92,37.92,0,0,1-2.13-4.33C106,25.45,107.12,21.54,105.75,18.3Z"/><g class="cls-4"><path class="cls-14" d="M96,43c2.83,4.4-3.9,3.18-19.12-1.52C51.18,36.69,33.78,56.66,33.41,53.43a4.09,4.09,0,0,1,.48-2.11c-7.09,7.27-4,14.13-4,14.13a5.68,5.68,0,0,1,3.8-3.93C35,58.84,40,54.25,41.47,53.06c1.32-3,3.34-4.4,6.14-4C52.46,46.25,77.46,38.16,96,52.49l.06,0c3.7-5.38,4.11-6.83,4.11-6.83A41.83,41.83,0,0,0,96,43Z"/></g><g class="cls-4"><path class="cls-14" d="M104.31,57.69c.29,1.57.5,3,.66,4.36,1.19,1.07,3.52,3.73,4.84,9l.54-.55a1.74,1.74,0,0,0-.31.23,13.69,13.69,0,0,0,2.37-9.46c-.3-.83-.65-1.74-1-2.66.09,2.88-.1,5.13-1.6,3.5-2.26-2.48-3.86-4.31-4.51-8.06a4.62,4.62,0,0,1,.91-3.65,20.05,20.05,0,0,0-3-2.58A33,33,0,0,0,104.31,57.69Z"/></g><g class="cls-4"><path class="cls-12" d="M136.26,43c-1.67-1.23-5.7-1.12-9.33,2.25s-6.88,1.38-10.26-2.6c-3.84-4.54-10.63-18-6.49-20.68,2.33-1.53,4.65,1.49,6.23,4.44-.38-1.5-.75-3-1.14-4.62C111.29,9.43,101.54.33,91.57,0a25.91,25.91,0,0,0-9.65,1.93C96.19-1.5,97.17,13.59,96.69,21.17,96.19,29,105.94,44,95.44,37S64.44,30.78,52,34.5c-6,1.79-6.08-1.26-4.56-4.9C40.6,38.55,36.25,46.87,36.49,49c0,0,13.14-11.84,34.77-12,10.82-.08,21.31,3,28.94,8.71,1.57-2.71,3.54-2.18,3,2.12,5.34,3.77,7.7,9.31,9.19,13.45-.11-.55,3.37-6.61.34-15.05,5.64,7.33,10.44,5.47,15.46.52,6.07-6,9.84-3.47,10.19.73,0-.12.07-.22.11-.33C138.67,45.15,137.75,44.12,136.26,43Z"/></g><path class="cls-8" d="M85.4,2.58C72.13,6.05,59.34,15.84,51.25,27.36c-.13.17,0,.88.2.61C60.42,16.45,74,8.15,86.88,2.58,87.23,2.43,85.86,2.46,85.4,2.58Z"/><path class="cls-2" d="M73.9,113.59l.25-.12Z"/><path class="cls-2" d="M137.27,70.89a3.47,3.47,0,0,1-1.38,4.56,3.14,3.14,0,0,1-4.4-1.23,3.48,3.48,0,0,1,1.39-4.56A3.12,3.12,0,0,1,137.27,70.89Z"/><path class="cls-32" d="M134.48,70.14A1.2,1.2,0,0,1,134,71.7a1.07,1.07,0,0,1-1.51-.42,1.18,1.18,0,0,1,.48-1.56A1.07,1.07,0,0,1,134.48,70.14Z"/><path class="cls-32" d="M135,71.53a.4.4,0,0,1-.16.51.34.34,0,0,1-.49-.14.37.37,0,0,1,.16-.5A.36.36,0,0,1,135,71.53Z"/><g class="cls-11"><path class="cls-2" d="M132.88,69.66a2.16,2.16,0,0,1,3,.84,2.38,2.38,0,0,1-1,3.13,2.15,2.15,0,0,1-3-.84,2.38,2.38,0,0,1,.95-3.13,3.48,3.48,0,0,0-1.39,4.56,3.14,3.14,0,0,0,4.4,1.23,3.47,3.47,0,0,0,1.38-4.56A3.12,3.12,0,0,0,132.88,69.66Z"/></g><path class="cls-2" d="M137.39,76.54A3.62,3.62,0,0,1,136,81.29,3.28,3.28,0,0,1,131.37,80a3.64,3.64,0,0,1,1.45-4.76A3.27,3.27,0,0,1,137.39,76.54Z"/><path class="cls-32" d="M134.36,76.11a1.17,1.17,0,0,1-.47,1.54,1.06,1.06,0,0,1-1.49-.42,1.17,1.17,0,0,1,.47-1.55A1.06,1.06,0,0,1,134.36,76.11Z"/><g class="cls-11"><path class="cls-2" d="M132.82,75.25A3.64,3.64,0,0,0,131.37,80,3.28,3.28,0,0,0,136,81.29a3.62,3.62,0,0,0,1.44-4.75A3.27,3.27,0,0,0,132.82,75.25ZM135,79.74a2.26,2.26,0,0,1-3.17-.9,2.5,2.5,0,0,1,1-3.28,2.25,2.25,0,0,1,3.16.89A2.52,2.52,0,0,1,135,79.74Z"/></g><path class="cls-8" d="M61.14,118.87c-8.4.77-16.83-.23-24.65-4-.14-.07-.17.3-.07.37a31,31,0,0,0,24.19,3.85C60.89,119,61.46,118.84,61.14,118.87Z"/><path class="cls-8" d="M94.17,140.24A31.35,31.35,0,0,1,85,132.6c-.12-.14-.17.22-.11.31a17.25,17.25,0,0,0,8.53,7.27C93.92,140.35,94.54,140.43,94.17,140.24Z"/><path class="cls-8" d="M100.82,155.66c-1.77-.55-4.31-1.24-6.08-1.83a12.68,12.68,0,0,1-4.25-2.67c-.16-.13-.2.34-.12.44a10.73,10.73,0,0,0,9.7,4.48C100.39,156,101.12,155.75,100.82,155.66Z"/><path class="cls-6" d="M159.92,141.9c-11.37-10-14.29-10.08-14.93-8.16s-1.8,6.38-3.34,7.23-1,1.77-.65,2.31c0,0-1.28.44-1.25,1.59s.7,4.19,5.88,6.46c2.75,1.29,2.48-.48,1.72-4.86,1,2.39,1.78.44,1.81-1,.37,3.14.71,2.95,3.64,1.44a30.12,30.12,0,0,1,4.92,3,13,13,0,0,0-2.69-3.16c-2.31-1.93-2.3-1.6-2.56-3.34a9.28,9.28,0,0,1-1.37,2.94c-.46.52-1.12-3.35-2.86-5.06s.45,3.48-.25,4-2.32-1.63-2.32-1.63a10.71,10.71,0,0,1,.48,2.81c0,1.52-1.39-1.51-3.27-1.59s.2-1,1.36-.91-.25-1.66-1.27-2,1-1.76,1.91-4.32,3.63-5.05,7.12-.22,4.45,4.78,7.83,6.83,8.11,9,6.53,13.52c-1,2.87-3.16,4.16-4.69,3.72.67.75,2.08,1,3.65-.25C168.27,159,171.3,151.87,159.92,141.9Z"/><path class="cls-15" d="M26.39,102a14.43,14.43,0,0,1-3.65-3.24c1-3.07-.34-5,.07-8S25,86,24.7,85s-2.52-.12-3.69,2.56A11.4,11.4,0,0,0,20.19,93s-4.09-4.88-5.41-9.84c-.66-3-.83-5.17-1.93-4.42s-1.55,6.23,1.76,10.43A9.86,9.86,0,0,1,16.1,92l-.74.42A49.57,49.57,0,0,1,9.77,83.8c-2-4.29-3.38-4.09-3.16-1.14s3.34,7,5.13,8.74,1.75,3.14,1.75,3.14A23.81,23.81,0,0,1,7.35,90.4c-3.34-3-5.07-4.81-5.86-3.79s1.05,4.43,5.45,7,5.33,4.86,5.33,4.86a47.79,47.79,0,0,1-6.85-2c-3.37-1.33-5.06-.8-5.38.07s1.61,3.48,5.24,3.78,5.51.16,6.76,1.2,5.05,4.32,7.21,2.39a14.24,14.24,0,0,0,3.67,2.92A8.58,8.58,0,0,0,26.39,102Z"/><path class="cls-20" d="M12.12,100.74s0-.19,0-.53a13.62,13.62,0,0,1,0-1.39c0-.29.07-.6.11-.93a4.83,4.83,0,0,1,.2-1c.12-.34.23-.7.35-1.06a5.84,5.84,0,0,1,.43-1.07,7.19,7.19,0,0,1,1.32-1.83,5,5,0,0,1,1.59-1.1,3.59,3.59,0,0,1,1.32-.21l.5.11-.5,0a3.82,3.82,0,0,0-1.23.37,5.51,5.51,0,0,0-1.42,1.14A6.89,6.89,0,0,0,13.56,95a5.06,5.06,0,0,0-.44,1l-.36,1a5.23,5.23,0,0,0-.25,1c-.07.31-.13.61-.19.89-.09.56-.13,1-.17,1.36Z"/><path class="cls-20" d="M20.17,92.62a1.9,1.9,0,0,1,.09.85A.83.83,0,0,1,20,94a1.47,1.47,0,0,1-.62.38,3.73,3.73,0,0,0-.66.28,3.42,3.42,0,0,0-1.19.93,2,2,0,0,0-.44.63,1.64,1.64,0,0,0-.25.71,1.35,1.35,0,0,0-.09.71v.66l.3,1.38s-.05-.13-.16-.36-.25-.56-.38-1c0-.22-.05-.46-.08-.71s0-.26,0-.39l.08-.41a2.45,2.45,0,0,1,.26-.82,2.85,2.85,0,0,1,.48-.74,3.93,3.93,0,0,1,1.37-1c.49-.24,1-.23,1.25-.47a.91.91,0,0,0,.29-.42,1.36,1.36,0,0,0,.07-.42A1.81,1.81,0,0,0,20.17,92.62Z"/><path class="cls-16" d="M22.23,93.55c.2,2.29,0,6-2.49,5.9s-2.29-3.15-.78-4,1.87-1.42,1.82-4.66a6.56,6.56,0,0,1,3.58-6.17c-.73-.27-2.4.73-3.35,2.91A11.4,11.4,0,0,0,20.19,93s-4.09-4.88-5.41-9.84a31.22,31.22,0,0,0-.93-3.92c.32,2.37,0,4,1.05,6.54,1.4,3.32,2,6.4-.65,1.58a18.44,18.44,0,0,1-2.15-6.7,12.09,12.09,0,0,0,2.51,8.51A9.86,9.86,0,0,1,16.1,92l-.74.42A49.57,49.57,0,0,1,9.77,83.8c-1-2.09-1.82-3.1-2.38-3.26a32.8,32.8,0,0,0,2.38,5c1.69,2.63,4.37,7.8.76,3.68a21.39,21.39,0,0,1-3.93-7c0,.15,0,.27,0,.44.22,3,3.34,7,5.13,8.74s1.75,3.14,1.75,3.14A23.81,23.81,0,0,1,7.35,90.4c-2.39-2.12-3.93-3.64-4.91-4a33.24,33.24,0,0,0,4.63,4.67c2.91,2.46,6.23,6,.4,2.35a24.05,24.05,0,0,1-5.84-5.07,13,13,0,0,0,5.31,5.28c4.41,2.62,5.33,4.86,5.33,4.86a47.79,47.79,0,0,1-6.85-2,12,12,0,0,0-2.34-.69c5.81,2.94,6.74,3.62,2.61,3.66a11.71,11.71,0,0,1-4.54-.81,7,7,0,0,0,4.13,1.69c3.62.31,5.51.16,6.76,1.2.32.26.81.67,1.39,1.1a14.65,14.65,0,0,1,.47-6.87c1.4-3.9,4.89-3.16,3.6-1.56a7,7,0,0,0-1.07,6.12c.4,1.41.51,2.88-.28,3.89a2.92,2.92,0,0,0,3.1-.29,14.24,14.24,0,0,0,3.67,2.92A8.58,8.58,0,0,0,26.39,102a14.43,14.43,0,0,1-3.65-3.24c1-3.07-.34-5,.07-8a14.86,14.86,0,0,1,1.56-4.42A8.65,8.65,0,0,0,22.23,93.55Z"/><path class="cls-13" d="M113.67,119.22s-2.2-.16-3.12,3.78l.47,1.43c.39-1.05,1.1-2.58,1.89-2.64,1.21-.11,2.53,3.42,2.53,3.42s1-2.07,2.46.51a2,2,0,0,1,2.67,1.08c.86-.64,1.62-.87,2.1-.64,0,0-.07,0-.11,0,.59-1-.31-3.3-1.77-4.58C118,119.17,113.67,119.22,113.67,119.22Z"/><path class="cls-15" d="M120.57,126.8a2,2,0,0,0-2.67-1.08c-1.43-2.58-2.46-.51-2.46-.51s-1.32-3.53-2.53-3.42c-.79.06-1.5,1.59-1.89,2.64a26.9,26.9,0,0,1,1,5.25c.44,3.81,1.51,4.81,2.51,3.65.83,1.72,2,.69,2.45,0,.91,1.86,1.87.67,3-.62,1.24,1.67,3.29.89,3.57-1.85a8.68,8.68,0,0,0-.4-4.27C122.73,125.8,121.74,125.93,120.57,126.8Z"/><path class="cls-20" d="M115.44,125.21s.11.52.19,1.3a17.49,17.49,0,0,1,.07,2.87,9.81,9.81,0,0,1-.55,2.84,2.91,2.91,0,0,1-.44.84l-.22.27.15-.31a4.75,4.75,0,0,0,.29-.88,16,16,0,0,0,.34-2.79c.09-1,.09-2,.12-2.84S115.44,125.21,115.44,125.21Z"/><path class="cls-20" d="M117.9,125.72a6.89,6.89,0,0,1,.31,1.2,11.3,11.3,0,0,1,.14,2.75c-.1.49-.14,1-.28,1.44l-.23.64a2.85,2.85,0,0,1-.23.56c-.39.64-.67,1-.67,1s.17-.47.45-1.13a2.84,2.84,0,0,0,.16-.56q.06-.32.15-.63c.12-.44.14-.93.22-1.4a20.49,20.49,0,0,0,0-2.67C118,126.21,117.9,125.72,117.9,125.72Z"/><path class="cls-20" d="M120.57,126.8a3.67,3.67,0,0,1,.37.9,5.58,5.58,0,0,1,.16,2.16,4.45,4.45,0,0,1-.26,1.13,3.47,3.47,0,0,1-.39.93c-.31.49-.53.8-.53.8s.12-.38.31-.91a6,6,0,0,0,.26-.92,4.78,4.78,0,0,0,.18-1.09,5.78,5.78,0,0,0,.08-1.09c0-.34,0-.68,0-1A6.53,6.53,0,0,0,120.57,126.8Z"/><path class="cls-14" d="M120.79,121.53a8.54,8.54,0,0,0-2.74-1.52c3.55,2.94,4.91,4.77.73,4.13s-4.57-4.08-6.13-3c-.66.45-1.06.2-1.31-.22a7.18,7.18,0,0,0-.79,2.08l.47,1.43c.39-1.05,1.1-2.58,1.89-2.64,1.21-.11,2.53,3.42,2.53,3.42s1-2.07,2.46.51a2,2,0,0,1,2.67,1.08c.86-.64,1.62-.87,2.1-.64,0,0-.07,0-.11,0C123.15,125.13,122.25,122.81,120.79,121.53Z"/><path class="cls-16" d="M116.6,129.24a10.6,10.6,0,0,0-.25-4.79,1.56,1.56,0,0,0-.91.76h0a9.85,9.85,0,0,1,.06,2.84c-.39,3-.43,4.15-1,5.36a1.7,1.7,0,0,0,.66.76C115.74,133.31,116.21,132.15,116.6,129.24Z"/><path class="cls-16" d="M113.29,126.47c-.12-2.85-.88-3.61-1.44-3.78a9.5,9.5,0,0,0-.83,1.74,26.9,26.9,0,0,1,1,5.25c.25,2.16.7,3.38,1.23,3.86C113.68,132.79,113.44,129.66,113.29,126.47Z"/><path class="cls-16" d="M121.84,126.16a3.62,3.62,0,0,0-1.11.54c.34,1.13.5,3.1-.74,6.09a2.11,2.11,0,0,0,.83.66C122.62,129.63,122.29,127.31,121.84,126.16Z"/><path class="cls-16" d="M119.34,125.69a2.38,2.38,0,0,0-1.3,0,14,14,0,0,1-1,7.76c.27.51.54.75.82.81C119.77,129.78,119.68,127.08,119.34,125.69Z"/><g class="cls-4"><path class="cls-33" d="M148.82,221.87a10.1,10.1,0,0,1-2.12-7.46c-.1-.08-.18-.16-.3-.24-.58,2.63.11,6.07,4.37,11.48,4.85,6.17,5.41,9.59,3.54,14a11.85,11.85,0,0,1-6.71,5.94c3.06-.46,6.5-3,8.54-6.79a5.36,5.36,0,0,1-.15-2.18C156.47,230.54,152.19,226.47,148.82,221.87Z"/></g></g></g></g></svg>