<svg xmlns="http://www.w3.org/2000/svg" viewBox="0 0 273.54 294.57"><defs><style>.cls-1{isolation:isolate;}.cls-2{fill:#7fd2d1;}.cls-3{fill:#00b8c5;}.cls-11,.cls-13,.cls-15,.cls-17,.cls-20,.cls-3,.cls-9{mix-blend-mode:multiply;}.cls-4{fill:#585252;}.cls-5{fill:#fff;}.cls-6{fill:#627268;}.cls-7{fill:#3e4d45;}.cls-8{fill:#d274a9;}.cls-9{fill:#a269af;}.cls-10,.cls-11{fill:#876ab1;}.cls-12,.cls-13{fill:#f67f2a;}.cls-14{fill:#f24230;}.cls-15{fill:#b72018;}.cls-16{fill:#6dc5ed;}.cls-17{fill:#00c7d8;}.cls-18{fill:#2f292b;}.cls-19,.cls-20{fill:#fcda38;}</style></defs><g class="cls-1"><g id="Layer_2" data-name="Layer 2"><g id="lights"><path class="cls-2" d="M99.7,10.57a7.45,7.45,0,0,0,.46-4.07l-1.25-.69c-.62-.35-1.22-.72-1.22-.72a6.74,6.74,0,0,0-3,2.57,5.57,5.57,0,0,0-.58,5.23,3.33,3.33,0,0,0,.25.5l.27.31.12.13s.3.07.58.11a2.44,2.44,0,0,0,.53,0A5,5,0,0,0,99.7,10.57Z"/><path class="cls-3" d="M100.2,8.43a5.78,5.78,0,0,0,0-1.93l-1.25-.69c-.62-.35-1.22-.72-1.22-.72a4.77,4.77,0,0,0-1.57,1s1,.62,2,1.21S100.2,8.43,100.2,8.43Z"/><path class="cls-4" d="M99.62,5.9,99,5.57c-.3-.15-.59-.33-.59-.33L100.14,2s.28.17.58.33l.56.31Z"/><path class="cls-5" d="M97.63,8.05c.3-1-.92-1.2-1.53-.93a1.77,1.77,0,0,0-.89.81.75.75,0,0,0,.29,1.19A1.62,1.62,0,0,0,97.63,8.05Z"/><path class="cls-5" d="M95.29,10.38c.13-.42-.4-.49-.64-.39a.79.79,0,0,0-.38.34.31.31,0,0,0,.13.49A.67.67,0,0,0,95.29,10.38Z"/><path class="cls-6" d="M100.7,8.05,98.4,6.78,96.15,5.43l1.51-2.78s1.11.65,2.2,1.31,2.24,1.25,2.24,1.25Z"/><polygon class="cls-7" points="100.7 8.05 98.4 6.78 99.86 3.96 102.1 5.21 100.7 8.05"/><path class="cls-8" d="M116.19,18a7.47,7.47,0,0,0-.14-4.11l-1.31-.49c-.34-.12-.67-.24-.91-.34a4.16,4.16,0,0,1-.41-.17,6.85,6.85,0,0,0-2.62,3,5.5,5.5,0,0,0,.16,5.26,2.12,2.12,0,0,0,.33.43l.3.27.14.12h.59a2.68,2.68,0,0,0,.53-.12A5.11,5.11,0,0,0,116.19,18Z"/><path class="cls-9" d="M116.37,15.78a5.73,5.73,0,0,0-.32-1.91l-1.31-.49c-.34-.12-.67-.24-.91-.34a4.16,4.16,0,0,1-.41-.17A5.19,5.19,0,0,0,112,14.09s1.08.48,2.18.87Z"/><polygon class="cls-4" points="115.44 13.36 114.19 12.89 115.42 9.44 116.63 9.89 115.44 13.36"/><path class="cls-5" d="M113.79,15.79c.16-1.06-1.1-1-1.65-.67a1.88,1.88,0,0,0-.77,1,.75.75,0,0,0,.45,1.13C112.66,17.53,113.67,16.64,113.79,15.79Z"/><path class="cls-5" d="M111.79,18.49c.06-.43-.46-.44-.69-.29a.7.7,0,0,0-.32.38.32.32,0,0,0,.19.48A.69.69,0,0,0,111.79,18.49Z"/><path class="cls-6" d="M116.81,15.33l-2.44-.92c-.61-.22-1.23-.45-1.67-.65l-.75-.32,1.11-3,.74.31c.43.19,1,.42,1.62.63l2.38.89Z"/><polygon class="cls-7" points="116.81 15.33 114.37 14.41 115.42 11.39 117.8 12.28 116.81 15.33"/><path class="cls-10" d="M133.65,22.49a7.75,7.75,0,0,0-.87-4s-2.7-.42-2.71-.47a7,7,0,0,0-2.12,3.4,5.52,5.52,0,0,0,.94,5.19,1.76,1.76,0,0,0,.41.37l.37.21.17.09s.32,0,.62-.11A2.46,2.46,0,0,0,131,27,5,5,0,0,0,133.65,22.49Z"/><path class="cls-11" d="M133.42,20.3a5.74,5.74,0,0,0-.64-1.82s-2.7-.42-2.71-.47a4.82,4.82,0,0,0-1.2,1.44l.71.17a12.28,12.28,0,0,0,1.56.31Z"/><polygon class="cls-4" points="132.12 18.11 130.83 17.9 131.52 14.29 132.71 14.47 132.12 18.11"/><path class="cls-5" d="M130.88,20.82a.65.65,0,0,0-.68-.74,1.55,1.55,0,0,0-1,.36,1.86,1.86,0,0,0-.63,1.06.74.74,0,0,0,.62,1C130,22.75,130.91,21.67,130.88,20.82Z"/><path class="cls-5" d="M129.32,23.82c0-.44-.52-.35-.73-.18a.78.78,0,0,0-.26.44.3.3,0,0,0,.26.43C129,24.59,129.32,24.18,129.32,23.82Z"/><path class="cls-6" d="M133.76,19.76l-2.52-.41A17.75,17.75,0,0,1,129.5,19l-.79-.19.66-3.14.76.19a15.22,15.22,0,0,0,1.66.33l2.37.38Z"/><polygon class="cls-7" points="133.76 19.76 131.24 19.35 131.79 16.19 134.16 16.57 133.76 19.76"/><path class="cls-12" d="M151.7,22a7.17,7.17,0,0,0-1.92-3.55l-.42.07a9.53,9.53,0,0,1-1,.13l-1.38.13A7.41,7.41,0,0,0,146,22.75a5.22,5.22,0,0,0,2.39,4.63,3.43,3.43,0,0,0,.5.26l.39.09.19.05s.29-.12.55-.26a2.79,2.79,0,0,0,.42-.37A5.46,5.46,0,0,0,151.7,22Z"/><path class="cls-13" d="M150.89,20a5.19,5.19,0,0,0-1.11-1.53l-.42.07a9.53,9.53,0,0,1-1,.13l-1.38.13a5.51,5.51,0,0,0-.74,1.76l2.31-.21c.58,0,1.14-.18,1.58-.24Z"/><path class="cls-4" d="M149,18.34s-1.31.14-1.31.14l-.38-3.66.63-.07.42,0,.19,0Z"/><path class="cls-5" d="M148.6,21.28c-.32-1-1.41-.42-1.76.16a1.94,1.94,0,0,0-.3,1.2.71.71,0,0,0,.89.8A1.72,1.72,0,0,0,148.6,21.28Z"/><path class="cls-5" d="M148,24.6c-.13-.42-.62-.17-.77.08a.72.72,0,0,0-.12.49.3.3,0,0,0,.38.33A.74.74,0,0,0,148,24.6Z"/><path class="cls-6" d="M151.08,19.39l-.8.13c-.47.07-1.11.22-1.75.26L146,20l-.25-3.2,2.45-.23c.62,0,1.23-.19,1.68-.25l.77-.12Z"/><path class="cls-7" d="M151.08,19.39l-1.27.21-.88.14-.4,0-.36-3.19.38,0c.24,0,.54-.1.85-.14l1.22-.2Z"/><path class="cls-14" d="M169.1,17.38a7.07,7.07,0,0,0-2.52-3.15l-2.67.9a7.76,7.76,0,0,0-.3,4.09,5.18,5.18,0,0,0,3.21,4,3.47,3.47,0,0,0,.51.13h.58l.16-.12.31-.25a2.58,2.58,0,0,0,.34-.43A5.43,5.43,0,0,0,169.1,17.38Z"/><path class="cls-15" d="M168,15.53a5.05,5.05,0,0,0-1.37-1.3l-2.67.9a5.85,5.85,0,0,0-.38,1.91Z"/><polygon class="cls-4" points="165.8 14.21 164.53 14.64 163.48 11.12 164.71 10.7 165.8 14.21"/><path class="cls-5" d="M165.92,17.19c-.51-.94-1.46-.1-1.69.56a1.93,1.93,0,0,0-.06,1.25.69.69,0,0,0,1,.58A1.83,1.83,0,0,0,165.92,17.19Z"/><path class="cls-5" d="M165.92,20.6c-.21-.38-.62,0-.71.25a.7.7,0,0,0,0,.51.28.28,0,0,0,.42.24A.77.77,0,0,0,165.92,20.6Z"/><path class="cls-6" d="M168,14.88l-2.46.85-1.69.58c-.47.17-.78.25-.78.25l-.87-3.09a6,6,0,0,0,.75-.24l1.66-.56,2.39-.82Z"/><polygon class="cls-7" points="168.03 14.88 165.56 15.73 164.64 12.67 167.03 11.85 168.03 14.88"/><path class="cls-16" d="M185.57,10a6.57,6.57,0,0,0-2.85-2.76l-.39.2-.88.43-1.29.61a7.39,7.39,0,0,0,.22,4.09,5.14,5.14,0,0,0,3.67,3.56,2.67,2.67,0,0,0,.53.07l.38,0,.19,0s.22-.2.41-.41a4,4,0,0,0,.29-.46A5.65,5.65,0,0,0,185.57,10Z"/><path class="cls-17" d="M184.23,8.35a4.88,4.88,0,0,0-1.51-1.09l-.39.2-.88.43-1.29.61a5.49,5.49,0,0,0-.15,1.93l2.12-1c.53-.25,1.06-.51,1.45-.72S184.23,8.35,184.23,8.35Z"/><polygon class="cls-4" points="181.94 7.35 180.72 7.94 179.24 4.59 180.43 4.02 181.94 7.35"/><path class="cls-5" d="M182.41,10.29c-.61-.87-1.46.09-1.61.76a1.92,1.92,0,0,0,.1,1.24.68.68,0,0,0,1.08.44A1.79,1.79,0,0,0,182.41,10.29Z"/><path class="cls-5" d="M182.84,13.66c-.26-.35-.62,0-.68.32a.69.69,0,0,0,0,.51.28.28,0,0,0,.45.18A.76.76,0,0,0,182.84,13.66Z"/><path class="cls-6" d="M184.23,7.7l-.73.37c-.43.25-1,.54-1.62.81L179.52,10,178.26,7.1,180.58,6c.59-.28,1.17-.56,1.59-.8l.72-.37Z"/><path class="cls-7" d="M184.23,7.7l-1.17.6c-.58.31-1.18.58-1.18.58L180.59,6l1.15-.57,1.15-.6Z"/><path class="cls-18" d="M183.08,2.3a136.81,136.81,0,0,1-16.14,7.3,84.35,84.35,0,0,1-19,4.85l-2.39.23c-.8.06-1.6.18-2.39.16l-2.36,0c-.39,0-.79,0-1.18,0l-1.16-.08-2.32-.16-.58,0-.57-.1-1.13-.18L131.61,14l-2.4-.56A102.11,102.11,0,0,1,111,7.24,116.66,116.66,0,0,1,97.43,0l-.49.57A119.39,119.39,0,0,0,110.7,7.93a103,103,0,0,0,18.36,6.23l2.4.56,2.3.37,1.15.18.58.09.58,0,2.36.16,1.18.08c.39,0,.8,0,1.19,0l2.4,0a19.5,19.5,0,0,0,2.4-.17l2.42-.22a85,85,0,0,0,19.16-4.89,137.31,137.31,0,0,0,16.35-7.4C183.37,2.71,183.23,2.51,183.08,2.3Z"/><path class="cls-12" d="M62.77,55.88a7.9,7.9,0,0,0,.56-3.94s-.54-.3-1.07-.62l-1.07-.63a3.87,3.87,0,0,0-.83.48,10.43,10.43,0,0,0-2.06,2.1,5.55,5.55,0,0,0-.79,5.06,2.82,2.82,0,0,0,.23.46c.07.11.16.22.22.3l.12.14.17,0,.36.06a2.18,2.18,0,0,0,.49-.06A5.27,5.27,0,0,0,62.77,55.88Z"/><path class="cls-13" d="M63.29,53.79a5.67,5.67,0,0,0,0-1.85s-.54-.3-1.07-.62l-1.07-.63a5.3,5.3,0,0,0-1.47,1l.55.35,1.22.72c.44.27.89.53,1.23.71Z"/><polygon class="cls-4" points="62.88 51.38 61.87 50.78 63.58 47.61 64.53 48.18 62.88 51.38"/><path class="cls-5" d="M61,53.53c.32-1-.78-1.1-1.35-.83a2,2,0,0,0-.87.81A.73.73,0,0,0,59,54.65C59.69,55,60.73,54.34,61,53.53Z"/><path class="cls-5" d="M58.73,55.88c.14-.42-.34-.47-.58-.37a.79.79,0,0,0-.36.34.31.31,0,0,0,.1.48C58.18,56.49,58.63,56.21,58.73,55.88Z"/><path class="cls-6" d="M63.76,53.4s-.25-.15-.63-.35-.89-.49-1.38-.78-1-.6-1.36-.81l-.61-.39,1.57-2.72.57.37,1.3.77c.46.28,1,.55,1.31.75l.61.33Z"/><path class="cls-7" d="M63.76,53.4s-.51-.29-1-.56-1-.57-1-.57l1.47-2.78s.46.29,1,.55l1,.53Z"/><path class="cls-14" d="M77.38,62.3a7.89,7.89,0,0,0,0-4L75,57.41a3.89,3.89,0,0,0-.75.63,9.9,9.9,0,0,0-1.68,2.44,5.73,5.73,0,0,0,0,5.1,2.36,2.36,0,0,0,.28.42l.26.25.13.11h.53l.46-.13A5.44,5.44,0,0,0,77.38,62.3Z"/><path class="cls-15" d="M77.6,60.14a5.49,5.49,0,0,0-.23-1.85L75,57.41a5.44,5.44,0,0,0-1.3,1.27s.24.11.6.24l1.33.49Z"/><polygon class="cls-4" points="76.84 57.81 75.74 57.39 76.92 53.96 78 54.37 76.84 57.81"/><path class="cls-5" d="M75.3,60.24c.16-1-1-.94-1.47-.56a2,2,0,0,0-.71,1c-.2.43-.18.88.38,1.07C74.24,62,75.17,61.08,75.3,60.24Z"/><path class="cls-5" d="M73.44,63c.07-.44-.4-.4-.62-.24a.79.79,0,0,0-.3.38c-.08.19-.07.37.17.45S73.38,63.3,73.44,63Z"/><path class="cls-6" d="M78,59.68l-2.16-.81-1.48-.56A7.14,7.14,0,0,1,73.7,58l1.08-3,.65.26,1.44.54,2.11.79Z"/><polygon class="cls-7" points="78.01 59.68 75.85 58.87 76.88 55.88 78.98 56.67 78.01 59.68"/><path class="cls-16" d="M92.63,66.63a7.85,7.85,0,0,0-.45-4l-2.42-.6a7.41,7.41,0,0,0-2.06,3.37,5.75,5.75,0,0,0,.58,5.06,4.51,4.51,0,0,0,.33.38l.29.22.13.09.17,0,.34,0a2.49,2.49,0,0,0,.45-.2A5.49,5.49,0,0,0,92.63,66.63Z"/><path class="cls-17" d="M92.61,64.49a5.7,5.7,0,0,0-.43-1.82l-2.42-.6a5.34,5.34,0,0,0-1.15,1.43Z"/><polygon class="cls-4" points="91.59 62.25 90.45 61.97 91.23 58.41 92.35 58.7 91.59 62.25"/><path class="cls-5" d="M90.33,64.86c0-1-1-.82-1.51-.39a2,2,0,0,0-.6,1c-.14.46-.07.89.5,1C89.49,66.7,90.3,65.71,90.33,64.86Z"/><path class="cls-5" d="M88.8,67.78c0-.43-.45-.34-.63-.16a.84.84,0,0,0-.26.43c0,.18,0,.36.22.41S88.78,68.14,88.8,67.78Z"/><path class="cls-6" d="M93,64l-.7-.17-1.53-.38-2.23-.55.72-3.08,2.19.53,1.5.38.68.16Z"/><path class="cls-7" d="M93,64l-1.11-.27-1.12-.28.68-3.1,1.09.28,1.09.26Z"/><path class="cls-2" d="M108.21,69.23a7.6,7.6,0,0,0-.82-3.89l-2.48-.3a3.74,3.74,0,0,0-.6.78,10.41,10.41,0,0,0-1.12,2.76,5.76,5.76,0,0,0,1.08,5,2.89,2.89,0,0,0,.35.35l.31.17.14.07.17,0,.33-.1a2.79,2.79,0,0,0,.43-.25A5.62,5.62,0,0,0,108.21,69.23Z"/><path class="cls-3" d="M108,67.09a5.84,5.84,0,0,0-.61-1.75l-2.48-.3a5.56,5.56,0,0,0-1,1.53l.64.11,1.4.16Z"/><polygon class="cls-4" points="106.76 64.99 105.58 64.86 106.03 61.23 107.18 61.38 106.76 64.99"/><path class="cls-5" d="M105.76,67.74c-.05-1.06-1.13-.69-1.54-.22a1.92,1.92,0,0,0-.5,1.1c-.11.46,0,.9.59,1C105.09,69.67,105.81,68.59,105.76,67.74Z"/><path class="cls-5" d="M104.51,70.82c0-.44-.47-.29-.64-.1a.78.78,0,0,0-.21.45.29.29,0,0,0,.25.41C104.23,71.61,104.53,71.17,104.51,70.82Z"/><path class="cls-6" d="M108.3,66.54,106,66.27l-1.57-.19-.71-.12.42-3.15.69.11c.42.07,1,.13,1.54.2l2.24.26Z"/><polygon class="cls-7" points="108.3 66.54 106.02 66.27 106.39 63.12 108.63 63.38 108.3 66.54"/><path class="cls-8" d="M123.92,70.41a7.54,7.54,0,0,0-1.11-3.82l-2.49-.1a7.59,7.59,0,0,0-1.44,3.71,5.71,5.71,0,0,0,1.44,4.86,4.73,4.73,0,0,0,.38.31,3,3,0,0,1,.31.15l.15.06.16,0,.33-.13a2.35,2.35,0,0,0,.4-.27A5.78,5.78,0,0,0,123.92,70.41Z"/><path class="cls-9" d="M123.54,68.29a5.53,5.53,0,0,0-.73-1.7l-2.49-.1a5.37,5.37,0,0,0-.88,1.64Z"/><polygon class="cls-4" points="122.17 66.31 120.98 66.25 121.15 62.61 122.31 62.65 122.17 66.31"/><path class="cls-5" d="M121.37,69.11c-.14-1-1.18-.6-1.56-.08a2,2,0,0,0-.41,1.15c-.07.47.08.88.67.9C120.84,71.09,121.47,70,121.37,69.11Z"/><path class="cls-5" d="M120.36,72.29c-.06-.44-.49-.25-.65,0a.82.82,0,0,0-.17.47c0,.19,0,.36.28.36S120.41,72.63,120.36,72.29Z"/><polygon class="cls-6" points="123.81 67.72 119.22 67.53 119.39 64.36 123.92 64.55 123.81 67.72"/><polygon class="cls-7" points="123.81 67.72 121.51 67.63 121.65 64.45 123.92 64.55 123.81 67.72"/><path class="cls-10" d="M139.67,70.32a7.55,7.55,0,0,0-1.4-3.72l-2.49.11a7.63,7.63,0,0,0-1.15,3.82,5.66,5.66,0,0,0,1.81,4.72,2.82,2.82,0,0,0,.4.27,2.28,2.28,0,0,0,.33.12l.15.06.16-.07.32-.14a4.73,4.73,0,0,0,.38-.31A5.73,5.73,0,0,0,139.67,70.32Z"/><path class="cls-11" d="M139.13,68.23a5.41,5.41,0,0,0-.86-1.63l-2.49.11A5.64,5.64,0,0,0,135,68.4Z"/><polygon class="cls-4" points="137.6 66.36 136.43 66.42 136.31 62.77 137.47 62.72 137.6 66.36"/><path class="cls-5" d="M137,69.23c-.21-1-1.21-.49-1.55.06a2.16,2.16,0,0,0-.33,1.17c0,.47.16.88.74.84C136.66,71.25,137.2,70.07,137,69.23Z"/><path class="cls-5" d="M136.27,72.48c-.09-.42-.51-.2-.65,0a.87.87,0,0,0-.14.49c0,.19.06.36.31.35S136.34,72.82,136.27,72.48Z"/><polygon class="cls-6" points="139.35 67.65 134.76 67.84 134.7 64.67 139.21 64.48 139.35 67.65"/><polygon class="cls-7" points="139.35 67.65 137.06 67.74 136.95 64.57 139.21 64.48 139.35 67.65"/><path class="cls-12" d="M155.38,68.75a7.66,7.66,0,0,0-1.74-3.57l-2.47.33a7.75,7.75,0,0,0-.81,3.9,5.6,5.6,0,0,0,2.24,4.53,1.55,1.55,0,0,0,.43.24,2.77,2.77,0,0,0,.33.09l.16,0,.15-.09a1.74,1.74,0,0,0,.31-.18,3.39,3.39,0,0,0,.36-.33A5.73,5.73,0,0,0,155.38,68.75Z"/><path class="cls-13" d="M154.65,66.73a5.58,5.58,0,0,0-1-1.55l-2.47.33a5.7,5.7,0,0,0-.6,1.75Z"/><polygon class="cls-4" points="152.96 65 151.79 65.16 151.34 61.54 152.49 61.39 152.96 65"/><path class="cls-5" d="M152.64,67.91c-.31-1-1.26-.39-1.55.19a1.94,1.94,0,0,0-.21,1.19c0,.48.22.87.79.77C152.45,70,152.88,68.73,152.64,67.91Z"/><path class="cls-5" d="M152.18,71.21c-.13-.42-.54-.16-.65.08a.79.79,0,0,0-.1.49c0,.2.1.36.34.32S152.28,71.54,152.18,71.21Z"/><polygon class="cls-6" points="154.82 66.13 150.26 66.72 149.91 63.57 154.38 62.99 154.82 66.13"/><polygon class="cls-7" points="154.82 66.13 152.54 66.43 152.14 63.27 154.38 62.99 154.82 66.13"/><path class="cls-14" d="M170.85,65.38a7.41,7.41,0,0,0-2.11-3.33l-1.2.34-.83.22c-.22.07-.37.1-.37.1a7.55,7.55,0,0,0-.41,4,5.6,5.6,0,0,0,2.71,4.26,2.11,2.11,0,0,0,.45.18l.34,0h.16l.14-.1.29-.21a2.5,2.5,0,0,0,.31-.4A5.76,5.76,0,0,0,170.85,65.38Z"/><path class="cls-15" d="M169.9,63.46a5.3,5.3,0,0,0-1.16-1.41l-1.2.34-.83.22c-.22.07-.37.1-.37.1a5.28,5.28,0,0,0-.41,1.79s1-.2,2-.5Z"/><polygon class="cls-4" points="168.04 61.97 166.9 62.29 166.09 58.74 167.2 58.43 168.04 61.97"/><path class="cls-5" d="M168.05,64.92c-.42-1-1.29-.22-1.53.36a2.13,2.13,0,0,0-.09,1.22c.06.46.31.83.89.68C168.08,67,168.38,65.68,168.05,64.92Z"/><path class="cls-5" d="M167.93,68.26c-.17-.4-.54-.1-.64.14a.75.75,0,0,0,0,.51c0,.19.13.34.36.28S168.06,68.58,167.93,68.26Z"/><path class="cls-6" d="M170,62.83l-2.21.62c-1.1.32-2.23.55-2.23.55l-.66-3.1s1.09-.22,2.16-.54l2.17-.59Z"/><polygon class="cls-7" points="169.99 62.84 167.78 63.45 167.05 60.36 169.22 59.77 169.99 62.84"/><path class="cls-16" d="M185.82,60.05a7.27,7.27,0,0,0-2.49-3s-.57.26-1.15.5S181,58,181,58a7.71,7.71,0,0,0,.07,4,5.48,5.48,0,0,0,3.21,3.88,3,3,0,0,0,.47.13h.52a1.3,1.3,0,0,1,.13-.13l.25-.26a3.37,3.37,0,0,0,.27-.42A5.76,5.76,0,0,0,185.82,60.05Z"/><path class="cls-17" d="M184.65,58.28a5.36,5.36,0,0,0-1.32-1.23s-.57.26-1.15.5S181,58,181,58a5.45,5.45,0,0,0-.2,1.85s1-.35,1.93-.75Z"/><path class="cls-4" d="M182.63,57.07l-.54.24c-.28.12-.55.21-.55.21l-1.24-3.4s.27-.1.53-.22l.52-.22Z"/><path class="cls-5" d="M183,60c-.52-.89-1.31-.09-1.47.55a2,2,0,0,0,.06,1.21c.11.45.41.79,1,.56C183.28,62,183.42,60.71,183,60Z"/><path class="cls-5" d="M183.28,63.3c-.22-.37-.56,0-.62.22a.88.88,0,0,0,0,.51c.05.19.18.32.41.23S183.45,63.6,183.28,63.3Z"/><path class="cls-6" d="M184.66,57.65l-2.11.91c-1.07.44-2.14.83-2.14.83l-1-3s1.06-.39,2.1-.8l2-.9Z"/><polygon class="cls-7" points="184.66 57.65 182.55 58.56 181.46 55.61 183.51 54.7 184.66 57.65"/><path class="cls-2" d="M200,52.57a7.08,7.08,0,0,0-2.9-2.58l-2.13,1.3a7.71,7.71,0,0,0,.61,3.91,5.3,5.3,0,0,0,3.71,3.34,2,2,0,0,0,.48,0l.35,0,.16,0,.11-.13c.07-.08.15-.19.23-.3a3.31,3.31,0,0,0,.21-.46A5.68,5.68,0,0,0,200,52.57Z"/><path class="cls-3" d="M198.56,51a5.06,5.06,0,0,0-1.49-1l-2.13,1.3a5.86,5.86,0,0,0,.05,1.84l.58-.31c.33-.19.77-.46,1.22-.74Z"/><polygon class="cls-4" points="196.38 50.09 195.37 50.72 193.67 47.53 194.65 46.94 196.38 50.09"/><path class="cls-5" d="M197.14,52.92c-.65-.82-1.29.17-1.36.8A2,2,0,0,0,196,54.9c.18.44.51.72,1,.42A1.83,1.83,0,0,0,197.14,52.92Z"/><path class="cls-5" d="M197.89,56.17c-.26-.33-.54.08-.58.33a.83.83,0,0,0,.08.5c.08.18.22.3.44.16S198.11,56.44,197.89,56.17Z"/><path class="cls-6" d="M198.49,50.37l-2,1.22c-1,.62-2,1.16-2,1.16L193.08,50s1-.53,1.94-1.13l1.91-1.17Z"/><polygon class="cls-7" points="198.49 50.37 196.51 51.59 195.02 48.82 196.93 47.65 198.49 50.37"/><path class="cls-8" d="M212.85,42.85a7,7,0,0,0-3.25-2.06l-.95.84-1,.79a7.71,7.71,0,0,0,1.2,3.78A5.17,5.17,0,0,0,213,48.87a2.69,2.69,0,0,0,.5,0l.34-.1.15-.06a1.87,1.87,0,0,0,.1-.16l.17-.33a4.19,4.19,0,0,0,.14-.49A5.69,5.69,0,0,0,212.85,42.85Z"/><path class="cls-9" d="M211.22,41.55a5.27,5.27,0,0,0-1.62-.76l-.95.84-1,.79a5.46,5.46,0,0,0,.34,1.82l1.63-1.31C210.43,42.23,211.22,41.55,211.22,41.55Z"/><path class="cls-4" d="M208.94,41l-.44.39-.47.38-2.16-2.86.46-.35.42-.39Z"/><path class="cls-5" d="M210.12,43.69c-.76-.69-1.27.34-1.24,1a1.93,1.93,0,0,0,.39,1.14.65.65,0,0,0,1.08.23A1.75,1.75,0,0,0,210.12,43.69Z"/><path class="cls-5" d="M211.34,46.76c-.32-.29-.54.15-.53.41a.8.8,0,0,0,.16.49c.1.16.25.25.44.09A.73.73,0,0,0,211.34,46.76Z"/><path class="cls-6" d="M211.05,40.94l-1.76,1.54-1.8,1.46-1.83-2.52L207.4,40l1.71-1.48Z"/><polygon class="cls-7" points="211.05 40.94 209.29 42.48 207.41 40.01 209.1 38.52 211.05 40.94"/><path class="cls-18" d="M208.11,36.6a93.19,93.19,0,0,1-22.88,15,115.86,115.86,0,0,1-33.35,9.52,156.34,156.34,0,0,1-17.77,1.39c-5.9,0-11.73-.07-17.37-.54A143.32,143.32,0,0,1,86.6,56.86,103.39,103.39,0,0,1,66.73,49c-2.25-1.2-3.92-2.23-5-2.93-.53-.35-.94-.63-1.16-.79l-.27-.2-.42.59.3.21c.22.17.64.45,1.18.81,1.1.72,2.79,1.76,5,3a104.87,104.87,0,0,0,20,7.89,144.72,144.72,0,0,0,30.27,5.16c5.66.47,11.51.59,17.44.54A157.9,157.9,0,0,0,152,61.9a117.46,117.46,0,0,0,33.54-9.58,94.32,94.32,0,0,0,23-15.17A2.74,2.74,0,0,1,208.11,36.6Z"/><path class="cls-12" d="M51.71,87.59a7.53,7.53,0,0,0,2.07-3.44S53.37,83.6,53,83s-.78-1.12-.78-1.12a6.71,6.71,0,0,0-3.73,1,5.32,5.32,0,0,0-2.72,4.38,4.86,4.86,0,0,0,0,.56c.05.14.08.28.11.39s.06.17.06.17.23.19.46.35a2.38,2.38,0,0,0,.49.19A4.9,4.9,0,0,0,51.71,87.59Z"/><path class="cls-13" d="M53,85.88a6,6,0,0,0,.77-1.73S53.37,83.6,53,83s-.78-1.12-.78-1.12a4.89,4.89,0,0,0-1.79.23s.62,1,1.27,1.89c.32.47.65.93.91,1.27S53,85.88,53,85.88Z"/><polygon class="cls-4" points="53.56 83.4 52.82 82.34 55.67 80.19 56.37 81.21 53.56 83.4"/><path class="cls-5" d="M50.94,84.49c.68-.78-.33-1.42-1-1.45a1.74,1.74,0,0,0-1.13.33.74.74,0,0,0-.25,1.18A1.61,1.61,0,0,0,50.94,84.49Z"/><path class="cls-5" d="M47.87,85.58c.3-.32-.14-.61-.4-.62a.72.72,0,0,0-.48.14.3.3,0,0,0-.09.48A.64.64,0,0,0,47.87,85.58Z"/><path class="cls-6" d="M53.61,85.74l-.47-.64-1-1.42c-.73-1.05-1.41-2.11-1.41-2.11l2.52-1.79s.65,1,1.36,2c.34.52.69,1,1,1.37s.45.62.45.62Z"/><path class="cls-7" d="M53.61,85.74l-.74-1c-.37-.51-.73-1-.73-1l2.47-1.9s.34.52.69,1l.73,1Z"/><path class="cls-14" d="M63.33,100.74A7.43,7.43,0,0,0,64.8,97s-.49-.47-1-1l-1-1a6.81,6.81,0,0,0-3.5,1.71,5.48,5.48,0,0,0-1.93,4.82,3.62,3.62,0,0,0,.12.52,2.53,2.53,0,0,0,.16.36,1.42,1.42,0,0,1,.08.17s.25.14.51.25a3.54,3.54,0,0,0,.51.1A5,5,0,0,0,63.33,100.74Z"/><path class="cls-15" d="M64.34,98.82A5.48,5.48,0,0,0,64.8,97s-.49-.47-1-1l-1-1a5.45,5.45,0,0,0-1.74.57s.19.21.5.51.69.71,1.09,1.11.78.82,1.09,1.11Z"/><polygon class="cls-4" points="64.47 96.28 63.56 95.36 66 92.71 66.88 93.61 64.47 96.28"/><path class="cls-5" d="M62.06,97.83c.56-.9-.56-1.35-1.19-1.24a1.75,1.75,0,0,0-1.06.56.73.73,0,0,0,0,1.19A1.62,1.62,0,0,0,62.06,97.83Z"/><path class="cls-5" d="M59.25,99.49c.23-.37-.25-.58-.51-.54a.81.81,0,0,0-.44.23.31.31,0,0,0,0,.5A.69.69,0,0,0,59.25,99.49Z"/><path class="cls-6" d="M64.91,98.58s-.23-.21-.57-.55-.79-.76-1.22-1.22L61.9,95.57c-.33-.33-.54-.57-.54-.57l2.16-2.27s.21.24.53.56l1.18,1.21c.43.44.87.86,1.19,1.18l.55.52Z"/><path class="cls-7" d="M64.91,98.58l-.9-.87c-.46-.44-.89-.9-.89-.9l2.11-2.31s.42.44.87.86l.87.84Z"/><path class="cls-16" d="M76.85,111.69a7.69,7.69,0,0,0,.87-4l-.36-.23-.74-.56c-.55-.39-1.09-.8-1.09-.8a7,7,0,0,0-3.2,2.3,5.49,5.49,0,0,0-1.15,5.06,2.27,2.27,0,0,0,.2.5,2.75,2.75,0,0,0,.21.33,1.39,1.39,0,0,0,.11.16s.27.09.54.15a2.79,2.79,0,0,0,.51,0A5.18,5.18,0,0,0,76.85,111.69Z"/><path class="cls-17" d="M77.55,109.64a5.82,5.82,0,0,0,.17-1.9l-.36-.23-.74-.56c-.55-.39-1.09-.8-1.09-.8a5.13,5.13,0,0,0-1.62.86s.89.67,1.8,1.33c.45.34.9.67,1.26.9Z"/><polygon class="cls-4" points="77.28 107.11 76.24 106.35 78.25 103.32 79.24 104.05 77.28 107.11"/><path class="cls-5" d="M75.14,109.05c.41-1-.75-1.24-1.37-1a1.79,1.79,0,0,0-1,.73.72.72,0,0,0,.14,1.18A1.62,1.62,0,0,0,75.14,109.05Z"/><path class="cls-5" d="M72.62,111.16c.17-.41-.33-.53-.58-.44a.72.72,0,0,0-.4.3.31.31,0,0,0,.07.49C72,111.72,72.48,111.48,72.62,111.16Z"/><path class="cls-6" d="M78.07,109.29l-.64-.44c-.4-.25-.9-.62-1.41-1l-2-1.49,1.79-2.6,1.94,1.44c.5.37,1,.72,1.37,1l.62.43Z"/><path class="cls-7" d="M78.07,109.29l-1-.7c-.52-.35-1-.73-1-.73l1.72-2.65s.49.37,1,.71l1,.69Z"/><path class="cls-2" d="M91.88,120.2a7.67,7.67,0,0,0,.24-4.06l-1.22-.57L89.71,115a7,7,0,0,0-2.8,2.81,5.6,5.6,0,0,0-.35,5.2,2.92,2.92,0,0,0,.26.47c.09.12.2.22.27.3l.12.13.19,0,.37,0a3.34,3.34,0,0,0,.52-.09A5.27,5.27,0,0,0,91.88,120.2Z"/><path class="cls-3" d="M92.25,118a5.67,5.67,0,0,0-.13-1.9l-1.22-.57L89.71,115a5.26,5.26,0,0,0-1.46,1.12l2,1C91.23,117.56,92.25,118,92.25,118Z"/><path class="cls-4" d="M91.59,115.59l-.58-.27-.57-.29L92,111.7l.54.29c.28.12.56.26.56.26Z"/><path class="cls-5" d="M89.77,117.9c.25-1.05-.93-1.12-1.5-.81a1.91,1.91,0,0,0-.83.88.73.73,0,0,0,.33,1.15C88.54,119.5,89.57,118.73,89.77,117.9Z"/><path class="cls-5" d="M87.61,120.39c.11-.43-.4-.46-.63-.34a.72.72,0,0,0-.35.36.31.31,0,0,0,.14.48A.67.67,0,0,0,87.61,120.39Z"/><path class="cls-6" d="M92.7,117.61l-2.25-1-2.2-1.14,1.36-2.87,2.14,1.11,2.18,1Z"/><polygon class="cls-7" points="92.7 117.61 90.45 116.57 91.75 113.66 93.93 114.67 92.7 117.61"/><path class="cls-8" d="M108,126a7.56,7.56,0,0,0-.37-4l-.4-.12-.88-.27-1.28-.4a7.19,7.19,0,0,0-2.33,3.25,5.6,5.6,0,0,0,.45,5.19,2.81,2.81,0,0,0,.33.41l.31.24.14.11h.18l.38,0a2.09,2.09,0,0,0,.49-.15A5.39,5.39,0,0,0,108,126Z"/><path class="cls-9" d="M108,123.84a5.49,5.49,0,0,0-.41-1.84l-.4-.12-.88-.27-1.28-.4a5.18,5.18,0,0,0-1.27,1.36l2.11.66C107,123.58,108,123.84,108,123.84Z"/><polygon class="cls-4" points="107.01 121.54 105.81 121.16 106.78 117.61 107.95 117.98 107.01 121.54"/><path class="cls-5" d="M105.58,124.08c.09-1.07-1.09-.91-1.6-.51a1.89,1.89,0,0,0-.69,1,.71.71,0,0,0,.5,1.07C104.61,125.89,105.51,125,105.58,124.08Z"/><path class="cls-5" d="M103.84,126.93c0-.45-.47-.39-.69-.22a.71.71,0,0,0-.28.41c-.07.19-.05.38.21.45S103.8,127.28,103.84,126.93Z"/><path class="cls-6" d="M108.44,123.34s-.3-.09-.75-.2-1-.29-1.63-.47l-2.36-.74.9-3.07,2.29.71c.57.18,1.14.37,1.59.47l.71.19Z"/><path class="cls-7" d="M108.44,123.34l-1.2-.31c-.6-.17-1.18-.36-1.18-.36l.83-3.1s.57.19,1.14.35l1.16.31Z"/><path class="cls-10" d="M124.78,129.14a7.37,7.37,0,0,0-.94-3.94l-1.32-.16c-.67-.06-1.33-.17-1.33-.17a7.21,7.21,0,0,0-1.83,3.55,5.69,5.69,0,0,0,1.19,5.1,2.07,2.07,0,0,0,.4.34,2.19,2.19,0,0,0,.33.18l.16.08.18,0,.36-.1a2.91,2.91,0,0,0,.46-.24A5.43,5.43,0,0,0,124.78,129.14Z"/><path class="cls-11" d="M124.52,127a5.5,5.5,0,0,0-.68-1.77l-1.32-.16c-.67-.06-1.33-.17-1.33-.17a5.31,5.31,0,0,0-1.06,1.53l.68.1c.41.09,1,.16,1.51.22Z"/><polygon class="cls-4" points="123.17 124.85 121.92 124.71 122.37 121.05 123.59 121.18 123.17 124.85"/><path class="cls-5" d="M122.12,127.62c0-.54-.34-.71-.69-.69a1.4,1.4,0,0,0-1,.44,1.84,1.84,0,0,0-.53,1.1.71.71,0,0,0,.64,1C121.41,129.59,122.18,128.47,122.12,127.62Z"/><path class="cls-5" d="M120.8,130.72c0-.44-.51-.31-.7-.12a.71.71,0,0,0-.22.46.29.29,0,0,0,.27.41C120.5,131.52,120.82,131.09,120.8,130.72Z"/><path class="cls-6" d="M124.83,126.42s-1.22-.15-2.45-.28c-.61-.06-1.22-.16-1.68-.24l-.76-.13.45-3.18.73.13c.45.08,1,.16,1.64.23l2.39.27Z"/><polygon class="cls-7" points="124.83 126.42 122.38 126.14 122.76 122.95 125.15 123.22 124.83 126.42"/><path class="cls-12" d="M141.83,129.56a7.57,7.57,0,0,0-1.53-3.74l-2.65.14a7.33,7.33,0,0,0-1.29,3.8,5.47,5.47,0,0,0,1.94,4.83,1.74,1.74,0,0,0,.44.27l.36.13.18,0,.17-.07.35-.16a3.61,3.61,0,0,0,.42-.32A5.45,5.45,0,0,0,141.83,129.56Z"/><path class="cls-13" d="M141.23,127.46a5.73,5.73,0,0,0-.93-1.64l-2.65.14a5.07,5.07,0,0,0-.82,1.68h.68c.42,0,1-.05,1.52-.08Z"/><polygon class="cls-4" points="139.59 125.59 138.33 125.66 138.24 121.97 139.44 121.9 139.59 125.59"/><path class="cls-5" d="M139,128.5c-.23-1-1.3-.47-1.68.06a1.83,1.83,0,0,0-.36,1.15c0,.48.14.9.78.89C138.56,130.55,139.15,129.34,139,128.5Z"/><path class="cls-5" d="M138.12,131.8c-.09-.43-.55-.21-.71,0a.79.79,0,0,0-.16.48c0,.2.07.37.33.37S138.19,132.14,138.12,131.8Z"/><path class="cls-6" d="M141.45,126.87,139,127c-1.22.1-2.45.06-2.45.06l0-3.21s1.19,0,2.37,0l2.36-.13Z"/><polygon class="cls-7" points="141.46 126.87 139 126.99 138.9 123.79 141.26 123.66 141.46 126.87"/><path class="cls-14" d="M158.72,126.76a7.54,7.54,0,0,0-2.18-3.39L154,124a4,4,0,0,0-.34,1,10.3,10.3,0,0,0-.25,3.06,5.24,5.24,0,0,0,2.75,4.31,2,2,0,0,0,.49.2l.37.05.18,0,.16-.1.32-.22a3.32,3.32,0,0,0,.36-.38A5.54,5.54,0,0,0,158.72,126.76Z"/><path class="cls-15" d="M157.75,124.82a5.75,5.75,0,0,0-1.21-1.45L154,124a5.92,5.92,0,0,0-.51,1.84Z"/><polygon class="cls-4" points="155.8 123.27 154.57 123.56 153.82 119.96 155 119.68 155.8 123.27"/><path class="cls-5" d="M155.7,126.24c-.41-1-1.37-.24-1.65.38a2,2,0,0,0-.14,1.24c.05.48.3.84.92.68A1.8,1.8,0,0,0,155.7,126.24Z"/><path class="cls-5" d="M155.44,129.63c-.16-.4-.58-.09-.69.16a.78.78,0,0,0-.07.51c0,.2.12.36.39.29A.75.75,0,0,0,155.44,129.63Z"/><polygon class="cls-6" points="157.86 124.19 153.07 125.33 152.49 122.17 157.11 121.08 157.86 124.19"/><polygon class="cls-7" points="157.86 124.19 155.47 124.76 154.8 121.62 157.11 121.08 157.86 124.19"/><path class="cls-16" d="M174.8,120.77a7.07,7.07,0,0,0-2.68-2.91l-.38.18c-.23.11-.53.26-.85.39l-1.23.51a7.66,7.66,0,0,0,.09,4.06,5.26,5.26,0,0,0,3.44,3.77,2.6,2.6,0,0,0,.51.11h.38l.18,0a3,3,0,0,0,.42-.39A2.81,2.81,0,0,0,175,126,5.65,5.65,0,0,0,174.8,120.77Z"/><path class="cls-17" d="M173.54,119a5.16,5.16,0,0,0-1.42-1.17l-.38.18c-.23.11-.53.26-.85.39l-1.23.51a5.54,5.54,0,0,0-.19,1.89l2.05-.85c.51-.21,1-.48,1.39-.65Z"/><path class="cls-4" d="M171.37,117.92s-.28.14-.57.25l-.59.25L168.87,115l.56-.24c.29-.11.56-.24.56-.24Z"/><path class="cls-5" d="M171.78,120.86c-.58-.9-1.41,0-1.58.64a2,2,0,0,0,.06,1.24.68.68,0,0,0,1,.51A1.8,1.8,0,0,0,171.78,120.86Z"/><path class="cls-5" d="M172.08,124.22c-.23-.37-.59,0-.67.27a.91.91,0,0,0,0,.52.28.28,0,0,0,.43.2A.73.73,0,0,0,172.08,124.22Z"/><path class="cls-6" d="M173.54,118.39l-.7.33c-.42.19-1,.49-1.54.72l-2.29,1-1.11-3,2.21-.92c.56-.22,1.09-.51,1.5-.69l.68-.32Z"/><path class="cls-7" d="M173.54,118.39l-1.11.53-.78.37-.35.15-1.19-3,.35-.14.75-.35c.54-.27,1.08-.52,1.08-.52Z"/><path class="cls-2" d="M189.74,112.12a9.42,9.42,0,0,0-2.18-2,3.28,3.28,0,0,0-.9-.44l-2.28,1.48a7.83,7.83,0,0,0,.72,4,5.1,5.1,0,0,0,4,3.13,1.77,1.77,0,0,0,.51,0l.37-.07.18,0,.11-.14.23-.31a3.14,3.14,0,0,0,.21-.49A5.6,5.6,0,0,0,189.74,112.12Z"/><path class="cls-3" d="M188.24,110.63a5.3,5.3,0,0,0-1.58-.94l-2.28,1.48a5.9,5.9,0,0,0,.11,1.91l1.87-1.22,1.3-.84C188,110.8,188.24,110.63,188.24,110.63Z"/><polygon class="cls-4" points="185.92 109.85 184.84 110.55 183.01 107.41 184.06 106.73 185.92 109.85"/><path class="cls-5" d="M186.75,112.69c-.69-.79-1.38.24-1.44.92a2,2,0,0,0,.25,1.21.66.66,0,0,0,1.09.33A1.82,1.82,0,0,0,186.75,112.69Z"/><path class="cls-5" d="M187.57,116c-.28-.34-.58.1-.61.38a.82.82,0,0,0,.11.51c.08.17.22.28.44.12A.74.74,0,0,0,187.57,116Z"/><path class="cls-6" d="M188.15,110s-.24.18-.64.44l-1.44.93-2.1,1.37L182.42,110l2-1.32,1.4-.92c.39-.24.63-.42.63-.42Z"/><path class="cls-7" d="M188.15,110s-.51.36-1,.7l-1.05.67-1.61-2.72,1-.67c.52-.32,1-.68,1-.68Z"/><path class="cls-8" d="M203.33,101.35a8.6,8.6,0,0,0-2.42-1.68,3.08,3.08,0,0,0-.95-.31l-2.05,1.79a7.61,7.61,0,0,0,1.22,3.85,5.08,5.08,0,0,0,4.32,2.56,4,4,0,0,0,.51-.06l.35-.13.16-.07.11-.16c0-.09.12-.21.18-.34a3.22,3.22,0,0,0,.15-.52A5.52,5.52,0,0,0,203.33,101.35Z"/><path class="cls-9" d="M201.65,100.06a5,5,0,0,0-1.69-.7l-2.05,1.79a5.78,5.78,0,0,0,.34,1.88l1.71-1.48,1.17-1C201.45,100.26,201.65,100.06,201.65,100.06Z"/><polygon class="cls-4" points="199.26 99.63 198.28 100.47 196.06 97.62 197.01 96.8 199.26 99.63"/><path class="cls-5" d="M200.44,102.32c-.78-.68-1.33.44-1.3,1.11a1.9,1.9,0,0,0,.41,1.17.66.66,0,0,0,1.12.17A1.82,1.82,0,0,0,200.44,102.32Z"/><path class="cls-5" d="M201.68,105.45c-.32-.28-.55.19-.54.47a.74.74,0,0,0,.16.49.28.28,0,0,0,.47.06A.75.75,0,0,0,201.68,105.45Z"/><path class="cls-6" d="M201.49,99.44l-.59.53-1.3,1.13c-.47.42-.95.83-1.31,1.14s-.6.51-.6.51l-1.9-2.51s.24-.19.59-.5.81-.71,1.27-1.11l1.28-1.11c.35-.3.57-.52.57-.52Z"/><path class="cls-7" d="M201.49,99.44s-.46.43-.94.84l-1,.82-1.95-2.47.94-.81c.46-.4.91-.82.91-.82Z"/><path class="cls-10" d="M215.53,88.85A6.65,6.65,0,0,0,212,87.31l-.91,1-.94,1A7.47,7.47,0,0,0,211.78,93a5,5,0,0,0,4.58,2,3.66,3.66,0,0,0,.5-.12c.12-.07.24-.12.34-.17l.15-.09.08-.17.14-.37a3.56,3.56,0,0,0,.08-.52A5.55,5.55,0,0,0,215.53,88.85Z"/><path class="cls-11" d="M213.71,87.79a4.92,4.92,0,0,0-1.76-.48l-.91,1-.94,1a5.48,5.48,0,0,0,.57,1.81l1.53-1.66Z"/><path class="cls-4" d="M211.29,87.67l-.44.49-.44.48-2.54-2.55.44-.47.42-.48Z"/><path class="cls-5" d="M212.77,90.2c-.86-.58-1.28.59-1.17,1.25a1.86,1.86,0,0,0,.54,1.11.66.66,0,0,0,1.13,0A1.79,1.79,0,0,0,212.77,90.2Z"/><path class="cls-5" d="M214.36,93.14c-.35-.24-.53.26-.49.53a.76.76,0,0,0,.21.46.28.28,0,0,0,.47,0A.74.74,0,0,0,214.36,93.14Z"/><path class="cls-6" d="M213.47,87.19s-.83,1-1.68,1.91L210.08,91l-2.19-2.25s.85-.91,1.69-1.83L211.23,85Z"/><polygon class="cls-7" points="213.47 87.19 211.79 89.11 209.58 86.88 211.23 85.03 213.47 87.19"/><path class="cls-19" d="M226.23,74.92a6.66,6.66,0,0,0-3.74-1.06L221.71,75c-.39.57-.8,1.12-.8,1.12A7.27,7.27,0,0,0,223,79.55a5,5,0,0,0,4.78,1.38,2.79,2.79,0,0,0,.49-.18l.31-.22.15-.11a1,1,0,0,0,.05-.17c0-.11.07-.25.12-.39s0-.35,0-.54A5.42,5.42,0,0,0,226.23,74.92Z"/><path class="cls-20" d="M224.29,74.1a4.83,4.83,0,0,0-1.8-.24L221.71,75c-.39.57-.8,1.12-.8,1.12a5.61,5.61,0,0,0,.76,1.74L223,76C223.65,75.06,224.29,74.1,224.29,74.1Z"/><polygon class="cls-4" points="221.87 74.3 221.12 75.37 218.32 73.16 219.05 72.13 221.87 74.3"/><path class="cls-5" d="M223.65,76.61c-.92-.45-1.21.76-1,1.41a1.93,1.93,0,0,0,.66,1,.66.66,0,0,0,1.13-.12A1.79,1.79,0,0,0,223.65,76.61Z"/><path class="cls-5" d="M225.56,79.34c-.38-.2-.5.32-.43.59a.75.75,0,0,0,.27.43c.14.14.31.17.47-.06A.74.74,0,0,0,225.56,79.34Z"/><path class="cls-6" d="M224,73.55s-.71,1.06-1.44,2.09l-1.49,2.08-2.41-2,1.45-2c.71-1,1.39-2,1.39-2Z"/><path class="cls-7" d="M224,73.55l-.72,1-.72,1-2.45-1.9s.34-.51.7-1l.69-1Z"/><path class="cls-18" d="M221.49,67.85c.1-.16-1.54,2.64-5,7.26A141.79,141.79,0,0,1,200.77,93a114.84,114.84,0,0,1-26.68,19.27,88.45,88.45,0,0,1-16.93,6.61,79.45,79.45,0,0,1-18.32,2.8,101.47,101.47,0,0,1-18.73-1.25,99.22,99.22,0,0,1-17.65-4.52,96.06,96.06,0,0,1-28.2-16A98.64,98.64,0,0,1,58.14,83.13c-1.91-2.55-3.21-4.55-3.94-5.77l-.76.14a72.23,72.23,0,0,0,4.15,6.09,98.55,98.55,0,0,0,16.24,16.87,96.59,96.59,0,0,0,28.4,16.1A98.76,98.76,0,0,0,120,121.11a100.93,100.93,0,0,0,18.85,1.26,80.83,80.83,0,0,0,18.48-2.82,89.14,89.14,0,0,0,17.06-6.66A115.73,115.73,0,0,0,201.25,93.5a141.81,141.81,0,0,0,15.82-17.92c1.73-2.33,3-4.2,3.84-5.47s1.22-1.93,1.18-1.87Z"/><path class="cls-12" d="M40.74,141.14a6.57,6.57,0,0,0,2.1-3.57l-1.8-3a6,6,0,0,0-4,.42c-1.88.74-2.73,3-2.73,4.62a4,4,0,0,0,.05.63c0,.17.09.34.13.47s.06.22.06.22a6.75,6.75,0,0,0,.51.49,4.37,4.37,0,0,0,.53.32A4.53,4.53,0,0,0,40.74,141.14Z"/><path class="cls-13" d="M42.1,139.44a5.58,5.58,0,0,0,.74-1.87l-1.8-3a4.63,4.63,0,0,0-1.92-.11s.7,1.27,1.46,2.51S42.1,139.44,42.1,139.44Z"/><polygon class="cls-4" points="42.58 136.63 41.72 135.19 44.7 133.26 45.54 134.65 42.58 136.63"/><path class="cls-5" d="M39.78,137.34c.71-.78-.43-1.75-1.11-1.92a1.47,1.47,0,0,0-1.2.17c-.42.2-.63.62-.21,1.34A1.69,1.69,0,0,0,39.78,137.34Z"/><path class="cls-5" d="M36.53,138c.29-.31-.18-.74-.46-.82a.6.6,0,0,0-.5.08c-.17.08-.26.25-.08.55A.69.69,0,0,0,36.53,138Z"/><path class="cls-6" d="M42.74,139.41s-.88-1.37-1.69-2.77-1.63-2.81-1.63-2.81L42,132.2s.76,1.37,1.6,2.73,1.66,2.71,1.66,2.71Z"/><path class="cls-7" d="M42.74,139.41s-.44-.69-.86-1.38-.83-1.39-.83-1.39l2.59-1.71.81,1.37.85,1.34Z"/><path class="cls-14" d="M53.68,159.26a6.72,6.72,0,0,0,1.7-3.82l-1.1-1.38c-.55-.68-1.07-1.39-1.07-1.39a5.79,5.79,0,0,0-3.88,1c-1.78,1-2.35,3.3-2.18,4.93a4.13,4.13,0,0,0,.12.63c.07.16.13.31.18.44a.83.83,0,0,0,.1.2s.27.22.55.4a4.11,4.11,0,0,0,.56.25A4.6,4.6,0,0,0,53.68,159.26Z"/><path class="cls-15" d="M54.83,157.39a5.28,5.28,0,0,0,.55-1.95l-1.1-1.38c-.55-.68-1.07-1.39-1.07-1.39a4.58,4.58,0,0,0-1.92.14s.21.3.54.73.75,1,1.21,1.58Z"/><polygon class="cls-4" points="54.99 154.54 53.97 153.23 56.68 150.91 57.7 152.2 54.99 154.54"/><path class="cls-5" d="M52.29,155.6c.61-.85-.63-1.68-1.32-1.75a1.53,1.53,0,0,0-1.17.33c-.39.26-.56.7-.06,1.36A1.67,1.67,0,0,0,52.29,155.6Z"/><path class="cls-5" d="M49.15,156.7c.25-.36-.26-.71-.55-.74a.53.53,0,0,0-.48.14c-.16.09-.23.28,0,.55A.68.68,0,0,0,49.15,156.7Z"/><path class="cls-6" d="M55.47,157.28l-2-2.53c-.5-.63-1-1.28-1.35-1.77l-.6-.82,2.4-2,.58.8c.36.49.84,1.12,1.34,1.74l2,2.5Z"/><polygon class="cls-7" points="55.47 157.28 53.47 154.75 55.84 152.72 57.81 155.22 55.47 157.28"/><path class="cls-16" d="M68.37,175.8a6.69,6.69,0,0,0,1.32-4l-2.41-2.53a6,6,0,0,0-3.8,1.39,5.11,5.11,0,0,0-1.65,5.12,4.27,4.27,0,0,0,.18.6l.22.43.11.19.59.35a3.28,3.28,0,0,0,.58.18A4.58,4.58,0,0,0,68.37,175.8Z"/><path class="cls-17" d="M69.34,173.83a5.36,5.36,0,0,0,.35-2l-2.41-2.53a4.74,4.74,0,0,0-1.92.37Z"/><polygon class="cls-4" points="69.23 170.96 68.08 169.75 70.57 167.15 71.7 168.33 69.23 170.96"/><path class="cls-5" d="M66.65,172.3c.53-.93-.79-1.6-1.5-1.59a1.57,1.57,0,0,0-1.13.47c-.37.3-.49.76.09,1.34A1.68,1.68,0,0,0,66.65,172.3Z"/><path class="cls-5" d="M63.63,173.73c.22-.39-.33-.67-.63-.66a.6.6,0,0,0-.47.19c-.15.12-.19.31,0,.55A.71.71,0,0,0,63.63,173.73Z"/><polygon class="cls-6" points="69.97 173.65 65.51 168.99 67.7 166.75 72.09 171.35 69.97 173.65"/><polygon class="cls-7" points="69.97 173.65 67.74 171.32 69.89 169.05 72.09 171.35 69.97 173.65"/><path class="cls-2" d="M84.57,190.7a6.69,6.69,0,0,0,.94-4.09l-1.34-1.12-.92-.77c-.25-.21-.41-.37-.41-.37a5.89,5.89,0,0,0-3.61,1.76,5.26,5.26,0,0,0-1.19,5.3,4.39,4.39,0,0,0,.24.58c.09.13.18.29.25.39l.13.18s.32.16.63.28a4.9,4.9,0,0,0,.6.12A4.69,4.69,0,0,0,84.57,190.7Z"/><path class="cls-3" d="M85.35,188.63a5.38,5.38,0,0,0,.16-2l-1.34-1.12-.92-.77c-.25-.21-.41-.37-.41-.37a4.5,4.5,0,0,0-1.84.56s1,1,2.16,1.88Z"/><polygon class="cls-4" points="84.96 185.8 83.69 184.75 85.92 181.89 87.17 182.94 84.96 185.8"/><path class="cls-5" d="M82.51,187.43c.44-1-1-1.51-1.63-1.44a1.48,1.48,0,0,0-1.08.57c-.34.33-.41.8.2,1.34A1.68,1.68,0,0,0,82.51,187.43Z"/><path class="cls-5" d="M79.63,189.16c.18-.4-.38-.64-.67-.61a.65.65,0,0,0-.45.24c-.14.14-.16.33.1.56A.68.68,0,0,0,79.63,189.16Z"/><path class="cls-6" d="M86,188.39l-2.46-2.06c-.62-.5-1.22-1-1.67-1.44l-.74-.68,2-2.45.74.67c.43.4,1,.91,1.64,1.42l2.43,2Z"/><polygon class="cls-7" points="85.96 188.39 83.5 186.33 85.43 183.85 87.86 185.88 85.96 188.39"/><path class="cls-8" d="M102.05,203.91a6.9,6.9,0,0,0,.56-4.2l-2.83-2a6.08,6.08,0,0,0-3.46,2.15,5.19,5.19,0,0,0-.67,5.36,6.05,6.05,0,0,0,.29.57c.1.13.21.26.28.37a2.09,2.09,0,0,1,.15.17s.32.12.65.21a3.41,3.41,0,0,0,.59.07A4.69,4.69,0,0,0,102.05,203.91Z"/><path class="cls-9" d="M102.64,201.76a5.54,5.54,0,0,0,0-2l-2.83-2a5.1,5.1,0,0,0-1.81.76Z"/><polygon class="cls-4" points="102 198.95 100.66 198.01 102.62 194.94 103.94 195.88 102 198.95"/><path class="cls-5" d="M99.72,200.81c.35-1-1.06-1.43-1.76-1.27-.37.1-.9.36-1,.69-.3.37-.34.84.34,1.3A1.69,1.69,0,0,0,99.72,200.81Z"/><path class="cls-5" d="M97,202.82c.14-.42-.44-.6-.73-.53a.64.64,0,0,0-.43.28c-.12.15-.13.35.14.54A.71.71,0,0,0,97,202.82Z"/><polygon class="cls-6" points="103.21 201.46 98 197.77 99.74 195.13 104.87 198.76 103.21 201.46"/><polygon class="cls-7" points="103.21 201.46 100.61 199.61 102.3 196.95 104.87 198.76 103.21 201.46"/><path class="cls-10" d="M120.67,215.23a8.49,8.49,0,0,0,.38-3.08,4.23,4.23,0,0,0-.22-1.11l-3-1.74a6.05,6.05,0,0,0-3.23,2.48,5.23,5.23,0,0,0-.19,5.41,3.52,3.52,0,0,0,.33.54l.32.34a.85.85,0,0,0,.17.16,6.23,6.23,0,0,0,.65.16,4,4,0,0,0,.6,0A4.75,4.75,0,0,0,120.67,215.23Z"/><path class="cls-11" d="M121.05,213.06a5.82,5.82,0,0,0-.22-2l-3-1.74a4.76,4.76,0,0,0-1.72.93l2.46,1.42,1.7,1C120.73,212.91,121.05,213.06,121.05,213.06Z"/><polygon class="cls-4" points="120.16 210.34 118.74 209.51 120.41 206.27 121.81 207.08 120.16 210.34"/><path class="cls-5" d="M118.07,212.41c.25-1.06-1.19-1.33-1.86-1.1a1.62,1.62,0,0,0-1,.78c-.27.4-.26.87.45,1.27A1.7,1.7,0,0,0,118.07,212.41Z"/><path class="cls-5" d="M115.57,214.66c.11-.43-.5-.54-.77-.45a.63.63,0,0,0-.4.32c-.1.17-.1.36.19.53A.7.7,0,0,0,115.57,214.66Z"/><path class="cls-6" d="M121.6,212.69l-.87-.45-1.89-1.11c-1.38-.79-2.75-1.6-2.75-1.6l1.48-2.81,2.71,1.58,1.87,1.09.87.45Z"/><path class="cls-7" d="M121.6,212.69l-.43-.22c-.27-.14-.61-.33-1-.54l-1.37-.8,1.44-2.83,1.36.79a8.54,8.54,0,0,0,.94.52l.44.23Z"/><path class="cls-12" d="M140.22,224.67a8.16,8.16,0,0,0,.1-3.11,4.45,4.45,0,0,0-.32-1.08L136.88,219a6.16,6.16,0,0,0-3,2.77,5.27,5.27,0,0,0,.29,5.43c.13.18.25.35.38.5l.35.31.17.14s.34.06.67.09a3.13,3.13,0,0,0,.59-.05A4.85,4.85,0,0,0,140.22,224.67Z"/><path class="cls-13" d="M140.41,222.46a6.65,6.65,0,0,0-.22-1.46,3.47,3.47,0,0,0-.19-.52L136.88,219a4.63,4.63,0,0,0-1.63,1.09l2.57,1.18,1.77.82Z"/><polygon class="cls-4" points="139.28 219.85 137.79 219.16 139.16 215.76 140.63 216.44 139.28 219.85"/><path class="cls-5" d="M137.37,222.11c.17-1.07-1.29-1.21-1.94-.91-.35.16-.81.52-.88.87-.23.42-.17.89.56,1.22A1.69,1.69,0,0,0,137.37,222.11Z"/><path class="cls-5" d="M135.1,224.61c.07-.45-.55-.5-.82-.39s-.33.22-.36.36-.07.37.24.51A.7.7,0,0,0,135.1,224.61Z"/><path class="cls-6" d="M140.93,222l-.92-.37c-.54-.23-1.26-.57-2-.9l-2.88-1.32,1.23-2.95,2.84,1.3c.71.33,1.42.67,1.95.9l.9.36Z"/><path class="cls-7" d="M140.93,222l-.46-.18c-.27-.11-.64-.25-1-.43l-1.44-.66,1.19-3,1.42.66c.34.18.71.31,1,.43l.45.17Z"/><path class="cls-14" d="M160.5,232.19A6.92,6.92,0,0,0,160,228l-3.25-1.12a6.25,6.25,0,0,0-2.75,3.06,5.23,5.23,0,0,0,.76,5.36,4.9,4.9,0,0,0,.42.46l.38.28.18.12h.68a3.21,3.21,0,0,0,.58-.1A4.8,4.8,0,0,0,160.5,232.19Z"/><path class="cls-15" d="M160.51,230a5.44,5.44,0,0,0-.56-2l-3.25-1.12a4.84,4.84,0,0,0-1.53,1.24Z"/><polygon class="cls-4" points="159.16 227.44 157.62 226.9 158.69 223.39 160.21 223.93 159.16 227.44"/><path class="cls-5" d="M157.46,229.87c.07-1.08-1.4-1.07-2-.7a1.58,1.58,0,0,0-.8,1c-.2.43-.09.9.66,1.15A1.72,1.72,0,0,0,157.46,229.87Z"/><path class="cls-5" d="M155.41,232.59c0-.45-.59-.45-.84-.3a.6.6,0,0,0-.33.39c-.09.18-.05.37.27.47A.71.71,0,0,0,155.41,232.59Z"/><polygon class="cls-6" points="160.98 229.51 155.02 227.44 155.97 224.4 161.87 226.43 160.98 229.51"/><polygon class="cls-7" points="160.98 229.51 158 228.48 158.92 225.42 161.87 226.43 160.98 229.51"/><path class="cls-16" d="M181.35,237.73a6.78,6.78,0,0,0-.9-4.12l-3.34-.78a6.46,6.46,0,0,0-2.49,3.32,5.17,5.17,0,0,0,1.2,5.25,4.3,4.3,0,0,0,.47.41l.39.23.19.11.68-.05a5.75,5.75,0,0,0,.58-.16A5,5,0,0,0,181.35,237.73Z"/><path class="cls-17" d="M181.17,235.51a5.58,5.58,0,0,0-.72-1.9l-3.34-.78a4.89,4.89,0,0,0-1.42,1.39Z"/><polygon class="cls-4" points="179.62 233.15 178.04 232.77 178.81 229.17 180.38 229.55 179.62 233.15"/><path class="cls-5" d="M178.12,235.73c0-1.07-1.49-.92-2.07-.5a1.67,1.67,0,0,0-.73,1c-.15.46,0,.91.76,1.08A1.76,1.76,0,0,0,178.12,235.73Z"/><path class="cls-5" d="M176.29,238.64c0-.45-.61-.38-.86-.21a.64.64,0,0,0-.29.42c-.08.19,0,.38.31.45A.73.73,0,0,0,176.29,238.64Z"/><polygon class="cls-6" points="181.61 235.02 175.47 233.57 176.18 230.45 182.24 231.88 181.61 235.02"/><polygon class="cls-7" points="181.61 235.02 178.54 234.29 179.21 231.16 182.24 231.88 181.61 235.02"/><path class="cls-2" d="M202.54,241.46a6.55,6.55,0,0,0-1.21-4l-3.4-.44a4.28,4.28,0,0,0-.8.76,7.87,7.87,0,0,0-1.41,2.72,5.16,5.16,0,0,0,1.6,5.16,2.62,2.62,0,0,0,.48.36l.42.19.19.09.67-.11a2.62,2.62,0,0,0,.57-.23A5.08,5.08,0,0,0,202.54,241.46Z"/><path class="cls-3" d="M202.19,239.27a5.18,5.18,0,0,0-.86-1.81l-3.4-.44a3.23,3.23,0,0,0-.4.35,5.65,5.65,0,0,0-.91,1.14l.87.15,1.91.25Z"/><polygon class="cls-4" points="200.46 237.08 198.85 236.87 199.34 233.22 200.94 233.42 200.46 237.08"/><path class="cls-5" d="M199.17,239.81c-.11-1.09-1.56-.75-2.11-.3a1.57,1.57,0,0,0-.64,1.07c-.12.46.05.92.84,1A1.82,1.82,0,0,0,199.17,239.81Z"/><path class="cls-5" d="M197.57,242.87c0-.45-.65-.3-.88-.13a.66.66,0,0,0-.26.45c-.05.18,0,.37.34.43A.76.76,0,0,0,197.57,242.87Z"/><path class="cls-6" d="M202.59,238.73l-3.12-.41c-.77-.09-1.56-.18-2.14-.28l-1-.17.45-3.18,1,.18c.57.09,1.35.17,2.12.28l3.08.39Z"/><polygon class="cls-7" points="202.59 238.73 199.47 238.32 199.9 235.15 202.98 235.54 202.59 238.73"/><path class="cls-8" d="M223.94,243.54a6.63,6.63,0,0,0-1.51-3.94l-3.41-.28a6.59,6.59,0,0,0-2,3.68,5.17,5.17,0,0,0,2,5,3.67,3.67,0,0,0,.51.33l.43.18.19.07a6.32,6.32,0,0,0,.66-.15,2.94,2.94,0,0,0,.55-.25A5,5,0,0,0,223.94,243.54Z"/><path class="cls-9" d="M223.43,241.36a5.2,5.2,0,0,0-1-1.76l-3.41-.28a5.15,5.15,0,0,0-1.19,1.61Z"/><polygon class="cls-4" points="221.56 239.26 219.93 239.13 220.17 235.45 221.77 235.58 221.56 239.26"/><path class="cls-5" d="M220.46,242.05c-.18-1.07-1.6-.68-2.12-.18a1.64,1.64,0,0,0-.56,1.14c-.08.47.11.9.9,1A1.78,1.78,0,0,0,220.46,242.05Z"/><path class="cls-5" d="M219.09,245.2c-.07-.44-.67-.28-.88-.07a.68.68,0,0,0-.24.47c0,.19.05.37.38.39A.75.75,0,0,0,219.09,245.2Z"/><polygon class="cls-6" points="223.8 240.8 217.53 240.32 217.75 237.12 223.96 237.59 223.8 240.8"/><polygon class="cls-7" points="223.8 240.8 220.66 240.56 220.85 237.35 223.96 237.59 223.8 240.8"/><path class="cls-10" d="M245.41,243.86a6.51,6.51,0,0,0-1.74-3.78l-3.44.08a3.93,3.93,0,0,0-.68.89,8.19,8.19,0,0,0-1,2.92,5.06,5.06,0,0,0,2.29,4.83,4,4,0,0,0,.53.28l.44.14.2.05a4.59,4.59,0,0,0,.65-.22,4.14,4.14,0,0,0,.53-.3A5.18,5.18,0,0,0,245.41,243.86Z"/><path class="cls-11" d="M244.77,241.74a5.05,5.05,0,0,0-1.1-1.66l-3.44.08a3.36,3.36,0,0,0-.35.41,7.1,7.1,0,0,0-.73,1.28s.35,0,.87,0l1.94,0Z"/><polygon class="cls-4" points="242.75 239.84 241.13 239.87 241.12 236.18 242.73 236.15 242.75 239.84"/><path class="cls-5" d="M241.84,242.72c-.25-1-1.64-.52-2.12,0a1.75,1.75,0,0,0-.49,1.17c0,.48.18.9,1,.87A1.83,1.83,0,0,0,241.84,242.72Z"/><path class="cls-5" d="M240.69,246c-.1-.44-.68-.21-.88,0a.72.72,0,0,0-.2.49c0,.2.07.37.4.35A.75.75,0,0,0,240.69,246Z"/><path class="cls-6" d="M245.1,241.15l-3.15.07-2.16.05c-.3,0-.54,0-.72,0h-.27v-3.21h1l2.14-.06,3.12-.07Z"/><polygon class="cls-7" points="245.09 241.15 241.95 241.22 241.93 238 245.05 237.93 245.09 241.15"/><path class="cls-19" d="M266.85,242.77a6.53,6.53,0,0,0-2-3.67l-3.43.24a6.66,6.66,0,0,0-1.47,3.93,5.07,5.07,0,0,0,2.59,4.67,3,3,0,0,0,.55.25l.43.11.22,0,.62-.25a3.37,3.37,0,0,0,.51-.33A5.13,5.13,0,0,0,266.85,242.77Z"/><path class="cls-20" d="M266.09,240.7a5.11,5.11,0,0,0-1.2-1.6l-3.43.24a5.2,5.2,0,0,0-1,1.76Z"/><polygon class="cls-4" points="263.96 238.89 262.34 239.01 262.1 235.33 263.7 235.21 263.96 238.89"/><path class="cls-5" d="M263.23,241.83c-.32-1-1.68-.45-2.13.14a1.65,1.65,0,0,0-.4,1.2c0,.48.22.88,1,.81A1.82,1.82,0,0,0,263.23,241.83Z"/><path class="cls-5" d="M262.27,245.15c-.13-.43-.7-.19-.88.06a.64.64,0,0,0-.17.49c0,.21.1.37.42.34A.75.75,0,0,0,262.27,245.15Z"/><polygon class="cls-6" points="266.38 240.09 260.11 240.54 259.91 237.34 266.14 236.89 266.38 240.09"/><polygon class="cls-7" points="266.38 240.09 263.24 240.32 263.03 237.12 266.14 236.89 266.38 240.09"/><path class="cls-18" d="M270.16,234.44l-11.43.82-2.87.21c-.51,0-1,.08-1.54.1s-1.07,0-1.62,0l-7.1.17-3.92.08-2.05.05c-.69,0-1.39,0-2.1-.05l-8.94-.23a265.55,265.55,0,0,1-42.19-5A226,226,0,0,1,140,215.83l-5.66-2.62c-.94-.45-1.9-.83-2.82-1.34l-2.77-1.43c-1.83-1-3.67-1.92-5.5-2.87l-5.35-3.11c-3.59-2-7-4.31-10.37-6.46-.86-.54-1.67-1.13-2.5-1.71l-2.45-1.73c-1.61-1.17-3.27-2.25-4.8-3.49l-4.64-3.57c-.77-.58-1.51-1.2-2.24-1.82l-2.19-1.83c-3-2.4-5.67-4.95-8.35-7.37-5.26-5-10.11-9.85-14.27-14.65-.52-.6-1-1.18-1.57-1.76l-1.48-1.77c-1-1.17-1.94-2.29-2.85-3.42-1.78-2.27-3.52-4.41-5-6.5-3.1-4.13-5.6-7.88-7.59-11s-3.41-5.63-4.34-7.32c-.47-.85-.81-1.49-1-1.9l-.29-.57-.63.34.3.58c.2.42.56,1.07,1,1.93,1,1.7,2.37,4.22,4.37,7.35s4.51,6.89,7.62,11c1.52,2.1,3.26,4.24,5.06,6.52.91,1.14,1.88,2.26,2.86,3.43L64,160.57c.51.59,1,1.18,1.56,1.77,4.18,4.81,9,9.69,14.32,14.7,2.7,2.43,5.42,5,8.38,7.38l2.19,1.84c.74.63,1.48,1.25,2.25,1.83l4.65,3.59c1.54,1.23,3.21,2.32,4.83,3.49l2.46,1.74c.82.58,1.64,1.19,2.5,1.71,3.42,2.16,6.8,4.5,10.4,6.5l5.37,3.11,5.53,2.87,2.77,1.45c.92.5,1.89.89,2.83,1.34l5.68,2.62a226.66,226.66,0,0,0,46.52,14.83,264.86,264.86,0,0,0,42.3,5c3.13.08,6.12.17,9,.23.72,0,1.42.06,2.11.06l2.05,0,3.93-.1,7.12-.16,1.62,0,1.54-.11,2.88-.21,11.45-.82Z"/><path class="cls-12" d="M19,238a6.59,6.59,0,0,0-1.81-3.74l-3.35.12a6.55,6.55,0,0,0-1.57,3.85A5.1,5.1,0,0,0,14.67,243a3,3,0,0,0,.52.28l.43.13a1.16,1.16,0,0,0,.2.05s.33-.1.63-.22a5,5,0,0,0,.51-.31A5.2,5.2,0,0,0,19,238Z"/><path class="cls-13" d="M18.35,235.9a5.19,5.19,0,0,0-1.13-1.64l-3.35.12a5.17,5.17,0,0,0-1,1.71l2.74-.08Z"/><polygon class="cls-4" points="16.32 234.03 14.74 234.09 14.63 230.4 16.2 230.35 16.32 234.03"/><path class="cls-5" d="M15.51,236.93c-.28-1-1.62-.5-2.08,0a1.73,1.73,0,0,0-.45,1.19c0,.48.21.89,1,.85A1.8,1.8,0,0,0,15.51,236.93Z"/><path class="cls-5" d="M14.47,240.22c-.12-.43-.68-.21-.87,0a.68.68,0,0,0-.19.49c0,.2.08.36.41.35A.75.75,0,0,0,14.47,240.22Z"/><path class="cls-6" d="M18.65,235.3l-3.08.13-3.08.09-.07-3.21,3.06-.09,3-.13Z"/><polygon class="cls-7" points="18.65 235.3 15.57 235.43 15.47 232.22 18.52 232.09 18.65 235.3"/><path class="cls-14" d="M40,236.49a6.4,6.4,0,0,0-2-3.64l-3.35.3a6.62,6.62,0,0,0-1.37,3.94,5.16,5.16,0,0,0,2.61,4.64,4,4,0,0,0,.53.24l.44.11.2,0a5.72,5.72,0,0,0,.61-.24,2.48,2.48,0,0,0,.49-.35A5.23,5.23,0,0,0,40,236.49Z"/><path class="cls-15" d="M39.21,234.43A4.91,4.91,0,0,0,38,232.85l-3.35.3a5.34,5.34,0,0,0-.94,1.77Z"/><polygon class="cls-4" points="37.09 232.67 35.51 232.81 35.22 229.13 36.8 228.99 37.09 232.67"/><path class="cls-5" d="M36.42,235.61c-.32-1-1.64-.42-2.07.16A1.75,1.75,0,0,0,34,237c0,.48.23.87,1,.79A1.8,1.8,0,0,0,36.42,235.61Z"/><path class="cls-5" d="M35.54,238.94c-.13-.42-.68-.16-.85.07a.73.73,0,0,0-.17.51c0,.2.1.36.43.32A.74.74,0,0,0,35.54,238.94Z"/><path class="cls-6" d="M39.49,233.82l-3.08.28-3.07.27-.24-3.21,3.06-.26,3-.29Z"/><polygon class="cls-7" points="39.49 233.82 36.41 234.1 36.16 230.9 39.2 230.61 39.49 233.82"/><path class="cls-16" d="M60.86,234a6.46,6.46,0,0,0-2.15-3.54l-3.32.46a6.63,6.63,0,0,0-1.21,4,5.08,5.08,0,0,0,2.81,4.5,3.49,3.49,0,0,0,.54.23l.44.08.2,0s.32-.13.6-.28a3.09,3.09,0,0,0,.47-.36A5.27,5.27,0,0,0,60.86,234Z"/><path class="cls-17" d="M60,231.94a5,5,0,0,0-1.27-1.52l-3.32.46a5,5,0,0,0-.86,1.81Z"/><polygon class="cls-4" points="57.8 230.27 56.21 230.49 55.76 226.83 57.34 226.62 57.8 230.27"/><path class="cls-5" d="M57.25,233.25c-.36-1-1.65-.33-2.06.26a1.74,1.74,0,0,0-.33,1.23c0,.48.28.86,1,.74A1.81,1.81,0,0,0,57.25,233.25Z"/><path class="cls-5" d="M56.52,236.63c-.15-.42-.69-.15-.85.1a.7.7,0,0,0-.14.5c0,.2.11.37.43.31A.73.73,0,0,0,56.52,236.63Z"/><polygon class="cls-6" points="60.23 231.31 54.11 232.15 53.74 228.96 59.82 228.13 60.23 231.31"/><polygon class="cls-7" points="60.23 231.31 57.18 231.74 56.78 228.55 59.82 228.13 60.23 231.31"/><path class="cls-2" d="M81.59,230.42A6.46,6.46,0,0,0,79.3,227l-3.32.63a6.67,6.67,0,0,0-1,4A5.12,5.12,0,0,0,78,236a3.61,3.61,0,0,0,.56.18l.44.06.2,0a6.33,6.33,0,0,0,.59-.31,2.33,2.33,0,0,0,.46-.39A5.21,5.21,0,0,0,81.59,230.42Z"/><path class="cls-3" d="M80.63,228.44A5,5,0,0,0,79.3,227l-3.32.63a5.15,5.15,0,0,0-.77,1.84Z"/><polygon class="cls-4" points="78.37 226.88 76.81 227.19 76.2 223.55 77.75 223.25 78.37 226.88"/><path class="cls-5" d="M78,229.88c-.41-1-1.67-.25-2,.37a1.68,1.68,0,0,0-.27,1.24c0,.48.31.85,1.07.7A1.84,1.84,0,0,0,78,229.88Z"/><path class="cls-5" d="M77.38,233.29c-.17-.4-.7-.1-.85.15a.71.71,0,0,0-.11.51c0,.2.13.35.44.29A.75.75,0,0,0,77.38,233.29Z"/><path class="cls-6" d="M80.85,227.8l-3,.58-3,.56-.52-3.17,3-.55,3-.58Z"/><polygon class="cls-7" points="80.85 227.8 77.81 228.38 77.28 225.22 80.29 224.64 80.85 227.8"/><path class="cls-8" d="M102.14,225.81a6.27,6.27,0,0,0-2.46-3.3l-3.27.79a6.66,6.66,0,0,0-.83,4.11,5,5,0,0,0,3.2,4.19,3.62,3.62,0,0,0,.57.17l.44,0,.21,0s.3-.17.58-.35a2.71,2.71,0,0,0,.43-.41A5.24,5.24,0,0,0,102.14,225.81Z"/><path class="cls-9" d="M101.09,223.88a4.83,4.83,0,0,0-1.41-1.37l-3.27.79a5.14,5.14,0,0,0-.69,1.9l2.68-.66Z"/><polygon class="cls-4" points="98.76 222.45 97.2 222.83 96.42 219.24 97.95 218.86 98.76 222.45"/><path class="cls-5" d="M98.49,225.47c-.46-1-1.69-.17-2,.48a1.71,1.71,0,0,0-.2,1.25c0,.48.35.83,1.11.63A1.84,1.84,0,0,0,98.49,225.47Z"/><path class="cls-5" d="M98.07,228.9c-.19-.39-.71-.07-.84.2a.77.77,0,0,0-.1.52c0,.19.15.34.47.25A.76.76,0,0,0,98.07,228.9Z"/><path class="cls-6" d="M101.28,223.23s-1.5.39-3,.75l-3,.72-.66-3.14,3-.72c1.49-.35,3-.73,3-.73Z"/><path class="cls-7" d="M101.28,223.23l-1.51.38-1.5.37-.68-3.14,1.48-.36,1.49-.37Z"/><path class="cls-10" d="M122.42,220a6.21,6.21,0,0,0-2.64-3.15l-1.6.49-1.61.5A6.73,6.73,0,0,0,116,222a5,5,0,0,0,3.43,4,4.35,4.35,0,0,0,.58.13h.64a5.12,5.12,0,0,0,.57-.37,3.54,3.54,0,0,0,.41-.44A5.26,5.26,0,0,0,122.42,220Z"/><path class="cls-11" d="M121.27,218.15a4.85,4.85,0,0,0-1.49-1.28l-1.6.49-1.61.5a5.16,5.16,0,0,0-.59,1.92l2.65-.8c.66-.19,1.32-.4,1.81-.56Z"/><polygon class="cls-4" points="118.87 216.88 117.33 217.34 116.35 213.8 117.87 213.34 118.87 216.88"/><path class="cls-5" d="M118.76,219.9c-.51-.94-1.69-.06-2,.59a1.8,1.8,0,0,0-.15,1.27c.08.47.4.81,1.14.56A1.82,1.82,0,0,0,118.76,219.9Z"/><path class="cls-5" d="M118.53,223.35c-.21-.38-.71,0-.84.24a.71.71,0,0,0,0,.53c0,.19.16.33.47.23A.77.77,0,0,0,118.53,223.35Z"/><path class="cls-6" d="M121.42,217.49l-.92.3-2,.64-2.95.89-.83-3.09,2.93-.89c.73-.22,1.47-.45,2-.63l.92-.29Z"/><path class="cls-7" d="M121.42,217.49l-1.48.47-1.48.47-.85-3.09,1.46-.45,1.47-.47Z"/><path class="cls-12" d="M142.34,212.89a6.31,6.31,0,0,0-2.84-3s-.77.33-1.56.62l-1.58.59a6.79,6.79,0,0,0-.35,4.19,4.93,4.93,0,0,0,3.66,3.76,4.72,4.72,0,0,0,.59.09l.45,0,.2,0s.29-.2.54-.41a2.68,2.68,0,0,0,.38-.47A5.3,5.3,0,0,0,142.34,212.89Z"/><path class="cls-13" d="M141.06,211.12a4.8,4.8,0,0,0-1.56-1.19s-.77.33-1.56.62l-1.58.59a5.39,5.39,0,0,0-.47,2l2.59-1c.65-.25,1.3-.5,1.78-.7Z"/><polygon class="cls-4" points="138.59 210.02 137.09 210.58 135.9 207.12 137.37 206.55 138.59 210.02"/><path class="cls-5" d="M138.68,213c-.57-.89-1.7.06-2,.73a1.71,1.71,0,0,0-.07,1.27c.11.47.45.78,1.18.49A1.86,1.86,0,0,0,138.68,213Z"/><path class="cls-5" d="M138.65,216.5c-.23-.37-.7,0-.82.3a.72.72,0,0,0,0,.52c0,.19.18.32.48.2A.75.75,0,0,0,138.65,216.5Z"/><path class="cls-6" d="M141.17,210.45l-.9.36c-.54.21-1.25.51-2,.78l-2.9,1.08-1-3,2.88-1.08c.72-.27,1.43-.56,2-.77l.89-.35Z"/><path class="cls-7" d="M141.17,210.45l-1.44.57c-.71.3-1.44.57-1.44.57l-1-3s.72-.27,1.43-.56l1.43-.56Z"/><path class="cls-14" d="M161.72,204.25a6.12,6.12,0,0,0-3.05-2.7s-.75.38-1.52.73l-1.52.72a6.83,6.83,0,0,0,0,4.2,4.86,4.86,0,0,0,3.93,3.45,3.08,3.08,0,0,0,.59,0l.45-.05.2,0,.17-.14.34-.32a2.81,2.81,0,0,0,.35-.49A5.32,5.32,0,0,0,161.72,204.25Z"/><path class="cls-15" d="M160.31,202.6a4.52,4.52,0,0,0-1.64-1s-.75.38-1.52.73l-1.52.72a5.38,5.38,0,0,0-.33,2l2.52-1.18c.63-.3,1.25-.6,1.72-.84Z"/><polygon class="cls-4" points="157.77 201.7 156.31 202.38 154.87 199.02 156.31 198.35 157.77 201.7"/><path class="cls-5" d="M158.08,204.7c-.64-.85-1.69.18-1.91.88a1.73,1.73,0,0,0,0,1.27c.14.47.5.75,1.21.4A1.86,1.86,0,0,0,158.08,204.7Z"/><path class="cls-5" d="M158.3,208.16c-.26-.36-.7.07-.79.36a.71.71,0,0,0,0,.52c0,.2.2.31.5.17A.77.77,0,0,0,158.3,208.16Z"/><path class="cls-6" d="M160.37,201.92l-.87.43c-.52.26-1.21.61-1.92.94l-2.8,1.32-1.24-2.94,2.77-1.31c.7-.32,1.39-.66,1.9-.92l.86-.43Z"/><path class="cls-7" d="M160.37,201.92l-1.39.69c-.69.36-1.4.68-1.4.68l-1.27-2.93s.71-.31,1.39-.67l1.37-.68Z"/><path class="cls-16" d="M180.33,193.89a6.1,6.1,0,0,0-3.27-2.4l-.45.28-1,.6c-.73.42-1.46.86-1.46.86a6.82,6.82,0,0,0,.31,4.19,4.79,4.79,0,0,0,4.21,3.06,5.6,5.6,0,0,0,.59,0l.45-.1.2-.05s.25-.25.47-.51a5.1,5.1,0,0,0,.31-.52A5.29,5.29,0,0,0,180.33,193.89Z"/><path class="cls-17" d="M178.78,192.37a4.71,4.71,0,0,0-1.72-.88l-.45.28-1,.6c-.73.42-1.46.86-1.46.86a5.1,5.1,0,0,0-.14,2l2.39-1.42c.6-.35,1.2-.7,1.63-1Z"/><polygon class="cls-4" points="176.17 191.73 174.79 192.54 173.07 189.33 174.42 188.53 176.17 191.73"/><path class="cls-5" d="M176.74,194.68c-.7-.78-1.66.35-1.82,1.06a1.74,1.74,0,0,0,.13,1.27c.18.45.57.69,1.24.28A1.87,1.87,0,0,0,176.74,194.68Z"/><path class="cls-5" d="M177.26,198.11c-.28-.34-.69.15-.76.43a.68.68,0,0,0,.06.53c.07.19.23.29.51.11A.76.76,0,0,0,177.26,198.11Z"/><path class="cls-6" d="M178.78,191.7l-.82.52c-.5.31-1.16.71-1.84,1.11l-2.67,1.58L172,192.1l2.65-1.57c.66-.38,1.31-.78,1.8-1.09l.81-.51Z"/><path class="cls-7" d="M178.78,191.7l-1.32.82c-.66.42-1.34.81-1.34.81l-1.5-2.8s.66-.38,1.31-.79l1.3-.81Z"/><path class="cls-2" d="M197.85,181.55a6,6,0,0,0-3.49-2l-.42.33-.94.7-1.35,1a6.9,6.9,0,0,0,.73,4.13,4.7,4.7,0,0,0,4.51,2.56,3.78,3.78,0,0,0,.6-.08l.42-.15.2-.08a5.51,5.51,0,0,0,.41-.55,3.63,3.63,0,0,0,.26-.56A5.26,5.26,0,0,0,197.85,181.55Z"/><path class="cls-3" d="M196.15,180.23a4.57,4.57,0,0,0-1.79-.67l-.42.33-.94.7-1.35,1a5.28,5.28,0,0,0,.06,2L194,182C195.08,181.13,196.15,180.23,196.15,180.23Z"/><polygon class="cls-4" points="193.5 179.89 192.21 180.86 190.16 177.85 191.42 176.91 193.5 179.89"/><path class="cls-5" d="M194.37,182.76c-.79-.7-1.62.54-1.71,1.27a1.78,1.78,0,0,0,.27,1.25c.22.42.62.61,1.25.13A1.89,1.89,0,0,0,194.37,182.76Z"/><path class="cls-5" d="M195.24,186.1c-.32-.29-.68.23-.72.53a.65.65,0,0,0,.11.51c.09.18.26.26.52.05A.77.77,0,0,0,195.24,186.1Z"/><path class="cls-6" d="M196.09,179.56l-.77.61c-.45.37-1.07.84-1.7,1.31l-2.51,1.88-1.74-2.63,2.45-1.85c.61-.46,1.23-.92,1.68-1.29l.75-.6Z"/><path class="cls-7" d="M196.09,179.56l-1.23,1c-.61.48-1.24.95-1.24.95l-1.8-2.6,1.23-.93,1.2-1Z"/><path class="cls-8" d="M213.83,167.05a5.9,5.9,0,0,0-3.71-1.5l-.37.38c-.24.22-.54.53-.84.82l-1.22,1.19a6.93,6.93,0,0,0,1.22,4,4.64,4.64,0,0,0,4.79,1.93,3.28,3.28,0,0,0,.58-.17l.4-.21.2-.1s.18-.3.34-.6a4.24,4.24,0,0,0,.19-.6A5.17,5.17,0,0,0,213.83,167.05Z"/><path class="cls-9" d="M212,166a4.63,4.63,0,0,0-1.87-.42l-.37.38c-.24.22-.54.53-.84.82l-1.22,1.19a5.54,5.54,0,0,0,.3,2l2-2C211,167,212,166,212,166Z"/><polygon class="cls-4" points="209.31 166 208.15 167.13 205.75 164.43 206.88 163.32 209.31 166"/><path class="cls-5" d="M210.53,168.72c-.86-.59-1.54.75-1.54,1.49a1.67,1.67,0,0,0,.41,1.2c.27.39.69.53,1.26,0A1.89,1.89,0,0,0,210.53,168.72Z"/><path class="cls-5" d="M211.79,171.92c-.35-.25-.65.32-.65.62a.74.74,0,0,0,.17.5c.11.17.29.22.53,0A.79.79,0,0,0,211.79,171.92Z"/><path class="cls-6" d="M211.82,165.31l-.68.71c-.4.44-1,1-1.52,1.53l-2.25,2.2-2.05-2.38,2.2-2.15c.56-.54,1.11-1.07,1.5-1.5s.66-.69.66-.69Z"/><path class="cls-7" d="M211.82,165.31l-1.08,1.14-1.12,1.1-2.1-2.33,1.1-1.09,1.06-1.1Z"/><path class="cls-10" d="M227.7,150.27a5.94,5.94,0,0,0-3.89-.88s-.11.18-.31.44-.45.6-.71.93c-.52.69-1,1.36-1,1.36a6.87,6.87,0,0,0,1.78,3.78,4.53,4.53,0,0,0,5,1.16,3.87,3.87,0,0,0,.55-.25c.13-.09.26-.2.37-.27l.17-.14a6.45,6.45,0,0,0,.26-.65,3.57,3.57,0,0,0,.11-.63A5.14,5.14,0,0,0,227.7,150.27Z"/><path class="cls-11" d="M225.72,149.51a4.69,4.69,0,0,0-1.91-.12s-.11.18-.31.44-.45.6-.71.93c-.52.69-1,1.36-1,1.36a5.38,5.38,0,0,0,.59,1.94s.85-1.13,1.71-2.25S225.72,149.51,225.72,149.51Z"/><polygon class="cls-4" points="223.07 149.96 222.09 151.25 219.35 148.96 220.3 147.7 223.07 149.96"/><path class="cls-5" d="M224.66,152.47c-.93-.46-1.41,1-1.3,1.7a1.75,1.75,0,0,0,.56,1.12c.33.35.78.42,1.25-.23A1.83,1.83,0,0,0,224.66,152.47Z"/><path class="cls-5" d="M226.37,155.43c-.39-.19-.59.41-.55.72a.66.66,0,0,0,.23.46c.13.14.32.18.52-.1A.77.77,0,0,0,226.37,155.43Z"/><path class="cls-6" d="M225.47,148.88l-.57.82c-.33.49-.82,1.11-1.29,1.75L221.7,154l-2.36-2,1.87-2.46c.46-.62.93-1.23,1.26-1.71L223,147Z"/><path class="cls-7" d="M225.47,148.88l-.91,1.3c-.48.63-.95,1.27-.95,1.27l-2.4-2,.93-1.24L223,147Z"/><path class="cls-19" d="M238.87,131.39a7.65,7.65,0,0,0-2.93-.41,3.81,3.81,0,0,0-1,.21l-1.62,3.05a6.69,6.69,0,0,0,2.34,3.42,4.5,4.5,0,0,0,5.12.29,3.65,3.65,0,0,0,.5-.34l.32-.34.15-.16s.1-.35.16-.7c0-.19,0-.4,0-.62A5,5,0,0,0,238.87,131.39Z"/><path class="cls-20" d="M236.8,131a4.59,4.59,0,0,0-1.89.2l-1.62,3.05a5.64,5.64,0,0,0,.88,1.81s.67-1.26,1.33-2.53c.34-.62.67-1.26.92-1.73S236.8,131,236.8,131Z"/><polygon class="cls-4" points="234.25 131.87 233.49 133.32 230.43 131.52 231.17 130.12 234.25 131.87"/><path class="cls-5" d="M236.22,134.07c-1-.28-1.24,1.21-1,1.91a1.68,1.68,0,0,0,.74,1c.37.29.82.29,1.19-.45A1.84,1.84,0,0,0,236.22,134.07Z"/><path class="cls-5" d="M238.36,136.71c-.41-.13-.52.51-.43.8a.66.66,0,0,0,.29.42c.16.12.34.12.49-.19A.76.76,0,0,0,238.36,136.71Z"/><path class="cls-6" d="M236.45,130.41l-.42.9c-.26.54-.65,1.23-1,1.94l-1.48,2.81-2.64-1.61,1.44-2.74c.36-.69.74-1.37,1-1.89s.42-.88.42-.88Z"/><path class="cls-7" d="M236.45,130.41s-.32.73-.69,1.43-.75,1.41-.75,1.41l-2.68-1.54.73-1.37c.36-.69.68-1.4.68-1.4Z"/><path class="cls-18" d="M233.69,124.22l-1.27,2.67c-.79,1.76-2.1,4.25-3.81,7.4s-4,6.86-6.9,10.91a128.42,128.42,0,0,1-10.42,13,149.76,149.76,0,0,1-14.22,13.7,174.21,174.21,0,0,1-17.69,13.12,232.11,232.11,0,0,1-42.84,21.48c-7.64,2.93-15.4,5.54-23.13,7.83S98,218.62,90.49,220.3a419.09,419.09,0,0,1-41.42,7.08c-12.21,1.47-22.44,2.17-29.58,2.51-2.26.12-4.21.18-5.82.23a4,4,0,0,1-.71.76c1.74,0,3.94-.12,6.57-.24,7.15-.34,17.39-1,29.62-2.52A417.37,417.37,0,0,0,90.63,221c7.5-1.69,15.22-3.66,23-5.94s15.53-4.91,23.19-7.85a233.1,233.1,0,0,0,43-21.54,177.32,177.32,0,0,0,17.77-13.18,152.14,152.14,0,0,0,14.27-13.76,129.54,129.54,0,0,0,10.49-13.12c2.91-4.07,5.13-7.85,6.94-11s3-5.68,3.84-7.45l1.28-2.69Z"/><path class="cls-12" d="M7.32,274.62a6.76,6.76,0,0,0-.56-4.21l-1.69-.59-1.16-.41c-.32-.11-.52-.2-.52-.2a6.18,6.18,0,0,0-2.9,3,5.11,5.11,0,0,0,.75,5.42,3.34,3.34,0,0,0,.44.47l.4.29a1.13,1.13,0,0,0,.18.12,6.71,6.71,0,0,0,.72,0,5,5,0,0,0,.61-.09A4.77,4.77,0,0,0,7.32,274.62Z"/><path class="cls-13" d="M7.33,272.39a5.41,5.41,0,0,0-.57-2l-1.69-.59-1.16-.41c-.32-.11-.52-.2-.52-.2a5.15,5.15,0,0,0-1.6,1.18s1.37.55,2.76,1Z"/><polygon class="cls-4" points="5.95 269.84 4.34 269.27 5.49 265.79 7.05 266.35 5.95 269.84"/><path class="cls-5" d="M4.16,272.24c.07-1.07-1.46-1.1-2.09-.78-.37.19-.82.57-.86.93-.21.43-.11.9.68,1.19A1.75,1.75,0,0,0,4.16,272.24Z"/><path class="cls-5" d="M2,274.91c0-.44-.61-.48-.88-.34a.67.67,0,0,0-.36.38c-.08.17,0,.37.29.49A.72.72,0,0,0,2,274.91Z"/><path class="cls-6" d="M7.83,272l-3.1-1.09c-.78-.28-1.56-.55-2.13-.78l-1-.36,1.05-3,.94.36c.55.22,1.32.49,2.08.75l3.05,1.08Z"/><polygon class="cls-7" points="7.83 271.95 4.73 270.86 5.71 267.81 8.76 268.89 7.83 271.95"/><path class="cls-14" d="M29,280.69a7.79,7.79,0,0,0-.42-3.1,4,4,0,0,0-.51-1l-3.48-.89A6.35,6.35,0,0,0,22,279a5.12,5.12,0,0,0,1.25,5.3,3,3,0,0,0,.47.42l.41.25.19.11s.37,0,.71,0a3.68,3.68,0,0,0,.6-.14A4.88,4.88,0,0,0,29,280.69Z"/><path class="cls-15" d="M28.83,278.48a5.55,5.55,0,0,0-.75-1.91l-3.48-.89A5.07,5.07,0,0,0,23.12,277l2.86.73,1.95.49C28.47,278.41,28.83,278.48,28.83,278.48Z"/><polygon class="cls-4" points="27.21 276.07 25.57 275.66 26.39 272.07 28.01 272.48 27.21 276.07"/><path class="cls-5" d="M25.66,278.63c0-1.09-1.55-1-2.16-.56a1.61,1.61,0,0,0-.75,1c-.16.45,0,.92.79,1.11A1.76,1.76,0,0,0,25.66,278.63Z"/><path class="cls-5" d="M23.76,281.49c0-.45-.64-.4-.91-.24a.68.68,0,0,0-.3.42c-.07.19,0,.38.32.47A.76.76,0,0,0,23.76,281.49Z"/><path class="cls-6" d="M29.29,278l-1-.21-2.19-.57-3.2-.8.74-3.12,3.16.8,2.16.55,1,.22Z"/><path class="cls-7" d="M29.29,278s-.8-.16-1.6-.37l-1.59-.41.7-3.12,1.57.4c.79.21,1.58.37,1.58.37Z"/><path class="cls-16" d="M51.07,285a6.45,6.45,0,0,0-1.2-4l-1.78-.27-1.76-.32A6.16,6.16,0,0,0,44,283.75,5.15,5.15,0,0,0,45.59,289a4.31,4.31,0,0,0,.49.4l.43.21.2.1.23,0,.47-.07a3,3,0,0,0,.59-.21A5,5,0,0,0,51.07,285Z"/><path class="cls-17" d="M50.74,282.75a5.19,5.19,0,0,0-.87-1.84l-1.78-.27-1.76-.32a4.81,4.81,0,0,0-1.39,1.44l2.89.54Z"/><path class="cls-4" d="M49,280.5l-.84-.13-.83-.15.56-3.64.83.15.83.13Z"/><path class="cls-5" d="M47.58,283.19c-.1-1.08-1.61-.86-2.19-.42a1.57,1.57,0,0,0-.67,1.07c-.14.46,0,.9.86,1.05A1.77,1.77,0,0,0,47.58,283.19Z"/><path class="cls-5" d="M45.88,286.17c0-.44-.67-.35-.9-.17a.62.62,0,0,0-.28.44c-.06.19,0,.38.35.43A.73.73,0,0,0,45.88,286.17Z"/><path class="cls-6" d="M51.17,282.22s-1.63-.24-3.25-.5l-3.24-.6.51-3.16,3.21.6,3.22.48Z"/><polygon class="cls-7" points="51.17 282.22 47.92 281.72 48.4 278.56 51.62 279.04 51.17 282.22"/><path class="cls-2" d="M73.33,287.71a8.17,8.17,0,0,0-.82-3,4,4,0,0,0-.63-.94l-3.56-.4A6.24,6.24,0,0,0,66.18,287a5.13,5.13,0,0,0,1.92,5.09,4,4,0,0,0,.52.35l.43.19.21.08s.35-.05.69-.12a2.72,2.72,0,0,0,.57-.23A5,5,0,0,0,73.33,287.71Z"/><path class="cls-3" d="M72.87,285.55a5.16,5.16,0,0,0-1-1.78l-3.56-.4A4.69,4.69,0,0,0,67,284.91l2.91.34,2,.22Z"/><polygon class="cls-4" points="70.97 283.4 69.27 283.21 69.62 279.54 71.29 279.72 70.97 283.4"/><path class="cls-5" d="M69.74,286.15c-.16-1.08-1.65-.75-2.21-.27a1.67,1.67,0,0,0-.61,1.11c-.1.48.1.91.92,1A1.78,1.78,0,0,0,69.74,286.15Z"/><path class="cls-5" d="M68.22,289.25c0-.45-.68-.31-.9-.12a.61.61,0,0,0-.26.46c0,.2,0,.37.37.41A.73.73,0,0,0,68.22,289.25Z"/><path class="cls-6" d="M73.27,285l-1-.08c-.61-.05-1.43-.16-2.25-.24l-3.26-.38L67,281.1l3.24.36c.82.09,1.62.2,2.23.25l1,.08Z"/><path class="cls-7" d="M73.27,285s-.82-.05-1.64-.13-1.64-.19-1.64-.19l.29-3.21s.82.09,1.63.2,1.62.13,1.62.13Z"/><path class="cls-8" d="M95.7,289.05A6.47,6.47,0,0,0,94,285.17L90.46,285a6.38,6.38,0,0,0-1.93,3.73,5,5,0,0,0,2.19,4.94,3.74,3.74,0,0,0,.53.32l.45.15.2.07.69-.17a4.07,4.07,0,0,0,.56-.27A5,5,0,0,0,95.7,289.05Z"/><path class="cls-9" d="M95.12,286.9A5,5,0,0,0,94,285.17L90.46,285a5.09,5.09,0,0,0-1.21,1.64Z"/><polygon class="cls-4" points="93.1 284.86 91.41 284.79 91.55 281.11 93.24 281.18 93.1 284.86"/><path class="cls-5" d="M92,287.7c-.23-1.07-1.7-.63-2.22-.1a1.53,1.53,0,0,0-.55,1.14c-.08.48.14.9,1,.93A1.83,1.83,0,0,0,92,287.7Z"/><path class="cls-5" d="M90.69,290.89c-.09-.43-.7-.25-.92,0a.7.7,0,0,0-.23.48c0,.2.06.37.41.38A.76.76,0,0,0,90.69,290.89Z"/><polygon class="cls-6" points="95.49 286.33 88.92 286.07 89.07 282.86 95.59 283.12 95.49 286.33"/><polygon class="cls-7" points="95.49 286.33 92.2 286.2 92.33 282.99 95.59 283.12 95.49 286.33"/><path class="cls-10" d="M118.09,289.15a6.18,6.18,0,0,0-1.84-3.75l-.56,0h-3a6.32,6.32,0,0,0-1.75,3.81,5.14,5.14,0,0,0,2.44,4.85,3.74,3.74,0,0,0,.56.29l.45.14.22.06s.34-.09.66-.2a3.65,3.65,0,0,0,.55-.29A5.15,5.15,0,0,0,118.09,289.15Z"/><path class="cls-11" d="M117.42,287a4.87,4.87,0,0,0-1.17-1.64l-.56,0h-3a5,5,0,0,0-1.12,1.68h2.93c.74,0,1.47,0,2,0Z"/><polygon class="cls-4" points="115.3 285.15 113.6 285.15 113.55 281.46 115.24 281.46 115.3 285.15"/><path class="cls-5" d="M114.37,288c-.26-1.06-1.72-.56-2.22,0a1.65,1.65,0,0,0-.49,1.17c0,.48.19.89,1,.88A1.79,1.79,0,0,0,114.37,288Z"/><path class="cls-5" d="M113.2,291.28c-.11-.44-.72-.23-.92,0a.65.65,0,0,0-.21.48c0,.2.08.36.43.36A.74.74,0,0,0,113.2,291.28Z"/><path class="cls-6" d="M117.75,286.45l-1,0c-.61,0-1.44,0-2.27,0h-3.28l0-3.21,3.26,0c.82,0,1.63,0,2.25,0l1,0Z"/><path class="cls-7" d="M117.75,286.45l-1.63.05c-.83,0-1.66,0-1.66,0l0-3.2s.82,0,1.63,0l1.64-.06Z"/><path class="cls-12" d="M140.47,288a6.29,6.29,0,0,0-2-3.66l-3.57.28a6.59,6.59,0,0,0-1.56,3.95,4.94,4.94,0,0,0,2.67,4.64,4.06,4.06,0,0,0,.57.26l.45.09.21,0a7,7,0,0,0,.67-.24,2.64,2.64,0,0,0,.52-.35A5.11,5.11,0,0,0,140.47,288Z"/><path class="cls-13" d="M139.69,285.89a4.78,4.78,0,0,0-1.25-1.59l-3.57.28a5.2,5.2,0,0,0-1,1.77Z"/><polygon class="cls-4" points="137.48 284.1 135.78 284.24 135.56 280.56 137.25 280.42 137.48 284.1"/><path class="cls-5" d="M136.69,287.05c-.32-1-1.74-.43-2.21.16a1.69,1.69,0,0,0-.43,1.21c0,.48.23.87,1.06.8A1.86,1.86,0,0,0,136.69,287.05Z"/><path class="cls-5" d="M135.68,290.39c-.13-.43-.73-.18-.93.06a.71.71,0,0,0-.17.5c0,.2.1.36.44.33A.77.77,0,0,0,135.68,290.39Z"/><polygon class="cls-6" points="140 285.28 133.43 285.8 133.26 282.59 139.78 282.07 140 285.28"/><polygon class="cls-7" points="140 285.28 136.72 285.54 136.51 282.33 139.78 282.07 140 285.28"/><path class="cls-14" d="M162.75,285.81a6.37,6.37,0,0,0-2.13-3.61l-3.58.4a6.47,6.47,0,0,0-1.42,4,5,5,0,0,0,2.83,4.55,5.51,5.51,0,0,0,.57.25l.45.08.22,0,.21-.08a4.54,4.54,0,0,1,.43-.19,3.18,3.18,0,0,0,.51-.36A5.15,5.15,0,0,0,162.75,285.81Z"/><path class="cls-15" d="M161.91,283.75a5.07,5.07,0,0,0-1.29-1.55l-3.58.4a5.17,5.17,0,0,0-1,1.81Z"/><polygon class="cls-4" points="159.64 282.04 157.94 282.23 157.59 278.56 159.29 278.38 159.64 282.04"/><path class="cls-5" d="M159,285c-.36-1-1.77-.35-2.22.24a1.73,1.73,0,0,0-.39,1.22c0,.48.27.87,1.09.76A1.86,1.86,0,0,0,159,285Z"/><path class="cls-5" d="M158.05,288.38c-.15-.42-.72-.16-.91.09a.67.67,0,0,0-.16.5c0,.2.11.36.45.31A.75.75,0,0,0,158.05,288.38Z"/><polygon class="cls-6" points="162.2 283.14 155.65 283.86 155.34 280.66 161.89 279.94 162.2 283.14"/><polygon class="cls-7" points="162.2 283.14 158.92 283.5 158.62 280.3 161.89 279.94 162.2 283.14"/><path class="cls-16" d="M185,283.32a6.21,6.21,0,0,0-2.18-3.56l-3.58.4a6.3,6.3,0,0,0-1.36,4,5.06,5.06,0,0,0,2.89,4.55,2.72,2.72,0,0,0,.57.23l.46.09.21,0s.34-.13.65-.27a4.67,4.67,0,0,0,.51-.35A5.18,5.18,0,0,0,185,283.32Z"/><path class="cls-17" d="M184.11,281.28a5,5,0,0,0-1.31-1.52l-3.58.4a4.92,4.92,0,0,0-1,1.8l2.93-.32,2-.24Z"/><rect class="cls-4" x="179.92" y="276.02" width="1.71" height="3.69" transform="translate(-29.3 21.43) rotate(-6.28)"/><path class="cls-5" d="M181.17,282.56c-.37-1-1.77-.36-2.21.23a1.66,1.66,0,0,0-.37,1.22c0,.48.28.86,1.09.76A1.82,1.82,0,0,0,181.17,282.56Z"/><path class="cls-5" d="M180.32,285.93c-.16-.43-.74-.16-.92.08a.66.66,0,0,0-.15.5c0,.21.11.37.45.32A.76.76,0,0,0,180.32,285.93Z"/><path class="cls-6" d="M184.39,280.65s-1.63.24-3.27.4l-3.28.37-.34-3.19,3.27-.37c1.64-.17,3.27-.39,3.27-.39Z"/><path class="cls-7" d="M184.39,280.65s-.81.12-1.63.22l-1.64.18-.35-3.19,1.64-.17c.81-.12,1.63-.22,1.63-.22Z"/><path class="cls-2" d="M207.17,280.34a6.34,6.34,0,0,0-2.26-3.54l-3.57.47a6.4,6.4,0,0,0-1.29,4,5,5,0,0,0,3,4.48,4.23,4.23,0,0,0,.58.22l.45.08.23,0s.32-.13.63-.29a6.13,6.13,0,0,0,.51-.36A5.16,5.16,0,0,0,207.17,280.34Z"/><path class="cls-3" d="M206.25,278.32a4.81,4.81,0,0,0-1.34-1.52l-3.57.47a5.39,5.39,0,0,0-.93,1.83Z"/><polygon class="cls-4" points="203.93 276.66 202.23 276.89 201.78 273.23 203.47 273 203.93 276.66"/><path class="cls-5" d="M203.33,279.64c-.38-1-1.77-.33-2.2.28a1.62,1.62,0,0,0-.35,1.23c0,.48.28.86,1.11.73A1.83,1.83,0,0,0,203.33,279.64Z"/><path class="cls-5" d="M202.54,283c-.17-.42-.74-.14-.91.12a.67.67,0,0,0-.15.5c0,.21.12.36.46.3A.76.76,0,0,0,202.54,283Z"/><polygon class="cls-6" points="206.53 277.69 199.99 278.57 199.6 275.38 206.11 274.51 206.53 277.69"/><polygon class="cls-7" points="206.53 277.69 203.26 278.13 202.85 274.95 206.11 274.51 206.53 277.69"/><path class="cls-8" d="M229.29,276.89A6.37,6.37,0,0,0,227,273.4l-3.56.57a6.47,6.47,0,0,0-1.2,4.06,5,5,0,0,0,3.06,4.4,4.62,4.62,0,0,0,.58.21l.47.06.22,0s.33-.14.63-.31a2.74,2.74,0,0,0,.49-.37A5.13,5.13,0,0,0,229.29,276.89Z"/><path class="cls-9" d="M228.34,274.89A5.27,5.27,0,0,0,227,273.4l-3.56.57a5.21,5.21,0,0,0-.88,1.86Z"/><polygon class="cls-4" points="225.98 273.29 224.29 273.56 223.75 269.92 225.43 269.65 225.98 273.29"/><path class="cls-5" d="M225.45,276.28c-.42-1-1.79-.28-2.21.34a1.72,1.72,0,0,0-.32,1.24c0,.47.31.85,1.13.7A1.85,1.85,0,0,0,225.45,276.28Z"/><path class="cls-5" d="M224.72,279.68c-.17-.41-.74-.11-.91.14a.74.74,0,0,0-.14.52c0,.19.14.34.47.28A.75.75,0,0,0,224.72,279.68Z"/><polygon class="cls-6" points="228.59 274.26 222.08 275.3 221.62 272.13 228.1 271.08 228.59 274.26"/><polygon class="cls-7" points="228.59 274.26 225.33 274.78 224.86 271.6 228.1 271.08 228.59 274.26"/><path class="cls-10" d="M251.32,272.77a7.41,7.41,0,0,0-1.58-2.65,3.62,3.62,0,0,0-.86-.71l-3.53.66a6.46,6.46,0,0,0-1.08,4.08,5,5,0,0,0,3.21,4.31,3.91,3.91,0,0,0,.58.19l.47.06h.22s.33-.15.63-.31a5.35,5.35,0,0,0,.48-.4A5.14,5.14,0,0,0,251.32,272.77Z"/><path class="cls-11" d="M250.3,270.82a4.57,4.57,0,0,0-1.42-1.41l-3.53.66a4.94,4.94,0,0,0-.82,1.87l2.88-.54c.73-.15,1.46-.29,2-.38Z"/><polygon class="cls-4" points="247.91 269.32 246.22 269.63 245.57 266.01 247.24 265.7 247.91 269.32"/><path class="cls-5" d="M247.47,272.32c-.45-1-1.8-.23-2.2.4A1.66,1.66,0,0,0,245,274c0,.48.33.84,1.14.68A1.84,1.84,0,0,0,247.47,272.32Z"/><path class="cls-5" d="M246.84,275.73c-.17-.41-.73-.09-.9.17a.71.71,0,0,0-.12.51c0,.2.13.35.48.28A.76.76,0,0,0,246.84,275.73Z"/><path class="cls-6" d="M250.54,270.16s-.41.1-1,.22-1.41.28-2.22.44l-3.24.61-.56-3.16,3.22-.61c.81-.15,1.62-.29,2.21-.43l1-.22Z"/><path class="cls-7" d="M250.54,270.16s-.8.19-1.61.35l-1.62.31-.58-3.16,1.61-.3c.81-.16,1.6-.35,1.6-.35Z"/><path class="cls-19" d="M273.18,267.44a6.29,6.29,0,0,0-2.67-3.17l-.54.16-1.18.32-1.74.43a6.57,6.57,0,0,0-.85,4.15,4.88,4.88,0,0,0,3.46,4.09,2.86,2.86,0,0,0,.61.15l.47,0H271s.32-.18.62-.37a5.71,5.71,0,0,0,.47-.42A5.14,5.14,0,0,0,273.18,267.44Z"/><path class="cls-20" d="M272,265.58a4.87,4.87,0,0,0-1.5-1.31l-.54.16-1.18.32-1.74.43a5.36,5.36,0,0,0-.71,1.93l2.84-.74c.72-.18,1.44-.36,2-.53Z"/><polygon class="cls-4" points="269.54 264.27 267.89 264.69 267.02 261.12 268.64 260.7 269.54 264.27"/><path class="cls-5" d="M269.3,267.29c-.51-1-1.8-.11-2.17.54a1.69,1.69,0,0,0-.22,1.27c.06.48.39.81,1.19.6A1.87,1.87,0,0,0,269.3,267.29Z"/><path class="cls-5" d="M268.87,270.74c-.2-.39-.75,0-.9.23a.71.71,0,0,0-.09.52c0,.2.16.34.49.24A.76.76,0,0,0,268.87,270.74Z"/><path class="cls-6" d="M272.2,264.92l-1,.29c-.59.18-1.38.4-2.17.6l-3.19.82-.74-3.12,3.15-.81,1.16-.3,1-.29.95-.29Z"/><path class="cls-7" d="M272.2,264.92l-1.57.46c-.39.12-.79.22-1.09.3l-.5.13-.77-3.11.5-.13c.3-.07.69-.17,1.07-.3l1.53-.45Z"/><path class="cls-18" d="M269.3,260.19l-.83.24-4.91,1.26-2.89.75-3.24.72-7.29,1.61-2,.44-2.07.39-4.31.81-9.29,1.76c-6.5,1.1-13.58,2.19-21.05,3.4-1.86.33-3.77.56-5.69.82l-5.85.78c-3.95.53-8,1.06-12.07,1.62-2.06.27-4.12.57-6.2.81l-6.32.7-12.83,1.41-13.05,1.44-13.05,1a414.6,414.6,0,0,1-51.24.35A336.81,336.81,0,0,1,40.89,275a253.94,253.94,0,0,1-30.44-7.79c-2.9-.95-5.23-1.81-7-2.48l-.94.43c1.84.72,4.43,1.67,7.72,2.76a256.58,256.58,0,0,0,30.53,7.81,338.3,338.3,0,0,0,44.35,5.56,412,412,0,0,0,51.32-.34l13.07-1,13.06-1.44L175.4,277l6.32-.7c2.08-.25,4.14-.55,6.2-.82L200,273.91l5.86-.78c1.93-.27,3.84-.5,5.7-.82,7.47-1.21,14.56-2.3,21.07-3.41,3.24-.61,6.34-1.19,9.29-1.76l4.32-.81,2.07-.4,2-.43,7.3-1.62,3.24-.72,2.9-.75,4.91-1.26c.46-.12.89-.25,1.3-.37A3.56,3.56,0,0,1,269.3,260.19Z"/></g></g></g></svg>