<svg xmlns="http://www.w3.org/2000/svg" viewBox="0 0 313.13 133.07"><defs><style>.cls-1{isolation:isolate;}.cls-2,.cls-3{fill:#2e7ebf;}.cls-17,.cls-18,.cls-19,.cls-24,.cls-27,.cls-3,.cls-5,.cls-6,.cls-9{mix-blend-mode:multiply;}.cls-17,.cls-24,.cls-3{opacity:0.6;}.cls-4{fill:#fe0000;}.cls-20,.cls-5{fill:#ae0613;}.cls-10,.cls-6{fill:#bf0000;}.cls-7{fill:#fff;}.cls-8{fill:#b70000;}.cls-11{fill:#a50000;}.cls-12{fill:#e50000;}.cls-13{fill:#ffe73b;}.cls-14,.cls-17,.cls-19{fill:#ffc715;}.cls-15{fill:#f4b400;}.cls-16{fill:none;}.cls-18{opacity:0.4;}.cls-21{fill:#7e0613;}.cls-22{fill:#e30613;}.cls-23,.cls-24{fill:#090;}.cls-25{fill:#d00;}.cls-26,.cls-27{fill:#c60000;}.cls-27{opacity:0.5;}</style></defs><g class="cls-1"><g id="Layer_2" data-name="Layer 2"><g id="presents"><rect class="cls-2" y="47.01" width="51.59" height="45.39"/><path class="cls-3" d="M50.85,47V81.08c0,7.65-7.92,8.08-10.35,1s6.77-17.3,4.24-24.5c-2.41-6.88-5.26-8,.58-10.52H9.05c6,1.83,1.46,3.72-2.71,9.91-4.45,6.6,4.08,12,3.33,19.37S.48,91,.48,81.18V47H0V92.4H51.59V47Zm-33,22c-3-7.88-3.4-11.47-1-16.05,3.94-7.55,4.34-2.66,4.34,8S20.89,76.92,17.86,69Zm17.8-9.13c-1,5.74-5.17,13.29-5.17,9.46V50.44C30.49,44.48,36.66,54.16,35.66,59.91Z"/><path class="cls-4" d="M22.49,69.18q0-5.75,0-11.5c0-3.52.24-7.15-.29-10.67h7.29c.15,0-.45,15.25-.47,22.77s-.52,15.14.1,22.62h-7a.29.29,0,0,0,.14-.29C23.26,84.6,22.49,76.72,22.49,69.18Z"/><path class="cls-5" d="M29,69.78c0-2.87,0-5.75,0-8.62-.94,10-2,20.35-2.22,17.22-.35-5.69.59-28.08-.93-18.34s-1.66,24.61-2,14.58c-.29-8-.64-22.09-.78-27.61h-.88c.53,3.52.28,7.15.29,10.67q0,5.76,0,11.5c0,7.54.77,15.42-.22,22.93a.29.29,0,0,1-.14.29h7C28.49,84.92,29,77.28,29,69.78Z"/><path class="cls-4" d="M36.54,80.31c.22,2.86,2.07,5.27,3.87,7.41A11.36,11.36,0,0,1,34.77,83c-.11-.19-.38-.06-.45.11-.69,1.65-.06,3.4.48,5A12.45,12.45,0,0,1,31,83.94c-1.69-3.21-1-6,.1-9.3,1.53-4.47,4.34-8.33,5.52-13A14.93,14.93,0,0,0,34.63,51a8.85,8.85,0,0,0-5-4h1.67a13.27,13.27,0,0,1,9,6.72c2.47,4.7.88,11.29-.85,15.94C38.32,72.89,36.27,76.8,36.54,80.31Z"/><path class="cls-4" d="M13.09,83.3c.12-.21-.09-.5-.3-.29a11,11,0,0,1-5.68,3.22,9.52,9.52,0,0,0,4.23-5.32c1.39-3.79.33-7.66-.74-11.39C9.92,67.18,9,65,8.45,62.57c-.87-3.84.5-6.68,2.87-9.48A19.37,19.37,0,0,1,17.78,48a13.31,13.31,0,0,1,2.75-1h.38a17.13,17.13,0,0,0-5.69,6.54c-2.14,4.1-.65,8.6.57,12.75C17.66,72.73,21.12,79,17,85.5a10.08,10.08,0,0,1-4,3.11c-1.47.79-1.07.65-.43-.53A6.8,6.8,0,0,0,13.09,83.3Z"/><path class="cls-6" d="M34.31,79.05s-2.56,1.74-1.73,5.7c-2.66-2.8-2.3-7.63,1.73-14.09,8.07-15.44-1.09-22.19.74-21.71a10.71,10.71,0,0,1,3.33,2,14,14,0,0,0-7-3.93H29.68a8.85,8.85,0,0,1,5,4,14.93,14.93,0,0,1,1.94,10.68c-1.18,4.62-4,8.48-5.52,13-1.11,3.26-1.79,6.09-.1,9.3a12.45,12.45,0,0,0,3.85,4.22c-.54-1.64-1.17-3.39-.48-5,.07-.17.34-.3.45-.11a10,10,0,0,0,3.83,3.78A19.57,19.57,0,0,1,34.31,79.05Z"/><path class="cls-6" d="M15.22,53.55A17.13,17.13,0,0,1,20.91,47h-.38a13.31,13.31,0,0,0-2.75,1,19.37,19.37,0,0,0-6.46,5.11,11.86,11.86,0,0,0-3.08,6.17c.65-2.41,2.2-6.06,5.9-7.61-3.3,4.15-2.47,12,1.38,20.07s.28,12.55-1.19,14c1.37-4-.92-6.17-.92-6.17a11.35,11.35,0,0,1-5.32,6,7.24,7.24,0,0,1-1,.65A11,11,0,0,0,12.79,83c.21-.21.42.08.3.29a6.8,6.8,0,0,1-.46,4.78c-.64,1.18-1,1.32.43.53a10.08,10.08,0,0,0,4-3.11c4.08-6.5.62-12.77-1.25-19.2C14.57,62.15,13.08,57.65,15.22,53.55Z"/><path class="cls-7" d="M39.22,54.2s2.67,5.47-1.49,15.14C35.21,75.58,44.71,62.63,39.22,54.2Z"/><path class="cls-7" d="M10.6,56.23S9.12,60.76,12.08,69C13.71,74,6.15,63,10.6,56.23Z"/><path class="cls-8" d="M18.47,42.46c-4.77-4.92-8.6-4.54-12.24-3.17s-3.61-.79-3.61-.79l-.18,0a5.89,5.89,0,0,0,.32,1.25c2.65,7,13.71,6.68,22.09,7.53A21.18,21.18,0,0,1,18.47,42.46Z"/><g class="cls-9"><path class="cls-10" d="M18.47,42.46c-4.77-4.92-8.6-4.54-12.24-3.17s-3.61-.79-3.61-.79l-.18,0a5.89,5.89,0,0,0,.32,1.25c2.65,7,13.71,6.68,22.09,7.53A21.18,21.18,0,0,1,18.47,42.46Z"/></g><path class="cls-4" d="M18.35,31.22c-7.81-6.7-13.59-5.1-12.23,0,0,0-4.3,3.09-3.68,7.29l.18,0s0,2.17,3.61.79,7.47-1.75,12.24,3.17a21.18,21.18,0,0,0,6.38,4.8A19,19,0,0,0,18.35,31.22Z"/><path class="cls-11" d="M15.82,35.17a6.7,6.7,0,0,1,2.29.84,12.33,12.33,0,0,1,2,1.55A13.06,13.06,0,0,1,22,39.8a14.32,14.32,0,0,1,1.43,2.58,11.07,11.07,0,0,1,.86,2.42,21.62,21.62,0,0,1,.52,2.46,20.83,20.83,0,0,1-1.34-2.06,18.77,18.77,0,0,0-1.28-2.09c-.5-.73-.9-1.59-1.5-2.31a20.78,20.78,0,0,0-1.61-2.2,19,19,0,0,0-1.54-1.82A18.47,18.47,0,0,0,15.82,35.17Z"/><path class="cls-11" d="M6.3,28.24a5.19,5.19,0,0,0-.11,1,8.21,8.21,0,0,0,0,1,3,3,0,0,0,.26,1,2.22,2.22,0,0,0,.47,1,2.91,2.91,0,0,0,.57.77c.38.44.63.79.63.79a8.54,8.54,0,0,1-.92-.42,2.19,2.19,0,0,1-.83-.69,3,3,0,0,1-.67-1.11,3.47,3.47,0,0,1,0-2.41A3.24,3.24,0,0,1,6.3,28.24Z"/><g class="cls-9"><path class="cls-10" d="M18.35,31.22c-7.81-6.7-13.59-5.1-12.23,0,0,0-4.3,3.09-3.68,7.29l.18,0s0,2.17,3.61.79,7.47-1.75,12.24,3.17a21.18,21.18,0,0,0,6.38,4.8A19,19,0,0,0,18.35,31.22ZM4.21,34.52c1.73-2,6.88.24,6.88.24-4.09-2.89-4.52-7.52-.81-7.38,3.32.13,7,3.06,9.77,6.39a20.89,20.89,0,0,1,3.57,7.45c0,.11-3.82-5.65-8.46-6.75-2.15-.52.95,1.05,4.15,4.73s3.3,5,.77,2.48-7.14-5.24-11.15-4.62S2.49,36.54,4.21,34.52Z"/></g><g class="cls-9"><path class="cls-10" d="M9.87,40.27c3.8.25,10.63,4.7,9.89,6.56,1.74.15,3.47.27,5.09.43a21.18,21.18,0,0,1-6.38-4.8c-4.77-4.92-8.6-4.54-12.24-3.17s-3.61-.79-3.61-.79l-.18,0a5.89,5.89,0,0,0,.32,1.25,7.3,7.3,0,0,0,1.09,1.91C4.67,40.69,6.89,40.07,9.87,40.27Z"/></g><path class="cls-7" d="M21.19,36.31s-3.05-6.08-8.87-8.07S15.67,29.7,21.19,36.31Z"/><path class="cls-4" d="M28,46.84s1.88-5.18,8.2-12.5,9.21-5.7,10.42-3.48c0,0,6.52-2.6,8.36,3C57.92,43,43,49.47,28,46.84Z"/><path class="cls-11" d="M28,46.84a8.36,8.36,0,0,0,1.14-.45,20.11,20.11,0,0,0,2.77-1.52l1.76-1.16a11.19,11.19,0,0,0,1.84-1.47c1.23-1.14,2.55-2.16,3.9-3.42.69-.59,1.3-1.21,2-1.76a20,20,0,0,1,2.2-1.51,9.88,9.88,0,0,1,2.28-1,6.17,6.17,0,0,1,2.23-.41,4.65,4.65,0,0,1,1.89.37,8.8,8.8,0,0,1,1.21.85l.79,1-1-.72a7.09,7.09,0,0,0-1.22-.52,6,6,0,0,0-1.64,0,5.53,5.53,0,0,0-1.87.61,12.81,12.81,0,0,0-2,1.17c-.68.4-1.27,1-2,1.5s-1.31,1.19-2,1.78c-1.29,1.14-2.8,2.31-4.13,3.34a7.92,7.92,0,0,1-2.07,1.31l-2,1a12.79,12.79,0,0,1-3.09,1A4.71,4.71,0,0,1,28,46.84Z"/><path class="cls-11" d="M43.87,41.37a23.23,23.23,0,0,1-2.07,1.56c-.65.41-1.39.93-2.22,1.4a13.71,13.71,0,0,1-2.79,1.15c-1,.31-2,.63-2.93.86s-1.84.22-2.6.32a9.91,9.91,0,0,1-2.55,0s.24-.11.65-.27,1-.41,1.73-.66,1.53-.57,2.42-.82,1.78-.68,2.71-1A25.3,25.3,0,0,0,39,43c.87-.38,1.73-.65,2.44-.92A23.43,23.43,0,0,1,43.87,41.37Z"/><path class="cls-11" d="M43.4,33.27a5.43,5.43,0,0,1,.82-1.15,7.26,7.26,0,0,1,2.5-1.76,6.67,6.67,0,0,1,1.6-.39,4.68,4.68,0,0,1,1.41,0,12.88,12.88,0,0,1,1.32.37s-.56.07-1.33.1a6.64,6.64,0,0,0-1.29.23,6,6,0,0,0-1.42.45,10.06,10.06,0,0,0-1.37.63c-.39.28-.83.45-1.14.71A9.61,9.61,0,0,0,43.4,33.27Z"/><g class="cls-9"><path class="cls-10" d="M54.94,33.88c-1.84-5.62-8.36-3-8.36-3C45.37,28.64,42.5,27,36.16,34.34S28,46.84,28,46.84C43,49.47,57.92,43,54.94,33.88Zm-19.28,6.8C32.26,44.16,29,46,30.43,43c3.08-6.21,8.87-12.2,11.76-13.16S43.65,32.52,35.66,40.68Zm17.19-4.39C49.24,31,42.74,35.9,42.34,35.17S47.22,29,52,31C54.9,32.23,54.4,38.56,52.85,36.29Z"/></g><g class="cls-9"><path class="cls-10" d="M51.05,41.37c-4.95,3.83-13.86,4.11-9.74,2.13a18.63,18.63,0,0,0,5.58-3.62s-4.93.67-3-1.49C48.44,33.27,52.6,37,52.6,37c-3.69-6-10.82.55-14,3.66a27.89,27.89,0,0,1-6.71,4.79A36.34,36.34,0,0,1,28,46.78a.14.14,0,0,1,0,.06c13.4,2.33,26.61-2.51,27.32-10C55,38,53.6,39.4,51.05,41.37Z"/></g><path class="cls-7" d="M31.17,42.83s3.27-6.85,7.43-10S31.17,42.83,31.17,42.83Z"/><path class="cls-7" d="M44.08,33.27A11.79,11.79,0,0,1,48.73,31c2.25-.32,2.79.85,1.22.72S44.08,33.27,44.08,33.27Z"/><path class="cls-7" d="M51.59,31.73c-.12.36.43.92.73.64S51.71,31.38,51.59,31.73Z"/><path class="cls-12" d="M25.33,47.18c2.14.63,5.13.18,3.38-2.53C26.52,41.29,22.36,46.3,25.33,47.18Z"/><path class="cls-6" d="M28.71,44.65a.13.13,0,0,1-.06-.07c.65,1.55-1.27,1.8-2.69,1.38-1.17-.35-.8-1.6,0-2.25-1.54.67-2.56,2.91-.66,3.47C27.47,47.81,30.46,47.36,28.71,44.65Z"/><polygon class="cls-13" points="128.93 32.52 86.05 36.44 46.23 31.83 86.05 25.85 128.93 32.52"/><polygon class="cls-14" points="128.93 32.52 128.06 84.11 91.3 85.95 86.05 36.44 128.93 32.52"/><polygon class="cls-15" points="46.23 31.83 86.05 36.44 91.3 85.95 54.11 74.66 46.23 31.83"/><path class="cls-16" d="M128.76,42.42l.17-9.9S129.07,37,128.76,42.42Z"/><path class="cls-17" d="M87.73,36.28c1.44,8.46,5.68,29.24,12.55,27.51,6.69-1.68,5.43-20.73,4.56-29.07l10.82-1c.55,9.17,2.29,27.1,7.32,26.62,4-.39,5.35-10.09,5.78-17.93l-.7,41.69L91.3,86,86.05,36.44Z"/><g class="cls-18"><path class="cls-19" d="M56.09,59.7c4.94,0,4.84-18.86,4.61-26.19l11.48,1.32c0,10.39.89,29,6.2,28.53C84.73,62.81,84.24,42,84,36.2l2.07.24L91.3,86,54.11,74.66,46.23,31.83l.64.08C48.32,41.62,51.59,59.7,56.09,59.7Z"/></g><polygon class="cls-20" points="109.03 84.79 106.84 34.6 114.72 33.91 116.9 84.79 109.03 84.79"/><polygon class="cls-21" points="70.08 34.6 73.58 80.42 66.8 78.35 61.98 33.91 70.08 34.6"/><polygon class="cls-20" points="106.84 34.6 63.73 29.07 76.64 27 114.72 33.91 106.84 34.6"/><polygon class="cls-20" points="70.08 34.6 111.87 29.76 96.78 27.23 61.98 33.91 70.08 34.6"/><path class="cls-22" d="M89.32,28.69s-2.79-15.2-3-20.6,3.26-3.18,8.15-2.94,7.93.74,6.06,4.41S90.72,33.59,89.32,28.69Z"/><path class="cls-22" d="M88.62,29.19S79.07,14.72,76.28,10.31c-2.1-2.7-5.6.49-7.92,2.93S90,33.59,88.62,29.19Z"/><path class="cls-20" d="M87,28.69s-13.28-3.18-17.94-2.45-2.1,3.68,0,6.12S94.21,30.65,87,28.69Z"/><path class="cls-20" d="M88.62,29.19l17-8.59s3.26,6.87,1.86,9.32S88.62,29.19,88.62,29.19Z"/><rect class="cls-23" x="123.58" y="29.28" width="74.65" height="65.68"/><path class="cls-24" d="M197.15,29.28V78.57c0,11.08-11.46,11.7-15,1.39s9.8-25,6.14-35.45c-3.49-10-7.62-11.55.84-15.23H136.67c8.68,2.65,2.13,5.39-3.92,14.36-6.43,9.54,5.91,17.37,4.83,28s-13.31,21.24-13.31,7.08V29.28h-.69V95h74.65V29.28ZM149.42,61.16C145,49.75,144.51,44.56,148,37.94c5.7-10.92,6.29-3.84,6.29,11.61S153.81,72.57,149.42,61.16Zm25.76-13.22c-1.44,8.32-7.48,19.24-7.48,13.7V34.25C167.7,25.63,176.63,39.63,175.18,47.94Z"/><path class="cls-4" d="M156.13,61.35q0-8.3,0-16.61c0-5.11.35-10.36-.42-15.46h10.54c.23.07-.65,22.07-.66,33s-.76,21.9.13,32.72H155.6a.45.45,0,0,0,.21-.43C157.23,83.67,156.12,72.28,156.13,61.35Z"/><path class="cls-5" d="M165.57,62.24c0-4.16,0-8.33,0-12.48-1.36,14.43-2.92,29.44-3.21,24.91-.51-8.24.85-40.63-1.37-26.53s-2.39,35.61-2.89,21.09c-.42-11.51-.93-31.95-1.12-39.95h-1.28c.77,5.1.41,10.35.42,15.46q0,8.31,0,16.61c0,10.93,1.1,22.32-.32,33.18a.45.45,0,0,1-.21.43h10.1C164.81,84.14,165.54,73.08,165.57,62.24Z"/><path class="cls-4" d="M176.46,77.47c.31,4.13,3,7.63,5.59,10.73-3.28-1.52-6.27-3.42-8.16-6.82-.16-.28-.55-.1-.65.14-1,2.39-.09,4.93.7,7.31a18,18,0,0,1-5.58-6.1c-2.44-4.65-1.46-8.75.16-13.47,2.2-6.47,6.27-12,8-18.73,1.3-5.09-.2-11.09-2.79-15.45a12.85,12.85,0,0,0-7.17-5.8h2.41c5.45,1.34,10.21,4.33,13.05,9.73,3.58,6.8,1.28,16.33-1.23,23.06C179,66.74,176.07,72.39,176.46,77.47Z"/><path class="cls-4" d="M142.53,81.8c.17-.32-.14-.73-.45-.44A15.87,15.87,0,0,1,133.87,86a13.79,13.79,0,0,0,6.12-7.7c2-5.49.48-11.1-1.07-16.47-1-3.4-2.34-6.6-3.12-10.06-1.25-5.56.73-9.68,4.15-13.73a28,28,0,0,1,9.36-7.39,18.87,18.87,0,0,1,4-1.41h.55a24.92,24.92,0,0,0-8.24,9.47c-3.11,5.94-.94,12.45.81,18.45,2.71,9.29,7.72,18.38,1.83,27.77-1.33,2.13-3.71,3.39-5.78,4.5s-1.53,1-.61-.76A9.87,9.87,0,0,0,142.53,81.8Z"/><path class="cls-6" d="M173.24,75.65s-3.72,2.51-2.52,8.24c-3.85-4-3.32-11,2.52-20.39,11.67-22.34-1.59-32.11,1-31.41A16,16,0,0,1,179.12,35a20.26,20.26,0,0,0-10.18-5.69h-2.41a12.85,12.85,0,0,1,7.17,5.8c2.59,4.36,4.09,10.36,2.79,15.45-1.7,6.69-5.77,12.26-8,18.73-1.62,4.72-2.6,8.82-.16,13.47a18,18,0,0,0,5.58,6.1c-.79-2.38-1.69-4.92-.7-7.31.1-.24.49-.42.65-.14a14.46,14.46,0,0,0,5.55,5.46A28.21,28.21,0,0,1,173.24,75.65Z"/><path class="cls-6" d="M145.61,38.75a24.92,24.92,0,0,1,8.24-9.47h-.55a18.87,18.87,0,0,0-4,1.41A28,28,0,0,0,140,38.08c-2.36,2.8-4,5.64-4.43,8.94.92-3.5,3.16-8.79,8.53-11-4.78,6-3.58,17.31,2,29s.4,18.15-1.72,20.24c2-5.72-1.33-8.93-1.33-8.93a16.36,16.36,0,0,1-7.7,8.74,11.33,11.33,0,0,1-1.42,1,15.87,15.87,0,0,0,8.21-4.68c.31-.29.62.12.45.44a9.87,9.87,0,0,1-.67,6.91c-.92,1.71-1.51,1.92.61.76s4.45-2.37,5.78-4.5c5.89-9.39.88-18.48-1.83-27.77C144.67,51.2,142.5,44.69,145.61,38.75Z"/><path class="cls-7" d="M180.33,39.7s3.86,7.9-2.14,21.9C174.54,70.63,188.27,51.89,180.33,39.7Z"/><path class="cls-7" d="M138.92,42.63s-2.14,6.55,2.15,18.52C143.43,68.37,132.48,52.34,138.92,42.63Z"/><path class="cls-8" d="M150.31,22.7c-6.9-7.11-12.44-6.57-17.72-4.59S127.37,17,127.37,17l-.25,0a8.34,8.34,0,0,0,.45,1.82c3.84,10,19.84,9.66,32,10.89C159.54,29.65,155.43,28,150.31,22.7Z"/><g class="cls-9"><path class="cls-10" d="M150.31,22.7c-6.9-7.11-12.44-6.57-17.72-4.59S127.37,17,127.37,17l-.25,0a8.34,8.34,0,0,0,.45,1.82c3.84,10,19.84,9.66,32,10.89C159.54,29.65,155.43,28,150.31,22.7Z"/></g><path class="cls-4" d="M150.14,6.43c-11.31-9.69-19.66-7.37-17.7,0,0,0-6.23,4.47-5.32,10.54l.25,0s-.06,3.13,5.22,1.14,10.82-2.52,17.72,4.59c5.12,5.29,9.23,7,9.23,7A27.47,27.47,0,0,0,150.14,6.43Z"/><path class="cls-11" d="M146.48,12.15a10.53,10.53,0,0,1,3.19,1.4,18.3,18.3,0,0,1,2.82,2.3,17.16,17.16,0,0,1,1.42,1.51l1.27,1.72a21.38,21.38,0,0,1,2.08,3.67,17,17,0,0,1,1.35,3.43c.64,2.07.93,3.47.93,3.47s-.78-1.21-1.75-3.07A24,24,0,0,0,156,23.49a31.91,31.91,0,0,0-2.16-3.41,27.62,27.62,0,0,0-2.39-3.19c-.43-.47-.76-1-1.19-1.4s-.8-.81-1.15-1.18a23.81,23.81,0,0,0-1.88-1.6A9.09,9.09,0,0,0,146.48,12.15Z"/><path class="cls-11" d="M132.7,2.13a6.88,6.88,0,0,0-.26,1.44,11.17,11.17,0,0,0,0,1.44,5.31,5.31,0,0,0,.37,1.55l.27.76c.15.22.3.44.46.64a3.7,3.7,0,0,0,.87,1.11c.59.6,1,1.06,1,1.06a13.27,13.27,0,0,1-1.27-.69,3.33,3.33,0,0,1-1.15-1c-.17-.22-.37-.45-.55-.69L132,6.85A5.83,5.83,0,0,1,131.71,5a5.76,5.76,0,0,1,.3-1.56A4,4,0,0,1,132.7,2.13Z"/><g class="cls-9"><path class="cls-10" d="M150.14,6.43c-11.31-9.69-19.66-7.37-17.7,0,0,0-6.23,4.47-5.32,10.54l.25,0s-.06,3.13,5.22,1.14,10.82-2.52,17.72,4.59c5.12,5.29,9.23,7,9.23,7A27.47,27.47,0,0,0,150.14,6.43Zm-20.46,4.79c2.5-2.92,9.95.35,9.95.35C133.71,7.39,133.09.68,138.46.88c4.8.19,10.16,4.43,14.13,9.25a30.21,30.21,0,0,1,5.17,10.77c0,.17-5.52-8.17-12.23-9.77-3.13-.74,1.36,1.52,6,6.86s4.78,7.28,1.13,3.59S142.3,14,136.51,14.88,127.18,14.13,129.68,11.22Z"/></g><g class="cls-9"><path class="cls-10" d="M137.87,19.53c5.49.37,15.38,6.8,14.3,9.5,2.52.21,5,.39,7.37.62,0,0-4.11-1.66-9.23-6.95-6.9-7.11-12.44-6.57-17.72-4.59S127.37,17,127.37,17l-.25,0a8.34,8.34,0,0,0,.45,1.82,10.78,10.78,0,0,0,1.58,2.75C130.33,20.14,133.54,19.24,137.87,19.53Z"/></g><path class="cls-7" d="M154.25,13.8S149.83,5,141.41,2.13,146.25,4.23,154.25,13.8Z"/><path class="cls-4" d="M164,29.05s2.71-7.51,11.87-18.09,13.31-8.26,15.06-5c0,0,9.45-3.77,12.11,4.37C207.39,23.48,185.86,32.84,164,29.05Z"/><path class="cls-11" d="M164,29.05a15,15,0,0,0,1.66-.57,27.82,27.82,0,0,0,4.11-2,36.81,36.81,0,0,0,5.33-3.71,29.25,29.25,0,0,0,2.8-2.4l2.84-2.6c1-.86,1.87-1.77,2.93-2.55a28.79,28.79,0,0,1,3.14-2.2,14.75,14.75,0,0,1,3.22-1.53c.55-.17,1.06-.37,1.58-.49l1.57-.15a6.92,6.92,0,0,1,2.67.47,10.94,10.94,0,0,1,1.76,1.16l1.19,1.36-1.38-1.1a11.73,11.73,0,0,0-1.76-.83,9.86,9.86,0,0,0-1.16-.12,3,3,0,0,0-1.27,0l-1.38.24c-.46.16-.93.4-1.41.6a18.24,18.24,0,0,0-2.9,1.65c-1,.59-1.88,1.48-2.88,2.18s-1.91,1.72-2.87,2.57-1.94,1.72-2.89,2.58a26,26,0,0,1-3,2.35,21.76,21.76,0,0,1-3,1.91,24.12,24.12,0,0,1-2.8,1.44,20.6,20.6,0,0,1-4.42,1.51A9.81,9.81,0,0,1,164,29.05Z"/><path class="cls-11" d="M187.07,21.13s-1.17.95-3,2.19a34.36,34.36,0,0,1-3.35,1.84,33,33,0,0,1-4,1.65,37.12,37.12,0,0,1-7.89,1.79,21.39,21.39,0,0,1-3.67.17l3.49-1.1c1-.28,2.25-.76,3.55-1.12s2.67-.83,4-1.34,2.76-.9,4-1.42,2.47-.82,3.47-1.31C185.66,21.6,187.07,21.13,187.07,21.13Z"/><path class="cls-11" d="M186.37,9.4a7.7,7.7,0,0,1,1.25-1.58,13.78,13.78,0,0,1,1.56-1.34,16.89,16.89,0,0,1,2.07-1.11,9,9,0,0,1,2.26-.57,6.9,6.9,0,0,1,2,0c1.17.23,1.91.43,1.91.43s-.8,0-1.92,0a8.73,8.73,0,0,0-1.9.28,8.26,8.26,0,0,0-2.08.63,14.15,14.15,0,0,0-2,1c-.57.42-1.2.69-1.63,1.08A12.56,12.56,0,0,0,186.37,9.4Z"/><g class="cls-9"><path class="cls-10" d="M203.08,10.29C200.42,2.15,191,5.92,191,5.92c-1.75-3.22-5.9-5.55-15.06,5S164,29.05,164,29.05C185.86,32.84,207.39,23.48,203.08,10.29Zm-27.9,9.84c-4.92,5-9.71,7.73-7.56,3.37,4.44-9,12.83-17.64,17-19S186.74,8.31,175.18,20.13Zm24.87-6.35c-5.22-7.65-14.62-.57-15.21-1.63s7.07-8.94,14-6C203,7.89,202.3,17.07,200.05,13.78Z"/></g><g class="cls-9"><path class="cls-10" d="M197.44,21.13c-7.16,5.54-20,5.93-14.08,3.09S191.42,19,191.42,19s-7.13,1-4.35-2.13c6.6-7.42,12.62-2,12.62-2-5.34-8.72-15.65.81-20.27,5.31a40.52,40.52,0,0,1-9.72,6.93A57.15,57.15,0,0,1,164.08,29l0,.1c19.38,3.37,38.5-3.65,39.53-14.5C203.19,16.31,201.14,18.28,197.44,21.13Z"/></g><path class="cls-7" d="M168.68,23.24s4.73-9.91,10.76-14.44S168.68,23.24,168.68,23.24Z"/><path class="cls-7" d="M187.37,9.4s3.48-2.81,6.73-3.27,4,1.24,1.76,1S187.37,9.4,187.37,9.4Z"/><path class="cls-7" d="M198.23,7.18c-.19.52.63,1.33,1.06.92S198.4,6.66,198.23,7.18Z"/><path class="cls-12" d="M160.23,29.53c3.09.92,7.42.27,4.89-3.65C162,21,155.94,28.26,160.23,29.53Z"/><path class="cls-6" d="M165.12,25.88c0-.05-.07-.07-.1-.11.95,2.23-1.81,2.6-3.87,2-1.7-.5-1.16-2.3,0-3.26-2.24,1-3.71,4.21-1,5C163.32,30.45,167.65,29.8,165.12,25.88Z"/><rect class="cls-2" x="195.09" y="45.42" width="60.79" height="53.49"/><path class="cls-3" d="M255,45.42V85.56c0,9-9.32,9.53-12.18,1.12s8-20.38,5-28.86c-2.85-8.12-6.21-9.41.68-12.4H205.76c7.06,2.16,1.72,4.39-3.2,11.69-5.24,7.76,4.81,14.14,3.93,22.81s-10.84,17.29-10.84,5.76V45.42h-.56V98.9h60.79V45.42Zm-38.86,26c-3.57-9.29-4-13.52-1.19-18.91,4.65-8.9,5.12-3.13,5.12,9.46S219.71,80.67,216.14,71.38Zm21-10.77C235.94,67.39,231,76.29,231,71.77V49.46C231,42.44,238.29,53.85,237.12,60.61Z"/><path class="cls-4" d="M221.6,71.53q0-6.77,0-13.53c0-4.15.27-8.43-.34-12.58h8.58c.19,0-.53,18-.55,26.83s-.61,17.84.11,26.65h-8.23a.34.34,0,0,0,.18-.35C222.5,89.71,221.59,80.43,221.6,71.53Z"/><path class="cls-5" d="M229.28,72.25c0-3.39,0-6.77,0-10.15-1.11,11.74-2.38,24-2.62,20.28-.41-6.71.7-33.08-1.1-21.6s-2,29-2.37,17.16c-.33-9.37-.75-26-.91-32.52h-1c.61,4.15.33,8.43.34,12.58q0,6.77,0,13.53c0,8.9.9,18.18-.26,27a.34.34,0,0,1-.18.35h8.23C228.67,90.09,229.27,81.08,229.28,72.25Z"/><path class="cls-4" d="M238.15,84.66c.26,3.37,2.44,6.21,4.56,8.73-2.67-1.23-5.11-2.77-6.65-5.55-.13-.23-.45-.07-.53.12-.8,2-.07,4,.57,6a14.88,14.88,0,0,1-4.54-5c-2-3.8-1.19-7.13.13-11,1.79-5.26,5.11-9.8,6.49-15.25,1-4.14-.17-9-2.27-12.58a10.43,10.43,0,0,0-5.84-4.72h2a15.69,15.69,0,0,1,10.64,7.92c2.9,5.53,1,13.3-1,18.77C240.24,75.92,237.84,80.52,238.15,84.66Z"/><path class="cls-4" d="M210.53,88.19c.14-.26-.13-.6-.36-.36a13.09,13.09,0,0,1-6.7,3.81,11.29,11.29,0,0,0,5-6.27c1.63-4.47.39-9-.87-13.41-.8-2.77-1.91-5.38-2.55-8.2-1-4.52.6-7.88,3.39-11.18a23.09,23.09,0,0,1,7.61-6,16,16,0,0,1,3.25-1.14h.45a20.3,20.3,0,0,0-6.71,7.7c-2.52,4.84-.76,10.14.67,15,2.21,7.57,6.28,15,1.48,22.62-1.09,1.73-3,2.76-4.7,3.67s-1.25.76-.5-.63A8,8,0,0,0,210.53,88.19Z"/><path class="cls-6" d="M235.53,83.18s-3,2-2.05,6.71c-3.13-3.3-2.71-9,2.05-16.6,9.51-18.19-1.3-26.15.86-25.59a12.92,12.92,0,0,1,3.94,2.35,16.58,16.58,0,0,0-8.3-4.63h-2a10.43,10.43,0,0,1,5.84,4.72c2.1,3.55,3.32,8.44,2.27,12.58-1.38,5.45-4.7,10-6.49,15.25-1.32,3.85-2.11,7.18-.13,11a14.88,14.88,0,0,0,4.54,5c-.64-1.94-1.37-4-.57-6,.08-.19.4-.35.53-.12a11.76,11.76,0,0,0,4.52,4.45A22.92,22.92,0,0,1,235.53,83.18Z"/><path class="cls-6" d="M213,53.12a20.3,20.3,0,0,1,6.71-7.7h-.45A16,16,0,0,0,216,46.56a23.09,23.09,0,0,0-7.61,6,13.93,13.93,0,0,0-3.62,7.28c.76-2.85,2.58-7.15,6.95-9-3.89,4.89-2.92,14.1,1.62,23.65S213.71,89.32,212,91c1.61-4.66-1.08-7.28-1.08-7.28a13.38,13.38,0,0,1-6.27,7.12,8.4,8.4,0,0,1-1.16.78,13.09,13.09,0,0,0,6.7-3.81c.23-.24.5.1.36.36a8,8,0,0,1-.55,5.62c-.75,1.39-1.23,1.56.5.63s3.61-1.94,4.7-3.67c4.8-7.65.73-15-1.48-22.62C212.27,63.26,210.51,58,213,53.12Z"/><path class="cls-7" d="M241.31,53.9s3.14,6.43-1.75,17.83C236.59,79.09,247.77,63.83,241.31,53.9Z"/><path class="cls-7" d="M207.59,56.29s-1.75,5.33,1.75,15.08C211.26,77.25,202.34,64.19,207.59,56.29Z"/><path class="cls-8" d="M216.85,40.05c-5.61-5.79-10.12-5.34-14.41-3.73s-4.26-.93-4.26-.93l-.21,0a7.12,7.12,0,0,0,.37,1.48c3.13,8.18,16.16,7.87,26,8.87A25.06,25.06,0,0,1,216.85,40.05Z"/><g class="cls-9"><path class="cls-10" d="M216.85,40.05c-5.61-5.79-10.12-5.34-14.41-3.73s-4.26-.93-4.26-.93l-.21,0a7.12,7.12,0,0,0,.37,1.48c3.13,8.18,16.16,7.87,26,8.87A25.06,25.06,0,0,1,216.85,40.05Z"/></g><path class="cls-4" d="M216.73,26.81c-9.22-7.9-16-6-14.41,0,0,0-5.09,3.64-4.35,8.59l.21,0s0,2.55,4.26.93,8.8-2.06,14.41,3.73a25.06,25.06,0,0,0,7.53,5.67A22.39,22.39,0,0,0,216.73,26.81Z"/><path class="cls-11" d="M213.75,31.46a8.09,8.09,0,0,1,2.64,1.07,14.09,14.09,0,0,1,2.34,1.85A15.13,15.13,0,0,1,221,37a17,17,0,0,1,1.69,3,13.61,13.61,0,0,1,1.06,2.82,28,28,0,0,1,.68,2.87s-.68-1-1.5-2.47a20.24,20.24,0,0,0-1.48-2.49A29.3,29.3,0,0,0,219.65,38a24.36,24.36,0,0,0-1.93-2.6,23,23,0,0,0-1.86-2.12A21.31,21.31,0,0,0,213.75,31.46Z"/><path class="cls-11" d="M202.52,23.31a5.48,5.48,0,0,0-.17,1.18,7.47,7.47,0,0,0,0,1.16,4.16,4.16,0,0,0,.3,1.24,3,3,0,0,0,.57,1.13,3.51,3.51,0,0,0,.69.91c.47.5.78.89.78.89a10.92,10.92,0,0,1-1.07-.53,2.73,2.73,0,0,1-1-.82,3.39,3.39,0,0,1-.77-1.29,4.11,4.11,0,0,1,0-2.8A3.53,3.53,0,0,1,202.52,23.31Z"/><g class="cls-9"><path class="cls-10" d="M216.73,26.81c-9.22-7.9-16-6-14.41,0,0,0-5.09,3.64-4.35,8.59l.21,0s0,2.55,4.26.93,8.8-2.06,14.41,3.73a25.06,25.06,0,0,0,7.53,5.67A22.39,22.39,0,0,0,216.73,26.81ZM200.06,30.7c2-2.37,8.09.29,8.09.29-4.81-3.4-5.31-8.87-.94-8.7,3.91.16,8.27,3.61,11.51,7.53a24.62,24.62,0,0,1,4.21,8.78c0,.12-4.5-6.66-10-8-2.54-.61,1.11,1.23,4.89,5.58s3.88,5.93.91,2.92-8.42-6.17-13.15-5.45S198,33.08,200.06,30.7Z"/></g><g class="cls-9"><path class="cls-10" d="M206.73,37.47c4.47.31,12.52,5.54,11.65,7.74,2.05.17,4.08.31,6,.51a25.06,25.06,0,0,1-7.53-5.67c-5.61-5.79-10.12-5.34-14.41-3.73s-4.26-.93-4.26-.93l-.21,0a7.12,7.12,0,0,0,.37,1.48,8.61,8.61,0,0,0,1.29,2.23C200.59,38,203.21,37.24,206.73,37.47Z"/></g><path class="cls-7" d="M220.07,32.81s-3.6-7.17-10.46-9.5S213.56,25,220.07,32.81Z"/><path class="cls-4" d="M228,45.23s2.21-6.11,9.67-14.74,10.84-6.72,12.27-4.1c0,0,7.69-3.06,9.85,3.56C263.34,40.68,245.81,48.32,228,45.23Z"/><path class="cls-11" d="M228,45.23A22,22,0,0,0,232.7,43,29.26,29.26,0,0,0,237,40,24.07,24.07,0,0,0,239.26,38l2.32-2.13c.8-.7,1.52-1.44,2.39-2.08A24.9,24.9,0,0,1,246.55,32a11.59,11.59,0,0,1,2.66-1.23c.45-.14.87-.3,1.3-.4l1.29-.1a5.57,5.57,0,0,1,2.2.41,9.69,9.69,0,0,1,1.43,1l.95,1.14-1.14-.88a10.37,10.37,0,0,0-1.43-.64,6.66,6.66,0,0,0-2-.06l-1.1.22c-.38.13-.75.32-1.14.48a17.75,17.75,0,0,0-2.33,1.36c-.81.48-1.52,1.21-2.33,1.78s-1.54,1.4-2.32,2.09l-2.37,2.09a19,19,0,0,1-2.43,1.92,26,26,0,0,1-4.73,2.7,16.22,16.22,0,0,1-3.63,1.17A7.05,7.05,0,0,1,228,45.23Z"/><path class="cls-11" d="M246.79,38.78s-.93.81-2.41,1.86a25.08,25.08,0,0,1-2.72,1.55,27,27,0,0,1-3.29,1.37A27.74,27.74,0,0,1,231.92,45a16,16,0,0,1-3,0s1.14-.41,2.82-1l2.87-1c1-.4,2.17-.69,3.27-1.11s2.24-.73,3.24-1.13,2-.62,2.84-1C245.62,39.12,246.79,38.78,246.79,38.78Z"/><path class="cls-11" d="M246.23,29.23a6.06,6.06,0,0,1,1-1.32,10.35,10.35,0,0,1,1.26-1.12,13.58,13.58,0,0,1,1.69-.92,8.11,8.11,0,0,1,1.87-.46,5.69,5.69,0,0,1,1.65,0c1,.21,1.55.39,1.55.39s-.65.07-1.56.1a7.64,7.64,0,0,0-1.53.24,6.84,6.84,0,0,0-1.69.52,13.39,13.39,0,0,0-1.62.76c-.46.34-1,.55-1.33.86A10.12,10.12,0,0,0,246.23,29.23Z"/><g class="cls-9"><path class="cls-10" d="M259.83,30c-2.16-6.62-9.85-3.56-9.85-3.56-1.43-2.62-4.82-4.51-12.27,4.1S228,45.23,228,45.23C245.81,48.32,263.34,40.68,259.83,30Zm-22.71,8c-4,4.1-7.92,6.29-6.16,2.74,3.62-7.31,10.44-14.37,13.84-15.5S246.53,28.34,237.12,38Zm20.25-5.18c-4.25-6.23-11.91-.46-12.38-1.33s5.74-7.27,11.39-4.9C259.79,28,259.19,35.47,257.37,32.79Z"/></g><g class="cls-9"><path class="cls-10" d="M255.24,38.78c-5.83,4.51-16.32,4.83-11.47,2.51S250.34,37,250.34,37s-5.81.8-3.55-1.75c5.38-6,10.28-1.61,10.28-1.61-4.35-7.11-12.74.64-16.51,4.32a33.34,33.34,0,0,1-7.91,5.64c-1.25.54-3.4,1.19-4.58,1.54l0,.08c15.78,2.74,31.36-3,32.2-11.81C259.93,34.85,258.25,36.45,255.24,38.78Z"/></g><path class="cls-7" d="M231.82,40.49s3.85-8.06,8.76-11.75S231.82,40.49,231.82,40.49Z"/><path class="cls-7" d="M247.05,29.23a13.61,13.61,0,0,1,5.47-2.67c2.65-.37,3.28,1,1.43.86S247.05,29.23,247.05,29.23Z"/><path class="cls-7" d="M255.88,27.42c-.14.42.51,1.09.87.75S256,27,255.88,27.42Z"/><path class="cls-12" d="M224.94,45.62c2.52.75,6,.22,4-3C226.35,38.69,221.44,44.59,224.94,45.62Z"/><path class="cls-6" d="M228.92,42.64l-.08-.09c.77,1.83-1.48,2.12-3.15,1.63-1.39-.41-.95-1.88,0-2.65-1.83.79-3,3.42-.79,4.09C227.46,46.37,231,45.84,228.92,42.64Z"/><polygon class="cls-4" points="33.28 71.22 78.38 75.33 120.25 70.49 78.37 64.19 33.28 71.22"/><polygon class="cls-25" points="33.28 71.22 34.21 125.45 72.85 127.39 78.38 75.33 33.28 71.22"/><polygon class="cls-26" points="120.25 70.49 78.38 75.33 72.85 127.39 111.96 115.52 120.25 70.49"/><path class="cls-16" d="M33.46,81.63l-.18-10.41S33.14,76,33.46,81.63Z"/><path class="cls-27" d="M76.61,75.17c-1.51,8.89-6,30.73-13.19,28.92-7-1.76-5.73-21.79-4.8-30.57l-11.38-1c-.58,9.64-2.41,28.49-7.7,28-4.2-.4-5.62-10.6-6.08-18.84l.75,43.82,38.64,1.94,5.53-52.06Z"/><path class="cls-27" d="M109.88,99.79c-5.21,0-5.1-19.84-4.86-27.54L93,73.64c0,10.92-.94,30.49-6.53,30-6.67-.58-6.15-22.51-5.88-28.56l-2.17.25-5.53,52.06L112,115.52l8.29-45-.68.08C118.05,80.77,114.6,99.79,109.88,99.79Z"/><polygon class="cls-20" points="54.22 126.18 56.52 73.39 48.23 72.67 45.94 126.18 54.22 126.18"/><polygon class="cls-21" points="95.17 73.39 91.49 121.58 98.62 119.4 103.68 72.67 95.17 73.39"/><polygon class="cls-20" points="56.52 73.39 101.84 67.58 88.27 65.41 48.23 72.67 56.52 73.39"/><polygon class="cls-20" points="95.17 73.39 51.22 68.31 67.1 65.65 103.68 72.67 95.17 73.39"/><path class="cls-22" d="M74.93,67.18s2.94-16,3.19-21.65-3.43-3.34-8.57-3.09-8.33.77-6.37,4.64S73.47,72.34,74.93,67.18Z"/><path class="cls-22" d="M75.67,67.7s10-15.21,13-19.85c2.2-2.83,5.88.52,8.33,3.1S74.2,72.34,75.67,67.7Z"/><path class="cls-20" d="M77.38,67.18s14-3.35,18.87-2.57,2.19,3.86,0,6.44S69.79,69.25,77.38,67.18Z"/><path class="cls-20" d="M75.67,67.7l-17.88-9s-3.43,7.22-2,9.79S75.67,67.7,75.67,67.7Z"/><rect class="cls-23" x="237.59" y="52.55" width="70.44" height="61.98"/><path class="cls-24" d="M307,52.55V99.07c0,10.45-10.82,11-14.13,1.31s9.25-23.63,5.79-33.46c-3.3-9.4-7.2-10.9.79-14.37H249.94c8.18,2.5,2,5.09-3.7,13.54-6.07,9,5.58,16.41,4.56,26.44s-12.57,20-12.57,6.69V52.55h-.64v62H308v-62ZM262,82.64c-4.14-10.76-4.64-15.67-1.38-21.91,5.39-10.32,5.94-3.64,5.94,11S266.12,93.4,262,82.64Zm24.31-12.48c-1.36,7.85-7.06,18.16-7.06,12.93V57.24C279.22,49.11,287.64,62.32,286.28,70.16Z"/><path class="cls-4" d="M268.31,82.82c0-5.23,0-10.45,0-15.69,0-4.81.32-9.77-.4-14.58h9.95c.21.07-.61,20.83-.64,31.1s-.71,20.67.13,30.89H267.8a.43.43,0,0,0,.2-.41C269.34,103.88,268.29,93.13,268.31,82.82Z"/><path class="cls-5" d="M277.2,83.65c0-3.92,0-7.85,0-11.77-1.28,13.61-2.77,27.79-3,23.51-.49-7.77.8-38.34-1.29-25s-2.25,33.59-2.73,19.89c-.38-10.86-.87-30.15-1.06-37.7h-1.2c.72,4.81.38,9.77.4,14.58,0,5.24,0,10.46,0,15.69,0,10.31,1,21.06-.31,31.31a.43.43,0,0,1-.2.41h9.53C276.49,104.32,277.18,93.89,277.2,83.65Z"/><path class="cls-4" d="M287.48,98c.3,3.89,2.83,7.2,5.28,10.12-3.09-1.43-5.91-3.22-7.7-6.43-.15-.27-.52-.09-.61.14-.94,2.25-.09,4.64.65,6.89a17,17,0,0,1-5.25-5.76c-2.31-4.39-1.38-8.26.14-12.71,2.09-6.1,5.92-11.36,7.53-17.67,1.22-4.81-.2-10.47-2.64-14.59a12,12,0,0,0-6.77-5.47h2.28c5.15,1.27,9.64,4.08,12.32,9.18,3.37,6.42,1.2,15.42-1.16,21.76C289.91,87.9,287.12,93.24,287.48,98Z"/><path class="cls-4" d="M255.47,102.11c.16-.3-.14-.69-.43-.4a15,15,0,0,1-7.74,4.4,13,13,0,0,0,5.78-7.26c1.89-5.18.45-10.48-1-15.55-.93-3.2-2.2-6.22-2.94-9.49-1.18-5.24.69-9.13,3.92-13a26.59,26.59,0,0,1,8.82-7,19.33,19.33,0,0,1,3.77-1.33h.52a23.61,23.61,0,0,0-7.78,8.94c-2.93,5.6-.89,11.74.77,17.4,2.56,8.78,7.29,17.36,1.72,26.22-1.26,2-3.49,3.19-5.44,4.24s-1.46.9-.58-.72A9.29,9.29,0,0,0,255.47,102.11Z"/><path class="cls-6" d="M284.44,96.31s-3.5,2.37-2.37,7.77c-3.64-3.82-3.13-10.41,2.37-19.23,11-21.08-1.5-30.3,1-29.65A15.14,15.14,0,0,1,290,57.91a19.24,19.24,0,0,0-9.61-5.36h-2.28A12,12,0,0,1,284.88,58c2.44,4.12,3.86,9.78,2.64,14.59-1.61,6.31-5.44,11.57-7.53,17.67-1.52,4.45-2.45,8.32-.14,12.71a17,17,0,0,0,5.25,5.76c-.74-2.25-1.59-4.64-.65-6.89.09-.23.46-.41.61-.14a13.62,13.62,0,0,0,5.24,5.15A26.67,26.67,0,0,1,284.44,96.31Z"/><path class="cls-6" d="M258.37,61.49a23.61,23.61,0,0,1,7.78-8.94h-.52a19.33,19.33,0,0,0-3.77,1.33,26.59,26.59,0,0,0-8.82,7c-2.23,2.64-3.81,5.31-4.19,8.43.87-3.3,3-8.29,8-10.4-4.51,5.67-3.38,16.34,1.88,27.41s.38,17.13-1.62,19.1C259,100,255.9,97,255.9,97a15.45,15.45,0,0,1-7.27,8.25,9.94,9.94,0,0,1-1.33.89,15,15,0,0,0,7.74-4.4c.29-.29.59.1.43.4a9.29,9.29,0,0,1-.63,6.52c-.88,1.62-1.42,1.81.58.72s4.18-2.24,5.44-4.24c5.57-8.86.84-17.44-1.72-26.22C257.48,73.23,255.44,67.09,258.37,61.49Z"/><path class="cls-7" d="M291.14,62.38s3.64,7.45-2,20.67C285.68,91.57,298.63,73.88,291.14,62.38Z"/><path class="cls-7" d="M252.06,65.15s-2,6.18,2,17.47C256.31,89.44,246,74.31,252.06,65.15Z"/><path class="cls-8" d="M262.8,46.34c-6.5-6.71-11.73-6.21-16.71-4.33s-4.92-1.08-4.92-1.08l-.25,0a7.56,7.56,0,0,0,.44,1.71c3.61,9.49,18.71,9.12,30.16,10.28C271.52,52.9,267.64,51.33,262.8,46.34Z"/><g class="cls-9"><path class="cls-10" d="M262.8,46.34c-6.5-6.71-11.73-6.21-16.71-4.33s-4.92-1.08-4.92-1.08l-.25,0a7.56,7.56,0,0,0,.44,1.71c3.61,9.49,18.71,9.12,30.16,10.28C271.52,52.9,267.64,51.33,262.8,46.34Z"/></g><path class="cls-4" d="M262.65,31C252,21.84,244.09,24,246,31c0,0-5.88,4.23-5,10l.25,0s-.06,3,4.92,1.08,10.21-2.38,16.71,4.33c4.84,5,8.72,6.56,8.72,6.56A25.91,25.91,0,0,0,262.65,31Z"/><path class="cls-11" d="M259.2,36.38a9.9,9.9,0,0,1,3,1.3,16.87,16.87,0,0,1,2.67,2.17,17.81,17.81,0,0,1,2.54,3,20.8,20.8,0,0,1,2,3.47,16.74,16.74,0,0,1,1.26,3.25c.59,2,.85,3.28.85,3.28s-.75-1.14-1.68-2.89a22.6,22.6,0,0,0-1.67-2.91,30.61,30.61,0,0,0-2-3.2,28.9,28.9,0,0,0-2.25-3c-.41-.43-.72-1-1.12-1.32l-1.08-1.12c-.72-.6-1.29-1.23-1.76-1.52S259.2,36.38,259.2,36.38Z"/><path class="cls-11" d="M246.19,26.93a6,6,0,0,0-.23,1.36,8.56,8.56,0,0,0,0,1.35,4.39,4.39,0,0,0,.35,1.46l.24.72.43.6a3.74,3.74,0,0,0,.83,1c.54.57.91,1,.91,1s-.48-.22-1.2-.65a3,3,0,0,1-1.08-.95l-.53-.66-.35-.82a5,5,0,0,1-.29-1.74,5.21,5.21,0,0,1,.27-1.48A3.69,3.69,0,0,1,246.19,26.93Z"/><g class="cls-9"><path class="cls-10" d="M262.65,31C252,21.84,244.09,24,246,31c0,0-5.88,4.23-5,10l.25,0s-.06,3,4.92,1.08,10.21-2.38,16.71,4.33c4.84,5,8.72,6.56,8.72,6.56A25.91,25.91,0,0,0,262.65,31ZM243.34,35.5c2.36-2.75,9.39.33,9.39.33-5.59-3.94-6.17-10.27-1.11-10.07,4.54.17,9.59,4.17,13.34,8.72a28.46,28.46,0,0,1,4.88,10.16c0,.16-5.21-7.7-11.54-9.21-3-.7,1.28,1.42,5.64,6.46s4.52,6.87,1.07,3.39-9.76-7.15-15.23-6.32S241,38.26,243.34,35.5Z"/></g><g class="cls-9"><path class="cls-10" d="M251.07,43.35c5.18.35,14.51,6.41,13.5,9,2.38.2,4.73.37,6.95.59,0,0-3.88-1.57-8.72-6.56-6.5-6.71-11.73-6.21-16.71-4.33s-4.92-1.08-4.92-1.08l-.25,0a7.56,7.56,0,0,0,.44,1.71,9.92,9.92,0,0,0,1.48,2.6C244,43.92,247,43.07,251.07,43.35Z"/></g><path class="cls-7" d="M266.53,37.94s-4.18-8.3-12.11-11S259,28.91,266.53,37.94Z"/><path class="cls-4" d="M275.77,52.33s2.56-7.08,11.2-17.07,12.56-7.79,14.21-4.75c0,0,8.91-3.55,11.43,4.12C316.67,47.07,296.36,55.91,275.77,52.33Z"/><path class="cls-11" d="M275.77,52.33a12.92,12.92,0,0,0,1.56-.55,25.56,25.56,0,0,0,3.87-1.94,34.31,34.31,0,0,0,5-3.51,26.06,26.06,0,0,0,2.63-2.26l2.69-2.46c.93-.8,1.77-1.67,2.76-2.4a29,29,0,0,1,3-2.07,13.67,13.67,0,0,1,3.05-1.45c.52-.15,1-.35,1.5-.46l1.49-.13a6.49,6.49,0,0,1,2.53.44,12.63,12.63,0,0,1,1.65,1.11l1.12,1.3s-.47-.38-1.31-1a8.93,8.93,0,0,0-1.66-.77,6.16,6.16,0,0,0-1.09-.12,2.87,2.87,0,0,0-1.2,0l-1.29.24c-.44.14-.87.37-1.33.55A19.23,19.23,0,0,0,298,38.41c-.95.56-1.77,1.39-2.71,2.07s-1.79,1.61-2.7,2.42l-2.74,2.42a21.29,21.29,0,0,1-2.8,2.22,21,21,0,0,1-2.81,1.8,22.28,22.28,0,0,1-2.65,1.36,18.88,18.88,0,0,1-4.17,1.4A9.76,9.76,0,0,1,275.77,52.33Z"/><path class="cls-11" d="M297.5,44.86s-1.09.91-2.83,2.1a32.52,32.52,0,0,1-3.15,1.74,30.25,30.25,0,0,1-3.82,1.57,35.35,35.35,0,0,1-7.45,1.67,20.32,20.32,0,0,1-3.47.12L280.07,51l3.35-1.07c1.2-.45,2.52-.78,3.79-1.27s2.6-.84,3.76-1.33,2.34-.75,3.28-1.22C296.17,45.29,297.5,44.86,297.5,44.86Z"/><path class="cls-11" d="M296.84,33.79a7.65,7.65,0,0,1,1.17-1.5A12.13,12.13,0,0,1,299.48,31a14.6,14.6,0,0,1,2-1.05,8.41,8.41,0,0,1,2.14-.54,6.14,6.14,0,0,1,1.91,0c1.1.23,1.8.42,1.8.42s-.75.05-1.81.06a8.31,8.31,0,0,0-1.79.26,8.64,8.64,0,0,0-2,.6,15.63,15.63,0,0,0-1.89.89c-.53.39-1.13.65-1.54,1A12.25,12.25,0,0,0,296.84,33.79Z"/><g class="cls-9"><path class="cls-10" d="M312.61,34.63c-2.52-7.67-11.43-4.12-11.43-4.12-1.65-3-5.57-5.24-14.21,4.75s-11.2,17.07-11.2,17.07C296.36,55.91,316.67,47.07,312.61,34.63Zm-26.33,9.29c-4.65,4.75-9.17,7.29-7.13,3.18,4.19-8.47,12.11-16.65,16-18S297.2,32.77,286.28,43.92Zm23.47-6c-4.93-7.21-13.8-.54-14.36-1.54s6.68-8.43,13.22-5.67C312.55,32.37,311.87,41,309.75,37.92Z"/></g><g class="cls-9"><path class="cls-10" d="M307.29,44.86c-6.76,5.23-18.92,5.6-13.3,2.91s7.62-5,7.62-5-6.74.93-4.11-2c6.23-7,11.91-1.88,11.91-1.88-5-8.23-14.77.75-19.13,5a38.41,38.41,0,0,1-9.18,6.54,54.12,54.12,0,0,1-5.3,1.78l0,.09c18.28,3.18,36.33-3.44,37.3-13.67C312.72,40.3,310.78,42.17,307.29,44.86Z"/></g><path class="cls-7" d="M280.14,46.84s4.47-9.34,10.16-13.61S280.14,46.84,280.14,46.84Z"/><path class="cls-7" d="M297.78,33.79s3.29-2.65,6.36-3.08,3.79,1.16,1.65,1S297.78,33.79,297.78,33.79Z"/><path class="cls-7" d="M308,31.7c-.17.48.59,1.25,1,.87S308.2,31.21,308,31.7Z"/><path class="cls-12" d="M272.17,52.78c2.92.87,7,.26,4.61-3.44C273.81,44.75,268.12,51.59,272.17,52.78Z"/><path class="cls-6" d="M276.78,49.34l-.08-.1c.88,2.11-1.72,2.46-3.66,1.88-1.61-.48-1.1-2.17,0-3.08-2.11.93-3.5,4-.91,4.74C275.09,53.65,279.17,53,276.78,49.34Z"/><polygon class="cls-13" points="117.23 66.88 170.36 71.73 219.7 66.02 170.36 58.6 117.23 66.88"/><polygon class="cls-14" points="117.23 66.88 118.32 130.79 163.86 133.07 170.36 71.73 117.23 66.88"/><polygon class="cls-15" points="219.7 66.02 170.36 71.73 163.86 133.07 209.94 119.09 219.7 66.02"/><path class="cls-16" d="M117.44,79.14l-.21-12.27S117.07,72.47,117.44,79.14Z"/><path class="cls-17" d="M168.28,71.54c-1.78,10.47-7,36.21-15.54,34.08-8.29-2.07-6.74-25.69-5.65-36l-13.41-1.24c-.69,11.37-2.84,33.58-9.07,33-5-.47-6.63-12.49-7.17-22.21l.88,51.65,45.54,2.28,6.5-61.34Z"/><g class="cls-18"><path class="cls-19" d="M207.48,100.55c-6.13,0-6-23.37-5.72-32.45l-14.21,1.64c-.06,12.86-1.11,35.93-7.69,35.35-7.87-.69-7.26-26.52-6.94-33.66l-2.56.3-6.5,61.34,46.07-14L219.7,66l-.8.1C217.11,78.15,213.05,100.55,207.48,100.55Z"/></g><polygon class="cls-20" points="141.9 131.64 144.61 69.45 134.85 68.59 132.14 131.64 141.9 131.64"/><polygon class="cls-21" points="190.14 69.45 185.81 126.22 194.21 123.65 200.18 68.59 190.14 69.45"/><polygon class="cls-20" points="144.61 69.45 198.01 62.6 182.02 60.03 134.85 68.59 144.61 69.45"/><polygon class="cls-20" points="190.14 69.45 138.37 63.46 157.07 60.32 200.18 68.59 190.14 69.45"/><path class="cls-22" d="M166.31,62.13s3.46-18.83,3.75-25.52S166,32.67,160,33s-9.81.9-7.5,5.46S164.58,68.2,166.31,62.13Z"/><path class="cls-22" d="M167.17,62.74S179,44.82,182.47,39.35c2.6-3.34,6.92.61,9.81,3.64S165.44,68.2,167.17,62.74Z"/><path class="cls-20" d="M169.19,62.13s16.45-4,22.22-3,2.59,4.56,0,7.59S160.25,64.56,169.19,62.13Z"/><path class="cls-20" d="M167.17,62.74,146.1,52.1s-4,8.51-2.3,11.55S167.17,62.74,167.17,62.74Z"/></g></g></g></svg>