<svg xmlns="http://www.w3.org/2000/svg" viewBox="0 0 79.1 83.49"><defs><style>.cls-1{fill:#fff;isolation:isolate;opacity:0.97;}</style></defs><g id="Layer_2" data-name="Layer 2"><g id="socks"><path class="cls-1" d="M.32,26.7A1.15,1.15,0,0,0,1,28l8.44,3.23L5.12,33.06a1,1,0,0,0-.52,1.35,1,1,0,0,0,.83.52h0l5.94-2.71,8.44,3.23L11.89,39a1,1,0,0,0,0,1.25.83.83,0,0,0,.83.62h0l9.59-4.37,8,3-8,3.65-3.13-.63a.93.93,0,0,0-1.13.68v.05h0a1.15,1.15,0,0,0,.83.94h.94l-1.35.62a1,1,0,0,0,0,1.25h0l.83.63h0l3.85-1.77,9.59,1.66-7,5.74L15.33,51.19h0a.94.94,0,1,0,0,1.87h0l8.44.94-6.88,5.63-6.46-.73h0a.94.94,0,0,0-1,.82h0a.94.94,0,0,0,.7,1.13l.13,0,4.48.52L7.83,67a.94.94,0,1,0,.93,1.63A1.2,1.2,0,0,0,9,68.49l7.09-5.73v4.68a.83.83,0,0,0,.6,1,.85.85,0,0,0,.23,0,.85.85,0,0,0,.94,0h0l.63-6.57,7-5.63-.84,8.55a1,1,0,0,0,.83,1h.11a.72.72,0,0,0,.84,0h0l.93-10.42L34,50.15l-.83,8.65-2.4,2.91a.94.94,0,0,0,0,1.33l0,0h0a1,1,0,0,0,1.15,0l.62-.63V63.8a1.05,1.05,0,0,0,.94,1h0a.74.74,0,0,0,.83,0h0V60.67l6.26-7.5,1.35,9-6.15,8.34h0a1,1,0,0,0,1.57,1.14h0l5-6.87,1.46,8.85L39.92,78.8h0a1,1,0,0,0,.21,1.36A1,1,0,0,0,41.48,80L44.3,73.8l1.46,8.75a.94.94,0,1,0,1.87,0l-1.46-9L50,76.3a.94.94,0,0,0,1.33,0l0,0a1.19,1.19,0,0,0,0-1h0L46,71.4,44.3,61.51l7,5a1,1,0,0,0,1.33,0l0,0a1.21,1.21,0,0,0,0-1.05h0L44.3,58.8l-1.36-8.34,7.19,5L51.38,59a1.05,1.05,0,0,0,1.25.63h0a1,1,0,0,0,0-1v-.94l1.25.83a.94.94,0,0,0,1.33,0l0,0h0a.71.71,0,0,0,0-.93h0l-3.44-2.4L48.57,46l8.34,3.23,4.17,9.48h0a1,1,0,0,0,1.35.52.93.93,0,0,0,0-1.25L59,50.15l8.44,3.23L70,59.32h0a.83.83,0,0,0,1.17.07l.08-.07a.93.93,0,0,0,0-1.25L69.41,53.9l8.44,3.23a.94.94,0,0,0,.63-1.77h0L70,52.13l4.27-2a1.06,1.06,0,0,0,0-1.36.85.85,0,0,0-.83-.52h0l-6,2.71L59.1,47.85l7.81-3.64a.93.93,0,0,0,0-1.25l-.83-.63h0l-9.59,4.38-8-3,8-3.65,3.65.73a1.14,1.14,0,0,0,1.14-.84h0a1.24,1.24,0,0,0-.83-.93h-.94l1.36-.63a1,1,0,0,0,0-1.25h0a.84.84,0,0,0-.84,0h0l-3.85,1.77-9.59-1.66,7-5.74,11.57.63h0a.94.94,0,0,0,0-1.88l-8.44-.93,6.88-5.63,6.46.73h0a.94.94,0,0,0,1-.82v0a1,1,0,0,0-.83-1.14l-5.11-.73,7-5.73a.94.94,0,0,0,0-1.33l0,0a1.26,1.26,0,0,0-1.46,0l-7,5.73V15.65a.82.82,0,0,0-.6-1,.85.85,0,0,0-.23,0,1,1,0,0,0-.94,0h0l-.63,6.57-7,5.73.84-8.65a1,1,0,0,0-.94-1,1,1,0,0,0-.84,0h0l-.93,10.42L45.76,33l.83-8.65L49,21.49A1.15,1.15,0,0,0,49,20h0a1,1,0,0,0-1.15,0l-.62.63V19.3a1,1,0,0,0-.94-1h-.84v4.17l-6.25,7.5-1.35-9L44,12.63h0a1,1,0,0,0-1.57-1.14l-5.1,6.87L36,9.51,39.82,4.3h0a1,1,0,0,0-1.57-1.15L35.54,6.8,33.88.86a1,1,0,0,0-1-.86l-.13,0A.94.94,0,0,0,32,1.13v0L33.46,10,29.61,7.32a.94.94,0,0,0-1.33,0l0,0a1.26,1.26,0,0,0,0,1h0l5.42,3.86L35,21.07l-7-5a.93.93,0,0,0-1.32,0l0,0a1.26,1.26,0,0,0,0,1h0l8.54,6.15,1.36,8.34-7.09-5-1.25-3.55A.93.93,0,0,0,27,22.52h0a1,1,0,0,0,0,1v.94l-1.15-.83a.92.92,0,0,0-1.32,0l0,0h0a.94.94,0,0,0,0,1h0l3.44,2.4,3.23,9.17-8.34-3.23-4.17-9.49h0a1,1,0,0,0-1.35-.52.93.93,0,0,0,0,1.25l3.33,7.82-8.33-3.23L9.7,23h0A.88.88,0,0,0,8.45,24.2l1.88,4.17L1.89,25.14a1.12,1.12,0,0,0-1.57,0,1.1,1.1,0,0,0,0,1.56Zm34.29,6.15V36h0l-2.09-.72-1.66-4.9Zm10.21,0-2.4,1.87-.73.63h0V32.54l4.17-5.11Zm5.11,8.75-3-1.14h-1l2.4-1.88,7.08,1.25ZM44.4,50l-.1-3.85V44.94h0l3.44,1.35,2.91,7.92ZM35,50l2.82-2.19.94-.83v.83l.52,3.34-5,5.94Zm-4.58-8.75,3.44,1.25h1.25l-2.71,2.19-9-.73Z"/></g></g></svg>