<svg xmlns="http://www.w3.org/2000/svg" xmlns:xlink="http://www.w3.org/1999/xlink" viewBox="0 0 349.83 204.59"><defs><style>.cls-1{fill:none;}.cls-2{isolation:isolate;}.cls-3,.cls-5{fill:#512c0a;}.cls-4{fill:#331300;}.cls-12,.cls-16,.cls-17,.cls-20,.cls-23,.cls-24,.cls-25,.cls-28,.cls-29,.cls-33,.cls-36,.cls-38,.cls-39,.cls-45,.cls-48,.cls-5,.cls-51,.cls-55,.cls-57,.cls-58,.cls-7,.cls-8,.cls-9{mix-blend-mode:multiply;}.cls-23,.cls-24,.cls-28,.cls-5{opacity:0.3;}.cls-6,.cls-7{fill:#f2f2f2;}.cls-41,.cls-9{fill:#e5e5e5;}.cls-10{fill:#e50702;}.cls-11{fill:#8c0000;}.cls-11,.cls-12,.cls-17,.cls-25,.cls-29,.cls-33,.cls-48{opacity:0.5;}.cls-12,.cls-20,.cls-22,.cls-23{fill:#a30000;}.cls-13,.cls-16,.cls-17{fill:#ffe4dc;}.cls-14{fill:#f4c0b5;}.cls-15{fill:#e5cecd;}.cls-18{fill:#b00702;}.cls-19{fill:#ebe5c9;}.cls-19,.cls-53{mix-blend-mode:screen;}.cls-19,.cls-36{opacity:0.8;}.cls-20,.cls-45{opacity:0.4;}.cls-21{fill:#c90702;}.cls-25{fill:#dee6ec;}.cls-26,.cls-28,.cls-29{fill:#ff9100;}.cls-27{fill:#ff6a00;}.cls-30{fill:#4b1e0a;}.cls-31{fill:#2b1a14;}.cls-32{fill:#fff;}.cls-33,.cls-35,.cls-36,.cls-53{fill:#444142;}.cls-34{fill:#353334;}.cls-37{fill:#feee03;}.cls-38{fill:#fcde06;}.cls-39{fill:#feb303;}.cls-40{fill:#f7f7f7;}.cls-42{fill:#bababa;}.cls-43{clip-path:url(#clip-path);}.cls-44{fill:#f7941e;}.cls-46{fill:#090;}.cls-47{fill:#007500;}.cls-49{fill:#ed0000;}.cls-50{fill:#af0000;}.cls-51{fill:#d60000;}.cls-52{fill:#211f20;}.cls-54,.cls-55{fill:#efefef;}.cls-56,.cls-58{fill:#ededed;}.cls-57{fill:#e0e0e0;}.cls-59{fill:#f0f0f0;}</style><clipPath id="clip-path"><path class="cls-1" d="M141.77,90.75c-9.14-.69-27.53-5.36-32.45-5-7.6.64-7,5.29-7,5.58,1,.73,2.71,1,4.12,5.72,1.39,1.05,2.35,1.64,12.74,1.28,15.61-.55,30.64-2.42,33.09-3.64S150.9,91.44,141.77,90.75Z"/></clipPath></defs><g class="cls-2"><g id="Layer_2" data-name="Layer 2"><g id="snowmen"><path class="cls-3" d="M188.48,84.73a.24.24,0,0,0-.24-.06,1.59,1.59,0,0,0-.46.32h0a1.8,1.8,0,0,0-.19.2c-2,1.42-4.17,2.63-6.07,4.22-1,.83-1.85,1.79-2.85,2.61s-2.11,1.78-3.12,2.73c-2,1.88-3.91,3.93-5.75,6s-3.6,4-5.2,6.21c-1.19,1.6-2.44,3.23-3.51,4.94a24.51,24.51,0,0,1-3,1.2c-1.86.59-3.74,1.09-5.61,1.63a.25.25,0,0,0-.18.25,13.36,13.36,0,0,0,.31,2.16c.29.69,1.21.29,1.79.21,1.36-.17,2.79-.37,4.19-.63a49.3,49.3,0,0,0-2.05,4.91,71.29,71.29,0,0,0-2.22,8.13c-.24,1.12-.38,2.25-.64,3.36-.17.72,3.18,2.44,3.18,2.25a14.54,14.54,0,0,1,.6-3.06c.27-1.11.7-2.2,1.06-3.28.8-2.36,1.52-4.71,2.49-7l.45-1v.72c0,1.55.24,7,1.21,7,.51,0,1,0,1.53-.06s.35-.59.38-.85a38.72,38.72,0,0,0,.07-4.57c0-1.75-.12-3.5-.11-5.25,0-1,0-2.09.06-3.13.95-1.61,2-3.13,3-4.68a83.88,83.88,0,0,1,8.83-10.36,52,52,0,0,1,10.28-8.38.26.26,0,0,0,.24.08c.28,0,.43-.29.54-.56l.13-.08a.26.26,0,0,0,0-.43c.19-.67.27-1.45.39-2.13a19.25,19.25,0,0,1,.51-2.62C188.69,85.4,188.76,85,188.48,84.73Z"/><path class="cls-4" d="M156.84,135.58a8.68,8.68,0,0,1-3.14-1.91.68.68,0,0,1-.21-.58c.14-.59.25-1.21.35-1.8s.18-1,.29-1.56a71.15,71.15,0,0,1,2.23-8.15,46,46,0,0,1,1.9-4.61c-1.3.24-2.61.41-3.85.57l-.38.08a4,4,0,0,1-.69.11.85.85,0,0,1-.91-.51,11.52,11.52,0,0,1-.32-2.18v0a.44.44,0,0,1,.31-.44l1.89-.53c1.22-.35,2.49-.7,3.72-1.09a24.15,24.15,0,0,0,2.94-1.17c.91-1.45,1.95-2.85,3-4.21l.52-.7c1.61-2.17,3.44-4.23,5.21-6.22s3.63-4,5.76-6c1-1,2.08-1.87,3.13-2.74.51-.41,1-.88,1.46-1.33s.91-.87,1.39-1.27a39.67,39.67,0,0,1,3.85-2.73c.73-.48,1.5-1,2.22-1.49l.18-.19a1.86,1.86,0,0,1,.52-.37.47.47,0,0,1,.42.08c.29.24.35.65.18,1.21a13.66,13.66,0,0,0-.42,2l-.09.57-.09.57a14.51,14.51,0,0,1-.28,1.49.44.44,0,0,1,.08.29.42.42,0,0,1-.21.33l-.09.06a.88.88,0,0,1-.65.61.48.48,0,0,1-.27,0A51.47,51.47,0,0,0,176.6,100l-.24.25a82.67,82.67,0,0,0-8.56,10.09l-.38.56c-.94,1.37-1.82,2.68-2.65,4.07-.06.93-.06,1.88-.06,2.79V118c0,.88,0,1.78,0,2.64s.06,1.74.06,2.61c0,.43,0,.87,0,1.31a22.39,22.39,0,0,1-.09,3.28s0,.08,0,.13c0,.3-.06.84-.54.88-.31,0-.62,0-.94,0h-.59a.49.49,0,0,1-.36-.15c-.91-.87-1-6-1-6.89a1.47,1.47,0,0,0-.1.22c-.75,1.77-1.36,3.62-2,5.41-.17.53-.35,1-.52,1.58-.09.26-.19.53-.28.8a24.37,24.37,0,0,0-.78,2.47c0,.22-.11.44-.17.66a9.38,9.38,0,0,0-.42,2.35v.18Zm2.06-19.1-.16.32a45.32,45.32,0,0,0-2,4.9,68.47,68.47,0,0,0-2.22,8.11c-.11.51-.2,1-.29,1.54s-.21,1.22-.35,1.83c0,0,0,.09.08.19a8.67,8.67,0,0,0,2.75,1.79,10.13,10.13,0,0,1,.43-2.22c0-.22.12-.44.16-.66.21-.84.51-1.69.79-2.5.1-.27.19-.53.28-.8.18-.52.35-1,.53-1.58.59-1.79,1.21-3.65,2-5.44.11-.27.23-.53.35-.8l.44-1v1.59c0,1.84.26,6.11.93,6.75.05.05.08.05.09.05h.61l.91,0c.14,0,.18-.21.21-.54v-.16a21.54,21.54,0,0,0,.09-3.22c0-.45,0-.89,0-1.32,0-.87,0-1.75-.06-2.6s-.06-1.76-.06-2.65v-.29c0-.93,0-1.9.06-2.86v0l0,0c.83-1.42,1.77-2.8,2.68-4.13l.37-.55A82.06,82.06,0,0,1,176.1,100l.23-.25a52.17,52.17,0,0,1,10.33-8.4l.13-.08.1.11a.06.06,0,0,0,.05,0c.18,0,.31-.17.42-.44l0-.06.19-.12s0,0,0,0a.15.15,0,0,0,0-.08l-.09-.07,0-.12a11.84,11.84,0,0,0,.3-1.53,5.4,5.4,0,0,1,.09-.58l.09-.57a13.6,13.6,0,0,1,.43-2.07c.07-.23.15-.64-.06-.81l-.06,0a1.3,1.3,0,0,0-.39.29l-.18.19,0,0c-.74.52-1.51,1-2.25,1.5a37.12,37.12,0,0,0-3.81,2.71c-.48.39-.93.83-1.37,1.25s-1,.93-1.48,1.36c-1,.85-2.1,1.77-3.12,2.72-2.12,2-4.09,4.14-5.74,6s-3.59,4-5.19,6.2l-.52.7c-1,1.36-2.06,2.77-3,4.23l0,0-.05,0a25.74,25.74,0,0,1-3,1.21c-1.24.39-2.51.75-3.73,1.09l-1.89.53a.09.09,0,0,0-.05.06v0a9.45,9.45,0,0,0,.3,2.07c.09.21.25.3.55.29a3.62,3.62,0,0,0,.63-.11l.42-.08c1.34-.17,2.77-.36,4.17-.63Z"/><path class="cls-4" d="M164.58,110.16a34.65,34.65,0,0,0-6.09,9.79c-.73,2-1.55,3.88-2.17,5.89a56.71,56.71,0,0,0-1.47,6.67c0,.08.11.12.13,0,.46-2,.84-4,1.4-6a56.81,56.81,0,0,1,2-5.65,42.07,42.07,0,0,1,6.28-10.63C164.76,110.19,164.65,110.08,164.58,110.16Z"/><path class="cls-4" d="M165.21,109.22c-.23,0-.23.37,0,.36A.18.18,0,1,0,165.21,109.22Z"/><path class="cls-4" d="M165.91,108.4a.19.19,0,0,0,0,.37C166.15,108.76,166.14,108.39,165.91,108.4Z"/><path class="cls-4" d="M167.78,106.52a0,0,0,1,0,0,.09C167.84,106.61,167.84,106.51,167.78,106.52Z"/><path class="cls-4" d="M164.56,115a29.85,29.85,0,0,0-.66,5.41c-.06,1-.12,2-.16,3.06s.07,2.29-.07,3.39c0,0,.07.07.08,0,.23-1.78.16-3.65.27-5.44a54.94,54.94,0,0,1,.71-6.4C164.75,114.94,164.58,114.89,164.56,115Z"/><path class="cls-4" d="M171.32,103.61a80.26,80.26,0,0,0-6.5,8.12,12,12,0,0,0-1.86,4,18.19,18.19,0,0,0-.46,5,.06.06,0,0,0,.11,0,24.36,24.36,0,0,1,.67-5,12.56,12.56,0,0,1,2-4.19c.94-1.46,2.05-2.77,3.1-4.15s2.14-2.42,3-3.75C171.53,103.64,171.38,103.54,171.32,103.61Z"/><path class="cls-4" d="M158,113.59c-1.29.45-2.51,1-3.77,1.56-.12,0-.07.25,0,.2,1.28-.48,2.54-1,3.79-1.53C158.24,113.76,158.19,113.54,158,113.59Z"/><path class="cls-4" d="M157.79,114.84a10,10,0,0,1-2.2.68c-.14,0-.14.23,0,.22a6.16,6.16,0,0,0,2.28-.73C158,115,157.89,114.8,157.79,114.84Z"/><path class="cls-4" d="M183.43,89.68a50,50,0,0,0-4.61,3.15,49.67,49.67,0,0,0-4.24,4c-2.91,2.91-5.39,6.28-8.08,9.39-.06.07,0,.18.1.11,2.61-2.9,5-6,7.74-8.78,1.36-1.37,2.79-2.67,4.21-4a57.7,57.7,0,0,1,5-3.62A.15.15,0,0,0,183.43,89.68Z"/><path class="cls-4" d="M186.51,88.94a82.09,82.09,0,0,0-7.83,6.18,88.34,88.34,0,0,0-6.8,7c-.07.08,0,.19.11.11,2.17-2.31,4.27-4.59,6.66-6.68,2.57-2.25,5.28-4.32,8-6.36C186.82,89.09,186.67,88.83,186.51,88.94Z"/><path class="cls-4" d="M190.14,89.61a62,62,0,0,0-14.06,10.44c-.05,0,0,.12.07.07a80.55,80.55,0,0,1,14.12-10.28A.13.13,0,0,0,190.14,89.61Z"/><path class="cls-5" d="M154.39,117.36c1.17-.15,2.38-.31,3.58-.53a7.3,7.3,0,0,0,1.95-1.47,1.53,1.53,0,0,0-1-.2,5.36,5.36,0,0,0-1.17.22c-1,.3-2,.6-3.07.83l-1.67.37-.46.18a2.36,2.36,0,0,0,.1.39C152.89,117.84,153.81,117.44,154.39,117.36Z"/><path class="cls-5" d="M188.48,84.73a.24.24,0,0,0-.24-.06,1.59,1.59,0,0,0-.46.32h0a1.8,1.8,0,0,0-.19.2c-2,1.42-4.17,2.63-6.07,4.22l-.8.71c-1.26,3.72-4.57,5.86-7.39,8.52a55.7,55.7,0,0,0-9.05,10.91,85,85,0,0,0-6.38,12.5,42.66,42.66,0,0,0-3.28,12.16,7.18,7.18,0,0,0,2.23,1.16,14.54,14.54,0,0,1,.6-3.06c.27-1.11.7-2.2,1.06-3.28.8-2.36,1.52-4.71,2.49-7l.45-1v.72c0,1.55.24,7,1.21,7h.16a46.9,46.9,0,0,0,0-4.89,29.3,29.3,0,0,1,0-6.21,5.09,5.09,0,0,1,1.79-2.8c.94-1.59,2-3.09,3-4.63a83.88,83.88,0,0,1,8.83-10.36,52,52,0,0,1,10.28-8.38.26.26,0,0,0,.24.08c.28,0,.43-.29.54-.56l.13-.08a.26.26,0,0,0,0-.43c.19-.67.27-1.45.39-2.13a19.25,19.25,0,0,1,.51-2.62C188.69,85.4,188.76,85,188.48,84.73Z"/><path class="cls-6" d="M278.83,174.33c-.55-.44-1.13-.18-1.69.1a6.38,6.38,0,0,0-.63.12,1.69,1.69,0,0,0-.78.56,1.36,1.36,0,0,0,0,1.17c.12.64,1.59.68,2.07.66.65,0,1.7.08,1.91-.71A2.14,2.14,0,0,0,278.83,174.33Z"/><path class="cls-6" d="M260,150.58c-.81-6.7-2.83-13.48-7.75-18.2-7.54-7.26-20.8-.36-29.67-.07-29.84,1-26.8-9.25-39.3-3.6-5.62,2.54-12.65,15.08-14,23.52-1.14,7.32-1.56,17.23,3,23.48,8.61,11.77,28,11.22,40.68,11.1,13.88-.12,28.65-1.27,40.71-9,3.12-2,6.27-8.11,6.91-11.79s0-7.77-.27-11.49C260.26,153.21,260.15,151.89,260,150.58Z"/><path class="cls-7" d="M174.81,150.67c2.48-2.53,5.24-5.37,8.39-7.07a10.3,10.3,0,0,1,9.21-.33c1.82.76,3.52,1.78,5.32,2.56a33.53,33.53,0,0,0,6.47,2c2.25.48,4.53.79,6.77,1.31,2.05.47,4.09,1,6.14,1.51,4.17,1,8.59,1.75,12.79.43a21.16,21.16,0,0,0,8.63-5.67c3.51-3.52,7.53-8.31,13.06-7.77a10.21,10.21,0,0,1,5.82,2.48,22.51,22.51,0,0,0-5.17-7.78c-7.54-7.26-20.8-.36-29.67-.07-29.84,1-26.8-9.25-39.3-3.6-5.62,2.54-12.65,15.08-14,23.52-.28,1.83-.52,3.81-.65,5.86A58.16,58.16,0,0,1,174.81,150.67Z"/><path class="cls-7" d="M186.1,130.4a31.26,31.26,0,0,1,4.29,3.2c1.52,1.47,2.74,2.76,4.92,3.19a7.89,7.89,0,0,1,4.1,2.08,6.58,6.58,0,0,0,5.58,1.64,9,9,0,0,1,4.28.24,18.34,18.34,0,0,0,5,1.34,39.51,39.51,0,0,0,6,.23,27.39,27.39,0,0,0,5.93-.54,45.64,45.64,0,0,1,5.54-1.11,19.26,19.26,0,0,0,6.59-2.38c3.41-1.8,6.28-3.72,8.43-7,.34-.51.65-1,1-1.57-7.61-2.32-17.82,2.35-25.1,2.59-29.84,1-26.8-9.25-39.3-3.6-.26.12-.52.27-.79.42A6.43,6.43,0,0,1,186.1,130.4Z"/><path class="cls-7" d="M257.36,165a11,11,0,0,0-3.08,3.23,5.2,5.2,0,0,1-2,1.84c-2.34,1.15-4.68,2.31-6.35,4.41-1.42,1.79-1.82,4.14-3.8,5.48a12.67,12.67,0,0,1-5.18,1.93c-1.83.28-3.67.2-5.51.43-2.1.27-4.16.76-6.24,1.2-1.31.28-2.93.86-4.26.34-1.1-.44-1.79-1.37-2.77-2-2-1.25-4-.26-5.8,1-1,.71-1.9,1.79-3.21,1.7a6.47,6.47,0,0,1-2.12-.75,19.48,19.48,0,0,0-2.86-.93,18.28,18.28,0,0,1-2.08-.58,23.72,23.72,0,0,0-2.77-1.37c-1.49-.33-3.36.23-4.66-.82a6.78,6.78,0,0,1-1.89-2.92c-1.21-3.12-2.78-6.72-6.83-6.11a12.89,12.89,0,0,0-6,2.6c-.86.69-2.07,1.92-3.27,1.92a2.72,2.72,0,0,1-1.67-.55c-1.06-.69-1.73-1.15-3.14-.75l-.44.13a12.8,12.8,0,0,0,.82,1.25c8.61,11.77,28,11.22,40.68,11.1,13.88-.12,28.65-1.27,40.71-9,3.12-2,6.27-8.11,6.91-11.79a31,31,0,0,0,0-7.71C260.43,160.94,259.66,163.46,257.36,165Z"/><path class="cls-6" d="M281.43,176.46c-1.24-.22-2.49-.2-3.72-.49a28.49,28.49,0,0,0-4-.81c-1.4-.13-2.83-.15-4.25-.24-.27-.14-.53-.27-.78-.38a36.07,36.07,0,0,0-7.81-2.42c-2.59-.55-4.14.69-6,2.38-.94.88-1.77,1.88-2.69,2.79a15.67,15.67,0,0,1-5.09,2.89c-1.25.52-2.88.18-4.22.64s-2.72,1.31-4.2,1.76c-3.57,1.08-7.37.38-11,1.19-4.84,1.07-9.82,2.88-14.86,2.4-.53,0-1.06-.12-1.58-.19-.35-.09-.7-.19-1.05-.31-3-1-5.94-2.25-9.1-2.62a12.88,12.88,0,0,0-4.38.78c-2,.5-3.39-.89-5.3-1-.86,0-1.68.1-2.54.12a8.53,8.53,0,0,1-2.59-.79,13.11,13.11,0,0,0-2.58-.73c-.92-.44-1.81-.9-2.65-1.39a29.73,29.73,0,0,0-6.48-2.86,13.62,13.62,0,0,0-3.26-.18,23.06,23.06,0,0,1-6.08,1c-2.41.07-4.79.07-7,1.21a15.48,15.48,0,0,0-2.16,1.37,12.55,12.55,0,0,0-1.38,2c-.76,1.33-1.06,2.59.06,3.77,1.34,1.42,4.11,1.85,5.92,2a24.15,24.15,0,0,0,6.62-.56c1.5-.31,3.66-.37,4.92.67.59.48.69,1.69,1.3,2.31,1.11,1.15,3.21,1.5,4.71,1.66,3,.32,5.72-.2,8.57,1.19,9.47,4.66,19.83,1.53,29.86,2.33a35.45,35.45,0,0,0,7.19-.6c2.34-.3,4.7-.45,7.06-.55,2.62-.1,5.22-.52,7.84-.69a14.37,14.37,0,0,0,3.12-.88,19.53,19.53,0,0,1,4.81-.75,11.38,11.38,0,0,0,2.82-.62,8.12,8.12,0,0,0,2.69-.89c.89-.67,2.43-2.2,1.63-3.42-1-1.5,1.6-1.54,2.42-1.58,1.11-.05,2.18-.16,3.29-.14a54.3,54.3,0,0,0,7.64-.53,31.77,31.77,0,0,0,6.75-1.81,41.36,41.36,0,0,0,7.1-3.07c.8-.48,3.43-1.49,3.21-2.81C284,176,282.62,176.68,281.43,176.46Z"/><path class="cls-7" d="M171.23,178.48c.06-1.21-2-1-4.2-.4a.06.06,0,0,1,0,0c-.67.81-3.63,4.94-.69,4.76a21,21,0,0,0,4.56-1l.84-.3-.16,0c-.37,0-.24-.6.13-.55a2.4,2.4,0,0,1,1,.31c.51-.12,1-.14,1.2.08a1.53,1.53,0,0,1,.36.95,11.68,11.68,0,0,1,2.25-4.5c-.61-.24-1.23-.45-1.85-.63a13.62,13.62,0,0,0-3.26-.18l-.41.12a1.2,1.2,0,0,1,.84,1.29C171.79,178.82,171.22,178.84,171.23,178.48Z"/><path class="cls-7" d="M201.15,183.05a12.88,12.88,0,0,0-4.38.78c-2,.5-3.39-.89-5.3-1-.86,0-1.68.1-2.54.12a8.53,8.53,0,0,1-2.59-.79,13.11,13.11,0,0,0-2.58-.73c-.92-.44-1.81-.9-2.65-1.39a34.54,34.54,0,0,0-4.09-2,9.4,9.4,0,0,0-1.09,1.6,20,20,0,0,0-1.54,4.23A4.88,4.88,0,0,1,176,185a1.62,1.62,0,0,1,.26,1.68,1.43,1.43,0,0,0,.21.12c1.23.59,2.15.3,3.4,0a2.4,2.4,0,0,1,1.22-.05c.74.16,1.2.92,2,1a9.1,9.1,0,0,0,3.47-.41c1.43-.4,2.84-.89,4.28-1.27a2.52,2.52,0,0,1,1.07-.43c1.48-.16,2.63,1.15,4.17.48,1.3-.58,2.24-1.73,3.55-2.27a5.94,5.94,0,0,1,3.85-.38c.32.08.62.14.92.2A21.18,21.18,0,0,0,201.15,183.05Z"/><path class="cls-7" d="M283.21,176.52a1.76,1.76,0,0,1-.73,1.63,15.17,15.17,0,0,1-3,1.8,16.7,16.7,0,0,1-4.54,1.39,26.08,26.08,0,0,0-5.63,1.54,14.46,14.46,0,0,1-4,1.28,37,37,0,0,1-5.47-.13,45.3,45.3,0,0,1-4.94-.43c-1.21-.19-2.41-.42-3.63-.49-1-.06-3-.29-3.65.65-.83,1.13,3.2,2.39,3.73,3.33.91,1.6-.53,3-1.94,3.64a22,22,0,0,1-7.51,1.33c-1.79.09-3.57-.33-5.36-.22s-3.75.82-5.66.92c-4.3.2-8.53.68-12.81,1.14s-8.54-.18-12.83-.46c-4-.26-8.25-.3-12.11-1.59-2.1-.71-4.41-.54-6.59-.57a31.37,31.37,0,0,1-7.3-.61c-1.58-.4-3.24-1.1-3.78-2.78-.17-.54.24-.94.29-1.44.17-1.36-1.59-2.18-2.64-2.4-2-.41-3.47,1.08-5.31,1.41a14.27,14.27,0,0,1-6.78-.23c-1.48-.49-3.83-2-2.9-4a3.46,3.46,0,0,1,2.38-1.61c1.56-.48,3.08-1.07,4.62-1.62-2.37.06-4.71.08-6.87,1.2a15.48,15.48,0,0,0-2.16,1.37,12.55,12.55,0,0,0-1.38,2c-.76,1.33-1.06,2.59.06,3.77,1.34,1.42,4.11,1.85,5.92,2a24.15,24.15,0,0,0,6.62-.56c1.5-.31,3.66-.37,4.92.67.59.48.69,1.69,1.3,2.31,1.11,1.15,3.21,1.5,4.71,1.66,3,.32,5.72-.2,8.57,1.19,9.47,4.66,19.83,1.53,29.86,2.33a35.45,35.45,0,0,0,7.19-.6c2.34-.3,4.7-.45,7.06-.55,2.62-.1,5.22-.52,7.84-.69a14.37,14.37,0,0,0,3.12-.88,19.53,19.53,0,0,1,4.81-.75,11.38,11.38,0,0,0,2.82-.62,8.12,8.12,0,0,0,2.69-.89c.89-.67,2.43-2.2,1.63-3.42-1-1.5,1.6-1.54,2.42-1.58,1.11-.05,2.18-.16,3.29-.14a54.3,54.3,0,0,0,7.64-.53,31.77,31.77,0,0,0,6.75-1.81,41.36,41.36,0,0,0,7.1-3.07c.8-.48,3.43-1.49,3.21-2.81A1.1,1.1,0,0,0,283.21,176.52Z"/><path class="cls-7" d="M225.36,194.8c-2.17-.05-4.23.4-6.38.48a61.62,61.62,0,0,1-6.79-.47,43.17,43.17,0,0,0-6.53.15,33.1,33.1,0,0,1-12.92-1,34.37,34.37,0,0,0-6.56-1.54c-1.91-.22-3.84-.19-5.76-.34-2.93-.23-5.87-1.33-7-4.27-.47-1.17-.86-2.36-2.44-1.89-.71.21-1.4.46-2.13.61-1.9.37-3.87.54-5.8.75a15.4,15.4,0,0,1-2.47.05,7.91,7.91,0,0,1-4.9-.31,12,12,0,0,0,5.1,1.32,24.15,24.15,0,0,0,6.62-.56c1.5-.31,3.66-.37,4.92.67.59.48.69,1.69,1.3,2.31,1.11,1.15,3.21,1.5,4.71,1.66,3,.32,5.72-.2,8.57,1.19,9.47,4.66,19.83,1.53,29.86,2.33a35.45,35.45,0,0,0,7.19-.6c1.35-.18,2.71-.3,4.08-.39C227.11,194.88,226.24,194.83,225.36,194.8Z"/><path class="cls-7" d="M273.27,183.12a32,32,0,0,1-6.86,1.61c-2.47.21-5,.21-7.43.28a15.84,15.84,0,0,1-3.3-.07c-1.08-.21-2.09-.66-3.17-.88l-.13,0a2.63,2.63,0,0,0-1.13.31c-.95.62.64,1.75,1,2.29a2.88,2.88,0,0,1,.66,2c-.42,2.06-2.52,2.61-4.27,3.08-.83.23-1.66.49-2.47.76l.57,0a11.38,11.38,0,0,0,2.82-.62,8.12,8.12,0,0,0,2.69-.89c.89-.67,2.43-2.2,1.63-3.42-1-1.5,1.6-1.54,2.42-1.58,1.11-.05,2.18-.16,3.29-.14a54.3,54.3,0,0,0,7.64-.53,31.77,31.77,0,0,0,6.75-1.81,57.29,57.29,0,0,0,5.47-2.2C277.42,182,275.31,182.48,273.27,183.12Z"/><g class="cls-8"><path class="cls-6" d="M279.43,175.66c-.55-.43-1.13-.17-1.69.1-.21,0-.42.08-.62.12,0-.09,0-.18,0-.29-.27-1.52-1.94-3-3.2-3.83-1.95-1.24-3.36.48-4.62,1.81-.81.85-1.79,1.57-.59,2.54a5.86,5.86,0,0,0,2.17.72,22.28,22.28,0,0,0,3.62.71,5.77,5.77,0,0,0,1.81,0,.3.3,0,0,0,0,.1c.12.63,1.6.68,2.07.65.65,0,1.7.09,1.91-.7A2.16,2.16,0,0,0,279.43,175.66Z"/><path class="cls-6" d="M259.82,168.61a5.35,5.35,0,0,0-3.75,1.53,3.5,3.5,0,0,0-1.38,2.42,4.07,4.07,0,0,0-.49.05,8.38,8.38,0,0,0-3.81,1.28c-2.32,1.42-9,8.21-3.62,10a10.92,10.92,0,0,0,7.48-.59c1.71-.65,4.26-1.16,5-3.2a5,5,0,0,0,0-3.37,1.85,1.85,0,0,0,.92.36,5.91,5.91,0,0,0,4-2c1.17-1.2-.27-2.57-.91-3.58S261.23,168.75,259.82,168.61Z"/></g><path class="cls-6" d="M234.06,187.88a2.16,2.16,0,0,0-2.05-1.51,2.42,2.42,0,0,0-.68.16,2.63,2.63,0,0,0-2,1.1c-.43.57-1.3,1.88-1.06,2.65.3,1,1.54,1.14,2.41,1.19a4,4,0,0,0,2.77-1.17A2,2,0,0,0,234.06,187.88Z"/><path class="cls-6" d="M216.76,183.51c-.71-1.18-1.78-1.66-2.92-.77a4.72,4.72,0,0,0-1.77,2.32,1.22,1.22,0,0,0-.31.84.53.53,0,0,0,.37.49,2,2,0,0,0,.74,0,2.3,2.3,0,0,0,.7,0,19,19,0,0,0,2-.16,1.67,1.67,0,0,0,.84-.37C217.35,185.51,217.27,184.35,216.76,183.51Z"/><path class="cls-6" d="M199,182.65c-.59-.84-2.15-1.3-3.05-1.68a2.34,2.34,0,0,0-1.47-.17,3.59,3.59,0,0,0-2.06.94,1.28,1.28,0,0,0-.38,1.84c.49,1.08,2,1.49,3,1.63S200,184.15,199,182.65Z"/><path class="cls-6" d="M189.3,176.46a8,8,0,0,0-5.41-3.09c-2.88-.29-4.72,1.18-6.84,2.84a.19.19,0,0,0-.07.15,7.67,7.67,0,0,0-2.45,3.28c-.58,1.33-1.81,4.65-.49,5.94a3.11,3.11,0,0,0,1.92.58,10.45,10.45,0,0,0,4.35,0c1.3-.46,2.34.27,3.52.78s2.34,0,3.45-.22c2.11-.44,3.74-1.8,3.8-4A9.77,9.77,0,0,0,189.3,176.46Z"/><path class="cls-6" d="M163.51,176.47a2.22,2.22,0,0,0-1-.8c-.6-.14-1,.2-1.47.53a5,5,0,0,0-1.7,2.67.21.21,0,0,0,.17.29.5.5,0,0,0,.45.28,16.81,16.81,0,0,0,1.85-.19,2.55,2.55,0,0,0,1.66-.5c.33-.35.73-.59.74-1.12S163.76,176.78,163.51,176.47Z"/><path class="cls-6" d="M174.44,177c-1.24-2.14-3.66-2-5.52-.86-1.4.88-3.87,3.84-2.95,5.59a.55.55,0,0,0,.47.27,7.69,7.69,0,0,0,2.28-.48c.5,0,1,0,1.5,0,1,0,2.54.15,3.43-.32C175.42,180.31,175.33,178.58,174.44,177Z"/><path class="cls-6" d="M276.55,174.67a.24.24,0,0,0,0-.08c0-.11,0-.22,0-.34-.27-1.52-1.94-3-3.2-3.83-1.95-1.23-3.36.48-4.62,1.81-.81.86-1.79,1.57-.59,2.54a5.86,5.86,0,0,0,2.17.72,22.28,22.28,0,0,0,3.62.71C275.14,176.34,276.92,176.43,276.55,174.67Z"/><path class="cls-6" d="M262.67,170.14c-.7-1.1-2-2.73-3.45-2.87a5.36,5.36,0,0,0-3.75,1.54,3.54,3.54,0,0,0-1.27,3.82c.3,1.3,1.83,1.44,3,1.62l.38.26c.53.37,1.23,1.19,2,1.21a5.9,5.9,0,0,0,4-2C264.75,172.53,263.31,171.15,262.67,170.14Z"/><path class="cls-6" d="M256.89,172.54a3.36,3.36,0,0,0-3.29-1.27,8.63,8.63,0,0,0-3.81,1.28c-2.32,1.42-9,8.21-3.62,10a11,11,0,0,0,7.48-.59c1.71-.65,4.26-1.17,5-3.2C259.42,176.35,258.51,174.41,256.89,172.54Z"/><path class="cls-6" d="M255.4,95.47c-1-6.39-3.25-12.55-7.68-17.44a27.58,27.58,0,0,0-5.56-4.66C240,72,237,72.06,234.5,71.92c-3.12-.16-6.21-.23-9.3-.67a53.83,53.83,0,0,0-9.3-.73,65.93,65.93,0,0,0-10.61,1.34c-4.2.84-9.12,3.58-12.57,6.06a29,29,0,0,0-8.6,10.14c-6.75,12.73-8.51,33.66,4.39,43.28a46.32,46.32,0,0,0,14.56,7,49.48,49.48,0,0,0,12.23,1.57c9.43.22,20.75-.18,28.82-5.65,6.92-4.69,9.93-12.62,11-20.6A61.22,61.22,0,0,0,255.4,95.47Z"/><path class="cls-9" d="M242.16,73.37C240,72,237,72.06,234.5,71.92c-3.12-.16-6.21-.23-9.3-.67a53.83,53.83,0,0,0-9.3-.73,65.93,65.93,0,0,0-10.61,1.34,32.14,32.14,0,0,0-9.79,4.22c2.28,3.25,6.83,4.5,10.51,5.27,2.24.46,5.51.52,6.46,3.07,1.37,3.7.7,8.15.34,12-.42,4.42-.7,8.9-.81,13.35-.09,3.23-.18,6.83,1.44,9.76a8.54,8.54,0,0,0,6.49,4.37,25,25,0,0,0,5.92-.27,7.44,7.44,0,0,1,4.35,1c1.83,1,3.87,1.92,6,1.63a7.1,7.1,0,0,0,2.91-1,.22.22,0,0,1,.23-.14,10.72,10.72,0,0,0,2.16-2,.35.35,0,0,1,.1-.08A.3.3,0,0,1,242,123c.19.09.38.16.57.23a7.54,7.54,0,0,0,.94-2.05c.65-2.63-.82-5.17-1.46-7.66-1.27-5-1.41-10.28-2-15.39-.32-2.76-.63-5.52-.77-8.3-.26-5,1.66-9.21,6-11.76.54-.31,1-.63,1.51-1A28,28,0,0,0,242.16,73.37Z"/><path class="cls-9" d="M231.11,76.7c-3.2.09-6.34-.19-9.54-.23-2.73,0-5.51.08-8.25.14s-5.4.29-8.09.4c-1.44.06-2.89.13-4.34.1-.18,0-.48,0-.75,0a21.1,21.1,0,0,0,6.48,3.08c1.94.43,4.51.41,6.21,1.52,2.84,1.85,2.62,5.51,3.51,8.42a9.61,9.61,0,0,0,3.13,5,13.15,13.15,0,0,0,7.14,2.46,15.29,15.29,0,0,0,7.21-1.07c.74-.34,1.54-.62,2.31-.94.33-4,.59-8,1.93-11.76a9.18,9.18,0,0,1,2.84-4.46,16.3,16.3,0,0,1,4.63-2.3l-.4,0a40.64,40.64,0,0,0-5-.43C237.09,76.61,234.1,76.62,231.11,76.7Z"/><path class="cls-9" d="M237.22,136.63c-4.11.72-8.35.21-12.47.05a37.69,37.69,0,0,0-6.8.18c-2,.28-3.92.71-5.9.9a18.68,18.68,0,0,1-5.41-.25c-4.2,0-8.6-2.86-12.09-4.61a36,36,0,0,1-8.34-5.16,26.45,26.45,0,0,1-4.94-5.83,22.21,22.21,0,0,0,7.24,9.43,46.32,46.32,0,0,0,14.56,7,49.48,49.48,0,0,0,12.23,1.57c9.43.22,20.75-.18,28.82-5.65a20.9,20.9,0,0,0,2.08-1.61A21.23,21.23,0,0,1,237.22,136.63Z"/><path class="cls-6" d="M250.82,31.78c-5.47-12.13-18-17.69-30.83-16.55a41.19,41.19,0,0,0-9.94,2.07c-9.54,3.38-19.29,11.16-22.08,21.3a23.11,23.11,0,0,0-.71,8.6,22.6,22.6,0,0,0,15.65,18.58,60.28,60.28,0,0,0,28.64,2,28.92,28.92,0,0,0,12.82-5.45c6.54-5.24,11.13-12.71,8.91-22.32A43.76,43.76,0,0,0,250.82,31.78Z"/><path class="cls-9" d="M253.28,40a43.76,43.76,0,0,0-2.46-8.19c-5.47-12.13-18-17.69-30.83-16.55a38.53,38.53,0,0,0-18.24,6.16c-.24.16,2.8,3.79,3.11,4.08a20.23,20.23,0,0,0,4.31,3,48.41,48.41,0,0,0,13.29,4.75c4.33.92,8.84,1,13.11,2.12A16,16,0,0,1,247.3,49.31a27.14,27.14,0,0,1,.07,6.24,14.16,14.16,0,0,1-2,5.9C251.37,56.26,255.39,49.08,253.28,40Z"/><path class="cls-9" d="M244,36.83c2.3,2.68,2.83,6.23,3.91,9.46a16.43,16.43,0,0,0,2.08,4.17c.21.31,2.09,2.46,2,2.74A19.59,19.59,0,0,0,253.28,40a43.76,43.76,0,0,0-2.46-8.19c-5.47-12.13-18-17.69-30.83-16.55a41.19,41.19,0,0,0-9.94,2.07,40.81,40.81,0,0,0-7,3.29c6.59,8.82,19.18,10.79,29.51,12.16,2.52.33,5.21.39,7.6,1.34A9.64,9.64,0,0,1,244,36.83Z"/><path class="cls-10" d="M262.76,14.16c-.15-.36-.32-.72-.5-1.06A15.35,15.35,0,0,0,259,8.63a15,15,0,0,0-9.24-3.05c-3.16-.08-6.29.31-9-1.64-2.39-1.72-4.89-3.36-7.88-3.79a23,23,0,0,0-10.16,1.29c-3,1-6.4,1.91-9,3.78a14.35,14.35,0,0,0-3.49,3.59,8,8,0,0,1-1.75,2.35,3,3,0,0,1-.36.17c-.48.18-1,.2-1.51.35s-1.25.75-1,1.41a3.43,3.43,0,0,0,1.82,1.85,36.83,36.83,0,0,0,6.29,2.79c3.55,1.28,6.72,3.37,10.14,4.91A26.16,26.16,0,0,0,235.36,25c1.11,0,2.24-.06,3.35-.15l.68.94a61.76,61.76,0,0,1,4.74,6.42c2.74,4.84,3.23,10.42,5.09,15.59.83,2.34,1.49,4.79,3.1,6.74A35.21,35.21,0,0,0,257.9,60c.36.28.54.71,1,.94a.27.27,0,0,0,.4-.24c0-1,.1-2,.07-3a27.44,27.44,0,0,0-.34-3.38,40.05,40.05,0,0,1-.33-11.67c.58-4,2.48-7.37,3.79-11.15a31.56,31.56,0,0,0,1.52-6.7A21.27,21.27,0,0,0,262.76,14.16Z"/><path class="cls-11" d="M249.33,11.09c-1.77-3.4-5.28-5.22-8.52-7-.06,0-.12.05-.07.09,1.32,1,2.75,1.92,4.16,2.83a17.17,17.17,0,0,1,4.32,4.14A.07.07,0,0,0,249.33,11.09Z"/><path class="cls-11" d="M239.51,25.71a23.24,23.24,0,0,0-3.14-3.36,14.45,14.45,0,0,1-2.12-2.16.07.07,0,0,0,0-.05,2.11,2.11,0,0,0-.61-.75c-.25-.33-.48-.67-.7-1a9.35,9.35,0,0,1-1.85-5,9.75,9.75,0,0,1,1.27-5.52c.05-.07-.06-.15-.12-.09-2.31,2.45-2,7.09-.38,9.8.24.39.49.76.75,1.12h0a9.22,9.22,0,0,1-2.34-1.88,14.84,14.84,0,0,1-1.64-2.36c-.51-.89-.79-2-1.37-2.8,0-.07-.15,0-.11.06a9.64,9.64,0,0,1,.46,1.5,12.22,12.22,0,0,0,.54,1.16A15.84,15.84,0,0,0,229.8,17c.93,1.28,2.34,1.85,3.56,2.72a52.73,52.73,0,0,0,6.08,6.06A0,0,0,0,0,239.51,25.71Z"/><path class="cls-12" d="M261.25,30.1c-1.85,3.9-3.66,8-4.08,12.34a26.54,26.54,0,0,0,.5,7.7,2.69,2.69,0,0,1-.79,2.81c-2.09,1.57-4.29-3.91-4.55-5.06-.93-4.12-.57-8.36-1-12.53a23.93,23.93,0,0,0-3.16-9c-2.11-3.29-5-5-8.32-6.91-2.56-1.48-5.37-3.13-6.78-5.85a5.4,5.4,0,0,1-.53-3.63c.38-1.24,1.63-2.88,1.41-4.18S230.43,8,230.12,8.51s-1.21,2.22-2.23,1.94c-.73-.19-1.4-1-1.94.12a7.48,7.48,0,0,1-.88,1.9c-1.71,1.93-4.52-1.37-5.85-2.29-1.58-1.09-3.8-2.43-3.7-4.64a3.37,3.37,0,0,1,1.15-2,16.4,16.4,0,0,0-3,1.67,14.35,14.35,0,0,0-3.49,3.59,8,8,0,0,1-1.75,2.35,3,3,0,0,1-.36.17c-.48.18-1,.2-1.51.35s-1.25.75-1,1.41a3.43,3.43,0,0,0,1.82,1.85,36.83,36.83,0,0,0,6.29,2.79c3.55,1.28,6.72,3.37,10.14,4.91A26.16,26.16,0,0,0,235.36,25c1.11,0,2.24-.06,3.35-.15l.68.94a61.76,61.76,0,0,1,4.74,6.42c2.74,4.84,3.23,10.42,5.09,15.59.83,2.34,1.49,4.79,3.1,6.74A35.21,35.21,0,0,0,257.9,60c.36.28.54.71,1,.94a.27.27,0,0,0,.4-.24c0-1,.1-2,.07-3a27.44,27.44,0,0,0-.34-3.38,40.05,40.05,0,0,1-.33-11.67c.58-4,2.48-7.37,3.79-11.15a31.56,31.56,0,0,0,1.52-6.7c.07-.65.13-1.3.16-1.94A40.51,40.51,0,0,1,261.25,30.1Z"/><path class="cls-12" d="M251.24,52a35.49,35.49,0,0,1-2.9-9.72c-.57-3.56-.87-7.23-2-10.67a15.86,15.86,0,0,0-6.58-8.48c-2.13-1.42-4.54-2.79-6.13-4.86a8.67,8.67,0,0,1-2.52-6.92,13.78,13.78,0,0,0-.87,4.19c0,.23-.27.49-.52.32a4.55,4.55,0,0,1-1.43-1.57,7.92,7.92,0,0,0,.87,2.27c.36.63,1.88,1.87,1.34,2.8-.79,1.36-3.29-.22-4.17-.72A36.22,36.22,0,0,1,222.41,16c-1.89-1.47-4.08-4.22-6.68-4.1s-5.4,1.07-7.45-.65l-.2.1c-.48.18-1,.2-1.51.35s-1.25.75-1,1.41a3.43,3.43,0,0,0,1.82,1.85,36.83,36.83,0,0,0,6.29,2.79c3.55,1.28,6.72,3.37,10.14,4.91A26.16,26.16,0,0,0,235.36,25c1.11,0,2.24-.06,3.35-.15l.68.94a61.76,61.76,0,0,1,4.74,6.42c2.74,4.84,3.23,10.42,5.09,15.59.83,2.34,1.49,4.79,3.1,6.74.3.36.6.71.92,1.06A28.75,28.75,0,0,1,251.24,52Z"/><path class="cls-13" d="M243.67,31.28a28.55,28.55,0,0,0-3.74-5,22.69,22.69,0,0,0-2.47-2.81,3.68,3.68,0,0,0-1.14-.82,1.24,1.24,0,0,0-.53,0,18.06,18.06,0,0,0-2.3-.17,16.6,16.6,0,0,1-4.85-1.21A42.83,42.83,0,0,1,221,16.66c-1.1-.75-2.08-1.65-3.18-2.4a10.54,10.54,0,0,0-4.11-1.85c-1-.18-2.12-.25-3.15-.53a11.15,11.15,0,0,1-2.93-1.46,3.06,3.06,0,0,0-3.6-.23,13.2,13.2,0,0,0-3.55,3.11,4,4,0,0,0-1.17,3.35,7.76,7.76,0,0,0,2.79,3.55,16.29,16.29,0,0,0,3.76,2.55,18.15,18.15,0,0,0,1.72.69c1.19.63,2.42,1.21,3.64,1.77a63,63,0,0,0,9.88,3.91,58.68,58.68,0,0,0,10.82,2.13c.91.07,1.81.23,2.71.31s2,.1,3,.21a35.28,35.28,0,0,0,5.44.05.62.62,0,0,0,.5-.18A.3.3,0,0,0,243.67,31.28Z"/><path class="cls-14" d="M222.91,18.6A14.33,14.33,0,0,1,219.29,16a15.51,15.51,0,0,0-3.16-2.79,7.12,7.12,0,0,0-3.5-.92,20.65,20.65,0,0,0-2.37.17,18.63,18.63,0,0,1-1.94.31,0,0,0,0,0,0,.06,3.33,3.33,0,0,0,1.44,0,20.08,20.08,0,0,1,2.33-.09,6.82,6.82,0,0,1,4.24,1.19,34.2,34.2,0,0,1,3.21,2.93,9.7,9.7,0,0,0,3.31,1.94C222.93,18.79,223,18.65,222.91,18.6Z"/><path class="cls-12" d="M251.73,14.36a13.79,13.79,0,0,0-.75-3.64,10.31,10.31,0,0,1-.71-2,2.63,2.63,0,0,1,1.23-2.92l.15-.06a18.27,18.27,0,0,0-1.93-.14c-2.31,0-4.6.13-6.73-.52a27.41,27.41,0,0,1,5.2,4.6,17,17,0,0,1,3.59,6.9A14.7,14.7,0,0,0,251.73,14.36Z"/><path class="cls-13" d="M262.1,60.55a3,3,0,0,0-3.05-1.26,2.67,2.67,0,0,0-2.19,2.38,3,3,0,0,0,1.85,3C261.15,65.63,263.24,62.71,262.1,60.55Z"/><path class="cls-15" d="M259.74,65.07h0a2.79,2.79,0,0,1-1.09-.19,3.17,3.17,0,0,1-2-3.21A2.81,2.81,0,0,1,259,59.12a1.93,1.93,0,0,1,.49-.08,3.27,3.27,0,0,1,2.77,1.42,3.18,3.18,0,0,1-.11,3.06A3,3,0,0,1,259.74,65.07Zm-.23-5.67a1.59,1.59,0,0,0-.4.07A2.52,2.52,0,0,0,257,61.68a2.86,2.86,0,0,0,1.74,2.86,2.22,2.22,0,0,0,.94.16h0a2.57,2.57,0,0,0,2.11-1.37,2.8,2.8,0,0,0,.11-2.7A2.92,2.92,0,0,0,259.51,59.4Z"/><path class="cls-16" d="M260.11,63.07A2.45,2.45,0,0,1,259,59.63a1.67,1.67,0,0,1,.43-.41,1.76,1.76,0,0,0-.41.07,2.67,2.67,0,0,0-2.19,2.38,3,3,0,0,0,1.85,3,2.76,2.76,0,0,0,3.57-2A1.66,1.66,0,0,1,260.11,63.07Z"/><path class="cls-16" d="M258.35,63.91a3.23,3.23,0,0,1,.21-4.44,2.46,2.46,0,0,0-1.7,2.2,3,3,0,0,0,1.85,3,2.63,2.63,0,0,0,1.22.16A2.86,2.86,0,0,1,258.35,63.91Z"/><path class="cls-17" d="M243.67,31.28a28.55,28.55,0,0,0-3.74-5,22.69,22.69,0,0,0-2.47-2.81,3.68,3.68,0,0,0-1.14-.82,1.24,1.24,0,0,0-.53,0,18.06,18.06,0,0,0-2.3-.17,16.6,16.6,0,0,1-4.85-1.21A42.83,42.83,0,0,1,221,16.66c-.63-.43-1.22-.91-1.82-1.38,1.4,1.85,2.72,3.79,4.75,5,2.56,1.53,5.35,1.55,8.17,2.25,1.77.45,4.78,1.19,5.37,3.26.7,2.49-1.64,3.77-3.81,3.86a21.8,21.8,0,0,1-10.46-2.1,21.51,21.51,0,0,1-4.93-3.77,12.66,12.66,0,0,0-6.44-3.45c-3.06-.61-9-1.05-10.48-4.47a4.16,4.16,0,0,1,1-4.51,15.8,15.8,0,0,0-1.9,1.94,4,4,0,0,0-1.17,3.35,7.76,7.76,0,0,0,2.79,3.55,16.29,16.29,0,0,0,3.76,2.55,18.15,18.15,0,0,0,1.72.69c1.19.63,2.42,1.21,3.64,1.77a63,63,0,0,0,9.88,3.91,58.68,58.68,0,0,0,10.82,2.13c.91.07,1.81.23,2.71.31s2,.1,3,.21a35.28,35.28,0,0,0,5.44.05.62.62,0,0,0,.5-.18A.3.3,0,0,0,243.67,31.28Z"/><path class="cls-17" d="M243.67,31.28a28.55,28.55,0,0,0-3.74-5l-.87-1.08c.53,1.54.52,3.86-.84,4.86-2.31,1.69-5.64,1-8.27.6A30.66,30.66,0,0,1,220.78,28c-3.07-1.6-5.75-4.22-9.11-5.18-2.6-.73-5.35-1.09-7.67-2.55-1.79-1.13-3.8-2.77-4.11-5a4.54,4.54,0,0,1,0-1.1,3.2,3.2,0,0,0-.53,2.46,7.76,7.76,0,0,0,2.79,3.55,16.29,16.29,0,0,0,3.76,2.55,18.15,18.15,0,0,0,1.72.69c1.19.63,2.42,1.21,3.64,1.77a63,63,0,0,0,9.88,3.91,58.68,58.68,0,0,0,10.82,2.13c.91.07,1.81.23,2.71.31s2,.1,3,.21a35.28,35.28,0,0,0,5.44.05.62.62,0,0,0,.5-.18A.3.3,0,0,0,243.67,31.28Z"/><path class="cls-18" d="M225.24,78c-.81-1.42-3-2-4.47-2.07-1.17,0-4.11.22-4.39,1.8-1.66,9.45-3,18.77-2.73,28.4.08,3,.27,5.9.49,8.85.13,1.81.36,3.84,1.52,5.3s3.72,1.33,5.43,1.2c1.52-.12,4.46.1,5.74-.72s.43-3.35.41-4.48c-.21-10.26,0-20.52-.27-30.77A15.73,15.73,0,0,0,225.24,78Z"/><path class="cls-19" d="M222.57,105.73c-2.41.62-4.81,1.2-7.21,1.84-.54.15-1.09.29-1.65.4.08,1.81.19,3.61.32,5.42a71.55,71.55,0,0,0,8.28-2c1.63-.43,3.25-.88,4.85-1.41,0-1.88,0-3.76,0-5.63C225.64,104.87,224.11,105.34,222.57,105.73Z"/><path class="cls-19" d="M222.82,85.07a48.61,48.61,0,0,1-7.89,1.66c-.18,1.28-.35,2.55-.5,3.83,2.34-.4,4.68-.8,7-1.26q2.82-.55,5.59-1.27c0-.86,0-1.72-.05-2.57q0-.83-.09-1.65C225.54,84.27,224.19,84.7,222.82,85.07Z"/><path class="cls-19" d="M223.34,94.21c-3,.79-6.26,2-9.47,2.28-.13,1.81-.22,3.64-.25,5.47a24.7,24.7,0,0,0,2.95-.55c2.19-.51,4.37-1.11,6.5-1.83,1.36-.46,2.71-1,4-1.46,0-1.63,0-3.26,0-4.88Z"/><path class="cls-19" d="M222.89,118a41.79,41.79,0,0,1-7.65,1.62,4.31,4.31,0,0,0,.42.63c1.2,1.52,3.72,1.33,5.43,1.2,1.52-.12,4.46.1,5.74-.72,1.08-.69.53-3,.43-4.21C225.82,117.05,224.36,117.55,222.89,118Z"/><path class="cls-20" d="M225.24,78c-.81-1.42-3-2-4.47-2.07-1.17,0-4.11.22-4.39,1.8-.17,1-.33,1.93-.49,2.89,0,.26,1.3.76,1.5.81a12,12,0,0,0,3,.26.37.37,0,0,1,.37.34c.71,4.48.42,9.13.71,13.66.25,4.11.49,8.22,1,12.31a62.4,62.4,0,0,0,3,13.22,3.85,3.85,0,0,0,1.33-.46c1.16-.74.43-3.35.41-4.48-.21-10.26,0-20.52-.27-30.77A15.73,15.73,0,0,0,225.24,78Z"/><path class="cls-12" d="M222,83.18c.81,4.1.26,8.48.59,12.65a104.14,104.14,0,0,0,2.29,14.78,47.05,47.05,0,0,0,2.59,8.17c0-.94-.23-2-.24-2.55-.21-10.26,0-20.52-.27-30.77A15.73,15.73,0,0,0,225.24,78c-.81-1.42-3-2-4.47-2.07-1.17,0-4.11.22-4.39,1.8l-.3,1.73a10.47,10.47,0,0,0,2.13.46c1.54.17,2.77,0,3.38,1.72A14.29,14.29,0,0,1,222,83.18Z"/><path class="cls-21" d="M252.84,67.89c-.3-.89-.7-1.79-1.08-2.74,0-.08,0-.17-.08-.26a8,8,0,0,0,.35-1.7c.08-.84.13-2.6-.37-3.33-.38-.55-1.48-1.94-2.24-1.9-.95,0-1.06.56-1.66,1.32A14.5,14.5,0,0,1,243.25,63a37.7,37.7,0,0,1-5.92,2.55,68.35,68.35,0,0,1-7.27,1c-2.82.29-5.76.3-8.61.39-1.27,0-2.53.18-3.8.26-1.86.11-3.28-.81-5-1a12.61,12.61,0,0,0-3.68,0,12.84,12.84,0,0,1-4.48.45,8.87,8.87,0,0,1-4.16-2.08,7.15,7.15,0,0,0-2.19-1.41c-1.35-.5-2.62,2.19-2.89,3.07a5.92,5.92,0,0,0-.25,1.94,4.59,4.59,0,0,0-1.35,2.27A6.41,6.41,0,0,0,195.34,76a11.16,11.16,0,0,0,5.76,2.59c1.3.25,2.61.37,3.92.56a67.52,67.52,0,0,0,16,.27c1.38-.14,2.76-.33,4.13-.56,2.52-.43,5-1,7.6-1.2,4.8-.37,9.72.78,14.47-.28,2.3-.51,4.73-2,5.63-4.23A7.06,7.06,0,0,0,252.84,67.89Z"/><path class="cls-22" d="M216.76,79.86A67.44,67.44,0,0,1,205,79.29l-1.24-.16c-.89-.11-1.8-.23-2.69-.4a11.45,11.45,0,0,1-5.85-2.64,6.57,6.57,0,0,1-1.78-5.73,4.57,4.57,0,0,1,1.35-2.3,5.83,5.83,0,0,1,.26-1.92c.19-.64,1.28-3.21,2.67-3.27a1.37,1.37,0,0,1,.45.07,7.71,7.71,0,0,1,2.25,1.45,8.64,8.64,0,0,0,4.07,2,5.81,5.81,0,0,0,1.2.08,13.92,13.92,0,0,0,2.16-.32c.35-.08.7-.15,1.06-.21a12,12,0,0,1,1.22-.12,14.45,14.45,0,0,1,2.51.14,10.54,10.54,0,0,1,2.08.5,8.32,8.32,0,0,0,2.81.51h.11l1.47-.11c.71-.05,1.45-.11,2.18-.14h.16l2-.06c.92,0,1.85,0,2.78-.08,1.49-.06,2.69-.14,3.8-.25a70.52,70.52,0,0,0,7.24-1,37.31,37.31,0,0,0,5.88-2.53,14.62,14.62,0,0,0,4.45-3.64c.13-.16.23-.31.33-.44a1.63,1.63,0,0,1,1.46-.95c1,0,2.34,1.89,2.4,2,.6.88.44,3,.41,3.44a8.63,8.63,0,0,1-.35,1.69l.06.19c.11.28.23.55.34.82.27.67.52,1.29.74,1.93a7.3,7.3,0,0,1,0,5.35c-1,2.47-3.62,3.86-5.76,4.34a20.49,20.49,0,0,1-3.62.44h0c-1.66.06-3.36,0-5-.11a46.12,46.12,0,0,0-5.88,0,50.65,50.65,0,0,0-5.52.83l-2.06.37c-1.33.22-2.71.41-4.14.56S218.18,79.8,216.76,79.86Zm-19-16.62c-1.08,0-2.11,2.25-2.34,3a5.37,5.37,0,0,0-.24,1.88v.08l-.06.06a4.3,4.3,0,0,0-1.3,2.18,6.18,6.18,0,0,0,1.67,5.39,11.14,11.14,0,0,0,5.67,2.54c.88.17,1.78.28,2.66.39l1.25.17a66.94,66.94,0,0,0,16,.26c1.42-.14,2.8-.33,4.12-.55l2.05-.37a51.38,51.38,0,0,1,5.56-.83,46.89,46.89,0,0,1,5.93,0c1.63.08,3.32.17,5,.1h0a19.83,19.83,0,0,0,3.56-.43c2.05-.46,4.57-1.78,5.5-4.12a6.81,6.81,0,0,0,0-5.1c-.21-.62-.46-1.24-.73-1.9-.11-.27-.23-.55-.34-.83a1.55,1.55,0,0,1-.07-.23l0-.09,0,0a7.87,7.87,0,0,0,.34-1.67,6.26,6.26,0,0,0-.34-3.21c-.49-.71-1.49-1.84-2.07-1.82s-.85.29-1.2.79c-.09.14-.2.3-.33.47a14.89,14.89,0,0,1-4.57,3.73,37,37,0,0,1-6,2.56,67.37,67.37,0,0,1-7.31,1c-1.11.11-2.32.2-3.82.26l-2.78.08c-.68,0-1.35,0-2,.06h-.16c-.72,0-1.45.09-2.16.15l-1.48.1h-.12a8.61,8.61,0,0,1-2.92-.53,11,11,0,0,0-2-.49,15,15,0,0,0-2.46-.13,8.92,8.92,0,0,0-1.17.11l-1.05.2a13.66,13.66,0,0,1-2.22.33,6,6,0,0,1-1.28-.08,9.11,9.11,0,0,1-4.24-2.12A6.79,6.79,0,0,0,198,63.29.79.79,0,0,0,197.74,63.24Z"/><path class="cls-19" d="M195.92,69.74h0c-.36-.06-.23-.61.13-.56,1.85.29,3.81-1.23,5.31-2.15.49-.3,1-.6,1.46-.92a9.63,9.63,0,0,1-1.52-.81A14.16,14.16,0,0,1,195,67.08a6.17,6.17,0,0,0-.06,1,5.08,5.08,0,0,0-1.12,1.56A1.94,1.94,0,0,0,195.92,69.74Z"/><path class="cls-19" d="M197.37,75.77a14.36,14.36,0,0,0,6.76-2.49,15.42,15.42,0,0,0,5.56-7.21l-.75.09c-.42.07-.84.16-1.25.24a12.74,12.74,0,0,1-2.87,2.9c-1.71,1.23-4.41,2.88-6.6,2.39v0a4.4,4.4,0,0,1-4.37,1.76,6.45,6.45,0,0,0,1.32,2.3A12.53,12.53,0,0,0,197.37,75.77Z"/><path class="cls-19" d="M210,79.6a19.12,19.12,0,0,0,4.4-4.9A17.31,17.31,0,0,0,217,67.18a12.1,12.1,0,0,1-2.69-.62,16.08,16.08,0,0,1-4.43,8,18.21,18.21,0,0,1-6.74,4.31l1.9.25C206.69,79.34,208.36,79.5,210,79.6Z"/><path class="cls-19" d="M233.25,77.59a29.79,29.79,0,0,0,3.43-5c1-1.75,1.84-3.56,2.64-5.38a21.5,21.5,0,0,0,1.13-2.92c-1,.44-2.07.84-3.12,1.19a68.35,68.35,0,0,1-7.27,1c-2.57.26-5.25.3-7.86.37a16.87,16.87,0,0,1-1.62,8.46,19.71,19.71,0,0,1-2.83,4.26c1.1-.06,2.19-.14,3.28-.25,1.38-.14,2.76-.33,4.13-.56,2.52-.43,5-1,7.6-1.2Z"/><path class="cls-19" d="M250.17,64.23c.66-5.72-.08-6.26-.8-6.26-.9.06-1,.57-1.61,1.31a9.76,9.76,0,0,1-1,1.08c-.19,4-2,8.07-3.7,11.63a28.19,28.19,0,0,1-3.4,5.73,28.34,28.34,0,0,0,7.53-.38h0a6.61,6.61,0,0,0,.62-1.38c.25-.78,1.34-4,.2-4.38A18.93,18.93,0,0,0,250.17,64.23Z"/><path class="cls-22" d="M201.09,72.7a10.79,10.79,0,0,1-4.63-2.92c-1.62-1.55-1-3.66-.26-5.44,0,0,0-.07-.06,0-.19.29-.45.54-.64.82a5.46,5.46,0,0,0-.49,1.37,3.91,3.91,0,0,0,.51,2.88A7.64,7.64,0,0,0,198,71.64a6.87,6.87,0,0,0,3,1.22C201.17,72.87,201.18,72.72,201.09,72.7Z"/><path class="cls-22" d="M219.33,74.63a7.17,7.17,0,0,1-2.62-1.19,9.43,9.43,0,0,1-2.19-2.52c0-.07-.17,0-.14.06.85,2,2.64,3.8,4.93,3.81C219.4,74.79,219.41,74.66,219.33,74.63Z"/><path class="cls-22" d="M242.73,67.6a14.07,14.07,0,0,1-1.48,2.79c-.54.79-1.37,2.07-2.32,2.43a.06.06,0,0,0,0,.12,4.47,4.47,0,0,0,2.38-1.84,8,8,0,0,0,1.56-3.45A.09.09,0,0,0,242.73,67.6Z"/><path class="cls-22" d="M252.12,62a.08.08,0,0,0-.16,0,11.75,11.75,0,0,1-.81,3.29,18.13,18.13,0,0,1-1.38,3.39,25.17,25.17,0,0,1-1.92,2.87,12.63,12.63,0,0,1-2.83,3c-.06,0,0,.15,0,.12a7.41,7.41,0,0,0,2.49-2.07,16.93,16.93,0,0,0,2.5-3.34,16.3,16.3,0,0,0,1.52-3.81A7.29,7.29,0,0,0,252.12,62Z"/><path class="cls-23" d="M251.76,65.15c0-.08,0-.17-.08-.26a8,8,0,0,0,.35-1.7c.08-.84.13-2.6-.37-3.33-.38-.55-1.48-1.94-2.24-1.9-.95,0-1.06.56-1.66,1.32A14.5,14.5,0,0,1,243.25,63a37.7,37.7,0,0,1-5.92,2.55,68.35,68.35,0,0,1-7.27,1c-2.82.29-5.76.3-8.61.39-1.27,0-2.53.18-3.8.26-1.86.11-3.28-.81-5-1a12.61,12.61,0,0,0-3.68,0,12.84,12.84,0,0,1-4.48.45,8.87,8.87,0,0,1-4.16-2.08,7.15,7.15,0,0,0-2.19-1.41c-1.35-.5-2.62,2.19-2.89,3.07a5.92,5.92,0,0,0-.25,1.94,4.59,4.59,0,0,0-1.35,2.27A6.41,6.41,0,0,0,195.34,76a9.3,9.3,0,0,0,3.92,2.14,7.05,7.05,0,0,1-3.17-2.48c-1.93-2.86,1.65-3,4.37-2.93-2.12-1-3.94-3.85-2.91-5.84.59-1.14,2-1,2.92-.44s1.57,1.12,2.39,1.64c1.28.82,2.78.55,4.19.26.6-.12,1.24-.26,1.89-.33a4.73,4.73,0,0,1,1.12-.16c2,0,3.18,1.73,5.32,1.23,1.08-.25,2.3-.5,3.19.3a4.62,4.62,0,0,1,.81,1v0c0,.06.07.13.11.2.58,1.14.69,2.53-.83,3a3.18,3.18,0,0,1-1.24.07,5.08,5.08,0,0,1-.87,0l.86.73c1.26,1.07,2.74,3.7.65,4.82a6.17,6.17,0,0,1-1.38.53c1.45,0,2.9-.15,4.34-.29s2.76-.33,4.13-.56c2.52-.43,5-1,7.6-1.2,4.8-.37,9.72.78,14.47-.28.19,0,.37-.09.56-.15a12.05,12.05,0,0,1-2.94.17c-1.57.27-3.08.17-4.07-.87a3.44,3.44,0,0,1-.17-4.32c.09-.15.55-.7.91-1.27l.3-.52c.19-.41.23-.75-.08-.85-.6.37-1.79.65-2.28,0-.33-.42-.07-1.14.14-1.55a3.47,3.47,0,0,1,2.34-1.6c1.6-.91,3.34-1.6,5-2.41a3.32,3.32,0,0,1,2.56-.75,1.6,1.6,0,0,1,1.06.82,4.45,4.45,0,0,1,0,3.33,2.3,2.3,0,0,1,1.41-.31,2,2,0,0,1,.65.17C252.35,66.56,252.05,65.87,251.76,65.15Z"/><path class="cls-12" d="M249.42,58c-.95,0-1.06.56-1.66,1.32A14.5,14.5,0,0,1,243.25,63a37.7,37.7,0,0,1-5.92,2.55,68.35,68.35,0,0,1-7.27,1c-2.82.29-5.76.3-8.61.39-1.27,0-2.53.18-3.8.26-1.86.11-3.28-.81-5-1a12.61,12.61,0,0,0-3.68,0,12.84,12.84,0,0,1-4.48.45,8.82,8.82,0,0,1-4-2A9.06,9.06,0,0,0,201.57,66a5.87,5.87,0,0,0,4.5,1.43c2-.21,3.44-.84,5.4-.27s3.91.58,5.89,1a4.85,4.85,0,0,1,2.9,1.78,7.14,7.14,0,0,1,1,4c0,.41,0,5.46.21,5.43,1.22-.13,2.44-.29,3.65-.5,2.52-.43,5-1,7.6-1.2a39.09,39.09,0,0,1,5,0c.64-2.41.05-5.21,0-7.69,0-3,1.8-4.25,4.46-5.18,2-.71,8.36-2.43,9.26-5.16C251,59,250.07,57.93,249.42,58Z"/><path class="cls-10" d="M243.8,119.45a11.84,11.84,0,0,0-1-2.14,34.12,34.12,0,0,1-2-4.63,46.44,46.44,0,0,1-2.39-10.35c-.25-2-.39-4-.46-6.06-.08-2.23-.1-4.45-.17-6.68-.06-1.73-.07-3.45,0-5.18a35.24,35.24,0,0,1,.39-3.83c.2-1.32.4-2.65.5-4a24.6,24.6,0,0,0-.25-6,9.89,9.89,0,0,0-6.68-7.48,6.58,6.58,0,0,0-3-.12,20.85,20.85,0,0,0-2.64.86c-.44.16-1.43.6-1.87.26a4.23,4.23,0,0,0-4.92-.34,5.68,5.68,0,0,0-1.43,1.58c-1.09,1.72-2.68,1.52-2.12,1.65a7.9,7.9,0,0,0,2.17.16,14.43,14.43,0,0,1,2.46,0c1.42.21,1.17,2.88,1.23,3.83q.27,4.43.53,8.85c.16,3,.35,6,.62,9,.15,1.67.33,3.33.55,5,.28,2.15.61,4.3,1,6.43.79,4.19,1.87,8.31,3,12.42q1,3.65,2.21,7.25a13,13,0,0,0,2.27,4.66c3.14,3.58,10.79,1,12-3.29A3.27,3.27,0,0,0,243.8,119.45Z"/><path class="cls-19" d="M221.61,71c0,.37,0,.73.07,1.1,2.12-1.74,4.28-3.72,7.22-3a14.13,14.13,0,0,0,3.1.74,6.51,6.51,0,0,0,3-.77c.78-.41,1.54-.87,2.31-1.31a10.55,10.55,0,0,0-1-1.49,13.15,13.15,0,0,0-6.53-1.45A4.25,4.25,0,0,0,227.06,66a2.58,2.58,0,0,1-1.52.8,4.54,4.54,0,0,1-2.17-.68,2.3,2.3,0,0,0-1.85-.47,3.14,3.14,0,0,0-1.84,1.49,5.36,5.36,0,0,1,.7,0C221.8,67.38,221.55,70.05,221.61,71Z"/><path class="cls-19" d="M222.5,85.62a22.38,22.38,0,0,1,6.75-4.27,28.92,28.92,0,0,1,9.08-2.18c.12-.86.23-1.71.29-2.58,0-.65.07-1.3.08-2a7.08,7.08,0,0,0-3-.48,28.4,28.4,0,0,0-5.84,1.18c-2.83.82-5.86,2-7.71,4.28,0,.08,0,.16,0,.24C222.24,81.77,222.36,83.7,222.5,85.62Z"/><path class="cls-19" d="M224.27,100a26.58,26.58,0,0,1,13.48-9.19l0-1.18c-.05-1.39-.06-2.77,0-4.16a31.83,31.83,0,0,0-7.81,2.76,30,30,0,0,0-6.74,4.37c0,.44.1.88.16,1.31Q223.7,96.93,224.27,100Z"/><path class="cls-19" d="M232,124.8a9.72,9.72,0,0,0,3.47-2.46,25.31,25.31,0,0,1,4-3.16c1.08-.7,2.19-1.34,3.3-2a35.14,35.14,0,0,1-2-4.53c-.11-.3-.22-.61-.32-.91a33.62,33.62,0,0,0-10.55,9.17,10.8,10.8,0,0,0,1.94,3.69Z"/><path class="cls-19" d="M228,115a28.31,28.31,0,0,1,6.6-8,19.22,19.22,0,0,1,4.07-2.62c-.11-.68-.21-1.37-.29-2-.14-1.12-.24-2.23-.32-3.35a25.38,25.38,0,0,0-4,2.35,36.88,36.88,0,0,0-7.56,8.11c.29,1.09.59,2.18.89,3.28C227.54,113.46,227.75,114.21,228,115Z"/><path class="cls-22" d="M221.4,67a2.14,2.14,0,0,0-2.9-.85.07.07,0,0,0,.05.13A2.33,2.33,0,0,1,221.42,68a16.79,16.79,0,0,1,.19,3.33.09.09,0,0,0,.18,0C221.84,69.91,222.23,68.27,221.4,67Z"/><path class="cls-22" d="M230.28,67.83a11.29,11.29,0,0,1-4.76-2.8,6.22,6.22,0,0,0-3.36-1.88s0,.06,0,.08a7.89,7.89,0,0,1,2.21,1.2c.64.57,1.21,1.2,1.88,1.72a8.15,8.15,0,0,0,4,1.76C230.31,67.92,230.33,67.84,230.28,67.83Z"/><path class="cls-23" d="M239.8,124.28c-4.31.3-7.74-2.21-8-6.69-.29-5.46,1.35-11.32,3.28-16.37a38.36,38.36,0,0,0,2.68-8.92c0-.9,0-1.81-.07-2.71-.06-1.73-.07-3.45,0-5.18a35.24,35.24,0,0,1,.39-3.83c.2-1.32.4-2.65.5-4a24.6,24.6,0,0,0-.25-6A9.68,9.68,0,0,0,236,65.85,6.32,6.32,0,0,1,237,68c.38,1.43.42,4.58-2,4.12-3.63-.68-2.33-5.5-5.79-6.34-1.23-.3-3.5-.42-4.5-1.52a.72.72,0,0,1-.37-.07,7,7,0,0,0,1.17,1.78c1.25,1.06,3,1.92,3.82,3.06a8.72,8.72,0,0,1,1.82,5.08c-.1,2.94-3,4.85-5.47,2.71a7,7,0,0,1-2.23-4.37c-.37-2.15-.75-6.71-3.81-6.68a1.3,1.3,0,0,1-1.36-.9,6.28,6.28,0,0,0-.38.52c-1.09,1.72-2.68,1.52-2.12,1.65a7.9,7.9,0,0,0,2.17.16,14.43,14.43,0,0,1,2.46,0c1.42.21,1.17,2.88,1.23,3.83q.27,4.43.53,8.85c.16,3,.35,6,.62,9,.15,1.67.33,3.33.55,5,.28,2.15.61,4.3,1,6.43.79,4.19,1.87,8.31,3,12.42q1,3.65,2.21,7.25a13,13,0,0,0,2.27,4.66c2.69,3.07,8.69,1.62,11.12-1.56A5.16,5.16,0,0,1,239.8,124.28Z"/><g class="cls-24"><path class="cls-22" d="M234.1,125.11c-2.7-2-3.6-5.87-4.43-9-2.1-7.75-3.26-10.12.32-17.34,4-8-6.58-11-7.09-22.68-.13-2.8.13-5.9-1.35-8.39-1.16-1.94-3-1.41-4.81-1.22l-.93.49a8,8,0,0,0,2.11.14,14.43,14.43,0,0,1,2.46,0c1.42.21,1.17,2.88,1.23,3.83q.27,4.43.53,8.85c.16,3,.35,6,.62,9,.15,1.67.33,3.33.55,5,.28,2.15.61,4.3,1,6.43.79,4.19,1.87,8.31,3,12.42q1,3.65,2.21,7.25a13,13,0,0,0,2.27,4.66,6,6,0,0,0,5.7,1.56A5.47,5.47,0,0,1,234.1,125.11Z"/><path class="cls-22" d="M236.32,126.5h0a5.72,5.72,0,0,1-4.65-1.74,13.46,13.46,0,0,1-2.31-4.73c-.78-2.36-1.52-4.8-2.21-7.27-1.08-3.88-2.19-8.08-3-12.43-.39-2.08-.74-4.25-1-6.43-.23-1.82-.41-3.46-.55-5-.25-2.86-.43-5.67-.62-9-.16-3-.36-6.11-.52-8.85,0-.15,0-.35,0-.58,0-1.09,0-2.92-1-3.08a8.27,8.27,0,0,0-1.49,0l-.72,0h-.3a8.33,8.33,0,0,1-2.08-.16l-.5-.11.46-.23.65-.34.34-.17.69-.08c.42-.05.85-.1,1.27-.12a3,3,0,0,1,3,1.51c1.24,2.09,1.29,4.56,1.34,6.95,0,.51,0,1,0,1.53.24,5.45,2.67,9,4.81,12.06,2.37,3.42,4.42,6.38,2.26,10.71-3.25,6.56-2.59,9-.81,15.39l.51,1.83.14.53c.81,3,1.73,6.44,4.22,8.31a5.16,5.16,0,0,0,3.3,1l0,.36A7.36,7.36,0,0,1,236.32,126.5Zm-14.8-58.43a8.06,8.06,0,0,1,.26,2.36c0,.22,0,.41,0,.56.17,2.74.36,5.84.53,8.85.19,3.35.36,6.16.62,9,.14,1.55.32,3.18.55,5,.28,2.18.62,4.34,1,6.41.82,4.34,1.93,8.53,3,12.41.68,2.45,1.42,4.89,2.2,7.24a12.81,12.81,0,0,0,2.24,4.6,5.15,5.15,0,0,0,3.8,1.63,5.49,5.49,0,0,1-1.76-.88c-2.59-2-3.57-5.59-4.35-8.52l-.15-.53c-.17-.64-.34-1.25-.5-1.83-1.75-6.34-2.48-9,.84-15.64,2-4.14.16-6.88-2.24-10.34-2.17-3.14-4.63-6.7-4.88-12.26,0-.5,0-1,0-1.54C222.63,72.35,222.58,70,221.52,68.07Zm-2.67-1.13a8.19,8.19,0,0,1,1.56,0,1.25,1.25,0,0,1,.4.13,2.81,2.81,0,0,0-2.12-.61,11,11,0,0,0-1.24.12l-.66.07-.24.13-.18.1a9,9,0,0,0,1.47,0h.3Z"/></g><g class="cls-8"><path class="cls-25" d="M208,84.12a2.86,2.86,0,0,0-2.47-1.42,1.91,1.91,0,0,0-1.15.42,4.48,4.48,0,0,0-1.9,1.88c-1.11,1.93.35,4.87,2.68,4.39C207.16,89,209,86.07,208,84.12Z"/><path class="cls-25" d="M205.6,123.29l-.07-.07-.15-.16-.08-.07-.22-.16-.14-.09-.1-.06-.19-.09a0,0,0,0,0,0,0,3.34,3.34,0,0,0-1.32-.29,2,2,0,0,0-1.16.38,4.26,4.26,0,0,0-1.91,1.68,2.59,2.59,0,0,0,.17,2.94l.05.07.14.15.1.11.13.11.14.11.14.09.16.09.15.07.19.07.14.05.22,0,.14,0h.39a3.05,3.05,0,0,0,.41-.05c2.05-.38,3.89-3,2.85-4.71Z"/><path class="cls-25" d="M205.1,101.74a2.26,2.26,0,0,0-.26-.16l-.05,0-.24-.11h0a4.17,4.17,0,0,0-3.78.85,2.46,2.46,0,0,0-.86,1.46h0a1.36,1.36,0,0,0,0,.29v0c0,.1,0,.2,0,.3h0a2.59,2.59,0,0,0,.1.62s0,0,0,0a1.55,1.55,0,0,0,.08.23l0,.09.09.19,0,.09a1,1,0,0,0,.11.17.22.22,0,0,0,.05.08,1.88,1.88,0,0,0,.18.24,2.79,2.79,0,0,0,2.51.83,2.92,2.92,0,0,0,2.7-1.18A2.88,2.88,0,0,0,205.1,101.74Z"/></g><path class="cls-3" d="M295.22,74.2c-.13-.19-.23-.19-.46-.21a15.94,15.94,0,0,0-2.07.1c-2.83.12-5.71.39-8.51.79s-5.68,1.09-8.5,1.71l-1.24.29c.67-.62,1.29-1.34,2-1.91,1.24-1,2.38-2.19,3.52-3.34s2.15-1.88,3.15-2.88c.56-.56-.16-1.28-.6-1.77,0-.13.08-.27.14-.41a8.08,8.08,0,0,1,.73-1.19c.15-.23-.16-.55-.38-.38-.83.63-1.49,1.46-2.29,2.11-2.22,1.81-4.19,3.93-6.4,5.77-.61.5-1.24,1-1.83,1.49l-.12.11c-1.13.42-2.27.84-3.42,1.22q-3.84,1.27-7.75,2.22c-2.63.63-5.27,1.2-7.9,1.79a54.76,54.76,0,0,1-7.62,1.45.17.17,0,0,0-.11.06c-.09-.09-.3,0-.28.11a18.48,18.48,0,0,1-.15,2,14,14,0,0,0,0,1.94c0,.31.4.56.6.76L247,87.21a.41.41,0,0,0,.47.07,14.2,14.2,0,0,1,1.79-.89c1.7-.6,3.33-1.36,5-1.91a37.82,37.82,0,0,1,5.49-1.09c1.51,1,3,2.08,4.47,3.18.36.28,1.16,1,1.66.6.82-.66,2-.84,2.82-1.47a.28.28,0,0,0,.09-.38,4.54,4.54,0,0,0-.89-.8c-.57-.53-1.16-1-1.76-1.5l-.35-.28c.23-.08.45-.16.67-.22,1.44-.43,2.88-.81,4.3-1.31a52.57,52.57,0,0,1,8-2c2.82-.54,5.65-1.1,8.45-1.71,1.45-.32,2.91-.56,4.38-.74.81-.1,2.17.1,2.59-.74C294.35,75.64,295.53,74.64,295.22,74.2Z"/><path class="cls-4" d="M265.57,87.47a2.42,2.42,0,0,1-1.34-.65l-.12-.1c-1.5-1.13-3-2.17-4.4-3.13l-1.11.17a27.71,27.71,0,0,0-4.29.89c-1,.32-1.95.71-2.89,1.09-.7.28-1.42.57-2.14.83a8.65,8.65,0,0,0-1.34.63l-.44.24a.61.61,0,0,1-.68-.1l-1.25-1.23-.14-.13a1.33,1.33,0,0,1-.51-.74,7.25,7.25,0,0,1,0-1.4c0-.19,0-.38,0-.56a8.17,8.17,0,0,1,.09-.85,5.06,5.06,0,0,0,.07-1.08.3.3,0,0,1,.07-.24.38.38,0,0,1,.38-.1.35.35,0,0,1,.11,0,43,43,0,0,0,6.13-1.11l1.46-.34,2.12-.47c1.9-.42,3.85-.86,5.77-1.32,2.57-.62,5.17-1.36,7.74-2.21,1.14-.38,2.25-.79,3.38-1.21l0,0,.08-.07c.36-.32.74-.62,1.12-.92s.47-.37.71-.57c1.07-.89,2.1-1.86,3.09-2.79s2.16-2,3.31-3a12.17,12.17,0,0,0,1.05-1,13.64,13.64,0,0,1,1.25-1.14.45.45,0,0,1,.65.17.45.45,0,0,1,0,.46l-.18.26a5.89,5.89,0,0,0-.53.9,1,1,0,0,0-.08.22s0,0,0,.07v0c.43.48,1.16,1.28.51,1.93-.5.5-1.05,1-1.58,1.44s-1.07.94-1.57,1.44l0,0c-1.11,1.12-2.27,2.28-3.5,3.32-.37.31-.73.68-1.08,1l-.39.4.59-.14,1.54-.34c2.28-.51,4.63-1,7-1.37,2.86-.41,5.73-.67,8.52-.79l.69-.06a8.52,8.52,0,0,1,1.4,0,.65.65,0,0,1,.6.29c.3.42-.25,1-.69,1.54a3,3,0,0,0-.32.41c-.34.68-1.16.77-1.9.8H292c-.15,0-.29,0-.41,0-1.58.2-3,.44-4.36.73-2.52.56-5.21,1.1-8.46,1.72a52.59,52.59,0,0,0-8,2c-1.05.37-2.14.68-3.19,1l-1.12.32-.35.11.09.07c.65.52,1.23,1,1.77,1.51a2.6,2.6,0,0,0,.31.25,2.21,2.21,0,0,1,.62.6.47.47,0,0,1-.14.62,6.94,6.94,0,0,1-1.41.72,5.88,5.88,0,0,0-1.41.74A.7.7,0,0,1,265.57,87.47Zm-5.78-4.27.06,0c1.43,1,2.95,2,4.47,3.19l.14.1c.34.27,1,.75,1.3.5a6.19,6.19,0,0,1,1.5-.8,6.16,6.16,0,0,0,1.33-.68s.09-.06.05-.13a1.93,1.93,0,0,0-.53-.49,3.17,3.17,0,0,1-.34-.28c-.53-.49-1.1-1-1.75-1.49l-.61-.49.32-.1.68-.23,1.12-.32c1-.31,2.12-.62,3.17-1a53.13,53.13,0,0,1,8-2c3.24-.61,5.92-1.16,8.44-1.71,1.37-.3,2.81-.54,4.39-.74a3.19,3.19,0,0,1,.45,0l.42,0h0c.67,0,1.34-.09,1.59-.59a2.42,2.42,0,0,1,.38-.49c.26-.29.8-.9.66-1.09s-.11-.12-.32-.14a7.82,7.82,0,0,0-1.34,0l-.72,0c-2.78.12-5.63.39-8.48.79-2.33.33-4.68.86-6.95,1.37l-1.54.34c-.3.06-.6.14-.9.21l-1,.24.52-.48c.3-.26.59-.56.87-.85a13.9,13.9,0,0,1,1.11-1.06c1.22-1,2.36-2.18,3.47-3.3l0,0c.51-.51,1.06-1,1.59-1.45s1.07-.93,1.57-1.43,0-.87-.53-1.43l-.16-.17,0-.11a1,1,0,0,0,.05-.16c0-.08,0-.17.09-.26a6.83,6.83,0,0,1,.57-.95l.18-.26a.11.11,0,0,0,0-.08.12.12,0,0,0-.09-.07,11.07,11.07,0,0,0-1.23,1.12,14.53,14.53,0,0,1-1.07,1c-1.15.93-2.24,2-3.3,3s-2,1.92-3.11,2.81c-.23.2-.48.39-.72.58s-.74.59-1.1.91l-.06.06-.11.08c-1.15.43-2.28.84-3.43,1.23-2.58.85-5.2,1.6-7.77,2.22-1.93.46-3.88.89-5.78,1.31l-2.12.48-1.46.33a43.44,43.44,0,0,1-6.18,1.13l-.13.15-.09-.1a5.67,5.67,0,0,1-.08,1.08,5.84,5.84,0,0,0-.08.81c0,.18,0,.37,0,.56a7.42,7.42,0,0,0,0,1.34c0,.18.23.37.4.52l.14.14,1.26,1.23a.23.23,0,0,0,.25,0l.44-.24a11.71,11.71,0,0,1,1.38-.66c.72-.25,1.44-.54,2.14-.82.94-.38,1.92-.77,2.91-1.09a27.59,27.59,0,0,1,4.35-.91l1.17-.19Z"/><path class="cls-4" d="M272.92,76.52a73.82,73.82,0,0,0-7.32,1.68c-2.33.63-4.68,1.23-7,2s-4.88,1.65-7.3,2.53c-1.1.39-2.17.82-3.23,1.31s-2,.76-3,1.27c-.11.06,0,.21.09.17.88-.41,1.84-.66,2.73-1,1.25-.55,2.51-1.06,3.81-1.52,2.41-.86,4.84-1.71,7.28-2.5,2.19-.7,4.43-1.37,6.67-1.88,1.24-.28,2.44-.73,3.68-1s2.41-.48,3.6-.79C273.1,76.67,273,76.5,272.92,76.52Z"/><path class="cls-4" d="M279.56,69.38a43,43,0,0,1-6.36,4.73A31.26,31.26,0,0,1,269,75.7c-1.36.47-2.76.83-4.12,1.27-2.74.9-5.56,1.43-8.36,2.07s-5.49,1.28-8.21,2c-.11,0-.06.19.05.17,2.77-.55,5.51-1.17,8.26-1.81,2.91-.67,5.83-1.23,8.68-2.16,1.37-.45,2.77-.81,4.13-1.29a30.2,30.2,0,0,0,3.69-1.36,30.76,30.76,0,0,0,6.56-5C279.78,69.46,279.65,69.3,279.56,69.38Z"/><path class="cls-4" d="M282.25,68.46c-.9.66-1.73,1.42-2.57,2.15-1.11,1-2.34,1.84-3.5,2.73-.12.08,0,.28.11.19a71.79,71.79,0,0,0,6.12-4.87C282.52,68.56,282.37,68.37,282.25,68.46Z"/><path class="cls-4" d="M292.49,74.68a50.06,50.06,0,0,0-6.56.83c-2.35.39-4.66.85-7,1.46-.06,0-.06.08,0,.12l-2.4.36a73,73,0,0,0-12,3,.13.13,0,0,0,.07.24c3.89-1,7.72-2.23,11.69-2.87s7.77-1.06,11.68-1.58c.06,0,.07-.12,0-.11-1.87.19-3.76.29-5.64.48-.9.09-1.78.22-2.67.35a118.51,118.51,0,0,1,12.83-2C292.65,74.92,292.65,74.67,292.49,74.68Z"/><path class="cls-4" d="M273.16,79.4c-2,.35-4.06.89-6.08,1.35-2.18.5-4.37.87-6.56,1.29-4.13.81-8.48,1.23-12,3.78a.11.11,0,0,0,.11.18,22.25,22.25,0,0,1,5.77-2.33c2.17-.54,4.37-.88,6.56-1.32s4.14-.8,6.2-1.31,4-1.11,6-1.51C273.29,79.51,273.25,79.38,273.16,79.4Z"/><path class="cls-5" d="M286.72,76.54c-2.89.37-5.73,1-8.57,1.63-2.35.52-4.69,1-7.08,1.42-.89.15-1.79.29-2.67.46-1.57.56,7.44-3.5,7.28-3.46l-1.24.29c.67-.62,1.29-1.34,2-1.91,1.24-1,2.38-2.19,3.52-3.34s2.15-1.88,3.15-2.88c.56-.56-.16-1.28-.6-1.77,0-.13.08-.27.14-.41a8.08,8.08,0,0,1,.73-1.19.76.76,0,0,0,0-.11c-3,3-6.51,5.59-9.2,8.9a8.09,8.09,0,0,1-4.38,3.1c-2.06.59-4.17,1-6.25,1.58a93,93,0,0,0-13.67,4.29,42.3,42.3,0,0,0-4.65,2.37,4.12,4.12,0,0,0,.46.47L247,87.21a.41.41,0,0,0,.47.07,14.2,14.2,0,0,1,1.79-.89c1.7-.6,3.33-1.36,5-1.91a37.82,37.82,0,0,1,5.49-1.09c1.51,1,3,2.08,4.47,3.18a4.88,4.88,0,0,0,.81.57c-.15-.28-.31-.56-.47-.84-.58-1-1.34-1.78-1.88-2.75a.29.29,0,0,1,.15-.42,29.63,29.63,0,0,1,3-.4l.65-.21c1.44-.43,2.88-.81,4.3-1.31a52.57,52.57,0,0,1,8-2c2.82-.54,5.65-1.1,8.45-1.71,1.45-.32,2.91-.56,4.38-.74.81-.1,2.17.1,2.59-.74a.21.21,0,0,1,0-.06C291.72,76.07,289.21,76.21,286.72,76.54Z"/><path class="cls-3" d="M206.71,84.86a2.43,2.43,0,0,0-2.11-1.22,1.69,1.69,0,0,0-1,.36A3.84,3.84,0,0,0,202,85.61c-.95,1.65.31,4.17,2.3,3.76C206,89,207.61,86.53,206.71,84.86Z"/><path class="cls-4" d="M203.94,89.6h0a2.27,2.27,0,0,1-2-1.17,2.89,2.89,0,0,1-.08-2.91,4.1,4.1,0,0,1,1.69-1.68,1.94,1.94,0,0,1,1-.38h.07a2.62,2.62,0,0,1,2.27,1.31,2.91,2.91,0,0,1-.06,2.63,3.83,3.83,0,0,1-2.49,2.15A2.47,2.47,0,0,1,203.94,89.6Zm.6-5.77a1.43,1.43,0,0,0-.81.32l0,0a3.58,3.58,0,0,0-1.54,1.52,2.56,2.56,0,0,0,.08,2.54,1.89,1.89,0,0,0,1.71,1h0a1.22,1.22,0,0,0,.32,0,3.5,3.5,0,0,0,2.23-2,2.54,2.54,0,0,0,.07-2.29,2.2,2.2,0,0,0-2-1.12Z"/><path class="cls-12" d="M206.71,84.86a2.34,2.34,0,0,0-1.5-1.14,2.5,2.5,0,0,1,.88.89c.78,1.29-.21,3-1.47,3.44a2,2,0,0,1-2.92-1.41s0-.08,0-.12c-.2,1.52.94,3.19,2.59,2.85S207.61,86.53,206.71,84.86Z"/><path class="cls-3" d="M204.4,123.54a2.48,2.48,0,0,0-2.11-1.07,1.73,1.73,0,0,0-1,.33,3.6,3.6,0,0,0-1.63,1.44,2.22,2.22,0,0,0,2.27,3.34C203.7,127.25,205.28,125,204.4,123.54Z"/><path class="cls-4" d="M201.6,127.8a2.33,2.33,0,0,1-2.12-1.2,2.36,2.36,0,0,1,0-2.46,4,4,0,0,1,1.71-1.51,1.9,1.9,0,0,1,1-.34h.07a2.65,2.65,0,0,1,2.26,1.16,2.28,2.28,0,0,1,0,2.17,3.77,3.77,0,0,1-2.59,2.14Zm.63-5.15a1.53,1.53,0,0,0-.83.3l0,0a3.42,3.42,0,0,0-1.54,1.37,2,2,0,0,0,0,2.08,2,2,0,0,0,2.11,1,3.47,3.47,0,0,0,2.33-1.93,2,2,0,0,0,0-1.83,2.29,2.29,0,0,0-2-1Z"/><path class="cls-12" d="M204.4,123.54a2.31,2.31,0,0,0-1.39-1,1.58,1.58,0,0,1,.76.94c.46,1.45-1.19,2.64-2.42,2.81a1.66,1.66,0,0,1-1.91-1.62,2.23,2.23,0,0,0,2.5,2.88C203.7,127.25,205.28,125,204.4,123.54Z"/><path class="cls-3" d="M204.17,102.32a3.31,3.31,0,0,0-3.74.47,2.32,2.32,0,0,0,2,4,2.49,2.49,0,0,0,1.76-4.49Z"/><path class="cls-4" d="M202.07,107a2.61,2.61,0,0,1-1.95-.82,2.65,2.65,0,0,1-.64-2,2.25,2.25,0,0,1,.84-1.61,4.17,4.17,0,0,1,2.35-.91,2.53,2.53,0,0,1,1.6.44,2.63,2.63,0,0,1,.6,3.72,2.68,2.68,0,0,1-2.06,1.11h0a2.54,2.54,0,0,1-.39,0A2,2,0,0,1,202.07,107Zm.62-4.94a3.8,3.8,0,0,0-2.15.84,1.93,1.93,0,0,0-.7,1.35,2.29,2.29,0,0,0,.55,1.68,2.19,2.19,0,0,0,2,.66h.07a2.33,2.33,0,0,0,2.13-.94,2.29,2.29,0,0,0-.51-3.22A2.22,2.22,0,0,0,202.69,102.1Z"/><path class="cls-12" d="M204.17,102.32a2.36,2.36,0,0,0-1-.38,2.17,2.17,0,0,1,.78.63,2,2,0,0,1-.71,3.06,2.53,2.53,0,0,1-3.33-1,1.78,1.78,0,0,1-.21-.55,2.45,2.45,0,0,0,.56,2.06,2.35,2.35,0,0,0,2.15.71,2.49,2.49,0,0,0,1.76-4.49Z"/><path class="cls-3" d="M231.9,54.41a11.59,11.59,0,0,0-1.43-1c-.57-.39-1.14-.77-1.69-1.19a.26.26,0,0,0-.36.37A14.58,14.58,0,0,0,229.79,54,22.38,22.38,0,0,1,225,58.41a24.41,24.41,0,0,1-6.85,2.7,19.73,19.73,0,0,1-14.26-1.27.17.17,0,0,0-.17.3c4.15,2.9,9.3,3.39,14.17,2.22,4.63-1.11,10.4-3.27,12.68-7.81a5.06,5.06,0,0,0,.88.49C231.81,55.22,232.26,54.73,231.9,54.41Z"/><path class="cls-26" d="M211.92,47.5a27.54,27.54,0,0,0-2.07-2.57,9.14,9.14,0,0,0-1.71-1.69c-1.19-.86-3.59-.62-4.9-.24-1.7.49-3.09,2.72-4.14,4-1.23,1.51-2.46,3-3.58,4.55s-3.26,2.66-4.73,4.12c-1.67,1.65-3,3.58-4.55,5.32-1.43,1.58-2.68,3.35-4,5-1,1.21-2.54,2.68-2.57,4.32a.58.58,0,0,0,.58.57c2,0,3.56-1.93,5-3,2.45-1.8,4.81-3.76,7.29-5.52,1-.7,2.06-1.37,3.09-2a9.5,9.5,0,0,1,4.5-1.39,10.53,10.53,0,0,0,2.94-1.05c1.14-.45,2.28-.94,3.42-1.4a19.29,19.29,0,0,0,6.3-3.53C214.58,51.34,213,49,211.92,47.5Z"/><path class="cls-27" d="M204.77,56.06a13.82,13.82,0,0,0-.77-1.35.14.14,0,0,0-.24.14,15.18,15.18,0,0,0,.73,1.38A.16.16,0,0,0,204.77,56.06Z"/><path class="cls-27" d="M201.09,57.28a3,3,0,0,0-.46-.7c-.07-.07-.2,0-.14.11a5.46,5.46,0,0,1,.38.72,6.3,6.3,0,0,0,.5.83c.06.07.21,0,.17-.07A7.42,7.42,0,0,0,201.09,57.28Z"/><path class="cls-27" d="M203.3,49.2a9.2,9.2,0,0,0-1.62-1.85A10.42,10.42,0,0,0,200,45.92c-.06,0-.14.06-.08.1.56.45,1,1,1.56,1.54s1.1,1.19,1.65,1.78C203.21,49.43,203.36,49.31,203.3,49.2Z"/><path class="cls-27" d="M201.17,49.67A30.86,30.86,0,0,0,199,47.46c-.07-.08-.16,0-.1.1.33.42.72.79,1.06,1.2A5.12,5.12,0,0,0,201,49.85.13.13,0,0,0,201.17,49.67Z"/><path class="cls-27" d="M197.56,53.34c-.61-.68-1.31-1.27-1.93-1.94-.08-.08-.23,0-.17.13a5.69,5.69,0,0,0,.86.91,10,10,0,0,0,1.1,1.05A.1.1,0,0,0,197.56,53.34Z"/><path class="cls-27" d="M193.18,58.49a16.36,16.36,0,0,1-1.33-1.17c-.21-.22-.4-.46-.63-.67s-.58-.41-.82-.67c-.06-.07-.17,0-.13.1a2,2,0,0,0,.47.5,10.09,10.09,0,0,1,.77.83A7.17,7.17,0,0,0,193,58.69C193.15,58.77,193.29,58.58,193.18,58.49Z"/><path class="cls-27" d="M190.56,60.65c-.73-.73-1.46-1.48-2.24-2.16a.1.1,0,1,0-.14.14,20.87,20.87,0,0,0,2.19,2.22A.14.14,0,1,0,190.56,60.65Z"/><path class="cls-27" d="M185.84,64.72c-.22-.26-.43-.52-.66-.77s-.49-.46-.69-.72c-.08-.09-.2,0-.16.13a.93.93,0,0,0,.22.27,3.81,3.81,0,0,1,.37.43c.24.28.49.56.75.83S185.94,64.84,185.84,64.72Z"/><path class="cls-28" d="M211.92,47.5a27.54,27.54,0,0,0-2.07-2.57,9.14,9.14,0,0,0-1.71-1.69,4.08,4.08,0,0,0-2.23-.58,10.23,10.23,0,0,1,.83,1.1,10.4,10.4,0,0,1,1.92,3.55.28.28,0,0,1,0,.09,2.2,2.2,0,0,1-.62,2.22A3.28,3.28,0,0,1,206,51c-.46,0-.95-.43-1.32-.77-.3-.13-.59-.28-.86-.41a11.3,11.3,0,0,0,.47,1.84.28.28,0,0,1-.19.35,2.72,2.72,0,0,1-2.15-.06c0,.91-.07,2-1.14,2.27a4.11,4.11,0,0,1-3-.75c.85,1.14,1.83,2.76.07,3.23-1.18.32-2.17,1.06-3.38,1.29a3.37,3.37,0,0,1-1.88-.26c.6.92.92,1.76-.16,2.74-.67.62-1.58.25-2.31-.23a2.46,2.46,0,0,1-.6,2.82c-.83.83-2.38,2.76-3.78,2.2-.48-.19-1.57,2.35-1.8,2.7a5.18,5.18,0,0,1-1.7,1.69,14.23,14.23,0,0,1-2.54.91.6.6,0,0,0,.53.35c2,0,3.56-1.93,5-3,2.45-1.8,4.81-3.76,7.29-5.52,1-.7,2.06-1.37,3.09-2a9.5,9.5,0,0,1,4.5-1.39,10.53,10.53,0,0,0,2.94-1.05c1.14-.45,2.28-.94,3.42-1.4a19.29,19.29,0,0,0,6.3-3.53C214.58,51.34,213,49,211.92,47.5Z"/><path class="cls-29" d="M211.92,47.5c-.56-.75-1.07-1.44-1.61-2.06a6,6,0,0,1,.88,4.12,2.48,2.48,0,0,1-.29,1.38,9.21,9.21,0,0,1-2.08,2A6.65,6.65,0,0,1,207,54.29a1.79,1.79,0,0,1-.58.13c-1,.32-1.87-.12-2.92-.55,0,1.18.63,2.7-.67,3.32-.87.41-1.75-.46-2.44-1.18.15.84.22,1.66-.67,2.15a13,13,0,0,1-3,.8,14.88,14.88,0,0,0-1.48.45,13.41,13.41,0,0,0-1.92,1.53,2.87,2.87,0,0,1-1.15.62,3.83,3.83,0,0,0-.67.27l-.35.27-.09.09a10.65,10.65,0,0,1-.57.9,9.1,9.1,0,0,1-2.94,2.31c-1.47,1.31-2.94,2.61-4.44,3.88a8.36,8.36,0,0,1-2.25,1.55c1.69-.36,3.05-2,4.36-3,2.45-1.8,4.81-3.76,7.29-5.52,1-.7,2.06-1.37,3.09-2a9.5,9.5,0,0,1,4.5-1.39,10.53,10.53,0,0,0,2.94-1.05c1.14-.45,2.28-.94,3.42-1.4a19.29,19.29,0,0,0,6.3-3.53C214.58,51.34,213,49,211.92,47.5Z"/><path class="cls-9" d="M220.89,38c1.38-.05,2.56,1.43,2.63,3.31s-1,3.45-2.36,3.5-2.56-1.42-2.63-3.31S219.51,38.09,220.89,38Z"/><path class="cls-30" d="M220.78,44.49c-1.38,0-2.56-1.43-2.63-3.31s1-3.45,2.36-3.5,2.56,1.43,2.63,3.3S222.16,44.43,220.78,44.49Z"/><path class="cls-31" d="M220.72,43.08c-.8,0-1.5-.83-1.54-1.94s.58-2,1.39-2.06,1.5.84,1.54,2S221.53,43.05,220.72,43.08Z"/><path class="cls-32" d="M219.46,40.17a.71.71,0,0,1-.52-.93.87.87,0,0,1,1-.58.7.7,0,0,1,.52.92A.88.88,0,0,1,219.46,40.17Z"/><path class="cls-32" d="M219.31,41.75a.41.41,0,0,1-.31-.53.5.5,0,0,1,.58-.34.41.41,0,0,1,.31.53A.5.5,0,0,1,219.31,41.75Z"/><path class="cls-9" d="M197.79,37c1.19,0,2.21,1.44,2.28,3.32s-.82,3.45-2,3.49-2.2-1.44-2.28-3.32S196.61,37,197.79,37Z"/><path class="cls-30" d="M197.68,43.41c-1.18,0-2.2-1.44-2.28-3.32s.83-3.44,2-3.49,2.2,1.44,2.27,3.32S198.87,43.36,197.68,43.41Z"/><path class="cls-31" d="M197.63,42c-.7,0-1.3-.85-1.35-2s.49-2,1.19-2,1.3.85,1.34,2S198.33,42,197.63,42Z"/><path class="cls-32" d="M196.53,39.08a.73.73,0,0,1-.46-.93.75.75,0,0,1,.86-.58.74.74,0,0,1,.45.93A.72.72,0,0,1,196.53,39.08Z"/><path class="cls-32" d="M196.4,40.67a.46.46,0,0,1,.23-.88.46.46,0,0,1-.23.88Z"/><path class="cls-33" d="M93.8,67.31c1.18,0,2.14-1.24,2.14-2.76s-1-2.77-2.14-2.77S91.66,63,91.66,64.55,92.62,67.31,93.8,67.31Z"/><path class="cls-34" d="M93.65,67.12a2.65,2.65,0,1,0-2-2.57A2.34,2.34,0,0,0,93.65,67.12Z"/><path class="cls-35" d="M93.15,67.12a2.65,2.65,0,1,0-2-2.57A2.34,2.34,0,0,0,93.15,67.12Z"/><path class="cls-36" d="M92.81,66.16a1.55,1.55,0,1,0-1.17-1.51A1.37,1.37,0,0,0,92.81,66.16Z"/><path class="cls-6" d="M50.34,139.94c-9.74,32.94,17.9,56.9,51.12,53.63s44.38-22.49,43.75-47.21C144,97.73,65.77,87.78,50.34,139.94Z"/><g class="cls-8"><path class="cls-6" d="M102.94,138.18a4.82,4.82,0,0,0,4.72-3.84,4.8,4.8,0,0,0,0-2,4.82,4.82,0,1,0-4.72,5.79Z"/><path class="cls-9" d="M102.94,147a4.82,4.82,0,1,0,4.72,5.78,5.15,5.15,0,0,0,.1-1,5.23,5.23,0,0,0-.1-1A4.82,4.82,0,0,0,102.94,147Z"/></g><path class="cls-9" d="M145.21,146.36C144,97.73,65.77,87.78,50.34,139.94c-9.74,32.94,17.9,56.9,51.12,53.63S145.84,171.08,145.21,146.36ZM102,185.58c-29.43,2.89-53.9-18.32-45.28-47.49a41.72,41.72,0,0,1,17.41-23.83,14.07,14.07,0,0,0,4.2,3.94s-.51,9.41-1.27,20.34-5.21,17.12-2.62,20.29,14.84,5.58,16.34,1.21,2.56-24.93,2.44-32.07c0,0,25,.17,33.29-11.85a34.85,34.85,0,0,1,14.23,27.65C141.33,165.66,131.46,182.69,102,185.58Z"/><path class="cls-37" d="M103.65,137.72a4.82,4.82,0,1,0-4.81-4.82A4.82,4.82,0,0,0,103.65,137.72Z"/><path class="cls-38" d="M103.65,136.76a3.86,3.86,0,1,0-3.85-3.86A3.86,3.86,0,0,0,103.65,136.76Z"/><path class="cls-9" d="M103.65,128.08a4.82,4.82,0,1,0,4.82,4.82A4.81,4.81,0,0,0,103.65,128.08Zm0,9.4a4.58,4.58,0,1,1,4.58-4.58A4.58,4.58,0,0,1,103.65,137.48Z"/><path class="cls-39" d="M103.65,136.42a3.52,3.52,0,1,0-3.51-3.52A3.52,3.52,0,0,0,103.65,136.42Z"/><path class="cls-39" d="M103.65,129.38a3.52,3.52,0,1,0,3.52,3.52A3.52,3.52,0,0,0,103.65,129.38Zm.19,6a3,3,0,1,1,3-3A3,3,0,0,1,103.84,135.37Z"/><path class="cls-30" d="M104.89,132.23a.47.47,0,1,0-.46-.47A.47.47,0,0,0,104.89,132.23Z"/><path class="cls-30" d="M102.41,132.23a.47.47,0,0,0,0-.94.47.47,0,0,0,0,.94Z"/><path class="cls-30" d="M104.89,134.51a.47.47,0,1,0-.46-.47A.47.47,0,0,0,104.89,134.51Z"/><path class="cls-30" d="M102.41,134.51a.47.47,0,0,0,0-.94.47.47,0,0,0,0,.94Z"/><path class="cls-37" d="M103.65,156.18a4.82,4.82,0,1,0-4.81-4.82A4.82,4.82,0,0,0,103.65,156.18Z"/><path class="cls-38" d="M103.65,155.22a3.86,3.86,0,1,0-3.85-3.86A3.86,3.86,0,0,0,103.65,155.22Z"/><path class="cls-38" d="M103.65,146.54a4.82,4.82,0,1,0,4.82,4.82A4.81,4.81,0,0,0,103.65,146.54Zm0,9.39a4.58,4.58,0,1,1,4.58-4.57A4.57,4.57,0,0,1,103.65,155.93Z"/><path class="cls-39" d="M103.65,154.88a3.52,3.52,0,1,0-3.51-3.52A3.52,3.52,0,0,0,103.65,154.88Z"/><path class="cls-39" d="M103.65,147.84a3.52,3.52,0,1,0,3.52,3.52A3.52,3.52,0,0,0,103.65,147.84Zm.19,6a3,3,0,1,1,3-3A3,3,0,0,1,103.84,153.83Z"/><path class="cls-30" d="M104.89,150.69a.47.47,0,1,0-.46-.47A.47.47,0,0,0,104.89,150.69Z"/><path class="cls-30" d="M102.41,150.69a.47.47,0,0,0,0-.94.47.47,0,0,0,0,.94Z"/><path class="cls-30" d="M104.89,153a.47.47,0,1,0-.46-.46A.47.47,0,0,0,104.89,153Z"/><path class="cls-30" d="M102.41,153a.47.47,0,1,0,0-.93.47.47,0,0,0,0,.93Z"/><path class="cls-40" d="M78.42,93.26C77.24,111.19,95.9,119,110,115.52s20-9.63,19.66-25.44C129,62.18,80.4,63.44,78.42,93.26Z"/><g class="cls-8"><path class="cls-41" d="M128.33,83.07a16.69,16.69,0,0,1,.28,8.39c-2.76,13.05-8.82,16.92-21.08,17.07-16.49.2-26.09-9.91-21.64-24.4a19.7,19.7,0,0,1,13.8-13.52C89,72.72,79.28,80.29,78.42,93.26,77.24,111.19,95.9,119,110,115.52s20-9.63,19.66-25.44A20.62,20.62,0,0,0,128.33,83.07Z"/></g><g class="cls-8"><path class="cls-41" d="M97.84,81.54c-1.37,0-2.47,1.51-2.47,3.38s1.1,3.37,2.47,3.37,2.47-1.51,2.47-3.37S99.2,81.54,97.84,81.54Z"/><path class="cls-41" d="M117.84,82.79c-1.18,0-2.13,1.52-2.13,3.38s1,3.37,2.13,3.37S120,88,120,86.17,119,82.79,117.84,82.79Z"/></g><path class="cls-30" d="M97.46,87.93c1.37,0,2.47-1.51,2.47-3.38s-1.1-3.37-2.47-3.37S95,82.69,95,84.55,96.09,87.93,97.46,87.93Z"/><path class="cls-31" d="M97.46,86.53c.8,0,1.45-.88,1.45-2s-.65-2-1.45-2-1.45.89-1.45,2S96.66,86.53,97.46,86.53Z"/><path class="cls-32" d="M98.59,83.6a.69.69,0,0,0,.48-.93.85.85,0,0,0-1-.54.7.7,0,0,0-.48.93A.86.86,0,0,0,98.59,83.6Z"/><path class="cls-32" d="M98.81,85.16a.4.4,0,0,0,.28-.54.49.49,0,0,0-.59-.31.4.4,0,0,0-.27.54A.48.48,0,0,0,98.81,85.16Z"/><path class="cls-30" d="M117.46,89.18c1.17,0,2.12-1.51,2.12-3.38s-1-3.37-2.12-3.37-2.13,1.51-2.13,3.37S116.28,89.18,117.46,89.18Z"/><path class="cls-31" d="M117.46,87.79c.69,0,1.25-.89,1.25-2s-.56-2-1.25-2-1.26.89-1.26,2S116.76,87.79,117.46,87.79Z"/><path class="cls-32" d="M118.43,84.85a.71.71,0,0,0,.41-.93.68.68,0,1,0-1.28.39A.73.73,0,0,0,118.43,84.85Z"/><path class="cls-32" d="M118.62,86.41a.45.45,0,1,0-.51-.31A.42.42,0,0,0,118.62,86.41Z"/><path class="cls-42" d="M90.54,98.38a12.43,12.43,0,0,0,.95,1.2,17.67,17.67,0,0,0,3,2.67,20.16,20.16,0,0,0,5,2.56,24.8,24.8,0,0,0,6.32,1.29,28,28,0,0,0,3.29.14,23.5,23.5,0,0,0,3.18-.2,15.77,15.77,0,0,0,5.37-1.57,10.13,10.13,0,0,0,3.13-2.43,5.7,5.7,0,0,0,.84-1.28,5.14,5.14,0,0,1-.71,1.37,9.48,9.48,0,0,1-3,2.74,15.72,15.72,0,0,1-5.49,1.88,23.11,23.11,0,0,1-3.27.29,31.72,31.72,0,0,1-3.37-.12,22.78,22.78,0,0,1-6.5-1.43,18.76,18.76,0,0,1-5-2.87,15.73,15.73,0,0,1-2.85-2.93A9.16,9.16,0,0,1,90.54,98.38Z"/><path class="cls-42" d="M88.42,98l.23.05c.15,0,.36.07.61.11a7,7,0,0,0,.86.08,5.32,5.32,0,0,0,1,0l.49-.06A2.39,2.39,0,0,0,92,98l.44-.11a1.44,1.44,0,0,0,.38-.15c.46-.21.8-.33.8-.33s-.26.23-.7.54a1.82,1.82,0,0,1-.36.22l-.45.18a2.56,2.56,0,0,1-.49.16l-.53.08a1.87,1.87,0,0,1-.53,0l-.51,0a2.17,2.17,0,0,1-.47-.1,2.58,2.58,0,0,1-.42-.11A2.85,2.85,0,0,1,88.42,98Z"/><g class="cls-43"><path class="cls-44" d="M103,90.87c-1.45,5.9,5.4,6.75,13.08,6.52,4.32-.12,10.59-.65,16.75-1.38,9.84-1.16,18.23-1.21,18.52-2.3.34-1.32-5.47-2.59-16.57-2.84S105.29,81.64,103,90.87Z"/><path class="cls-27" d="M113,87s-.13.19-.35.46l-.17.22a2.4,2.4,0,0,0-.16.27c-.1.18-.22.37-.33.57-.18.42-.4.82-.5,1.15s-.22.54-.22.54,0-.23.11-.57a3.08,3.08,0,0,1,.17-.58l.26-.64c.12-.2.25-.4.37-.58a2,2,0,0,1,.39-.45C112.81,87.14,113,87,113,87Z"/><path class="cls-27" d="M115.1,87.32l-.07.08a1.11,1.11,0,0,0-.19.22,1.7,1.7,0,0,0-.2.33,1.89,1.89,0,0,0-.18.41c-.11.29-.2.59-.28.82s-.16.37-.16.37,0-.17,0-.4a5,5,0,0,1,.2-.86,2.89,2.89,0,0,1,.22-.43,1.93,1.93,0,0,1,.28-.33c.09-.09.19-.11.24-.16Z"/><path class="cls-27" d="M120.38,88.38l-.12.1a1.32,1.32,0,0,0-.29.29,2.1,2.1,0,0,0-.29.47,2.94,2.94,0,0,0-.22.61,5,5,0,0,0-.13.65c0,.2-.07.4-.08.57,0,.34-.07.57-.07.57a4.49,4.49,0,0,1-.05-.58,4.09,4.09,0,0,1,0-.59,5.83,5.83,0,0,1,.11-.67,3.3,3.3,0,0,1,.26-.64,1.85,1.85,0,0,1,.37-.48,1.29,1.29,0,0,1,.35-.23Z"/><path class="cls-27" d="M122.34,88.81s0,.12-.1.31a1.75,1.75,0,0,0-.1.3l-.12.35-.09.35a1,1,0,0,0-.07.31c0,.19-.06.32-.06.32s0-.12-.06-.32a1,1,0,0,1,0-.34c0-.12,0-.25.08-.38a2.63,2.63,0,0,1,.31-.65Z"/><path class="cls-27" d="M124.5,89.29s-.07.15-.16.39a2.49,2.49,0,0,0-.14.39c0,.14-.08.3-.12.46A4,4,0,0,0,124,91a3,3,0,0,0,0,.42,3.11,3.11,0,0,0,.06.41l0-.1a1,1,0,0,1-.12-.29,1.51,1.51,0,0,1-.06-.44,2.92,2.92,0,0,1,0-.51,2.68,2.68,0,0,1,.36-.87A2.35,2.35,0,0,1,124.5,89.29Z"/><path class="cls-27" d="M127.9,90.05a1.62,1.62,0,0,0-.1.33c0,.19-.12.45-.17.71a6.94,6.94,0,0,0-.16.72,1.32,1.32,0,0,0,0,.33.86.86,0,0,1-.08-.34,2.31,2.31,0,0,1,.07-.76,3.09,3.09,0,0,1,.27-.71A2.07,2.07,0,0,1,127.9,90.05Z"/><path class="cls-27" d="M131.31,90.63l-.07.1a1.35,1.35,0,0,0-.19.28,2.67,2.67,0,0,0-.17.41,4.19,4.19,0,0,0-.11.51,3,3,0,0,0,0,.52,3.13,3.13,0,0,0,0,.46c0,.27.07.45.07.45l-.05-.11a1.93,1.93,0,0,1-.13-.31,2.14,2.14,0,0,1-.1-.48,3.33,3.33,0,0,1,0-.55,3.16,3.16,0,0,1,.14-.55,1.67,1.67,0,0,1,.25-.42c.08-.13.19-.17.25-.23Z"/><path class="cls-27" d="M138.7,91.06a2.35,2.35,0,0,0-.07.28c0,.16-.07.37-.09.59s-.07.44-.1.6a.83.83,0,0,0,0,.28.84.84,0,0,1-.08-.28,2.69,2.69,0,0,1,0-.63c0-.11,0-.22.08-.33a1.82,1.82,0,0,1,.11-.28,1.47,1.47,0,0,1,.13-.17Z"/><path class="cls-27" d="M141.77,91.3l0,.07a.43.43,0,0,0-.05.18.9.9,0,0,0,0,.24,1.4,1.4,0,0,0,0,.29c0,.19,0,.39.05.54a.9.9,0,0,0,.05.25.83.83,0,0,1-.16-.22,1.49,1.49,0,0,1-.14-.57,1.08,1.08,0,0,1,.12-.58.32.32,0,0,1,.12-.15Z"/><path class="cls-27" d="M144.26,91.54a.82.82,0,0,0,0,.22c0,.11,0,.28,0,.44a5.27,5.27,0,0,1,0,.67,1,1,0,0,1-.1-.2,1.85,1.85,0,0,1-.1-.46,1.48,1.48,0,0,1,.08-.49C144.19,91.6,144.27,91.55,144.26,91.54Z"/><g class="cls-45"><path class="cls-44" d="M150,92.54c-2.08,1.81-6.46,1-9,1.11-7.58.29-15.59,1.49-23-.3a21.87,21.87,0,0,0-4.92,0,9.92,9.92,0,0,1-6.48-1.8c-2-1.45-1.31-4.22,1.94-4.75-2.78.28-4.78,1.42-5.44,4.08-1.45,5.9,5.4,6.75,13.08,6.52,4.32-.12,10.59-.65,16.75-1.38,9.84-1.16,18.23-1.21,18.52-2.3C151.46,93.3,151,92.9,150,92.54Z"/></g><g class="cls-45"><path class="cls-44" d="M116.73,95.69c-7.52,0-14.19-1.08-12.92-6.61a5.18,5.18,0,0,0-.79,1.78c-1.45,5.9,5.4,6.75,13.08,6.52,4.32-.12,10.58-.66,16.75-1.38,9.83-1.16,18.23-1.21,18.51-2.31a.22.22,0,0,0,0-.08c-2.27.61-9.52.56-17.84,1.26C127.34,95.39,121.05,95.71,116.73,95.69Z"/></g></g><path class="cls-46" d="M80.63,104.32s-2.3-1.46-2.84,2.81c0,0-3.66,1.24-.69,5.87s13.52,13.7,31.23,10.45c18.7-3.42,19.1-11.55,17.83-12.54,0,0,3-4.06,0-4.69,0,0-10.47,13-27.74,9.35C83.78,112.49,80.63,104.32,80.63,104.32Z"/><path class="cls-47" d="M78.34,105.11l-.06.33a1.45,1.45,0,0,0-.06.39c0,.15,0,.31,0,.48s0,.37,0,.57.07.41.11.63a12.44,12.44,0,0,0,.4,1.33,24.79,24.79,0,0,0,1.09,2.42l.57,1.1a7.39,7.39,0,0,1-.86-.91,7.23,7.23,0,0,1-.73-1.06,8.76,8.76,0,0,1-.65-1.34c-.09-.24-.15-.49-.22-.73a6.21,6.21,0,0,1-.13-.73c0-.24,0-.47,0-.69s0-.44.08-.63a4.5,4.5,0,0,1,.15-.51,1.73,1.73,0,0,1,.17-.36A3,3,0,0,1,78.34,105.11Z"/><path class="cls-47" d="M112.17,118.2,113,118c.5-.14,1.19-.39,2-.67s1.79-.67,2.8-1.11c.51-.21,1-.45,1.54-.71s1-.52,1.54-.81,1-.6,1.49-.9.93-.66,1.37-1,.82-.69,1.19-1l1-1c.25-.36.49-.68.71-1a4.43,4.43,0,0,0,.47-.8l.4-.71-.29.76a5.06,5.06,0,0,1-.38.86c-.18.32-.39.67-.63,1.06l-.92,1.13c-.35.37-.75.75-1.16,1.13s-.9.73-1.38,1.06-1,.67-1.53.94a23.72,23.72,0,0,1-3.17,1.48c-.52.22-1,.37-1.52.53l-1.39.41A22.69,22.69,0,0,1,112.17,118.2Z"/><g class="cls-48"><path class="cls-46" d="M126.16,110.91s3-4.06,0-4.69c0,0-10.47,13-27.74,9.35-14.65-3.08-17.8-11.25-17.8-11.25s-2.3-1.46-2.84,2.81c0,0-3.66,1.24-.69,5.87s13.52,13.7,31.23,10.45C127,120,127.43,111.9,126.16,110.91Zm-45.4,5.41a14.25,14.25,0,0,1-3.66-4.54c-1.51-3,0-3.52.9-1.87A8.54,8.54,0,0,0,81.2,113s-1.45-1.49-2-5.14c-.5-3.32.84-3.92,1.44-2a15.26,15.26,0,0,0,2.19,4A21,21,0,0,0,80.76,116.32Zm37.53,3.08c-9.75,4.23-23.09,3.41-24.31-.07s2.82-3.45,2.82-3.45c2,.07,6.85,1.61,12.69.68,11.67-1.85,16-8.86,16.69-9s1.73.67-3.5,4.84a38.9,38.9,0,0,1-12.23,6.1c4.06.5,8.44-1.15,11.17-2.62,2-1.08,2.91-2.14,3.31-1.77C125.55,114.68,124.74,116.61,118.29,119.4Z"/></g><path class="cls-49" d="M94.25,114.51l3,.79s.23-3.12-1.88-4.69a4.34,4.34,0,0,0-3.84-.94s.29-1.55-2.45-2.45-8.31,1.3-8.87,15.59,0,28.31-4.29,32.7c0,0,.16,2.71,5.63,4.45,4.84,1.55,7.13-.67,7.13-.67s1.55-3.44,1.46-17.25S90.14,117.25,94.25,114.51Z"/><path class="cls-50" d="M93.26,109.69l-.38,0-.44-.05h-.55a3.83,3.83,0,0,0-.65.06,3.7,3.7,0,0,0-.7.16,4.2,4.2,0,0,0-.73.25,6.74,6.74,0,0,0-.72.34,12,12,0,0,0-2.36,1.81c-.58.58-.93,1-.93,1a7,7,0,0,1,.76-1.16,8.52,8.52,0,0,1,1-1,7.55,7.55,0,0,1,1.34-1c.26-.11.5-.26.77-.35a5,5,0,0,1,.79-.23,2.94,2.94,0,0,1,.76-.1,4,4,0,0,1,.69,0l.57.08.42.13Z"/><path class="cls-50" d="M84.43,115.88l-.14.43a9,9,0,0,0-.33,1.22,15,15,0,0,0-.23,2c0,.76,0,1.61,0,2.55a51,51,0,0,0,.74,6.34c.37,2.31.89,4.75,1.41,7.19.24,1.23.46,2.47.65,3.69s.34,2.42.42,3.6a30,30,0,0,1,.08,3.39,18.6,18.6,0,0,1-.37,3l-.15.67c-.07.22-.14.43-.2.63a7,7,0,0,1-.47,1.14,4.9,4.9,0,0,1-.53.93L85,153l-.28.33a6.9,6.9,0,0,1-.5.54l-.41.34-.35.29.34-.3c.1-.1.24-.22.4-.36s.29-.35.46-.56.18-.22.27-.33l.24-.41a5.18,5.18,0,0,0,.49-.94,6.49,6.49,0,0,0,.41-1.13l.18-.62c0-.22.09-.44.13-.67a18.23,18.23,0,0,0,.3-3,32.39,32.39,0,0,0-.14-3.35c-.09-1.16-.25-2.36-.44-3.57s-.43-2.44-.67-3.66c-.5-2.45-1-4.91-1.36-7.23a47.8,47.8,0,0,1-.62-6.39,20.55,20.55,0,0,1,.09-2.56,13.82,13.82,0,0,1,.32-2,9.18,9.18,0,0,1,.37-1.21Z"/><path class="cls-51" d="M83.5,154.54c4.75-3.47,3.61-12.11,1.91-20.17s-2.59-14.68-1-18.49c0,0-4.1,4.17-.93,16.51C87.57,148.22,83.5,154.54,83.5,154.54Z"/><path class="cls-51" d="M95.57,110.79a4.34,4.34,0,0,0-3.84-.94s.28-1.55-2.45-2.45S81,108.7,80.41,123s0,28.31-4.29,32.7c0,0,.16,2.71,5.63,4.46,4.84,1.54,7.13-.68,7.13-.68s1.55-3.44,1.46-17.25,0-24.79,4.09-27.53l3,.79S97.68,112.36,95.57,110.79Zm-4.85,5.71c-2.39,3.59-2,10.57-1.39,22s-.86,21.7-7.19,20.34c-3.18-.69-4.23-3-2.56-9.39,2.13-8.22.87-23.84,2.18-32.72,1.38-9.33,6.57-9.75,7.79-8.7s-2.23,1.74-4.53,7.28c0,0,4-6.16,7.77-5.16C94.66,110.66,93.12,112.91,90.72,116.5Z"/><g class="cls-8"><path class="cls-41" d="M125.63,78.06a1.27,1.27,0,0,1-.47-.73,58.58,58.58,0,0,0-16.72-4.14c-6.21-.45-14.54-.87-20.77,1.5l-.06.13A18.36,18.36,0,0,1,85,77.89a15.73,15.73,0,0,1-1.4,1.92,1.32,1.32,0,0,0,1,.16c2-.29,17.3-10.19,42.5,2a1,1,0,0,0,.8,0A23,23,0,0,0,125.63,78.06Z"/></g><path class="cls-35" d="M87.09,73.77c-4.5,2.55-4.51,5-2.5,4.73s17.3-10.19,42.5,2c1.4.67,2.57-1.67-1.35-3.83-1.41-.78-.4-3.75,1.12-11.37S130,50.18,113.7,47.38,93.59,48,90.83,60.11A132.52,132.52,0,0,1,87.09,73.77Z"/><path class="cls-52" d="M84.75,75.32a3.28,3.28,0,0,1,.32-.29,3.86,3.86,0,0,1,.39-.3,6.08,6.08,0,0,1,.53-.36,11.74,11.74,0,0,1,1.43-.75c.27-.11.55-.25.84-.36l.89-.29c.31-.09.6-.2.91-.26l.88-.19.84-.16.75-.08c.94-.09,1.57-.11,1.57-.11s-.61.15-1.53.34l-.74.14-.81.22-.86.22a8.94,8.94,0,0,0-.88.27c-.6.18-1.18.37-1.72.59-.26.11-.54.19-.77.31l-.69.31-.56.29a3.31,3.31,0,0,0-.43.24C84.88,75.23,84.75,75.32,84.75,75.32Z"/><path class="cls-52" d="M121.57,75a5.71,5.71,0,0,1,1,.15c.16,0,.31.08.49.12a5.34,5.34,0,0,1,.53.16,9.11,9.11,0,0,1,1.13.48l.55.29c.18.09.34.22.51.32a7,7,0,0,1,.85.64c.46.41.75.71.75.71s-.37-.2-.89-.52a9,9,0,0,0-.9-.52c-.33-.2-.69-.37-1.05-.55s-.74-.34-1.08-.51-.67-.29-1-.4l-.69-.27Z"/><g class="cls-48"><path class="cls-35" d="M125.74,76.68c-1.41-.78-.4-3.75,1.12-11.37S130,50.18,113.7,47.38,93.59,48,90.83,60.11a132.52,132.52,0,0,1-3.74,13.66c-4.5,2.55-4.51,5-2.5,4.73s17.3-10.19,42.5,2C128.49,81.18,129.66,78.84,125.74,76.68Zm-3.22.86C112.06,72.69,99.18,73.41,96.25,74s-.51-1.29,1.65-1.81a31.57,31.57,0,0,1,8.5-.58l-1.24-.17C100,70.63,97.4,67,101,56.75s9.88-8.78,17-7.27,10.6,5.28,7.52,17.82c-1.66,6.78-1.59,7.46-4.9,7.46C124.12,75.91,127.28,79.74,122.52,77.54Z"/></g><g class="cls-48"><path class="cls-35" d="M91,73.77c.37-2.11,5.5-2.38,5.5-2.38-4-.32-2.85-6.37-.71-15.94s16.21-8.33,16.29-8.32c-14.94-2.3-18.63,1.23-21.29,13a132.52,132.52,0,0,1-3.74,13.66c-4.5,2.55-4.51,5-2.5,4.73.77-.11,3.45-1.61,7.86-2.75C91.6,75.34,90.87,74.71,91,73.77Z"/></g><path class="cls-53" d="M101.1,72.93c1.72-.28,12.33-.77,20.06,3.39C125.55,78.69,115.15,69.62,101.1,72.93Z"/><path class="cls-53" d="M116.44,51.06c6.32,3.46,9.85,5.13,5.69,18.93-.88,2.94,1.72,2.89,3.92-10.24C127.48,51.25,112,48.61,116.44,51.06Z"/><path class="cls-30" d="M164.65,107.4h-.1a.41.41,0,0,0-.47-.16c-2.57.57-5,1.86-7.45,2.81l-1.82.73c0-.08,0-.16,0-.22a.13.13,0,0,0,0-.06c.21-.55.46-1.24.56-1.44a18,18,0,0,0,1.1-3.45c.28-1-1.05-1-1.42-.31a21,21,0,0,0-1.57,4.35l-.15.37a4.49,4.49,0,0,0-.43,1.65l-.45.25a.72.72,0,0,0-.46.06,105.61,105.61,0,0,0-18.74,9.85.37.37,0,0,0,0,.59.68.68,0,0,0,1,.85c3.83-2.37,7.66-4.65,11.65-6.74h.1a46.85,46.85,0,0,0,4.87-.57c1.78-.46,4.14.85,6.06.76.64,0,1.06-1.19.27-1.19-.28,0-.57,0-.86,0-1.67-.21-3.28-1.06-4.93-.9-.48,0-1,.07-1.53.09a20.61,20.61,0,0,0,3.82-1.67,10.79,10.79,0,0,0,3.79-1.52c1.71-.83,3.47-1.43,5.24-2.1a.76.76,0,0,0,.2-.12l.32-.1c.64-.18,1.75-.5,1.74-1.34A.41.41,0,0,0,164.65,107.4Z"/><path class="cls-30" d="M75.89,127.46a7.77,7.77,0,0,0-2.22.71,4.74,4.74,0,0,1,.2-.95,15.29,15.29,0,0,1,.88-2.4.19.19,0,0,0-.33-.19,14.42,14.42,0,0,0-1.26,2.59.2.2,0,0,0,0,.08L72,126.51c-2.88-2.61-6-5-9.05-7.47,0,0,0,0,0-.06h0s0,0,0-.06,0-.14,0-.22a8.48,8.48,0,0,1-1.29-2.11,63.61,63.61,0,0,1-2.95-7.79.7.7,0,0,0-.54.52,3.27,3.27,0,0,0,.48,1.87c.51,2.13,1.83,4.15,2.63,6.26-.84-.8-1.68-1.6-2.5-2.41l-.23-.25a.21.21,0,0,1-.15-.07q-2.05-2-4-4.16l-4.94-5A35.87,35.87,0,0,1,44.6,100l-.92.3,0,.1a.17.17,0,0,0,0,.07c.29.54.59,1.06.9,1.58l.19.23a32.24,32.24,0,0,0,3.42,4.31c.73.81,1.48,1.64,2.25,2.45a24.52,24.52,0,0,0,1.72,2.12c-1.14,0-2.27,0-3.42.07-.63,0-1.25,0-1.88,0h0a1.17,1.17,0,0,1-.8-.3,6.76,6.76,0,0,1-.9-1.1l-.44.08c.23.45.5.88.77,1.31-.6-.06-1.2-.1-1.81-.1s-1.13.93-.46,1.3a3.48,3.48,0,0,0,1.79.28,11.26,11.26,0,0,0,1.85.08h1a8.94,8.94,0,0,0,1.16,0,23.15,23.15,0,0,1,4.79.49.57.57,0,0,0,.34,0s0,0,0,0A16.66,16.66,0,0,0,56.06,115l2.71,2.39c1.11,1,2.25,2,3.4,2.9l1.52,1.37a85.82,85.82,0,0,0,6.64,5.54,10.76,10.76,0,0,0,1.59,1.1l.23.22a.48.48,0,0,0,.6,0h0a.57.57,0,0,0,0,.13,9.39,9.39,0,0,0-4.19,5.61c0,.14.17.17.22,0a9.63,9.63,0,0,1,3-4.12,12.49,12.49,0,0,1,2.21-1.36,13.08,13.08,0,0,0,2-.88C76.25,127.81,76.21,127.41,75.89,127.46Z"/><path class="cls-54" d="M158.55,183.17c-1.21-.26-2.45-.29-3.66-.63a28.94,28.94,0,0,0-3.91-.95c-1.38-.18-2.8-.26-4.2-.41-.26-.15-.52-.28-.75-.4a35.79,35.79,0,0,0-7.64-2.7c-2.54-.64-4.12.52-6,2.12-1,.84-1.82,1.8-2.77,2.66a15.66,15.66,0,0,1-5.14,2.67c-1.26.46-2.86.05-4.2.47s-2.75,1.18-4.23,1.57c-3.57.93-7.3.09-10.91.75-4.83.87-9.83,2.46-14.79,1.79l-1.56-.24c-.34-.11-.68-.22-1-.35-3-1.09-5.79-2.45-8.9-3a12.74,12.74,0,0,0-4.37.61c-2,.42-3.32-1-5.2-1.16-.85-.07-1.67,0-2.52,0a8.28,8.28,0,0,1-2.53-.88,13.16,13.16,0,0,0-2.52-.82c-.9-.47-1.76-1-2.58-1.48a29.12,29.12,0,0,0-6.29-3.08,13.28,13.28,0,0,0-3.22-.3,23.18,23.18,0,0,1-6.06.73c-2.38,0-4.74-.12-7,.92a16.13,16.13,0,0,0-2.18,1.27A12.11,12.11,0,0,0,33,184.3c-.8,1.29-1.15,2.52-.08,3.74,1.26,1.45,4,2,5.78,2.18a24.44,24.44,0,0,0,6.56-.29c1.5-.26,3.63-.23,4.85.84.56.51.62,1.7,1.19,2.34,1.05,1.19,3.12,1.61,4.6,1.83,2.94.43,5.67,0,8.43,1.51,9.19,5,19.56,2.28,29.44,3.46a34.09,34.09,0,0,0,7.14-.31c2.33-.21,4.67-.27,7-.27,2.6,0,5.18-.31,7.78-.38a14.19,14.19,0,0,0,3.12-.75,19.35,19.35,0,0,1,4.79-.55,11.22,11.22,0,0,0,2.81-.51,7.58,7.58,0,0,0,2.7-.78c.91-.62,2.49-2.08,1.75-3.32-.9-1.52,1.64-1.45,2.46-1.46,1.09,0,2.15-.08,3.25,0a53.25,53.25,0,0,0,7.58-.22,30.71,30.71,0,0,0,6.75-1.53,41.18,41.18,0,0,0,7.14-2.76c.82-.45,3.45-1.35,3.29-2.65C161.15,182.85,159.72,183.44,158.55,183.17Z"/><path class="cls-55" d="M160.31,183.3a1.75,1.75,0,0,1-.78,1.59,15,15,0,0,1-3,1.66,16.27,16.27,0,0,1-4.55,1.2,26.45,26.45,0,0,0-5.63,1.3,14.2,14.2,0,0,1-4,1.12,37.57,37.57,0,0,1-5.4-.34,44.09,44.09,0,0,1-4.87-.62,33.74,33.74,0,0,0-3.57-.62c-1-.1-2.94-.41-3.64.49-.86,1.09,3.07,2.5,3.56,3.45.84,1.61-.64,3-2.06,3.52a22,22,0,0,1-7.48,1c-1.78,0-3.52-.48-5.29-.43s-3.74.67-5.64.69c-4.27,0-8.46.34-12.72.63s-8.44-.51-12.67-.95c-4-.42-8.15-.62-11.92-2.05-2.05-.78-4.34-.7-6.5-.82a31,31,0,0,1-7.19-.88c-1.55-.46-3.17-1.22-3.64-2.91-.14-.53.27-.92.35-1.4.21-1.35-1.5-2.22-2.52-2.48-1.93-.49-3.48.94-5.31,1.19a14.17,14.17,0,0,1-6.69-.49c-1.46-.54-3.72-2.16-2.72-4.05a3.43,3.43,0,0,1,2.41-1.49c1.57-.41,3.09-.94,4.64-1.43-2.35,0-4.67-.1-6.85.92a16.13,16.13,0,0,0-2.18,1.27A12.11,12.11,0,0,0,33,184.3c-.8,1.29-1.15,2.52-.08,3.74,1.26,1.45,4,2,5.78,2.18a24.44,24.44,0,0,0,6.56-.29c1.5-.26,3.63-.23,4.85.84.56.51.62,1.7,1.19,2.34,1.05,1.19,3.12,1.61,4.6,1.83,2.94.43,5.67,0,8.43,1.51,9.19,5,19.56,2.28,29.44,3.46a34.09,34.09,0,0,0,7.14-.31c2.33-.21,4.67-.27,7-.27,2.6,0,5.18-.31,7.78-.38a14.19,14.19,0,0,0,3.12-.75,19.35,19.35,0,0,1,4.79-.55,11.22,11.22,0,0,0,2.81-.51,7.58,7.58,0,0,0,2.7-.78c.91-.62,2.49-2.08,1.75-3.32-.9-1.52,1.64-1.45,2.46-1.46,1.09,0,2.15-.08,3.25,0a53.25,53.25,0,0,0,7.58-.22,30.71,30.71,0,0,0,6.75-1.53,41.18,41.18,0,0,0,7.14-2.76c.82-.45,3.45-1.35,3.29-2.65A1.09,1.09,0,0,0,160.31,183.3Z"/><path class="cls-55" d="M102.37,199.15c-2.15-.15-4.2.22-6.34.22a60.27,60.27,0,0,1-6.69-.73,42.21,42.21,0,0,0-6.46-.11A32.73,32.73,0,0,1,70.13,197a35,35,0,0,0-6.43-1.78c-1.88-.29-3.78-.33-5.68-.56-2.89-.34-5.76-1.54-6.8-4.5-.42-1.17-.76-2.37-2.34-2-.71.18-1.4.41-2.13.52-1.89.3-3.85.39-5.76.52a14.49,14.49,0,0,1-2.45,0,7.93,7.93,0,0,1-4.84-.49,11.83,11.83,0,0,0,5,1.5,24.44,24.44,0,0,0,6.56-.29c1.5-.26,3.63-.23,4.85.84.56.51.62,1.7,1.19,2.34,1.05,1.19,3.12,1.61,4.6,1.83,2.94.43,5.67,0,8.43,1.51,9.19,5,19.56,2.28,29.44,3.46a34.09,34.09,0,0,0,7.14-.31c1.35-.12,2.7-.19,4-.23C104.1,199.29,103.24,199.2,102.37,199.15Z"/><path class="cls-55" d="M156.06,182.61c-.52-.45-1.11-.22-1.68,0a6.17,6.17,0,0,0-.62.1,1.64,1.64,0,0,0-.79.52c-.28.34-.16.76-.09,1.16.1.63,1.55.73,2,.73.64,0,1.67.15,1.91-.62A2.11,2.11,0,0,0,156.06,182.61Z"/><path class="cls-55" d="M153.8,182.86l0-.08c0-.1,0-.22,0-.33-.21-1.52-1.8-3.09-3-3.92-1.89-1.3-3.34.35-4.65,1.61-.83.82-1.83,1.49-.68,2.49a5.86,5.86,0,0,0,2.12.8,21.56,21.56,0,0,0,3.55.84C152.33,184.46,154.09,184.61,153.8,182.86Z"/><path class="cls-55" d="M140.24,177.84c-.65-1.12-1.92-2.78-3.31-3a5.26,5.26,0,0,0-3.76,1.37,3.52,3.52,0,0,0-1.41,3.74c.25,1.3,1.75,1.49,2.9,1.72l.36.26c.52.39,1.17,1.23,1.91,1.28a5.84,5.84,0,0,0,4.07-1.82C142.2,180.28,140.83,178.87,140.24,177.84Z"/><path class="cls-55" d="M134.43,180a3.31,3.31,0,0,0-3.21-1.38,8.3,8.3,0,0,0-3.81,1.12c-2.35,1.31-9.23,7.77-4,9.72a10.83,10.83,0,0,0,7.42-.29c1.71-.58,4.26-1,5-3C136.79,183.85,136,181.91,134.43,180Z"/><path class="cls-55" d="M111.24,194.28a2.13,2.13,0,0,0-2-1.57,2.67,2.67,0,0,0-.67.12,2.63,2.63,0,0,0-2,1c-.44.55-1.35,1.8-1.14,2.58.25,1,1.47,1.19,2.33,1.27a3.92,3.92,0,0,0,2.79-1A1.92,1.92,0,0,0,111.24,194.28Z"/><path class="cls-55" d="M94.3,189.29c-.66-1.2-1.7-1.71-2.86-.88a4.6,4.6,0,0,0-1.84,2.23,1.19,1.19,0,0,0-.34.81.52.52,0,0,0,.35.5,1.94,1.94,0,0,0,.73.06,2.19,2.19,0,0,0,.69.07,19,19,0,0,0,2-.09,1.45,1.45,0,0,0,.84-.33C94.8,191.29,94.77,190.14,94.3,189.29Z"/><path class="cls-55" d="M76.75,187.74c-.54-.85-2.07-1.37-3-1.78a2.38,2.38,0,0,0-1.44-.23,3.62,3.62,0,0,0-2.08.85,1.29,1.29,0,0,0-.45,1.82c.45,1.08,1.9,1.55,2.93,1.72S77.73,189.27,76.75,187.74Z"/><path class="cls-55" d="M67.41,181.25A7.94,7.94,0,0,0,62.18,178c-2.83-.41-4.72,1-6.88,2.54a.18.18,0,0,0-.07.15,7.49,7.49,0,0,0-2.55,3.15c-.64,1.29-2,4.52-.72,5.85a3.12,3.12,0,0,0,1.88.65,10.41,10.41,0,0,0,4.3.12c1.31-.41,2.31.36,3.45.91s2.32.09,3.43-.09c2.1-.35,3.76-1.63,3.91-3.85A9.66,9.66,0,0,0,67.41,181.25Z"/><path class="cls-55" d="M41.9,180.25a2.32,2.32,0,0,0-1-.83c-.59-.16-1,.16-1.48.47a4.9,4.9,0,0,0-1.78,2.57.21.21,0,0,0,.15.3.53.53,0,0,0,.44.29,14.45,14.45,0,0,0,1.84-.12,2.5,2.5,0,0,0,1.65-.42c.35-.34.75-.56.78-1.09S42.13,180.57,41.9,180.25Z"/><path class="cls-55" d="M52.69,181.24c-1.15-2.17-3.55-2.14-5.44-1.06-1.41.81-4,3.64-3.13,5.42a.52.52,0,0,0,.45.27,7.46,7.46,0,0,0,2.28-.38c.49,0,1,.07,1.49.08.95,0,2.5.25,3.4-.19C53.53,184.51,53.5,182.8,52.69,181.24Z"/><path class="cls-54" d="M156.06,181c-.52-.45-1.11-.21-1.68,0a6.17,6.17,0,0,0-.62.09,1.59,1.59,0,0,0-.79.53c-.28.33-.16.76-.09,1.15.1.64,1.55.74,2,.74.64,0,1.67.14,1.91-.63A2.12,2.12,0,0,0,156.06,181Z"/><path class="cls-54" d="M153.8,181.21l0-.08c0-.1,0-.21,0-.33-.21-1.51-1.8-3.09-3-3.92-1.89-1.29-3.34.35-4.65,1.62-.83.81-1.83,1.48-.68,2.48a5.68,5.68,0,0,0,2.12.8,22.65,22.65,0,0,0,3.55.85C152.33,182.81,154.09,183,153.8,181.21Z"/><path class="cls-54" d="M140.24,176.19c-.65-1.12-1.92-2.77-3.31-3a5.3,5.3,0,0,0-3.76,1.37,3.52,3.52,0,0,0-1.41,3.74c.25,1.3,1.75,1.49,2.9,1.72l.36.27c.52.39,1.17,1.22,1.91,1.27a5.83,5.83,0,0,0,4.07-1.81C142.2,178.63,140.83,177.22,140.24,176.19Z"/><path class="cls-54" d="M134.43,178.34a3.33,3.33,0,0,0-3.21-1.38,8.3,8.3,0,0,0-3.81,1.12c-2.35,1.32-9.23,7.77-4,9.73a10.83,10.83,0,0,0,7.42-.3c1.71-.57,4.26-1,5-3C136.79,182.21,136,180.26,134.43,178.34Z"/><path class="cls-54" d="M111.24,192.63a2.13,2.13,0,0,0-2-1.57,2.28,2.28,0,0,0-.67.13,2.59,2.59,0,0,0-2,1c-.44.55-1.35,1.81-1.14,2.58.25,1,1.47,1.19,2.33,1.27a3.92,3.92,0,0,0,2.79-1A1.93,1.93,0,0,0,111.24,192.63Z"/><path class="cls-54" d="M94.3,187.64c-.66-1.2-1.7-1.71-2.86-.88A4.65,4.65,0,0,0,89.6,189a1.21,1.21,0,0,0-.34.82.51.51,0,0,0,.35.49,1.94,1.94,0,0,0,.73.06,2.18,2.18,0,0,0,.69.08c.64,0,1.37,0,2-.09a1.6,1.6,0,0,0,.84-.33C94.8,189.64,94.77,188.49,94.3,187.64Z"/><path class="cls-54" d="M76.75,186.1c-.54-.86-2.07-1.37-3-1.78a2.31,2.31,0,0,0-1.44-.23,3.55,3.55,0,0,0-2.08.85,1.28,1.28,0,0,0-.45,1.81c.45,1.09,1.9,1.55,2.93,1.73S77.73,187.62,76.75,186.1Z"/><path class="cls-6" d="M67.41,179.6a7.94,7.94,0,0,0-5.23-3.27c-2.83-.4-4.72,1-6.88,2.54a.19.19,0,0,0-.07.15,7.55,7.55,0,0,0-2.55,3.15c-.64,1.29-2,4.53-.72,5.85a3.06,3.06,0,0,0,1.88.65,10.24,10.24,0,0,0,4.3.12c1.31-.4,2.31.36,3.45.92s2.32.09,3.43-.09c2.1-.35,3.76-1.64,3.91-3.86A9.66,9.66,0,0,0,67.41,179.6Z"/><path class="cls-54" d="M41.9,178.6a2.23,2.23,0,0,0-1-.82c-.59-.17-1,.15-1.48.46a4.92,4.92,0,0,0-1.78,2.58.2.2,0,0,0,.15.29.51.51,0,0,0,.44.29,16.5,16.5,0,0,0,1.84-.11,2.51,2.51,0,0,0,1.65-.43c.35-.33.75-.55.78-1.08S42.13,178.93,41.9,178.6Z"/><path class="cls-6" d="M52.69,179.59c-1.15-2.16-3.55-2.14-5.44-1.06-1.41.81-4,3.64-3.13,5.42a.55.55,0,0,0,.45.28,7.48,7.48,0,0,0,2.28-.39c.49,0,1,.07,1.49.08.95,0,2.5.25,3.4-.19C53.53,182.86,53.5,181.15,52.69,179.59Z"/><path class="cls-35" d="M91.3,64.48c-6.21,2.82-12.47,6.65-17,11.77-2.32,2.62-4.71,7-2.08,10.11,1.57,1.9,4.55,2.31,7,2h0l0-.07a7.49,7.49,0,0,1,.28-.92h-.08c-3.18.68-6.1-1.24-6-4.59,0-3.92,4-7.5,6.73-9.79A56.53,56.53,0,0,1,93,65.05C94.05,64.55,91.83,64.24,91.3,64.48Z"/><path class="cls-36" d="M91.35,64.46c.56.11,1,.33.36.61a56.43,56.43,0,0,0-12.89,8.2c-2.74,2.37-6.68,6.07-6.73,10.12,0,3.46,2.87,5.46,6.06,4.75h.07l-.09.31c.35,0,.7,0,1-.09h0l0-.07a7.49,7.49,0,0,1,.28-.92h-.08c-3.18.68-6.1-1.24-6-4.59,0-3.92,4-7.5,6.73-9.79A56.53,56.53,0,0,1,93,65.05C94,64.57,92,64.26,91.35,64.46Z"/><path class="cls-42" d="M101.3,90.87a5.77,5.77,0,0,1,1.5.69c.21.12.43.29.66.45a6.1,6.1,0,0,1,.68.59,6.44,6.44,0,0,1,.66.71,7.78,7.78,0,0,1,.58.8c.19.28.33.58.49.87s.25.6.37.89.18.59.25.86.11.54.16.79a7.33,7.33,0,0,1,.1,1.18c0,.29,0,.46,0,.46l-.1-.45a9.55,9.55,0,0,0-.25-1.15c-.07-.23-.11-.49-.21-.75l-.3-.81-.39-.85c-.16-.27-.3-.56-.48-.82s-.35-.54-.55-.78-.4-.48-.6-.7a9.1,9.1,0,0,0-1.22-1.1A8,8,0,0,0,101.3,90.87Z"/><path class="cls-56" d="M5.8,190.91c1.84-.41,3.74-.49,5.57-.94,2.1-.5,3.81-1.6,6-1.92s4.28-.48,6.43-.74c.39-.24.77-.46,1.13-.64a55.15,55.15,0,0,1,11.64-4.35c3.82-1,6.52,1.24,9.86,2.58,2.58,1,5.48,1.9,8.15,2.72,6.31,1.92,12.34,1.94,18.82,2.38,6.2.41,11.75,1.72,17.9.61,5.15-.94,10.75-2.58,16.07-1.75a53.26,53.26,0,0,0,15.43.58c5.7-.65,11.52-.57,17.24-1.2s12.27-.58,17.92-1.82c3.09-.68,5.47-2.86,8.6-3.44,3.83-.71,8.5.42,12.33.8,4.92.48,9.71-1.46,14.64-1,5.57.49,11,1.59,16.74,1.22s11.44-.23,17.22-.3c5.52-.07,11.39,2.39,16.84,1.47a118.4,118.4,0,0,1,15.36-2c8-.3,16.24,4.63,23.95,2,8-2.73,16.19-8.93,24.93-6.5,7,2,12.74,5.84,19.94,7.24,5.93,1.15,14.29.11,19.58,3,6.79,3.79-7.77,5.78-10.07,5.86-4.06.16-6.34,1.37-9.92,2.9s-7.41,1.62-11.26,1.72c-8.4.21-16.77,1.2-25.24,1.35-4.73.08-9.35-.28-14.06-.37-3.21-.06-6.42.41-9.64.29-2.94-.12-5.45-1.24-8.26-1.66-6-.91-13.69.41-19.91.53-3.78.08-7.4-.65-11.15-.71-4.22-.07-10.32-.08-14.3,1.22-7.7,2.51-14.71,2-22.71,2.16-6.69.12-13.36.16-20.06.35-10.31.28-20.69-1.3-31,.16-9.1,1.3-17.84-.33-27,.25-5.05.32-9.64,1.68-14.77,1.54-5.79-.16-10.89-2.35-16.39-2.82-3.9-.34-8,.56-11.84,1.13-2.72.41-5.18,1.7-8,1.79-6.31.21-11.66-4.2-17.86-4.67-9-.68-16.33,1.89-25-1.39-4.86-1.84-10.32-.07-15.33-.79-5.94-.85-5.63-4.22-.42-6.28A12,12,0,0,1,5.8,190.91Z"/><path class="cls-57" d="M348,188.89a15.56,15.56,0,0,0-4.32-1.52c.18,2.49-9.62,3.79-11.44,3.86-3.92.15-6.12,1.32-9.58,2.8s-7.16,1.57-10.87,1.66c-8.11.2-16.19,1.16-24.37,1.3-4.57.08-9-.26-13.57-.35-3.11-.06-6.2.39-9.31.27-2.84-.11-5.27-1.19-8-1.6-5.82-.88-13.22.39-19.22.51-3.65.08-7.15-.62-10.76-.68-4.08-.07-10-.08-13.81,1.18-7.44,2.42-14.21,1.93-21.93,2.08-6.45.12-12.89.16-19.36.34-10,.27-20-1.26-29.9.16-8.78,1.25-17.22-.32-26,.24-4.87.31-9.3,1.62-14.25,1.48-5.6-.15-10.51-2.27-15.82-2.72-3.77-.32-7.73.54-11.44,1.09-2.63.39-5,1.64-7.68,1.73-6.1.2-11.25-4.06-17.25-4.51-8.68-.65-15.76,1.82-24.13-1.35-4.69-1.77-10-.06-14.81-.75-3.4-.49-4.67-1.84-4.1-3.26l-.31.06a12,12,0,0,0-1.83.54c-5.21,2.06-5.52,5.43.42,6.28,5,.72,10.47-1,15.33.79,8.67,3.28,16,.71,25,1.39,6.2.47,11.55,4.88,17.86,4.67,2.78-.09,5.24-1.38,8-1.79,3.84-.57,7.94-1.47,11.84-1.13,5.5.47,10.6,2.66,16.39,2.82,5.13.14,9.72-1.22,14.77-1.54,9.12-.58,17.86,1.05,27-.25,10.27-1.46,20.65.12,31-.16,6.7-.19,13.37-.23,20.06-.35,8-.16,15,.35,22.71-2.16,4-1.3,10.08-1.29,14.3-1.22,3.75.06,7.37.79,11.15.71,6.22-.12,13.88-1.44,19.91-.53,2.81.42,5.32,1.54,8.26,1.66,3.22.12,6.43-.35,9.64-.29,4.71.09,9.33.45,14.06.37,8.47-.15,16.84-1.14,25.24-1.35,3.85-.1,7.7-.19,11.26-1.72s5.86-2.74,9.92-2.9C340.27,194.67,354.83,192.68,348,188.89Z"/><path class="cls-58" d="M3.92,190.27a3.56,3.56,0,0,1,3,0c.37,0,.74.06,1.11.1a3.22,3.22,0,0,1,1.4.63c.51.41.3.94.2,1.44-.17.79-2.74,1-3.58,1-1.14,0-3,.23-3.4-.73S3.09,190.79,3.92,190.27Z"/><path class="cls-58" d="M18,190.92c2.09-.38,4.06-.86,6-1.42a15.23,15.23,0,0,0,3.57-1.13c1.89-1.18.11-1.67-1.41-2.33-2.36-1-5-2.41-8.15-.83-2,1-4.61,2.83-4.82,4.35a2,2,0,0,0,0,.33l0,.08C12.84,191.74,15.86,191.3,18,190.92Z"/><path class="cls-58" d="M31.78,187.3A13.54,13.54,0,0,0,38,188.66,8.61,8.61,0,0,0,41,187.57l.55-.23c1.75-.21,4.06-.4,4.42-1.47.43-1.26-.26-2.24-2.21-3a13,13,0,0,0-5.79-1,9.1,9.1,0,0,0-5,2.5C32,185.22,29.92,186.4,31.78,187.3Z"/><path class="cls-58" d="M47.35,189.3c.87,1.57,3.66,1.85,5.54,2.28a15.92,15.92,0,0,0,8.11.08C66.72,190,59.11,185,56.53,184a11.61,11.61,0,0,0-4.18-.82,4.29,4.29,0,0,0-3.49,1.16C47.21,185.89,46.33,187.46,47.35,189.3Z"/><path class="cls-58" d="M83.54,194.81a8.43,8.43,0,0,0,4.86,1.24c1.5-.13,3.61-.45,4-1.69.33-1-1.27-2.56-2.05-3.25a5.22,5.22,0,0,0-3.5-1.22,5.3,5.3,0,0,0-1.18-.14,3.64,3.64,0,0,0-3.38,2.06C81.79,193.11,82.1,194,83.54,194.81Z"/><path class="cls-58" d="M115.92,190.66a5.34,5.34,0,0,1,5.9-1.11c1.4.53,3.35,1.47,3.84,2.48.47.31.78.63.73.92s-.24.48-.73.58a7.8,7.8,0,0,1-1.49.09,8.18,8.18,0,0,1-1.44.11c-1.32,0-2.82,0-4.13,0a5.09,5.09,0,0,1-1.74-.34C114.91,193,115,191.65,115.92,190.66Z"/><path class="cls-58" d="M136.83,193.45c1.8-.31,4.37-1.06,5.14-2.74.56-1.24.44-1.94-.85-2.77a6.85,6.85,0,0,0-3.7-1.23,4.73,4.73,0,0,0-2.55.39c-1.55.66-4.24,1.49-5.18,2.82C128,192.29,135.06,193.74,136.83,193.45Z"/><path class="cls-58" d="M141.4,193.67c.29,2,3.21,3.17,6.88,3.42,1.93.13,4.08.5,6,0s3.72-1.28,6-.94a33.54,33.54,0,0,0,7.48-.25,8.84,8.84,0,0,0,3.26-.65c2.16-1.26-.22-4.19-1.34-5.36a10.57,10.57,0,0,0-4.49-2.81c0-.05,0-.11-.13-.14-3.79-1.36-7.09-2.58-12-2.12a18.18,18.18,0,0,0-9.07,3.16A6,6,0,0,0,141.4,193.67Z"/><path class="cls-58" d="M184.65,182.73a4.09,4.09,0,0,1,1.76-1,4.38,4.38,0,0,1,2.68.5,6.44,6.44,0,0,1,3.28,3c.11.2-.05.32-.27.35a1,1,0,0,1-.78.36c-1.06.07-2.25-.07-3.34-.08a6.52,6.52,0,0,1-3-.45c-.63-.38-1.37-.62-1.43-1.24S184.23,183.11,184.65,182.73Z"/><path class="cls-58" d="M169.69,190.64c1.48.6,4,.25,5.58.17.81,0,1.63-.08,2.44-.15a13.65,13.65,0,0,0,3.73.48.86.86,0,0,0,.73-.41c1.33-2.59-2.92-6.6-5.26-7.73-3.12-1.5-7.06-1.47-8.88,1.69C166.73,187,166.73,189.43,169.69,190.64Z"/><path class="cls-56" d="M3.7,188.58c.79-.71,1.7-.36,2.57,0,.32,0,.65.08,1,.13a2.52,2.52,0,0,1,1.22.78c.44.51.26,1.16.17,1.77-.13,1-2.36,1.17-3.09,1.18-1,0-2.56.27-2.95-.91A3.26,3.26,0,0,1,3.7,188.58Z"/><path class="cls-58" d="M313.68,180.47a3.57,3.57,0,0,1,2.87.8c.35.12.7.26,1,.4a3.14,3.14,0,0,1,1.18,1c.37.53,0,1-.21,1.44-.37.71-2.9.17-3.71,0-1.1-.3-2.91-.58-3.07-1.62C311.65,181.55,312.74,180.75,313.68,180.47Z"/><path class="cls-56" d="M313.93,178.78c.95-.46,1.74.12,2.47.71.31.12.61.25.89.39a2.5,2.5,0,0,1,1,1.09c.28.61-.07,1.19-.32,1.75-.4.9-2.59.47-3.29.29-.95-.26-2.54-.44-2.59-1.68A3.24,3.24,0,0,1,313.93,178.78Z"/><path class="cls-56" d="M17.2,189.64a35.19,35.19,0,0,0,5.43-1.4c1-.35,2.37-.51,3.22-1.28,1.74-1.57.19-2.57-1.11-3.79-2-1.9-4.31-4.38-7.16-2.35-1.84,1.31-4.24,3.76-4.51,6.09a4.87,4.87,0,0,0-.05.51.53.53,0,0,0,0,.12C12.58,190.23,15.28,190,17.2,189.64Z"/><path class="cls-58" d="M294.62,183.3c2.08-.38,4.05-.86,6-1.42a14.72,14.72,0,0,0,3.58-1.13c1.89-1.17.11-1.67-1.41-2.33-2.36-1-5-2.41-8.15-.83-2,1-4.61,2.83-4.83,4.35l0,.34,0,.08C289.45,184.13,292.47,183.68,294.62,183.3Z"/><path class="cls-56" d="M293.81,182a35.46,35.46,0,0,0,5.43-1.39c1-.35,2.37-.52,3.22-1.28,1.74-1.57.19-2.57-1.12-3.8-2-1.9-4.3-4.38-7.16-2.35-1.83,1.31-4.23,3.77-4.51,6.09,0,.18,0,.35,0,.51s0,.09,0,.13C289.19,182.62,291.89,182.33,293.81,182Z"/><path class="cls-56" d="M31.75,186A13.61,13.61,0,0,0,38,187.32a8.69,8.69,0,0,0,2.91-1.08l.55-.23c1.75-.21,4.06-.41,4.41-1.47.43-1.27-.26-2.25-2.2-3a13.29,13.29,0,0,0-5.8-1,9.2,9.2,0,0,0-5,2.5C32,183.88,29.89,185.06,31.75,186Z"/><path class="cls-56" d="M47.7,187.51c.77,1.91,3.23,2.26,4.89,2.79a10.49,10.49,0,0,0,7.16.15c5-2-1.7-8.08-4-9.3a7.92,7.92,0,0,0-3.69-1A3.19,3.19,0,0,0,49,181.51C47.55,183.39,46.79,185.28,47.7,187.51Z"/><path class="cls-56" d="M84,193.31a6.06,6.06,0,0,0,4.3,1.52c1.32-.15,3.19-.52,3.55-2,.29-1.19-1.13-3.09-1.82-3.93a4.07,4.07,0,0,0-3.11-1.5,4.11,4.11,0,0,0-1-.17,3.28,3.28,0,0,0-3,2.46A3,3,0,0,0,84,193.31Z"/><path class="cls-56" d="M116.8,188.15c1-1.85,2.56-2.67,4.36-1.43A7.23,7.23,0,0,1,124,190.1a1.86,1.86,0,0,1,.55,1.24.81.81,0,0,1-.53.77,3.11,3.11,0,0,1-1.11.11,3.69,3.69,0,0,1-1.07.13c-1,0-2.09,0-3.06-.08a2.35,2.35,0,0,1-1.29-.49C116.08,191.24,116.11,189.47,116.8,188.15Z"/><path class="cls-56" d="M136.79,192c1.57-.3,3.79-1.05,4.45-2.72a2,2,0,0,0-.75-2.77,5.42,5.42,0,0,0-3.2-1.25,3.52,3.52,0,0,0-2.2.4c-1.34.64-3.67,1.48-4.48,2.8C129.15,190.82,135.26,192.29,136.79,192Z"/><path class="cls-58" d="M250.92,191c2.94-.49,7.12-1.71,8.36-4.45.92-2,.71-3.16-1.39-4.49a11.12,11.12,0,0,0-6-2,7.73,7.73,0,0,0-4.14.65c-2.51,1.06-6.89,2.42-8.43,4.59C236.56,189.1,248.05,191.46,250.92,191Z"/><path class="cls-56" d="M250.87,188.63c2.54-.48,6.15-1.7,7.22-4.43.79-2,.61-3.15-1.21-4.5a8.83,8.83,0,0,0-5.2-2,5.8,5.8,0,0,0-3.59.63c-2.17,1.06-6,2.41-7.28,4.57C238.44,186.72,248.38,189.1,250.87,188.63Z"/><path class="cls-59" d="M143.45,189.59c.29,3.4,2.88,5.32,6.1,5.8,1.71.25,3.6.89,5.26.05s3.25-2.08,5.27-1.49,4.59,0,6.58-.3a4.76,4.76,0,0,0,2.87-1.05c1.88-2.06-.25-7-1.26-8.95a11.52,11.52,0,0,0-4-4.76.29.29,0,0,0-.12-.23c-3.35-2.32-6.28-4.4-10.61-3.71a12.26,12.26,0,0,0-7.94,5.16C143.76,182.71,143.19,186.45,143.45,189.59Z"/><path class="cls-58" d="M214.92,187.37c.14.95,1.55,1.47,3.31,1.59a9.27,9.27,0,0,0,2.88,0,6.76,6.76,0,0,1,2.89-.44,17.49,17.49,0,0,0,3.61-.11,4.66,4.66,0,0,0,1.57-.31c1-.58-.11-2-.65-2.49a5,5,0,0,0-2.16-1.31.07.07,0,0,0-.06-.06,12.5,12.5,0,0,0-5.79-1,8.94,8.94,0,0,0-4.37,1.48A2.75,2.75,0,0,0,214.92,187.37Z"/><path class="cls-59" d="M215.91,185.14c.13,1.33,1.37,2.08,2.93,2.26a5,5,0,0,0,2.53,0,3.92,3.92,0,0,1,2.54-.59,9.15,9.15,0,0,0,3.17-.13,2.73,2.73,0,0,0,1.38-.41c.91-.82-.11-2.75-.59-3.51A4.86,4.86,0,0,0,226,180.9a.08.08,0,0,0,0-.08c-1.61-.91-3-1.72-5.1-1.44a6.18,6.18,0,0,0-3.84,2A5,5,0,0,0,215.91,185.14Z"/><path class="cls-56" d="M184.44,180.53a3.43,3.43,0,0,1,1.48-1.3c.9-.27,1.51.21,2.27.68a7.43,7.43,0,0,1,2.81,3.9.32.32,0,0,1-.23.45.76.76,0,0,1-.66.46,24.5,24.5,0,0,1-2.82-.13,3.89,3.89,0,0,1-2.55-.61c-.54-.5-1.17-.83-1.22-1.64C183.48,181.69,184.09,181,184.44,180.53Z"/><path class="cls-58" d="M274.38,185.26a4,4,0,0,1,1.76-1,4.38,4.38,0,0,1,2.68.49,6.46,6.46,0,0,1,3.28,3c.11.2-.05.31-.27.35a1,1,0,0,1-.78.35c-1.05.08-2.25-.07-3.33-.07a6.68,6.68,0,0,1-3-.45c-.63-.38-1.37-.62-1.42-1.24S274,185.64,274.38,185.26Z"/><path class="cls-56" d="M274.17,183.05a3.41,3.41,0,0,1,1.48-1.29c.9-.27,1.51.2,2.28.67a7.55,7.55,0,0,1,2.8,3.9.32.32,0,0,1-.22.46.79.79,0,0,1-.67.46c-.89.08-1.9-.12-2.82-.13a3.89,3.89,0,0,1-2.55-.61c-.54-.5-1.16-.83-1.21-1.64C273.21,184.21,273.82,183.55,274.17,183.05Z"/><path class="cls-59" d="M169.5,188.65c1.39.65,3.75.28,5.21.2.76,0,1.53-.08,2.29-.16a11.16,11.16,0,0,0,3.49.52.8.8,0,0,0,.68-.43c1.24-2.75-2.75-7-4.94-8.23-2.92-1.59-6.61-1.57-8.3,1.78C166.72,184.74,166.73,187.37,169.5,188.65Z"/></g></g></g></svg>