<svg xmlns="http://www.w3.org/2000/svg" xmlns:xlink="http://www.w3.org/1999/xlink" viewBox="0 0 1367.66 404.37"><defs><style>.cls-1{fill:url(#linear-gradient);}</style><linearGradient id="linear-gradient" x1="683.83" y1="404.37" x2="683.83" gradientUnits="userSpaceOnUse"><stop offset="0" stop-color="#f2f2f2"/><stop offset="0.3" stop-color="#ecf2f3"/><stop offset="0.7" stop-color="#dbf1f5"/><stop offset="0.99" stop-color="#caf0f8"/></linearGradient></defs><g id="Layer_2" data-name="Layer 2"><g id="snow"><path class="cls-1" d="M1366,26.18V404.37H0V21.76c1.58-.48,3.14-.94,4.7-1.39,48.55-14.1,87.81-16,115.3-15,12.65.47,22.26,1.55,121.29,15l32.54,4.43L300,28.37c55.43,7.13,104.07-.33,152.14-8,29.36-4.69,58.5-9.44,88.86-11,92.7-4.76,148.15-7.61,225,2,23.9,3,41.53,6.14,56.36,9,31.94,6.17,50.92,11,91.64,10a847.28,847.28,0,0,0,111.93-10c28.77-4.6,45.07-9,45.07-9,14.36-3.87,32-9.35,58-11,22.07-1.4,32,1.1,84,9,48.91,7.44,76.76,10.8,94.4,11h3.1c14.43-.15,21.49-2.7,28.5-7,8.75-5.37,19.25-14.6,25-11C1369.21,5.63,1367.88,17.76,1366,26.18Z"/></g></g></svg>