<svg xmlns="http://www.w3.org/2000/svg" viewBox="0 0 29.11 49.94"><defs><style>.cls-1{isolation:isolate;}.cls-2{fill:#e0e0d3;}.cls-2,.cls-6{mix-blend-mode:multiply;}.cls-3{fill:#fe0000;}.cls-4{fill:#f7f2ed;}.cls-5{fill:#ede3cc;}.cls-7{fill:#9e0000;}.cls-8{fill:#b2b2b2;}.cls-9{fill:#ccbea2;}.cls-10{fill:#fff;}</style></defs><g class="cls-1"><g id="Layer_2" data-name="Layer 2"><g id="socks"><path class="cls-2" d="M27.78,30.46c-.11-.19-.22-.37-.35-.56s-.24-.35-.36-.54c-2.95-4.45-5.1-10-6.48-13.14a3.32,3.32,0,0,0-.35-4A14.17,14.17,0,0,1,18.67,10a.34.34,0,0,0,0-.1c0-.27,0-.53,0-.79a32,32,0,0,1,.57-3.37,13.7,13.7,0,0,0,.57-3c0-1.37-.72-2.91-2.23-2.27-.84.36-.75,1.81-.68,2.52a16.2,16.2,0,0,0,.79,2.86,24.46,24.46,0,0,1,.55,3.81,38.56,38.56,0,0,0-11,4.86,21.49,21.49,0,0,0-4.75,3.6h0c-.08.11-.16.21-.22.31l0,0-.16.29a0,0,0,0,1,0,0A1.19,1.19,0,0,0,2,19a.14.14,0,0,0,0,.06,1,1,0,0,0,0,.24.2.2,0,0,0,0,.07,1,1,0,0,0,0,.24v.07A1.57,1.57,0,0,0,2,20c.58,1.61,1.89,5.37,3.57,4.84l.28-.11a41.21,41.21,0,0,1,3.87,7.65c1.62,4.31.58,6.88-.84,9.52l-.56,1C7,45.42,6,47.9,7.9,49.2l0,0,.17.11.08,0,.16.08.12,0,.15.07.16.06.13,0,.23.07.1,0,.35.09a7.74,7.74,0,0,0,4.16-.69c4.19-1.64,9.32-5.49,11.65-7.41A11.72,11.72,0,0,0,27.12,40l.41-.54,0-.07c.11-.17.23-.34.33-.51v0A7.69,7.69,0,0,0,27.78,30.46ZM17.3,2.64c-.19-1,.22-2.25,1.34-1.68a2.14,2.14,0,0,1,.74,2.45A17.43,17.43,0,0,1,18.9,5.8a12.91,12.91,0,0,0-.35,2.14C18.28,6.14,17.75,4.47,17.3,2.64Z"/><path class="cls-3" d="M22.65,34.6c.17-3.38,1.6-4.91,2.51-5.55C22,24.27,19.73,18.22,18.38,15.24c-4.41,1.62-15,8.32-15,8.32A40.46,40.46,0,0,1,7.82,32.1C9.43,36.41,8.4,39,7,41.61c1.23.7,3.4,2.55,4.86,7.25,4.19-1.64,9.32-5.49,11.65-7.41a12.78,12.78,0,0,0,1.72-1.73A5.43,5.43,0,0,1,22.65,34.6Z"/><path class="cls-4" d="M22.65,34.6a5.43,5.43,0,0,0,2.56,5.12,7.91,7.91,0,0,0,.31-10.13c-.13-.17-.24-.36-.36-.54C24.25,29.69,22.82,31.22,22.65,34.6Z"/><path class="cls-5" d="M24.36,35.63C24,34.26,23.84,32,25,31a1.9,1.9,0,0,1,1.06-.46,9.8,9.8,0,0,0-.58-1c-.13-.17-.24-.36-.36-.54-.91.64-2.34,2.17-2.51,5.55a5.43,5.43,0,0,0,2.56,5.12,9.29,9.29,0,0,0,1.41-2.36A2.24,2.24,0,0,1,24.36,35.63Z"/><path class="cls-4" d="M7,41.61c-.18.34-.37.67-.56,1-1.68,3-2.8,6,1.26,6.93a7.75,7.75,0,0,0,4.16-.69C10.38,44.16,8.21,42.31,7,41.61Z"/><g class="cls-6"><path class="cls-7" d="M22.65,34.6c.17-3.38,1.6-4.91,2.51-5.55C22,24.27,19.73,18.22,18.38,15.24c-4.41,1.62-15,8.32-15,8.32A40.46,40.46,0,0,1,7.82,32.1C9.43,36.41,8.4,39,7,41.61c1.23.7,3.4,2.55,4.86,7.25,4.19-1.64,9.32-5.49,11.65-7.41a12.78,12.78,0,0,0,1.72-1.73A5.43,5.43,0,0,1,22.65,34.6Zm-1.95.24c.86,2.19,1.43,4.59-.76,6.48s-6,5.4-8.44,2-1.9-4.59-1.8-8.19-3.52-9.48-3.52-9.48c-.75-1.6,6.46-5,9.59-6.29s4.93,6.49,5.79,8.88S19.85,32.64,20.7,34.84Z"/></g><path class="cls-8" d="M15.67.15C14.82.5,14.91,2,15,2.66a18,18,0,0,0,.79,2.87,33.22,33.22,0,0,1,.63,4.33c.05.29.39-.17.39-.33s0-.52,0-.78c.16-1.13.31-2.26.58-3.37a14.3,14.3,0,0,0,.57-3C17.91,1.05,17.18-.49,15.67.15Zm1.8,3A21.51,21.51,0,0,1,17,5.49a14.06,14.06,0,0,0-.36,2.14c-.26-1.8-.79-3.47-1.24-5.31-.19-1,.22-2.24,1.34-1.67A2.17,2.17,0,0,1,17.47,3.1Z"/><path class="cls-4" d="M16.58,9.28A37.36,37.36,0,0,0,5.35,14.2C1.63,16.57-.49,18.11.1,19.72S2,25.09,3.67,24.55s2.69-2.45,6.49-4.45a67.31,67.31,0,0,1,7.58-3.53c2-.76,1.75-3.3.59-4.68A13.27,13.27,0,0,1,16.58,9.28Z"/><path class="cls-5" d="M18.33,11.89a13.27,13.27,0,0,1-1.75-2.61,36.57,36.57,0,0,0-9.35,3.78l1.16-.49a22.7,22.7,0,0,1,6-2c1.21-.12,2.63,1.7,2.78,2.86.17,1.36-1,2.06-2,2.58a47.3,47.3,0,0,0-7.61,4.32c-1,.81-2.7,2.42-4,1.3a12.14,12.14,0,0,1-1.39-2.21,4.31,4.31,0,0,1-.93-2.31c-1,.93-1.45,1.75-1.14,2.59C.68,21.33,2,25.09,3.67,24.55s2.69-2.45,6.49-4.45a67.31,67.31,0,0,1,7.58-3.53C19.71,15.81,19.49,13.27,18.33,11.89Z"/><path class="cls-9" d="M1.88,18.88a3.84,3.84,0,0,0-.23.82c0,.14.18.07.19,0,0-.27.21-.49.24-.76S1.91,18.75,1.88,18.88Z"/><path class="cls-9" d="M3.06,20.22a3.09,3.09,0,0,0-.19.61c-.05.2.23.19.26,0a2.65,2.65,0,0,0,.14-.62C3.28,20.09,3.1,20.11,3.06,20.22Z"/><path class="cls-9" d="M5.16,17.08a2.47,2.47,0,0,0-.27.44.12.12,0,1,0,.21.13,2.05,2.05,0,0,0,.25-.46C5.41,17,5.26,17,5.16,17.08Z"/><path class="cls-9" d="M5.64,21.58c-.06.14-.09.29-.14.45a.13.13,0,0,0,.1.17.19.19,0,0,0,.18-.15c0-.14.07-.28.1-.42S5.7,21.44,5.64,21.58Z"/><path class="cls-9" d="M9.09,17.86a1.86,1.86,0,0,1-.19.34c-.12.12,0,.26.16.14a.86.86,0,0,0,.21-.44C9.3,17.77,9.14,17.76,9.09,17.86Z"/><path class="cls-9" d="M7.93,17.13a1.56,1.56,0,0,0-.27.35.16.16,0,0,0,0,.22.14.14,0,0,0,.2-.05c.08-.11.15-.23.22-.34S8.06,17,7.93,17.13Z"/><path class="cls-9" d="M10.62,13.26a1.07,1.07,0,0,0-.22.25.14.14,0,0,0,0,.18c.07,0,.14,0,.18-.1s.12-.13.14-.24A.09.09,0,0,0,10.62,13.26Z"/><path class="cls-9" d="M13.64,16.15c-.05.08-.11.16-.15.24s.17.31.26.11a2,2,0,0,0,.13-.25C13.93,16.09,13.71,16,13.64,16.15Z"/><path class="cls-9" d="M16.52,13.44c-.14.12-.24.27-.37.4s.07.47.24.29.25-.28.36-.42S16.7,13.28,16.52,13.44Z"/><path class="cls-9" d="M17.58,14.78c-.08,0-.2,0-.24.11s-.15.22-.24.32a.23.23,0,0,0,0,.3c.09.08.21,0,.28-.06a1.5,1.5,0,0,0,.24-.31C17.68,15,17.72,14.84,17.58,14.78Z"/><path class="cls-9" d="M14.37,11.68l-.13.25c-.09.19.17.27.25.1s.08-.17.11-.26S14.46,11.53,14.37,11.68Z"/><path class="cls-9" d="M11.3,15.49a.2.2,0,0,0-.22.11c-.06.12-.16.2-.22.33a.19.19,0,0,0,.08.25.19.19,0,0,0,.24-.12c.05-.14.16-.24.2-.39A.15.15,0,0,0,11.3,15.49Z"/><path class="cls-5" d="M7,41.61c-.18.34-.37.67-.56,1s-.26.48-.38.72a1.37,1.37,0,0,1,2,.18c1.84,1.83,2.86,5.64.26,5.37a5.31,5.31,0,0,1-3.38-1.76c.11,1.12.86,2,2.76,2.42a7.75,7.75,0,0,0,4.16-.69C10.38,44.16,8.21,42.31,7,41.61Z"/><path class="cls-10" d="M9.7,30.74a22.19,22.19,0,0,0-2.62-5.3c0-.06-.12.07-.1.12.67,1.57,1.52,3,2.08,4.6.91,2.67.83,5.33.92,8.12,0,.26.28,0,.29-.17A21.48,21.48,0,0,0,9.7,30.74Z"/><path class="cls-10" d="M10.33,38.87c-.2,0-.44.54-.22.54S10.56,38.87,10.33,38.87Z"/></g></g></g></svg>