<svg xmlns="http://www.w3.org/2000/svg" xmlns:xlink="http://www.w3.org/1999/xlink" viewBox="0 0 48.19 48.63"><defs><style>.cls-1{isolation:isolate;}.cls-2{fill:url(#linear-gradient);}.cls-3{fill:url(#linear-gradient-2);}.cls-4{fill:url(#linear-gradient-3);}.cls-5{fill:url(#linear-gradient-4);}.cls-6{fill:url(#linear-gradient-5);}.cls-7{fill:url(#linear-gradient-6);}.cls-8{fill:url(#linear-gradient-7);}.cls-9{fill:url(#linear-gradient-8);}.cls-10{fill:url(#linear-gradient-9);}.cls-11{fill:url(#linear-gradient-10);}.cls-12,.cls-13,.cls-14,.cls-15,.cls-16{mix-blend-mode:screen;}.cls-12{fill:url(#linear-gradient-11);}.cls-13{fill:url(#linear-gradient-12);}.cls-14{fill:url(#linear-gradient-13);}.cls-15{fill:url(#linear-gradient-14);}.cls-16{fill:url(#linear-gradient-15);}</style><linearGradient id="linear-gradient" x1="-1168.57" y1="-131.29" x2="-1165.03" y2="-155.87" gradientTransform="matrix(1, -0.03, 0.03, 1, 1196.54, 127.12)" gradientUnits="userSpaceOnUse"><stop offset="0" stop-color="#f9c000"/><stop offset="1" stop-color="#f68f00"/></linearGradient><linearGradient id="linear-gradient-2" x1="-1170.76" y1="-133.67" x2="-1147.05" y2="-140.81" gradientTransform="matrix(1, -0.03, 0.03, 1, 1196.54, 127.12)" gradientUnits="userSpaceOnUse"><stop offset="0" stop-color="#ffe700"/><stop offset="1" stop-color="#fab100"/></linearGradient><linearGradient id="linear-gradient-3" x1="-1169.85" y1="-130.9" x2="-1191.98" y2="-133.17" xlink:href="#linear-gradient-2"/><linearGradient id="linear-gradient-4" x1="-1168.18" y1="-127.86" x2="-1147.45" y2="-134.06" xlink:href="#linear-gradient"/><linearGradient id="linear-gradient-5" x1="-1172.21" y1="-128.95" x2="-1156.96" y2="-108.54" xlink:href="#linear-gradient"/><linearGradient id="linear-gradient-6" x1="-1166.77" y1="-131.71" x2="-1151.19" y2="-109.75" xlink:href="#linear-gradient-2"/><linearGradient id="linear-gradient-7" x1="-1166.54" y1="-128.96" x2="-1181.36" y2="-107.75" xlink:href="#linear-gradient-2"/><linearGradient id="linear-gradient-8" x1="-1171.14" y1="-132.16" x2="-1185.78" y2="-112.17" xlink:href="#linear-gradient"/><linearGradient id="linear-gradient-9" x1="-1173.7" y1="-129.23" x2="-1185.37" y2="-139.64" xlink:href="#linear-gradient"/><linearGradient id="linear-gradient-10" x1="-1167.11" y1="-132.06" x2="-1174.34" y2="-154.08" xlink:href="#linear-gradient-2"/><linearGradient id="linear-gradient-11" x1="-1174.96" y1="-152.05" x2="-1162.66" y2="-134.72" xlink:href="#linear-gradient-2"/><linearGradient id="linear-gradient-12" x1="-1159.32" y1="-137.78" x2="-1154.78" y2="-131.38" xlink:href="#linear-gradient-2"/><linearGradient id="linear-gradient-13" x1="-1168.84" y1="-130.24" x2="-1153.25" y2="-108.28" xlink:href="#linear-gradient-2"/><linearGradient id="linear-gradient-14" x1="-1179.32" y1="-123.52" x2="-1173.75" y2="-115.67" xlink:href="#linear-gradient-2"/><linearGradient id="linear-gradient-15" x1="-1186.72" y1="-142.4" x2="-1175.07" y2="-125.97" xlink:href="#linear-gradient-2"/></defs><g class="cls-1"><g id="Layer_2" data-name="Layer 2"><g id="socks"><polygon class="cls-2" points="23.65 0 24.28 25.93 30.26 17.77 23.65 0"/><polygon class="cls-3" points="30.26 17.77 24.28 25.93 48.19 17.78 30.26 17.77"/><polygon class="cls-4" points="14.38 30.57 24.28 25.93 0 19.07 14.38 30.57"/><polygon class="cls-5" points="48.19 17.78 24.28 25.93 34.38 30.04 48.19 17.78"/><polygon class="cls-6" points="24.57 37.95 39.71 47.84 24.28 25.93 24.57 37.95"/><polygon class="cls-7" points="24.28 25.93 39.71 47.84 34.38 30.04 24.28 25.93"/><polygon class="cls-8" points="24.57 37.95 24.28 25.93 9.93 48.63 24.57 37.95"/><polygon class="cls-9" points="9.93 48.63 24.28 25.93 14.38 30.57 9.93 48.63"/><polygon class="cls-10" points="0 19.07 24.28 25.93 17.9 18.1 0 19.07"/><polygon class="cls-11" points="17.9 18.1 24.28 25.93 23.65 0 17.9 18.1"/><path class="cls-12" d="M24.28,25.93,23.65,0S22.66,20.42,24.28,25.93Z"/><path class="cls-13" d="M48.19,17.78,24.28,25.93S29.76,22.39,48.19,17.78Z"/><path class="cls-14" d="M24.28,25.93,39.71,47.84S28.87,29.38,24.28,25.93Z"/><path class="cls-15" d="M9.93,48.63l14.35-22.7S23.72,30.33,9.93,48.63Z"/><path class="cls-16" d="M0,19.07l24.28,6.86A103.81,103.81,0,0,1,0,19.07Z"/></g></g></g></svg>