<svg xmlns="http://www.w3.org/2000/svg" viewBox="0 0 326.47 463.85"><defs><style>.cls-1{isolation:isolate;}.cls-2{fill:#16713b;}.cls-3{fill:#528b31;}.cls-3,.cls-5,.cls-7{mix-blend-mode:multiply;}.cls-4{fill:#eaeaea;}.cls-6,.cls-7{fill:#e2e2e2;}</style></defs><g class="cls-1"><g id="Layer_2" data-name="Layer 2"><g id="christmastree"><path class="cls-2" d="M326.45,419.53c.8-.42-20.32-19-29.7-30.64a68.61,68.61,0,0,0,24.7-2.92c2-.61-30.49-33.37-44.11-48.56C281.85,340.09,299,349,303.84,350c2.43.47-26.75-29.72-33.18-38.25a46.36,46.36,0,0,0,29.2,3.25c2.12-.43-30.08-40.34-43.8-58a45.84,45.84,0,0,0,24.88.86c2.25-.58-15.7-14.1-21.53-19.7,9.86,3.84,20.08,4.78,30.25,1.14,1.93-.69-22.14-24.14-38.52-43.09,5.92-.11,12.32-1.24,16.89-5.1.06-.06.37-.4.2-.49-18.62-10.47-37-23.23-49-41.62,11.77,13,28,17,41.21,12.93.12,0,.17-.14.24-.22-1-.71-2-1.45-3-2.21-8.06-6.16-34.9-32.88-41-40a30.33,30.33,0,0,0,12,3.42,80.16,80.16,0,0,1-12.77-15.47,92.22,92.22,0,0,1-11-14.52c-3.85-6.25-10.13-18.58-12.52-21.53,8,9.93,16.92,19.56,27.23,19.5a.45.45,0,0,0,.11,0C197,71.49,180,39.44,166.76,8.08c-6.59,14.24-14.51,27.57-22.07,40.5-9.26,15.87-19.45,31.4-32.1,42.15a1.32,1.32,0,0,0,.56.12c10.3.06,19.19-9.57,27.23-19.5-2.4,3-8.68,15.28-12.53,21.53-6.68,10.8-25.65,30.12-24.37,30.05A30.21,30.21,0,0,0,116,119.45c-13,15.21-45.49,41.9-43.74,42.45,13.7,4.23,30.62-.17,42.49-14.37-.72,1.06-1.49,2.07-2.11,3-2.07,3.16-4.09,6.36-6.21,9.5a158.52,158.52,0,0,1-13.38,17.46c-9.24,10.21-20.73,18.58-33.73,22.37-.09,0-.49.43-.3.52a32.77,32.77,0,0,0,16.6,2.52C60,220.27,41.39,238.65,43.1,239.27c10.18,3.64,20.39,2.7,30.24-1.14-5.82,5.6-23.78,19.12-21.52,19.7A45.84,45.84,0,0,0,76.7,257C63,274.63,30.77,314.54,32.89,315a46.39,46.39,0,0,0,29.21-3.25c-6.42,8.53-34.33,34.9-31.91,34.45,4.9-.95,20.72-6.08,25.22-8.76C41.79,352.6,9.33,385.36,11.3,386a69.7,69.7,0,0,0,39.72.37L49,388C34.41,400.13-1.61,420.12.06,421.51c14.82,12.29,40.94,4.12,56.84-.23l1.59-.46c-10.6,11.55-38.72,34.26-36.64,34.5,20.91,2.36,42.38-3.4,62.7-15.31l-.61.72c-.54.68-19.28,16.47-17.24,16.86,8.19,1.57,33-9.65,41.7-13.71-2.79,3.45-13.13,17.61-10.33,17.17,11.15-1.69,23.72-6.75,35.73-14.9-2.11,3.49-6,13.36-4.9,13.23,11.59-1.44,23.17-10.57,33.88-17.51-1.82,4.85-5.3,16.38-4.14,16.23,11.08-1.44,23-10.66,32.57-22.72,6.52,11.62,14.6,21.76,24.66,27.56,1.39.8,2.46-16.5,2.09-22.65,10.48,16.66,25.32,27.32,41.63,22.32,1.28-.4-4.82-17.9-7.81-24.62,2.93,2.91,5.89,5.78,9,8.49,16.5,7.43,33.51,10.72,50.18,8.84,2.08-.24-26.83-23.24-37.6-35.49-1.91-2.17-3.77-4.37-5.66-6.58a67.41,67.41,0,0,0,14.05,5.63C296.51,422.9,311.92,427.09,326.45,419.53Z"/><path class="cls-3" d="M326.45,419.53c.8-.42-20.32-19-29.7-30.64a68.61,68.61,0,0,0,24.7-2.92c2-.61-30.49-33.37-44.11-48.56C281.85,340.09,299,349,303.84,350c2.43.47-26.75-29.72-33.18-38.25a46.36,46.36,0,0,0,29.2,3.25c2.12-.43-30.08-40.34-43.8-58a45.84,45.84,0,0,0,24.88.86c2.25-.58-15.7-14.1-21.53-19.7,9.86,3.84,20.08,4.78,30.25,1.14,1.93-.69-22.14-24.14-38.52-43.09,5.92-.11,12.32-1.24,16.89-5.1.06-.06.37-.4.2-.49-18.62-10.47-37-23.23-49-41.62,11.77,13,28,17,41.21,12.93.12,0,.17-.14.24-.22-1-.71-2-1.45-3-2.21-8.06-6.16-34.9-32.88-41-40a30.33,30.33,0,0,0,12,3.42,80.16,80.16,0,0,1-12.77-15.47,92.22,92.22,0,0,1-11-14.52c-3.85-6.25-10.13-18.58-12.52-21.53,8,9.93,16.92,19.56,27.23,19.5a.45.45,0,0,0,.11,0C197.19,71.66,180.35,40,167.12,8.94a110.06,110.06,0,0,0,4.44,27.3,105,105,0,0,0,14.5,29.48.46.46,0,0,1-.62.64c-5.58-3.59-12.54-7.86-15.61-14.27.32,4,.45,8,.8,12a.44.44,0,0,1-.75.34,30.9,30.9,0,0,1-6.4-9.23C162.9,58.43,162,61.71,160,64a.44.44,0,0,1-.75-.2,29.72,29.72,0,0,1-.66-7.81c-.94,1.66-2,3.23-3,4.83-2.92,4.62-5.3,9.9-9.86,13a.45.45,0,0,1-.64-.54c1.45-5,3.42-10.24,3.83-15.55-2.36,4.1-5.55,7.91-9.38,10a.46.46,0,0,1-.65-.53c1-2.81,2.58-5.38,3.61-8.17-8.34,11.6-16.67,23.48-28.1,31.81,9.81-.65,18.33-9.91,26.05-19.46-2.4,3-8.68,15.28-12.53,21.53-6.68,10.8-25.65,30.12-24.37,30.05l.57,0a79.92,79.92,0,0,0,15.68-13.07,83.57,83.57,0,0,0,15-21c.26-.55,1-.07.76.47a82.91,82.91,0,0,1-9,15.73c7.79-3.88,13.8-11.12,19.91-17.32.37-.37.94.1.7.58-1.23,2.39-2.36,4.83-3.64,7.2,3.7-2.8,6.44-6.79,9.73-10.07a.45.45,0,0,1,.75.45c-.72,3.3-2.16,6.45-2.56,9.81,3.66-4.26,6.3-9.38,9.51-14a.45.45,0,0,1,.81.36,60.14,60.14,0,0,0-2.4,13c-.26,3.79-.36,8.13,1.39,11.6,2.73-8.05,5.13-16.29,10.15-23.14a.45.45,0,0,1,.82.35c-.66,2.77-1.43,5.61-1.12,8.46,2.22-3.16,3.09-7.23,6-9.93a.45.45,0,0,1,.76.32c-.19,7.73,2.38,15.48,5.59,22.34.7,1.48,1.44,2.93,2.22,4.37A83.18,83.18,0,0,1,183,87a.44.44,0,0,1,.87-.13c3,8.89,6,18,11.13,25.85,4.61,7,10.6,12.88,15,20a.47.47,0,0,1-.5.69c-6.49-1.78-11.27-7.15-15.74-12.23,2.68,5,6.25,9.37,9,14.35a.47.47,0,0,1-.5.69A49.91,49.91,0,0,1,188,130.2a31.93,31.93,0,0,1-3.71-2.83,79,79,0,0,0,3.45,9.49c.21.46-.35,1-.7.57-3.89-4.77-8.13-9.72-10-15.74a98.28,98.28,0,0,1-1.61,13.24c-.1.5-.72.38-.86,0a26.36,26.36,0,0,1-1.53-8.67c-1.9,5.32-3.9,10.85-7.92,14.75a.46.46,0,0,1-.75-.46c.58-2.85,1.27-5.7,1.85-8.55-6.49,9.18-15.34,16.89-25.81,19.6-.34.09-.77-.34-.51-.69A157.29,157.29,0,0,0,149.4,136a71.76,71.76,0,0,1-7.1,5.11c-4,2.53-8.23,4.95-12.45,7.11-3.25,1.67-7.16,3.67-10.87,2.87a.48.48,0,0,1-.26-.69c2.09-3.53,5.22-6.09,7.63-9.35a40.79,40.79,0,0,0,3.45-6.29c-2.48,2.56-5.37,4.78-8.75,5.11-.42,0-.56-.52-.32-.81a38.18,38.18,0,0,0,5.09-8.66c-9.15,10.71-21.93,17.26-33.67,24.33a68.9,68.9,0,0,1-13,6.22,19.26,19.26,0,0,1-5.72,1.29c13.47,3.63,29.78-.91,41.31-14.71-.72,1.06-1.49,2.07-2.11,3-2.07,3.16-4.09,6.36-6.21,9.5a169.53,169.53,0,0,1-11.26,15l.46-.25c2.53-1.48,5.07-3,7.49-4.71,5.57-3.89,10.78-8.62,17-11.25.39-.17.67.36.5.69-3,6.15-8.52,10.08-12.69,15.26,11.85-1.57,22.78-7.06,33.79-11.61.42-.17.76.49.43.78-2.08,1.94-4.33,3.63-6.4,5.57,4.07-1,7.56-3.73,11.21-5.79.5-.29.93.49.44.81-2.49,1.7-4.41,4.07-6.59,6.15-1.81,1.7-14.19,9.24-17.27,13,3.33.2,16.8-5.48,20.32-7.09a172.42,172.42,0,0,0,25.18-13.86c.45-.3.86.35.54.73l-5.33,6.24c4.29-2,7.69-6.25,10.52-10,.28-.35.74,0,.77.34.56,6.91,1.36,14.39,3.72,21.09,0-.57,0-1.12,0-1.67a138.26,138.26,0,0,1,1.94-17,.44.44,0,0,1,.81-.11c2.27,4.6,3.92,9.61,6.74,13.88-.69-6.28-1.35-12.6-.27-18.88.07-.47.75-.43.86,0a36.41,36.41,0,0,0,4.64,11.11c-.2-4.16-.91-8.33.32-12.39a.44.44,0,0,1,.86,0,72.09,72.09,0,0,0,12.91,21.52c5.21,6,11.15,11.33,16.1,17.61.28.36,0,.91-.43.79a53,53,0,0,1-15.25-6.74c3.19,9.31,10.8,17.12,17.86,23.06a.48.48,0,0,1-.31.81,33.64,33.64,0,0,1-13.65-3.93,35.7,35.7,0,0,1-10.67-7.81c.57,3.5,1.5,6.91,2.18,10.38a.46.46,0,0,1-.75.46,25,25,0,0,1-5.26-8.2,105.27,105.27,0,0,0,2.12,18.47.45.45,0,0,1-.74.45c-4.38-3.7-7.34-9.62-8.7-15.8a113.27,113.27,0,0,0-5.6,20.71.45.45,0,0,1-.75.21c-3.8-4.53-5-10.48-5.74-16.44a69.41,69.41,0,0,1-6.33,6.16c-4.82,4.18-10,9.57-16.37,10.65a.47.47,0,0,1-.56-.58c.81-2.66,2.72-4.68,4.1-7a32.16,32.16,0,0,0,2.11-4.58c-3.72,4.43-9.06,7.6-13.8,10.34-.36.21-.89-.25-.61-.65a67.7,67.7,0,0,0,5.32-10,93.06,93.06,0,0,1-12.81,8c-5.27,2.75-10.77,5.1-16.22,7.42-5.16,2.2-10.78,4.55-16.44,4.26a.48.48,0,0,1-.32-.8c4.5-4.89,10-8.57,14.71-13.19-7,4.15-14.2,8.39-22.28,9.63a.47.47,0,0,1-.34-.86c4.94-3.73,10-7.32,14.69-11.35-.9.47-1.8.93-2.71,1.38-3,1.49-6.13,2.8-9.26,4.05-2.8,1.14-5.76,2.24-8.81,1.94a.48.48,0,0,1-.32-.8c6.3-6.4,12.67-12.73,18.37-19.74-5.18,3.54-9.74,8-14.91,11.54a138.63,138.63,0,0,1-19.15,10.93,179.54,179.54,0,0,1-19.91,8.37,44.49,44.49,0,0,1-13.42,2.57c10.1,3.56,20.25,2.61,30-1.2-5.82,5.6-23.78,19.12-21.52,19.7A45.84,45.84,0,0,0,76.7,257c-4.39,5.64-10.66,13.56-17.1,21.74,5.59-1,11-3.79,15.83-6.62,6.78-4,13.11-8.73,19.9-12.65.37-.21.89.24.61.64-3.47,5-8,9-12.33,13.11,8-2.05,14.47-7.69,21.56-11.84a.47.47,0,0,1,.54.74c-6.76,6.41-13.34,13.1-21.2,18,8.23-.15,16.41-2.39,24.09-5.4a120.88,120.88,0,0,0,23.87-12.54.46.46,0,0,1,.61.64c-2.35,3.48-5.14,6.58-7.58,10,5.17-2,8.95-6.5,13.07-10.17.3-.27.93,0,.75.46A66.78,66.78,0,0,1,123.88,287c5.07-1.54,9.82-4.39,14.21-7.39,6.26-4.26,12.15-9.21,18.77-12.85a.47.47,0,0,1,.62.65c-2.27,3.76-4.41,7.59-6.47,11.48,5.74-3.88,9.76-10.06,14.5-15.12a.45.45,0,0,1,.76.34c.35,5.6.59,11.87,3.77,16.61,1.48-5.09,1.67-10.46,3-15.59a.44.44,0,0,1,.86,0c1.71,4.9,4.23,9.84,8.69,12.43.55-4.26,0-8.61,1-12.81a.44.44,0,0,1,.82-.12c1.7,3.29,3.17,6.66,5.78,9.23.13-3-.39-6-.43-9a.45.45,0,0,1,.88-.13c2.63,7.1,9.75,11.08,15.93,14.34.28-5.09-2.43-9.84-1.88-15,0-.38.48-.68.77-.34a70.24,70.24,0,0,0,14,13.15A52,52,0,0,0,232.23,283c-.86-1.93-1.6-3.91-2.26-5.88-2-6.09-3.55-12.9-2.32-19.34a.44.44,0,0,1,.82-.11c9.19,14.93,16.91,31.22,31.51,41.21.4.28.14,1.07-.34.86a74.88,74.88,0,0,1-15.74-9.19,145.73,145.73,0,0,0,27.37,27.87c.27.21.31.78-.11.86-8.7,1.63-17.86-.07-26-3.45a62,62,0,0,1-10-5.27,76.35,76.35,0,0,0,9.33,12.58c5.74,6.14,13.12,10.36,18.55,16.81a.49.49,0,0,1-.08.74c-4.61,2.53-10.77,1.05-15.51-.25A129.47,129.47,0,0,1,232.18,335a84.76,84.76,0,0,1-13-6.61c2.56,4.31,5.19,8.58,7.8,12.84.25.39-.23.9-.61.64-5-3.48-10.74-7-14.84-11.89a58.6,58.6,0,0,0,7.2,12.41c3.57,4.42,8.83,7.61,11.17,13a.49.49,0,0,1-.38.72c-4.47-.11-8.75-2.81-12.37-5.31-4.07-2.8-7.86-6-11.69-9.14a64.61,64.61,0,0,1-15.6-18,86.61,86.61,0,0,0,2.6,19.94.46.46,0,0,1-.75.46,31.34,31.34,0,0,1-10.14-16.17c-.73,9.1-1.63,18.19-.75,27.33a.45.45,0,0,1-.77.33,67,67,0,0,1-9.09-15,46.23,46.23,0,0,1-1.82-4.94,75.28,75.28,0,0,1-7.87,8.83c-4,3.82-8.41,7.48-13.55,9.35a.46.46,0,0,1-.5-.69,63.5,63.5,0,0,0,5.35-9.3,51.53,51.53,0,0,1-4.73,5.34c-3,3-6.37,5.88-10.31,7.34-.32.12-.65-.25-.55-.58a62,62,0,0,1,3.13-7.74,116.3,116.3,0,0,1-15.62,11c-5.36,3.2-10.86,6.12-16.44,8.87-5.14,2.53-10.72,5.11-16.51,4.92-.42,0-.64-.66-.23-.87,12.18-6.35,22.39-16.06,31.47-26.75-3.56,2.25-7.25,4.27-11,6.19-9.53,4.94-19.39,10.53-30,12.22a.47.47,0,0,1-.34-.86,120,120,0,0,0,10.66-9.64C86.81,356.92,81.57,360.77,76,364c-6.14,3.54-12.94,6.79-20.1,6.67-.34,0-.63-.54-.31-.81,7.65-6.27,15.74-12,21.63-20.15-11.27,8.68-22.78,17.17-35.29,23.77C33,378.2,23.7,384.15,13.78,386.69A69.92,69.92,0,0,0,51,386.34L49,388c-11.55,9.6-36.59,24.17-45.63,30.47,10.44.05,20.83-2.68,30.64-6.33,12-4.44,23.31-10.3,34.78-15.93a.47.47,0,0,1,.54.74,89.71,89.71,0,0,1-17.38,14.4c19.39-1.53,36.15-13.32,54.09-20.17.35-.14.7.36.49.69-4,6.4-9.77,10.75-15.64,15,7.09-.09,14.22-2.81,20.53-5.84a176.06,176.06,0,0,0,21.81-12.85.45.45,0,0,1,.67.4c-.42,4.81-2.7,8.78-5.28,12.61,4.2-2.33,7.4-6.37,10.71-9.87a.45.45,0,0,1,.74.46c-2.14,5.72-6.5,9.8-10.34,14.27,9.87-3.35,18.36-10.65,26.8-16.72.35-.25.73.15.66.54-.95,4.53-3.88,8-7,11s-6.77,5.89-8.64,10c11.8-3.33,22-10.83,32.13-17.71a.44.44,0,0,1,.66.28,34.31,34.31,0,0,0,3.7,10.71,101.14,101.14,0,0,1,3.09-12.63.44.44,0,0,1,.85,0c1.57,7.62,6.82,13.57,11.25,19.59.67-7.78,1.25-15.69,4.69-22.77a.44.44,0,0,1,.81.12c2.5,9.11,7.87,16.2,14,22.75,0-6.36,1-12.81.82-19.18a.44.44,0,0,1,.87-.12c1.46,6,3.53,12.35,7.07,17.42-.36-7.65-.66-15.32,2.31-22.52a.44.44,0,0,1,.81.12c2.71,20.11,11.37,38.88,21.07,56.21.23.4-.22.9-.6.64a54.81,54.81,0,0,1-13.65-13.65,163.9,163.9,0,0,0,7,19.14c.17.39-.21,1-.61.65C228,442.6,218,434.58,213.1,422.8c-.68,9.66-1.21,19.35-.23,29,0,.45-.49.56-.75.33-6.65-5.81-10.39-14-14.89-21.55-1.21-2-2.27-4.21-3.3-6.37a71.91,71.91,0,0,1-4.7,6.77c-4,5.08-9.45,11-16.13,11.32-.36,0-.5-.4-.38-.7A108.28,108.28,0,0,0,177,429l-.3.34c-2.53,2.76-5.63,5.76-9.44,6.12-.43,0-.52-.52-.31-.81,3.93-5.18,6.17-11.32,8.24-17.51a96.9,96.9,0,0,1-12.93,15.62c-5.55,5.4-11.77,10.24-18.9,13-.41.15-.67-.36-.51-.69a132.69,132.69,0,0,0,7.22-18A132.39,132.39,0,0,1,137,438.28c-7.1,5.2-15.43,9.92-24.35,9.4a.47.47,0,0,1-.31-.8c5.87-5.34,9.24-13.2,11.52-21a109.59,109.59,0,0,1-13.26,11.52c-6.83,5-14.87,9.67-23.44,9.55a.47.47,0,0,1-.38-.7c3.7-7.77,7.69-15.37,10.47-23.56-22.17,14.51-46.22,29.92-72.62,32.93,20,1.56,40.49-4.2,59.9-15.57l-.61.72c-.54.68-19.28,16.47-17.24,16.86,8.19,1.57,33-9.65,41.7-13.71-2.79,3.45-13.13,17.61-10.33,17.17,11.15-1.69,23.72-6.75,35.73-14.9-2.11,3.49-6,13.36-4.9,13.23,11.59-1.44,23.17-10.57,33.88-17.51-1.82,4.85-5.3,16.38-4.14,16.23,11.08-1.44,23-10.66,32.57-22.72,6.52,11.62,14.6,21.76,24.66,27.56,1.39.8,2.46-16.5,2.09-22.65,10.48,16.66,25.32,27.32,41.63,22.32,1.28-.4-4.82-17.9-7.81-24.62,2.93,2.91,5.89,5.78,9,8.49,16.5,7.43,33.51,10.72,50.18,8.84,2.08-.24-26.83-23.24-37.6-35.49-1.91-2.17-3.77-4.37-5.66-6.58a67.41,67.41,0,0,0,14.05,5.63C296.51,422.9,311.92,427.09,326.45,419.53Z"/><path class="cls-4" d="M183.85,32.34c-2.69-7.22-6-14.19-9.14-21.21C174,9.64,171.52,0,169.06,0c-5.07,0-9.23,7.36-10.82,11.72-4.66,12.78-9.14,25.36-15.49,37.19a2.67,2.67,0,0,0-1.32,1.3c-2.55,5.21-5.4,8.8-3.51,14.57.23.7,1.17.07,1.45-.17a34.43,34.43,0,0,0,5.93-6.79c1.44-2,12.58-18,13.42-11.46.54,4.24,4.8,11,9,5.49A17,17,0,0,0,170.87,45c2-8.06,5.27-1.9,7.16,2.31,1.41,3.13,6.11,10.06,9.47,4.65C190.74,46.77,185.64,37.13,183.85,32.34Z"/><g class="cls-5"><path class="cls-6" d="M179.11,35.78C177.22,31.57,174,25.4,172,33.47a17.27,17.27,0,0,1-3.15,6.82c-4.2,5.5-8.47-1.25-9-5.49-.84-6.52-12,9.45-13.42,11.46a34.71,34.71,0,0,1-5.92,6.79,3.16,3.16,0,0,1-.71.42c-1.9,3.64-3.3,6.82-1.83,11.31.23.7,1.17.07,1.45-.17a34.43,34.43,0,0,0,5.93-6.79c1.44-2,12.58-18,13.42-11.46.54,4.24,4.8,11,9,5.49A17,17,0,0,0,170.87,45c2-8.06,5.27-1.9,7.16,2.31,1.41,3.13,6.11,10.06,9.47,4.65,1.66-2.67,1.12-6.5,0-10.26C184.26,44.39,180.37,38.59,179.11,35.78Z"/></g><path class="cls-4" d="M177.3,115c-4,4.79-8,9-14.23,5-2.24-1.46-3.53-5-6.11-5.88-5.41-1.73-11,6.82-14.69,9.91-3.29,2.77-14.49,9.2-13.58-.8.33-3.71,1.24-7.29,1.37-11,.15-4-2.62-7.88-6.34-4.52-1.37,1.23-2.08,3.18-2.75,4.88-.11.27-.26.5-.38.77a1.08,1.08,0,0,0-.45.42,38,38,0,0,1-2.23,3.79c-3,3.54-7,6-10.47,9.22-.56.53-1.33,3-.57,3-5.69,4.92-12,9.22-17.61,13.39s-15.89,10.34-18,17.56,7.48,5.69,11,4.76c11.39-3,20.9-11.08,30.68-17.46,1.43-.94,10.53-4,10.45-3.87-.7,1.51-1.65,2.89-2.38,4.39-.63,1.31-1.71,3.21-1.52,4.8.69,5.81,14.19-3.59,15.51-4.52s13.39-10.85,12.25-5.43c-.2.94-1.07,3.75.19,4.51,5.49,3.29,11.61-4.45,15.36-8,4.52-4.23,9.44-11.86,16.23-6.79,2.89,2.16,5.28,4.08,8.94,3.84,3.28-.22,4.63-4.45,4.87-7.25C193.54,121.58,185.46,105.32,177.3,115Z"/><g class="cls-5"><path class="cls-6" d="M183.85,124.17c-6.79-5.08-11.71,2.55-16.23,6.79-3.75,3.51-9.87,11.25-15.36,8-1.26-.76-.39-3.57-.19-4.51,1.14-5.41-10.82,4.42-12.26,5.43s-14.81,10.33-15.5,4.53c-.19-1.6.89-3.5,1.52-4.81.73-1.5,1.68-2.88,2.38-4.39.08-.17-9,2.93-10.45,3.87-9.78,6.39-19.29,14.45-30.68,17.46-3.13.83-11,2-11.25-2.77a17.66,17.66,0,0,0-4.55,7c-2,7.08,7.48,5.69,11,4.76,11.39-3,20.9-11.08,30.68-17.46,1.43-.94,10.53-4,10.45-3.87-.7,1.51-1.65,2.89-2.38,4.39-.63,1.31-1.71,3.21-1.52,4.8.69,5.81,14.19-3.59,15.51-4.52s13.39-10.85,12.25-5.43c-.2.94-1.07,3.75.19,4.51,5.49,3.29,11.61-4.45,15.36-8,4.52-4.23,9.44-11.86,16.23-6.79,2.89,2.16,5.28,4.08,8.94,3.84,3.28-.22,4.63-4.45,4.87-7.25a14.34,14.34,0,0,0,0-1.74h-.07C189.13,128.25,186.74,126.32,183.85,124.17Z"/></g><path class="cls-4" d="M255.37,178.85c-9.21-3-18.7-4.6-27.75-8.23-3.09-1.24-8-3.78-11.29-2-5.48,3-3.58,9.64-2.41,14.69a46.65,46.65,0,0,1,1,5.65c.67,6.39-6.51,3.56-9.18,1.57-4.94-3.66-7.58-7.93-13.85-9a6,6,0,0,0-6.05,3.39,15.33,15.33,0,0,0-1.1,3.62c-.07.67-.11,1.35-.13,2,0,1-.05,15.24-7.14,6.31-3.29-4.13-10.06-17.89-15.53-8.65-3.94,6.64-10,21.53-19.68,17.13-4.86-2.2-.15-16-1.39-20.73-.2-.75-1.3-.14-1.59.14-5.74,5.51-9.08,12.49-12.6,19.47-6.9,7.62-14.43,14.77-19.13,24.19-4.81,9.62,5.39,10,11.51,7.28s11.57-7.55,16.72-11.84c2.34-2,4.65-4,7-6,3.83-3.24,3.53-3.08,4.3,2.08.63,4.18,2.85,12.08,8.57,10.38,5.17-1.54,7.78-6.29,10.5-10.82,5.29-8.84,9.81-5.62,13.92-.16a22.31,22.31,0,0,0,9.34,6.73c5.44,2.33,11,.8,15.09-3.26s3.73-9.88,4.11-15.29c.43-6,10.42,1.56,11.85,2.23,4.92,2.32,9.9,3,15.27,3.38,7,.43,25.07,4.69,29.19-3.83,2.57-5.3-3.66-9.76-10.23-13.43,7.19,2.62,14.69,5,18.79-1.15C279.21,186.11,260.13,180.4,255.37,178.85Z"/><path class="cls-7" d="M233.76,204.88c-5.36-.33-10.34-1.06-15.27-3.38-1.42-.67-11.42-8.23-11.85-2.23-.38,5.41,0,11.25-4.1,15.29s-9.66,5.59-15.1,3.26a22.22,22.22,0,0,1-9.33-6.73c-4.11-5.46-8.63-8.67-13.93.16-2.72,4.53-5.33,9.28-10.5,10.82-3.55,1.06-5.75-1.59-7.06-4.75.12.67.25,1.56.42,2.74.63,4.18,2.85,12.08,8.57,10.38,5.17-1.54,7.78-6.29,10.5-10.82,5.29-8.84,9.81-5.62,13.92-.16a22.31,22.31,0,0,0,9.34,6.73c5.44,2.33,11,.8,15.09-3.26s3.73-9.88,4.11-15.29c.43-6,10.42,1.56,11.85,2.23,4.92,2.32,9.9,3,15.27,3.38,7,.43,25.07,4.69,29.19-3.83,1.39-2.86.17-5.47-2.25-7.86C258,209.35,240.61,205.3,233.76,204.88Z"/><path class="cls-7" d="M140.81,209.61c-2.33,2-4.63,4-7,5.95-5.15,4.29-10.62,9.1-16.72,11.85-3,1.33-6.87,1.91-9.58,1.07h0c-4.81,9.62,5.39,10,11.51,7.28s11.57-7.55,16.72-11.84c2.34-2,4.65-4,7-6,2.11-1.78,2.95-2.49,3.43-1.94a27,27,0,0,1-1.06-4.35C144.35,206.54,144.64,206.38,140.81,209.61Z"/><path class="cls-7" d="M271.55,186.39s0,.06,0,.08c-4.1,6.2-11.59,3.77-18.79,1.15,5.49,3.07,10.67,6.69,10.75,10.89,4,.59,7.57,0,10-3.67C275.59,191.58,274.28,188.75,271.55,186.39Z"/><path class="cls-4" d="M146.62,217.32a2.85,2.85,0,0,0-.45-1.28C146.31,216.47,146.45,216.9,146.62,217.32Z"/><path class="cls-4" d="M262.63,201.56c.1-.17.23-.32.33-.51a5.36,5.36,0,0,0,.51-2.54,46.8,46.8,0,0,1-8.82-2.52A38.57,38.57,0,0,1,262.63,201.56Z"/><path class="cls-4" d="M190.42,315.06c-.61-5.32-3.87-8.95-9-5.9a40.07,40.07,0,0,0-9.12,7.65,57.33,57.33,0,0,1-9.06,8.5c-2.52,1.76-1.49-7.14-1.43-8.25,1.2-22.89-19.17-7.75-28.29-1.32-5.79,4.08-12.25,7.33-18.47,10.64-1.33.71-11.12,7-4.89-.79,1.38-1.73,2.85-3.35,4.22-5.08,2.45-3.11,5.88-9.67,2.41-13.4-6.1-6.55-18.76,7.9-23,11.63-3.18,2.82-11.3,13-16.33,8-4.29-4.28,2.67-12.31,3.81-16.52,1-3.74,5.27-15.78.73-18.18-6.52-3.46-12.63,14.3-15.61,17.49-6.89,7.35-14.19,14.25-21.45,21.23-4.63,4.44-14.43,11.38-15.27,18.49-.46,3.93,8.8-1.58,9.42-1.93,4.72-2.68,9-6.2,13.47-9.36,2.4-1.7,4.88-3.22,7.42-4.67,12.12-7-2.39,8.62-5.28,10.67-17,12.17-35.51,20.85-47.65,39.34C5,386.52,4.4,390.84,8.66,392c5.5,1.48,13.48-6.77,17.29-10,9.15-7.67,19.69-13.3,28.83-21l2-1.76a14.37,14.37,0,0,1,9.81-4.46,37.9,37.9,0,0,1-2.3,4.37c-1.61,2.83-3.26,5.62-4.7,8.56-7,14.18,14-.86,17.08-3.59,4.23-3.72,8.06-7.95,12.13-11.86A64.35,64.35,0,0,1,97,345.68c2.31-1.59,6.11-1.71,7.63-4.18-3.84,6.23-9.27,11.1-12.65,17.71-1.1,2.14-2,6.57,1.49,6.88,7.2.67,13.57-6,18.62-10.5,3.6-3.24,7-6.65,10.72-9.79-2.26,1.93-3.68,5.86-6.25,8.06-1.69,1.44-3.48,2.75-5.22,4.11-5.77,4.5-10.76,9.33-13.08,16.63-.12.41-.25,1.56.46,1.53,7.61-.33,13.79-5.47,19.56-10.24,10.05-8.29,20.16-16.66,29.87-25.41a99.26,99.26,0,0,0-5.86,9c-1.27,2.29-3.78,7.34-.19,8.7,4.94,1.86,11.9-3.67,15.23-6.83a54.25,54.25,0,0,0,6.48-8.11c1.37-1.94,2.68-4,4-5.91s8.26-7.85,8.45-9.63c-.76,6.95-2,14-.22,20.85,1,3.88,5.65,7.54,9.1,4.14C193.79,344.2,191.71,326.22,190.42,315.06Z"/><path class="cls-7" d="M103.72,334.36a64.43,64.43,0,0,0-8.15,6.6c-4.07,3.9-7.9,8.13-12.13,11.86-3.1,2.72-24.07,17.77-17.08,3.58,1.45-2.94,3.09-5.73,4.7-8.56a35.53,35.53,0,0,0,2.3-4.36,14.29,14.29,0,0,0-9.8,4.46l-2.06,1.75c-9.14,7.73-19.68,13.36-28.83,21-3.81,3.19-11.79,11.44-17.29,10a3.89,3.89,0,0,1-3.16-4.23,68.53,68.53,0,0,0-5.12,6.82C5,386.52,4.4,390.84,8.66,392c5.5,1.48,13.48-6.77,17.29-10,9.15-7.67,19.69-13.3,28.83-21l2-1.76a14.37,14.37,0,0,1,9.81-4.46,37.9,37.9,0,0,1-2.3,4.37c-1.61,2.83-3.26,5.62-4.7,8.56-7,14.18,14-.86,17.08-3.59,4.23-3.72,8.06-7.95,12.13-11.86A64.35,64.35,0,0,1,97,345.68a18.93,18.93,0,0,1,4.14-1.78c3.22-4.72,7.19-8.81,10.21-13.71C109.83,332.66,106,332.77,103.72,334.36Z"/><path class="cls-7" d="M118.06,346.65c1.74-1.36,3.54-2.67,5.22-4.11,2.58-2.2,4-6.13,6.25-8.06-3.67,3.14-7.12,6.55-10.72,9.79-5,4.53-11.42,11.17-18.62,10.51-2.3-.21-2.68-2.22-2.36-4.17a51.68,51.68,0,0,0-5.85,8.6c-1.1,2.14-2,6.57,1.49,6.88,4.47.42,8.61-2,12.32-4.95C108.35,355,112.88,350.7,118.06,346.65Z"/><path class="cls-4" d="M66.75,321.93a87.13,87.13,0,0,0-7.42,4.68c-4.43,3.15-8.75,6.67-13.47,9.35-.59.34-8.86,5.26-9.4,2.5-3.35,3.31-6.29,7-6.74,10.75-.46,3.93,8.8-1.58,9.42-1.93,4.72-2.68,9-6.2,13.47-9.36,2.4-1.7,4.88-3.22,7.42-4.67.74-.43,1.38-.77,1.94-1C65.67,329.13,78.31,315.29,66.75,321.93Z"/><path class="cls-4" d="M75.21,295a34.54,34.54,0,0,0-2.54,3.69l.49-.49A17.92,17.92,0,0,0,75.21,295Z"/><path class="cls-4" d="M116.06,318a16.77,16.77,0,0,0,2-5.14c-.39.47-.79.93-1.17,1.41C114,317.84,114.55,318.44,116.06,318Z"/><path class="cls-7" d="M154.87,329.16c-9.71,8.75-19.82,17.12-29.87,25.42-5.77,4.76-12,9.9-19.56,10.23-.53,0-.59-.62-.54-1.11a28,28,0,0,0-6.64,10.9c-.12.41-.25,1.56.46,1.53,7.61-.33,13.79-5.47,19.56-10.24,9.92-8.19,19.89-16.45,29.47-25.07a27,27,0,0,1,1.26-2.61A100.66,100.66,0,0,1,154.87,329.16Z"/><path class="cls-7" d="M182.79,337.28c-1.74-6.89-.54-13.9.23-20.84-.2,1.77-7.18,7.77-8.46,9.63s-2.66,4-4,5.9a53.74,53.74,0,0,1-6.48,8.11c-3.33,3.16-10.29,8.69-15.23,6.83-2.33-.88-2.08-3.32-1.27-5.56a91.8,91.8,0,0,0-5.26,8.18c-1.27,2.29-3.78,7.34-.19,8.7,4.94,1.86,11.9-3.67,15.23-6.83a54.25,54.25,0,0,0,6.48-8.11c1.37-1.94,2.68-4,4-5.91s8.26-7.85,8.45-9.63c-.76,6.95-2,14-.22,20.85,1,3.88,5.65,7.54,9.1,4.14a21,21,0,0,0,5.31-10.34C187.28,343.85,183.63,340.65,182.79,337.28Z"/><path class="cls-4" d="M101.14,343.9a38.29,38.29,0,0,0-2.44,4,9.55,9.55,0,0,0-.87,2.72,93.75,93.75,0,0,0,6.8-9.11A6.46,6.46,0,0,1,101.14,343.9Z"/><path class="cls-4" d="M147.75,340.82c-.07.17-.13.35-.2.53.2-.29.39-.58.6-.87Z"/><path class="cls-4" d="M111.34,358c1.74-1.36,3.53-2.67,5.22-4.11,2.57-2.2,4-6.13,6.25-8.06-3.68,3.14-7.12,6.55-10.72,9.79-1.91,1.72-4,3.74-6.3,5.55-.29.7-.57,1.4-.8,2.14a1.9,1.9,0,0,0-.09.42A59.24,59.24,0,0,1,111.34,358Z"/></g></g></g></svg>